<?xml version="1.0" encoding="utf-8"?>
<!-- Generator: Adobe Illustrator 19.0.0, SVG Export Plug-In . SVG Version: 6.00 Build 0)  -->
<svg version="1.1" id="圖層_1" xmlns="http://www.w3.org/2000/svg" xmlns:xlink="http://www.w3.org/1999/xlink" x="0px" y="0px"
	 viewBox="-112.7 -35.4 272.1 85" style="enable-background:new -112.7 -35.4 272.1 85;" xml:space="preserve">
<style type="text/css">
	.st0{fill:url(#XMLID_94_);}
	.st1{fill:#000038;}
	.st2{fill:#FFFFFF;}
	.st3{fill:none;stroke:#FFFFFF;stroke-width:5;stroke-miterlimit:10;}
	.st4{fill:#545BAE;}
	.st5{fill:#FFAE11;}
	.st6{fill:#23B746;}
	.st7{fill:#FF84B2;}
	.st8{fill:#1FB746;}
	.st9{filter:url(#Adobe_OpacityMaskFilter);}
	.st10{mask:url(#mask-9_2_);fill:#FFFFFF;}
</style>
<g id="XMLID_1_">
</g>
<g id="XMLID_124_">
</g>
<g id="XMLID_125_">
</g>
<g id="XMLID_126_">
</g>
<g id="XMLID_127_">
</g>
<g id="XMLID_128_">
</g>
<radialGradient id="XMLID_94_" cx="23.4222" cy="26.8896" r="100.9042" gradientTransform="matrix(0.9998 0 0 -0.9905 -2.640000e-002 33.8007)" gradientUnits="userSpaceOnUse">
	<stop  offset="0.2193" style="stop-color:#E4BFFF;stop-opacity:0"/>
	<stop  offset="1" style="stop-color:#FF15F3"/>
</radialGradient>
<path id="XMLID_63_" class="st0" d="M148.1,49.7h-249.5c-6.3,0-11.3-5.1-11.3-11.3V-24c0-6.3,5.1-11.3,11.3-11.3h249.5
	c6.3,0,11.3,5.1,11.3,11.3v62.4C159.5,44.6,154.4,49.7,148.1,49.7z"/>
<path id="XMLID_62_" class="st1" d="M143.2,44.6H-96.4c-5.7,0-10.4-4.7-10.4-10.4v-54.2c0-5.7,4.7-10.4,10.4-10.4h239.6
	c5.7,0,10.4,4.7,10.4,10.4v54.2C153.6,40,148.9,44.6,143.2,44.6z"/>
<g id="XMLID_4_">
	<path id="XMLID_51_" class="st2" d="M17.2-13.8v2.2h1.5c0.8,0,1.4,0.2,1.8,0.7c0.4,0.4,0.5,1,0.5,1.7v6.4c0,0.4-0.2,0.8-0.5,1.1
		s-0.8,0.5-1.1,0.5h-2.2v2.3h4v2h-4v4.6h-2.5V3.1h-4.1v-2h4.1v-2.3h-1.9c-0.5,0-1-0.2-1.3-0.6c-0.4-0.4-0.6-0.9-0.6-1.4v-6.6
		c0-0.6,0.3-1.1,0.8-1.5c0.4-0.3,0.9-0.4,1.4-0.4h1.6v-2.2h-4.2v-1.9h4.2v-2.8h2.5v2.8h4.2v1.9H17.2z M14.7-9.7h-0.8
		c-0.4,0-0.6,0.2-0.6,0.6v1.7h1.4V-9.7z M14.7-5.5h-1.4v1.8c0,0.4,0.3,0.6,0.6,0.6h0.8V-5.5z M18.7-9c0-0.3-0.2-0.6-0.6-0.6h-0.9
		v2.3h1.5V-9z M18.7-5.5h-1.5v2.3h1c0.3,0,0.5-0.2,0.5-0.5V-5.5z M34-1.7c-0.2-0.3-0.5-0.8-0.6-1c-3.8,0.4-8,0.8-11.5,0.9v-2.1
		c1,0,4.1-0.1,5.8-0.2V-6h-3.6c-0.5,0-1-0.2-1.3-0.5c-0.4-0.4-0.6-0.9-0.6-1.4v-3.9c0-0.6,0.3-1.1,0.7-1.4c0.4-0.3,0.9-0.5,1.4-0.5
		h3.5V-15h-5.4v-1.9h5.4v-1.6h2.5v1.6h6.3v1.9h-6.3v1.3h3.4c0.7,0,1.3,0.2,1.7,0.7c0.3,0.4,0.5,1,0.5,1.6v3.2c0,0.6-0.2,1.2-0.6,1.6
		C34.7-6.3,34.2-6,33.5-6h-3.4v1.6c0.5,0,1.9-0.1,2.3-0.2c-0.1-0.2-0.2-0.5-0.2-0.7h2.5c0.5,1.2,1.2,2.4,1.9,3.6H34z M34,1.6v3.9
		c0,0.5-0.3,1.1-0.7,1.5c-0.4,0.4-0.9,0.6-1.5,0.6h-2.2l-1.1-2h2c0.4,0,0.7-0.2,0.7-0.7V1.6h-9.4v-2h9.4v-1H34v1h2.7v2H34z
		 M25.3,5.2c-0.9-0.8-1.7-1.9-2.4-2.9h3.2c0.7,1,1.6,2,2.6,2.9H25.3z M27.7-11.9h-2.4c-0.3,0-0.7,0.3-0.7,0.7v0.5h3V-11.9z M27.7-9
		h-3v0.5c0,0.3,0.3,0.6,0.6,0.6h2.5V-9z M33.2-11.4c0-0.3-0.1-0.5-0.4-0.5h-2.6v1.1h3V-11.4z M33.2-9h-3v1.1h2.5
		c0.3,0,0.5-0.2,0.5-0.6V-9z"/>
	<path id="XMLID_66_" class="st2" d="M44.2,7.1h-4.1c2.6-2.1,4.8-4.9,6.5-7.6h3.3C48.4,2.2,46.6,4.8,44.2,7.1z M55-11.3v19h-2.8v-19
		H40.9v-2.1h11.3v-2.1c-3.1,0-7.3,0.1-9.6,0.1v-2.1c5.1,0,15.7-0.2,22-1v2.2c-2.5,0.2-6.8,0.5-9.6,0.7v2.2h11.3v2.1H55z M47.2-1.5
		v-1.6c-2,0.3-4.3,0.7-6.3,0.9v-2.1c2.2-0.2,4.2-0.5,6.3-0.9V-7h-5.5v-2.1h5.5v-1.5h2.6v9H47.2z M63.1,7.1c-2.2-2.3-4.2-5-5.9-7.6
		h3.3c1.8,2.7,4.1,5.4,6.7,7.6H63.1z M65.8-2h-6.2c-0.6,0-1.1-0.3-1.5-0.7c-0.4-0.4-0.7-1-0.7-1.6v-6.4h2.6v2.4
		c2-0.3,4.1-0.9,5.8-1.5v2.3c-2.1,0.6-4.3,1.2-5.8,1.4v1.2c0,0.6,0.4,0.8,0.8,0.8h6L65.8-2z"/>
	<path id="XMLID_72_" class="st2" d="M75.4-10V7.8h-2.6V-5.3h-2.2c2.1-4,3.3-8.4,3.8-13.1H77C76.9-16.1,76.1-12.7,75.4-10z
		 M89.9,7.7c-1.1-0.4-2.4-1-3.5-1.6c-0.8,0.4-2.5,1.2-3.3,1.6h-6.5c2.5-0.9,5.3-1.9,7.3-2.9c-0.6-0.4-1.8-1.2-2.4-1.8
		c-0.3,0.3-0.8,0.7-1,0.9h-3.9c2-1.4,4-3,5.6-4.9h3.1c-0.1,0.2-0.3,0.5-0.5,0.7h6.7c0.7,0,1.2,0.4,1.4,0.9C93.2,1,93.1,1.6,92.7,2
		c-1,1-2.4,1.9-3.7,2.7c2.6,1.1,5.9,2.3,8.2,3H89.9z M94-4.1v-1.6c0-0.3-0.2-0.5-0.5-0.5H80c-0.5,0-0.7,0.4-0.7,0.8V-4h-2.6v-1.3
		c0-1,0.3-1.6,0.8-2c0.5-0.4,1-0.5,1.7-0.5v-4.9c0-0.9,0.3-1.5,0.8-1.9c0.5-0.4,1.1-0.6,1.9-0.6h2.6c0.1-0.3,0.4-0.9,0.4-1.2h-7.4
		v-1.7h18.2v1.7h-8.2c-0.1,0.4-0.3,0.9-0.4,1.2h4.3c0.8,0,1.3,0.3,1.7,0.7c0.4,0.5,0.6,1.1,0.6,1.8V-8c0.8,0,1.5,0.2,2,0.7
		c0.4,0.4,0.6,1,0.6,1.9v1.3H94z M80.8-1.3H78c1-1.2,1.8-2.5,2.2-3.8h2.6C82.2-3.4,81.4-2,80.8-1.3z M91.3-13c0-0.3-0.2-0.6-0.5-0.6
		h-8.2c-0.3,0-0.5,0.3-0.5,0.6v0.2h9.2V-13z M91.3-11.3H82v0.9h9.2V-11.3z M91.3-8.9H82v1h9.2V-8.9z M83.3,1.4
		c-0.1,0.1-0.5,0.5-0.8,0.7h1.8C85,2.6,86,3.2,86.5,3.5c1.1-0.7,2.2-1.3,3.2-2.1H83.3z M90.1-1.5h-5c-0.5,0-0.9-0.2-1.3-0.5
		c-0.3-0.4-0.5-0.8-0.5-1.4v-2.1h2.5v1.6c0,0.4,0.3,0.8,0.7,0.8h4.3L90.1-1.5z M87.1-3.8c-0.3-0.6-0.6-1.4-0.8-1.9H89
		c0.1,0.5,0.4,1.3,0.8,1.9H87.1z M92.5-1.3c-1-1.2-1.7-2.5-2.2-4h2.6c0.5,1.4,1.6,2.7,2.7,4H92.5z"/>
	<path id="XMLID_84_" class="st2" d="M103.7,7.3h-3.2c1.4-2,2.3-4.2,3-6.5h2.8C105.7,3.1,104.9,5.3,103.7,7.3z M123.4,0
		c-0.2-0.3-0.5-0.7-0.7-1.1c-6.5,0.4-14.8,0.7-22.1,0.6v-2.2c3.6,0.2,7.8,0.1,11.6,0v-2.1h-7.8c-0.7,0-1.3-0.3-1.7-0.8
		c-0.4-0.5-0.5-1.1-0.5-1.8v-3.5c0-0.7,0.2-1.3,0.6-1.8c0.5-0.5,1.1-0.8,1.9-0.8h7.5V-15h-11v-1.9h11v-1.7h2.7v1.8h11.1v1.9h-11.1
		v1.5h7.7c0.7,0,1.3,0.3,1.8,0.8c0.4,0.4,0.7,1,0.7,1.6v3.5c0,0.8-0.3,1.4-0.7,1.9c-0.5,0.5-1.1,0.8-1.9,0.8h-7.6v2
		c2.2-0.1,4.7-0.2,6.8-0.4c-0.1-0.3-0.3-0.7-0.4-1.1h3c0.6,1.4,1.4,2.9,2.4,4.2H123.4z M112.2-11.4h-6.6c-0.4,0-0.8,0.3-0.8,0.8v0.7
		h7.3V-11.4z M112.2-8.2h-7.3v0.6c0,0.4,0.2,0.8,0.7,0.8h6.7V-8.2z M120.4,7.6h-10.7c-0.5,0-1-0.2-1.3-0.5c-0.5-0.5-0.8-1.1-0.8-1.7
		v-5h2.8v4.3c0,0.7,0.5,1,1,1h10.1L120.4,7.6z M115,4.2c-0.7-1.3-1.3-2.7-1.7-4.2h2.8c0.5,1.5,1.1,2.9,1.9,4.2H115z M122.3-10.6
		c0-0.5-0.4-0.8-0.9-0.8h-6.6v1.4h7.4V-10.6z M122.3-8.2h-7.4v1.4h6.8c0.4,0,0.7-0.5,0.7-0.8V-8.2z M123.6,7.3
		c-1.3-2-2.3-4.2-2.9-6.5h2.8c0.7,2.3,1.8,4.5,3.3,6.5H123.6z"/>
</g>
<g id="XMLID_3_">
	<path id="XMLID_5_" class="st2" d="M3.4,33.7c-0.6,0.5-1.4,0.6-2.2,0.6h-3.7c-0.4,0-0.8-0.2-1-0.4c-0.2-0.3-0.4-0.6-0.4-0.9v-8.7
		c0-0.4,0.2-0.8,0.4-1c0.3-0.2,0.6-0.4,1-0.4h3.9c0.9,0,1.7,0.5,2.2,1.3c0.4,0.7,0.5,1.8,0.3,2.6c-0.2,0.8-0.6,1.2-1.3,1.6
		c0.7,0.1,1.2,0.6,1.6,1.2c0.4,0.7,0.4,1.5,0.3,2.2C4.3,32.5,4,33.2,3.4,33.7z M1.2,24H-2c-0.3,0-0.5,0.2-0.5,0.4v3.5H1
		c0.5,0,1.1-0.3,1.4-0.8c0.4-0.6,0.4-1.5,0.1-2.2C2.3,24.4,1.7,24,1.2,24z M2.5,29.4c-0.4-0.4-1-0.5-1.5-0.5h-3.5v3.8
		c0,0.2,0.2,0.4,0.4,0.4h3c0.6,0,1.3-0.1,1.7-0.6c0.3-0.4,0.5-1.1,0.4-1.5C3.1,30.5,2.9,29.8,2.5,29.4z"/>
	<path id="XMLID_9_" class="st2" d="M11.4,34.3v-1.1c-0.5,0.6-1.2,1.1-2,1.2c-0.8,0.1-1.7,0-2.4-0.5C6.4,33.4,6,32.6,6,31.7V26h1.5
		v5.9c0,0.5,0.3,1,0.7,1.3c0.4,0.3,0.9,0.3,1.4,0.1c0.8-0.2,1.6-0.9,1.9-1.6V26h1.5l0,8.3H11.4z"/>
	<path id="XMLID_11_" class="st2" d="M20.6,33.6c-0.7,0.7-1.7,0.8-2.6,0.9c-0.8,0-1.7-0.1-2.4-0.7c-0.7-0.5-1.1-1.4-1.3-2.2h1.5
		c0.1,0.5,0.3,1.1,0.7,1.4c0.4,0.3,1.1,0.4,1.6,0.4c0.5,0,1.1-0.2,1.5-0.5c0.2-0.2,0.3-0.6,0.3-0.9c0-0.4-0.3-0.6-0.6-0.8
		c-0.5-0.3-1.9-0.7-2.7-0.9c-0.5-0.1-1.3-0.5-1.6-1.1c-0.3-0.5-0.4-1.3-0.1-1.9c0.3-0.6,0.9-1.1,1.5-1.3c1-0.3,2.3-0.3,3.3,0.2
		c0.8,0.4,1.2,1.2,1.5,2.1h-1.6c-0.1-0.5-0.4-1-0.9-1.2c-0.6-0.2-1.6-0.2-2.2,0.2c-0.3,0.2-0.5,0.7-0.4,1c0.1,0.3,0.6,0.6,0.9,0.6
		c1,0.3,2.4,0.7,3.2,1.1c0.7,0.3,1.1,1,1.2,1.8C21.4,32.5,21.1,33.1,20.6,33.6z"/>
	<path id="XMLID_13_" class="st2" d="M22.4,27.9h4.3v1.4h-4.3V27.9z"/>
	<path id="XMLID_16_" class="st2" d="M35.3,33.7c-0.6,0.5-1.4,0.6-2.2,0.6h-3.7c-0.4,0-0.8-0.2-1-0.4c-0.2-0.3-0.4-0.6-0.4-0.9v-8.7
		c0-0.4,0.2-0.8,0.4-1c0.3-0.2,0.6-0.4,1-0.4h3.9c0.9,0,1.7,0.5,2.2,1.3c0.4,0.7,0.5,1.8,0.3,2.6c-0.2,0.8-0.6,1.2-1.3,1.6
		c0.7,0.1,1.2,0.6,1.6,1.2c0.4,0.7,0.4,1.5,0.3,2.2C36.2,32.5,35.9,33.2,35.3,33.7z M33.1,24h-3.2c-0.3,0-0.5,0.2-0.5,0.4v3.5h3.5
		c0.5,0,1.1-0.3,1.4-0.8c0.4-0.6,0.4-1.5,0.1-2.2C34.2,24.4,33.6,24,33.1,24z M34.4,29.4c-0.4-0.4-1-0.5-1.5-0.5h-3.5v3.8
		c0,0.2,0.2,0.4,0.4,0.4h3c0.6,0,1.3-0.1,1.7-0.6c0.3-0.4,0.5-1.1,0.4-1.5C35,30.5,34.8,29.8,34.4,29.4z"/>
	<path id="XMLID_21_" class="st2" d="M43.3,34.3v-1.1c-0.5,0.6-1.2,1.1-2,1.2c-0.8,0.1-1.7,0-2.4-0.5c-0.7-0.5-1.1-1.3-1.1-2.3V26
		h1.5v5.9c0,0.5,0.3,1,0.7,1.3c0.4,0.3,0.9,0.3,1.4,0.1c0.8-0.2,1.6-0.9,1.9-1.6V26h1.5l0,8.3H43.3z"/>
	<path id="XMLID_23_" class="st2" d="M52.5,33.6c-0.7,0.7-1.7,0.8-2.6,0.9c-0.8,0-1.7-0.1-2.4-0.7c-0.7-0.5-1.1-1.4-1.3-2.2h1.5
		c0.1,0.5,0.3,1.1,0.7,1.4c0.4,0.3,1.1,0.4,1.6,0.4c0.5,0,1.1-0.2,1.5-0.5c0.2-0.2,0.3-0.6,0.3-0.9c0-0.4-0.3-0.6-0.6-0.8
		c-0.5-0.3-1.9-0.7-2.7-0.9c-0.5-0.1-1.3-0.5-1.6-1.1c-0.3-0.5-0.4-1.3-0.1-1.9c0.3-0.6,0.9-1.1,1.5-1.3c1-0.3,2.3-0.3,3.3,0.2
		c0.8,0.4,1.2,1.2,1.5,2.1h-1.6c-0.1-0.5-0.4-1-0.9-1.2c-0.6-0.2-1.6-0.2-2.2,0.2c-0.3,0.2-0.5,0.7-0.4,1c0.1,0.3,0.6,0.6,0.9,0.6
		c1,0.3,2.4,0.7,3.2,1.1c0.7,0.3,1.1,1,1.2,1.8C53.3,32.5,53,33.1,52.5,33.6z"/>
	<path id="XMLID_25_" class="st2" d="M59.7,34.3V22.9h1.5v11.4H59.7z"/>
	<path id="XMLID_27_" class="st2" d="M68.8,34.3v-5.4c0-0.8-0.2-1.6-1-1.9c-0.6-0.2-1.4-0.1-2,0.2c-0.7,0.4-1,1.1-1,1.9v5.1h-1.4V26
		h1.2v0.9c0.4-0.5,1-0.9,1.8-1c0.9-0.2,2,0,2.7,0.5c0.8,0.6,1,1.3,1,2.2v5.6H68.8z"/>
	<path id="XMLID_29_" class="st2" d="M75,34.3h-1.3c-0.4,0-0.8-0.1-1-0.3c-0.2-0.2-0.4-0.6-0.4-1v-5.8h-1.2V26h1.2v-3.1h1.4V26h1.6
		v1.1h-1.6v5.7c0,0.3,0.3,0.4,0.5,0.4h1.4L75,34.3z"/>
	<path id="XMLID_31_" class="st2" d="M82.6,34c-0.7,0.4-1.8,0.6-2.7,0.5c-1-0.1-1.9-0.5-2.5-1.4c-0.6-0.8-0.9-1.9-0.9-3
		c0-0.9,0.2-1.8,0.6-2.5c0.7-1.2,1.9-1.7,3.2-1.7c1.2,0,2.1,0.3,2.8,1.1c0.6,0.7,0.9,1.8,0.9,2.7c0,0.5-0.4,0.8-0.9,0.8h-5.1
		c0.1,1,0.4,1.9,1.1,2.5c0.4,0.4,1,0.5,1.6,0.4c0.5,0,0.9-0.2,1.2-0.5s0.5-0.8,0.6-1.2h1.6C83.9,32.4,83.4,33.5,82.6,34z M81.7,27.3
		c-0.6-0.4-1.6-0.4-2.3-0.2c-0.9,0.3-1.4,1.3-1.4,2.2h4.3c0.2,0,0.3-0.2,0.3-0.4C82.5,28.4,82.2,27.7,81.7,27.3z"/>
	<path id="XMLID_34_" class="st2" d="M88.6,27.3c-0.4-0.1-0.8,0.1-1.1,0.4c-0.4,0.5-0.6,1.1-0.8,1.7v4.9h-1.4V26h1.4v1
		c0.3-0.4,0.9-1,1.5-1.1c0.6-0.1,1.3,0.1,1.8,0.4V28C89.7,27.7,89.1,27.3,88.6,27.3z"/>
	<path id="XMLID_36_" class="st2" d="M97,33.5c-0.6,0.6-1.5,0.9-2.3,0.9c-0.9,0-1.8-0.2-2.5-0.8c-1.5-1.3-1.6-4-1-5.6
		c0.3-0.8,1.1-1.5,1.9-1.9c1-0.5,2.3-0.4,3.2,0.1c0.7,0.4,1.6,1.4,1.7,2.2h-1.6c-0.2-0.6-0.8-1.3-1.4-1.5c-0.9-0.2-1.7,0.2-2.3,1
		c-0.8,1.2-0.7,3-0.1,4.2c0.3,0.6,0.8,1,1.4,1.1c0.6,0.2,1.3,0,1.7-0.4c0.4-0.4,0.7-1.1,0.8-1.7h1.5C97.9,32.1,97.6,32.9,97,33.5z"
		/>
	<path id="XMLID_38_" class="st2" d="M105.1,34.3v-5.5c0-0.7-0.3-1.2-0.8-1.5c-0.5-0.4-1.2-0.3-1.8-0.2c-0.8,0.2-1.5,0.8-1.8,1.6
		v5.7h-1.4V22.9h1.4V27c0.6-0.6,1.4-1,2.3-1.1c0.9-0.1,1.9,0.1,2.6,0.7c0.6,0.5,0.9,1.3,0.9,2v5.7H105.1z"/>
	<path id="XMLID_40_" class="st2" d="M114.1,34.3c-0.1-0.4-0.3-0.8-0.3-1.1c-0.7,0.7-1.6,1.1-2.6,1.2c-0.7,0.1-1.5,0-2-0.3
		c-0.5-0.3-0.9-0.7-1.1-1.3c-0.2-0.6-0.2-1.3,0-1.8c0.3-0.7,0.8-1.1,1.5-1.3c0.6-0.2,1.4-0.3,2.1-0.4c0.8-0.1,1.6-0.4,2-0.8
		c0-0.3,0-0.8-0.3-1.1c-0.3-0.3-0.7-0.5-1.2-0.5c-0.6-0.1-1.3,0-1.8,0.2c-0.5,0.2-0.8,0.7-1,1.2h-1.5c0.1-0.9,0.8-1.7,1.7-2.1
		c0.7-0.3,1.8-0.5,2.5-0.5c0.8,0,1.7,0.3,2.3,0.9c0.5,0.5,0.7,1.2,0.6,2c0,1,0,2.4,0,3.2c0,0.8,0.3,1.8,0.6,2.4H114.1z M113.7,29.9
		c-0.6,0.3-1.2,0.5-1.8,0.6c-0.6,0-1.1,0.1-1.5,0.3c-0.4,0.1-0.6,0.3-0.8,0.7c-0.1,0.3-0.2,0.7,0,1.1c0.1,0.4,0.4,0.6,0.8,0.7
		c0.3,0.1,0.7,0.1,1,0c1-0.2,1.8-0.7,2.4-1.5C113.7,31.2,113.7,30.4,113.7,29.9z"/>
	<path id="XMLID_43_" class="st2" d="M122.3,34.3v-5.4c0-0.8-0.2-1.6-1-1.9c-0.6-0.2-1.4-0.1-2,0.2c-0.7,0.4-1,1.1-1,1.9v5.1H117V26
		h1.2v0.9c0.4-0.5,1-0.9,1.8-1c0.9-0.2,2,0,2.7,0.5c0.8,0.6,1,1.3,1,2.2v5.6H122.3z"/>
	<path id="XMLID_45_" class="st2" d="M131.6,36.5c-0.6,0.7-1.5,1-2.4,1.1c-0.8,0.1-1.9,0-2.6-0.4c-0.8-0.4-1.2-1.3-1.3-2.1h1.4
		c0,0.6,0.4,1.2,0.9,1.3c0.6,0.1,1.2,0.2,1.7,0.1c0.5-0.1,1.1-0.4,1.4-1c0.3-0.7,0.3-1.4,0.3-2.2c-0.5,0.5-1.1,0.8-1.8,1
		c-0.9,0.2-1.8,0-2.6-0.5c-0.6-0.4-1.1-1.1-1.3-1.8c-0.3-1-0.4-2.1-0.2-3.2c0.2-0.8,0.6-1.6,1.2-2.2c0.6-0.5,1.5-0.8,2.3-0.8
		c0.9,0,1.7,0.5,2.3,1.2v-1h1.4v8C132.4,35,132.2,35.9,131.6,36.5z M130.5,28c-0.4-0.6-1.1-0.9-1.8-0.9c-0.8,0-1.4,0.4-1.8,1.1
		c-0.5,0.9-0.5,2.8-0.1,3.7c0.3,0.8,1,1.3,1.8,1.3c0.9,0,1.6-0.4,2-1.2C131.2,31,131.2,28.9,130.5,28z"/>
	<path id="XMLID_48_" class="st2" d="M139.9,34c-0.7,0.4-1.8,0.6-2.7,0.5c-1-0.1-1.9-0.5-2.5-1.4c-0.6-0.8-0.9-1.9-0.9-3
		c0-0.9,0.2-1.8,0.6-2.5c0.7-1.2,1.9-1.7,3.2-1.7c1.2,0,2.1,0.3,2.8,1.1c0.6,0.7,0.9,1.8,0.9,2.7c0,0.5-0.4,0.8-0.9,0.8h-5.1
		c0.1,1,0.4,1.9,1.1,2.5c0.4,0.4,1,0.5,1.6,0.4c0.5,0,0.9-0.2,1.2-0.5s0.5-0.8,0.6-1.2h1.6C141.2,32.4,140.7,33.5,139.9,34z
		 M139.1,27.3c-0.6-0.4-1.6-0.4-2.3-0.2c-0.9,0.3-1.4,1.3-1.4,2.2h4.3c0.2,0,0.3-0.2,0.3-0.4C139.9,28.4,139.6,27.7,139.1,27.3z"/>
</g>
<polygon id="XMLID_628_" class="st2" points="-41.6,-16.6 -48.6,-23.7 -51.5,-15.1 "/>
<polygon id="XMLID_646_" class="st2" points="-73.4,27.6 -66.3,34.8 -63.4,26.2 "/>
<g id="XMLID_145_">
	<path id="XMLID_151_" class="st2" d="M-76.7,22.9c0,3.4-0.1,6.7,0,10.1c0,1.2-0.7,2.3-0.7,3.5c0,0.5-0.6,0.8-1.2,0.8
		c-0.6-0.1-0.9-0.5-1-1c-0.1-0.5,0.2-1.1-0.2-1.4c-0.5-0.4-1.1-0.1-1.7-0.1c-3.6,0-7.1,0-10.7,0c-0.7,0-1,0.2-0.9,0.9
		c0,0.1,0,0.3,0,0.4c0,0.7-0.3,1.3-1.1,1.3c-0.8,0-1-0.5-1.1-1.2c-0.9-4-0.5-8.1-0.6-12.2c0-5,0-10.1,0.5-15.1
		c0.3-3,0.4-3.2,3.3-3.5c4.1-0.5,8.2-0.5,12.3,0.1c1.9,0.3,2,0.4,2.3,2.3c0.6,3.4,0.7,6.8,0.7,10.3C-76.6,19.5-76.6,21.2-76.7,22.9
		C-76.7,22.9-76.7,22.9-76.7,22.9z"/>
	<path id="XMLID_150_" d="M-86.2,21.2c2.2,0,4.3,0,6.5,0c0.8,0,1.2,0.3,1.1,1.1c0,0.4,0,0.8,0,1.3c0,3.8-1.7,5.9-5.4,6.7
		c-3.1,0.6-6.1,0.3-8.5-2.1c-1-1-1.5-2.2-1.5-3.7c0-0.7,0-1.4,0-2c-0.1-0.9,0.4-1.3,1.2-1.3C-90.5,21.2-88.3,21.2-86.2,21.2z"/>
	<path id="XMLID_149_" d="M-86.1,13.2c-1.8,0-3.6,0-5.4,0c-1.6,0-2.2-0.6-2.2-2.1c0-0.4,0-0.7,0-1.1c0-1.8,0.4-2.4,2.3-2.7
		c2.6-0.5,5.3-0.5,7.9-0.3c1.2,0.1,2.5,0.1,3.6,0.5c0.9,0.3,1.4,0.8,1.4,1.8c0,0.7,0,1.4,0,2c0,1.3-0.6,1.8-1.9,1.9
		C-82.3,13.2-84.2,13.2-86.1,13.2z"/>
	<path id="XMLID_148_" d="M-86.3,15.7c1.6,0,3.2,0,4.8,0c1.1,0,1.4,0.3,1.4,1.4c0,1.1-0.3,1.5-1.4,1.5c-3.2,0-6.4,0-9.6,0
		c-1.1,0-1.4-0.4-1.4-1.5c0-1.1,0.4-1.4,1.5-1.4C-89.5,15.7-87.9,15.7-86.3,15.7z"/>
	<path id="XMLID_147_" d="M-94.4,32.4c0-0.6,0.3-1.1,1-1.1c0.7,0,1,0.4,1,1c0,0.6-0.4,1-0.9,1C-93.9,33.4-94.3,33-94.4,32.4z"/>
	<path id="XMLID_146_" d="M-78.1,32.3c0,0.7-0.4,1.1-1,1.1c-0.6,0-1-0.4-1-1c0-0.6,0.3-1.1,1-1.1C-78.5,31.3-78.2,31.7-78.1,32.3z"
		/>
</g>
<g id="XMLID_161_">
	<path id="XMLID_678_" class="st2" d="M-17.2-9.6c0,3.4-0.1,6.7,0,10.1c0,1.2-0.7,2.3-0.7,3.5c0,0.5-0.6,0.8-1.2,0.8
		c-0.6-0.1-0.9-0.5-1-1c-0.1-0.5,0.2-1.1-0.2-1.4c-0.5-0.4-1.1-0.1-1.7-0.1c-3.6,0-7.1,0-10.7,0c-0.7,0-1,0.2-0.9,0.9
		c0,0.1,0,0.3,0,0.4c0,0.7-0.3,1.3-1.1,1.3c-0.8,0-1-0.5-1.1-1.2c-0.9-4-0.5-8.1-0.6-12.2c0-5,0-10.1,0.5-15.1
		c0.3-3,0.4-3.2,3.3-3.5c4.1-0.5,8.2-0.5,12.3,0.1c1.9,0.3,2,0.4,2.3,2.3c0.6,3.4,0.7,6.8,0.7,10.3C-17.2-12.9-17.2-11.2-17.2-9.6
		C-17.2-9.6-17.2-9.6-17.2-9.6z"/>
	<path id="XMLID_548_" d="M-26.7-11.2c2.2,0,4.3,0,6.5,0c0.8,0,1.2,0.3,1.1,1.1c0,0.4,0,0.8,0,1.3c0,3.8-1.7,5.9-5.4,6.7
		c-3.1,0.6-6.1,0.3-8.5-2.1c-1-1-1.5-2.2-1.5-3.7c0-0.7,0-1.4,0-2c-0.1-0.9,0.4-1.3,1.2-1.3C-31.1-11.2-28.9-11.2-26.7-11.2z"/>
	<path id="XMLID_547_" d="M-26.6-19.2c-1.8,0-3.6,0-5.4,0c-1.6,0-2.2-0.6-2.2-2.1c0-0.4,0-0.7,0-1.1c0-1.8,0.4-2.4,2.3-2.7
		c2.6-0.5,5.3-0.5,7.9-0.3c1.2,0.1,2.5,0.1,3.6,0.5c0.9,0.3,1.4,0.8,1.4,1.8c0,0.7,0,1.4,0,2c0,1.3-0.6,1.8-1.9,1.9
		C-22.8-19.2-24.7-19.2-26.6-19.2z"/>
	<path id="XMLID_173_" d="M-26.9-16.7c1.6,0,3.2,0,4.8,0c1.1,0,1.4,0.3,1.4,1.4c0,1.1-0.3,1.5-1.4,1.5c-3.2,0-6.4,0-9.6,0
		c-1.1,0-1.4-0.4-1.4-1.5c0-1.1,0.4-1.4,1.5-1.4C-30-16.7-28.4-16.7-26.9-16.7z"/>
	<path id="XMLID_168_" d="M-34.9,0c0-0.6,0.3-1.1,1-1.1c0.7,0,1,0.4,1,1c0,0.6-0.4,1-0.9,1C-34.5,1-34.8,0.6-34.9,0z"/>
	<path id="XMLID_164_" d="M-18.7-0.1c0,0.7-0.4,1.1-1,1.1c-0.6,0-1-0.4-1-1c0-0.6,0.3-1.1,1-1.1C-19.1-1.1-18.8-0.7-18.7-0.1z"/>
</g>
<path id="XMLID_153_" class="st3" d="M-84.3-2.2c4-10.7,14.3-18.4,26.4-18.4c2.9,0,5.6,0.4,8.2,1.2"/>
<path id="XMLID_550_" class="st3" d="M-32.3,13.2c-4,10.7-14.3,18.4-26.4,18.4c-2.9,0-5.6-0.4-8.2-1.2"/>
<g id="XMLID_878_">
	<g id="Group-24_1_" transform="translate(0 .11940)">
		<g id="Group-3_2_">
			<path id="Fill-1_2_" class="st2" d="M-47.5,17.9c-0.2,0.6-0.9,1-1.5,0.8L-72.6,10c-0.6-0.2-0.9-0.9-0.7-1.6l5.5-14.9
				c0.2-0.6,0.9-1,1.5-0.8l23.5,8.7c0.6,0.2,0.9,0.9,0.7,1.6L-47.5,17.9L-47.5,17.9z"/>
		</g>
		<g id="Group-3_1_">
			<path id="Fill-1_1_" class="st4" d="M-48.3,16.3c-0.2,0.6-0.8,0.8-1.4,0.6L-71,9.1c-0.5-0.2-0.8-0.8-0.6-1.4L-67-5.1
				c0.2-0.6,0.8-0.8,1.4-0.6l21.4,7.9c0.5,0.2,0.8,0.8,0.6,1.4L-48.3,16.3L-48.3,16.3z"/>
		</g>
		<path id="Fill-4_1_" class="st5" d="M-44.1,5.1l-7.7-2.8l0.9-2.5l6.7,2.5c0.5,0.2,0.8,0.8,0.6,1.4L-44.1,5.1L-44.1,5.1z"/>
		<polygon id="Fill-6_1_" class="st6" points="-60.9,2.1 -52.9,5.1 -51.8,2.2 -59.8,-0.7 		"/>
		<polygon id="Fill-8_1_" class="st7" points="-52.9,5.1 -45.2,7.9 -44.1,5.1 -51.8,2.2 		"/>
		<polygon id="Fill-10_1_" class="st7" points="-63,8 -55,10.9 -54.4,9.3 -62.4,6.4 		"/>
		<polygon id="Fill-12_1_" class="st8" points="-70.7,5.1 -63,8 -62.4,6.4 -70.1,3.5 		"/>
		<polygon id="Fill-14_1_" class="st7" points="-70.1,3.5 -62.4,6.4 -60.8,2 -68.5,-0.8 		"/>
		<polygon id="Fill-16_1_" class="st5" points="-62.4,6.4 -54.4,9.3 -52.8,5 -60.8,2 		"/>
		<path id="Fill-18_1_" class="st5" d="M-71,9l6.7,2.5L-63,8l-7.7-2.8l-0.9,2.5C-71.8,8.2-71.6,8.8-71,9"/>
		<polygon id="Fill-20_1_" class="st6" points="-54.4,9.3 -46.8,12.2 -45.1,7.8 -52.8,5 		"/>
		<path id="Fill-22_1_" class="st6" d="M-56.3,14.4l6.7,2.5c0.6,0.2,1.2-0.1,1.4-0.6l0.9-2.5l-7.7-2.8L-56.3,14.4z"/>
	</g>
	<g id="Group-27_2_" transform="translate(0 3.756)">
		<defs>
			<filter id="Adobe_OpacityMaskFilter" filterUnits="userSpaceOnUse" x="-74.4" y="-2.6" width="28.6" height="11.7">
				<feColorMatrix  type="matrix" values="1 0 0 0 0  0 1 0 0 0  0 0 1 0 0  0 0 0 1 0"/>
			</filter>
		</defs>
		<mask maskUnits="userSpaceOnUse" x="-74.4" y="-2.6" width="28.6" height="11.7" id="mask-9_2_">
			<g id="XMLID_18_" class="st9">
				<path id="path-8_2_" class="st2" d="M-66.9-8.9c0,0.1-0.1,0.1-0.1,0.2l-4.7,12.7c-0.2,0.6,0.1,1.2,0.6,1.4l20.8,7.7l5.1-14
					L-66.9-8.9L-66.9-8.9L-66.9-8.9z"/>
			</g>
		</mask>
		<path id="Fill-25_2_" class="st10" d="M-46.6-0.9c-0.4-0.4-1-0.8-1.8-1.1c-0.5-0.2-3.9-1.3-7.7,1.6c-0.2,0.1-0.3,0.3-0.5,0.4
			l2.4,0.9c0.7-0.8,2.9-3.1,5.5-2.4c2.8,0.8,0.9,2.5-0.4,2.8c-1,0.3-2,0.5-4.7-0.1c0,0-1.9-0.4-3.7-1.2c-0.9-0.3-2.2-0.9-3.5-1.4
			c-6.8-2.7-12.2-0.3-13.1,2.5c-1,3.1,0.6,5.7,5.2,7.4c5.2,1.9,9.5-0.6,11.2-2.3c1-1,1.7-2.2,2.2-3l-2.8-1.2c-0.3,0.3-0.6,0.7-1,1
			c-1.7,1.7-5,4.2-8.7,2.4c-3.7-1.9-1.7-4.6,0.3-5.4c2.2-0.8,5.5-1,9.7,0.9l0.1,0.1l3.4,1.6l0,0c2.8,1.2,5.4,1.8,7.5,0.3
			C-45.3,1.5-45.7,0-46.6-0.9"/>
	</g>
</g>
</svg>
