<?xml version="1.0" encoding="utf-8"?>
<!-- Generator: Adobe Illustrator 19.0.0, SVG Export Plug-In . SVG Version: 6.00 Build 0)  -->
<svg version="1.1" id="圖層_1" xmlns="http://www.w3.org/2000/svg" xmlns:xlink="http://www.w3.org/1999/xlink" x="0px" y="0px"
	 viewBox="-112.7 -35.4 272.1 85" style="enable-background:new -112.7 -35.4 272.1 85;" xml:space="preserve">
<style type="text/css">
	.st0{fill:url(#XMLID_179_);}
	.st1{fill:#000038;}
	.st2{fill:#FFFFFF;}
	.st3{fill:#001E3A;}
	.st4{fill:#5FB3FF;}
	.st5{fill:#FF8637;}
	.st6{filter:url(#Adobe_OpacityMaskFilter);}
	.st7{mask:url(#mask-9_2_);fill:#FFF800;}
	.st8{fill:#FFF800;}
	.st9{fill:#4F4F4F;}
	.st10{fill:#C1C1C1;}
</style>
<g id="XMLID_1_">
</g>
<g id="XMLID_124_">
</g>
<g id="XMLID_125_">
</g>
<g id="XMLID_126_">
</g>
<g id="XMLID_127_">
</g>
<g id="XMLID_128_">
</g>
<radialGradient id="XMLID_179_" cx="23.4222" cy="26.8896" r="100.9042" gradientTransform="matrix(0.9998 0 0 -0.9905 -2.640000e-002 33.8007)" gradientUnits="userSpaceOnUse">
	<stop  offset="0.2193" style="stop-color:#E4BFFF;stop-opacity:0"/>
	<stop  offset="1" style="stop-color:#FF15F3"/>
</radialGradient>
<path id="XMLID_63_" class="st0" d="M148.1,49.7h-249.5c-6.3,0-11.3-5.1-11.3-11.3V-24c0-6.3,5.1-11.3,11.3-11.3h249.5
	c6.3,0,11.3,5.1,11.3,11.3v62.4C159.5,44.6,154.4,49.7,148.1,49.7z"/>
<path id="XMLID_62_" class="st1" d="M143.2,44.6H-96.4c-5.7,0-10.4-4.7-10.4-10.4v-54.2c0-5.7,4.7-10.4,10.4-10.4h239.6
	c5.7,0,10.4,4.7,10.4,10.4v54.2C153.6,40,148.9,44.6,143.2,44.6z"/>
<g id="XMLID_4_">
	<path id="XMLID_138_" class="st2" d="M-8.9,6.8c-0.5,0.5-1.3,0.8-2.3,0.8H-16l-1-2.1h5.2c0.5,0,0.8-0.3,0.8-0.8v-9.5
		c0-0.4-0.3-0.7-0.8-0.7H-18c-0.5,6.7-2.4,9.6-6.8,13h-5c5.5-3.1,8.8-6.7,8.9-13h-7.9v-1.4h-3c3.1-3.7,6.1-8.2,7.2-11.8h3.1
		c-1.3,4-3.7,7.7-6.1,11H-11c0.9,0,1.6,0.3,2.1,0.8s0.8,1.3,0.8,2.2v9.1C-8.1,5.5-8.4,6.3-8.9,6.8z M-8.8-6.8
		c-2.7-3.3-5.5-7.6-6.6-11.8h2.9c1.2,4.1,4.6,8.8,7.4,11.8H-8.8z"/>
	<path id="XMLID_141_" class="st2" d="M2.3,1.7v6h-2.6V2c-0.3,0.1-0.8,0.1-1.1,0.1v-2.2c0.3,0,0.8,0,1.1-0.1V-15
		c0-0.7,0.3-1.4,0.8-1.8c0.4-0.3,0.9-0.6,1.6-0.6c2.4-0.2,6-0.9,8.1-1.4v2.3c-1.9,0.3-5.3,0.8-7.3,1c-0.2,0-0.6,0.3-0.6,0.6v3h7.4
		v2.1H2.3v3.4h7.5v2.1H2.3v3.8c2.3-0.3,6.1-0.8,8.2-1.2v2.2C8.4,0.9,4.6,1.4,2.3,1.7z M21,7.7c-0.9-0.8-2.8-2.6-3.6-3.4
		c-1.3,1.2-2.7,2.4-4.1,3.4H8.7c3-1.9,5.1-3.4,7.1-5.3c-1.5-1.8-2.9-3.7-4-5.8h2.9c0.8,1.4,1.8,2.7,2.8,3.9c1.2-1.4,2.5-3.1,3.1-4.5
		c0.1-0.2,0-0.4-0.2-0.4h-9.3v-2h10.4c0.9,0,1.5,0.3,1.8,0.8c0.4,0.6,0.4,1.4,0,2.1c-1,1.8-2.6,4.2-4.1,5.8c1.7,2,3.9,3.7,5.9,5.3
		H21z M23.9-7.7h-2.3c-0.8,0-1.4-0.2-1.9-0.8c-0.4-0.5-0.6-1.1-0.6-1.9v-5.1c0-0.3-0.2-0.6-0.6-0.6h-2.7c-0.3,0-0.6,0.3-0.6,0.6
		c0,2.6-0.3,5.6-1.5,7.8h-3.1c2.1-2.2,2-5.8,2-8.5c0-0.6,0.3-1.2,0.8-1.6c0.4-0.3,0.9-0.4,1.5-0.4h4.6c0.7,0,1.3,0.2,1.7,0.7
		c0.4,0.4,0.6,1,0.6,1.7v5.4c0,0.4,0.3,0.7,0.7,0.7h2.5L23.9-7.7z"/>
	<path id="XMLID_145_" class="st2" d="M51.4,7.6c-1.3-1.5-2.6-3.1-3.6-4.8c-0.9,1.5-2.4,3.5-3.8,4.8h-3.5c2.4-2.3,4.3-4.6,6-7.3
		c-1.2-2.5-2-5.1-2.6-7.7c-0.2,0.4-0.5,1-0.7,1.3h-3V7.6h-2.7v-7.8c-2.3,0.8-6.1,2.1-8.9,2.8V0.3c0.4-0.1,1.1-0.2,1.4-0.3v-15.4h2.7
		v14.7c1.2-0.3,3.6-1.1,4.8-1.6v-16.3h2.7v12c2-2.9,3.7-8.5,4.2-12h2.8c-0.3,1.5-0.8,3.5-1.3,5h8.8v2.2h-1.9
		c-0.7,4.1-1.6,8.1-3.6,11.6c1.4,2.7,3.4,5.4,5.8,7.5H51.4z M45.3-11.5c-0.2,0.8-0.6,1.9-0.9,2.5h1.6c0.5,2.2,1.1,4.3,1.9,6.3
		c1.2-2.7,1.9-5.7,2.3-8.8H45.3z"/>
	<path id="XMLID_148_" class="st2" d="M83.8-6.8c-0.3,0.5-0.9,0.9-1.7,0.9c0.3,0.5,0.4,1.1,0.4,1.8v5.7c0,0.7-0.3,1.4-0.8,1.7
		c-0.6,0.5-1.3,0.8-2.1,0.8H62.6c-0.5,0-1.1-0.3-1.5-0.8c-0.4-0.5-0.7-1-0.7-1.8v-6.2c0-0.6,0.3-1.2,0.8-1.6c0.4-0.4,1-0.7,1.5-0.7
		h1.2c0.5-0.5,1.4-1.6,1.8-2.3h-5c-0.8,0-1.4-0.9-1.4-1.6c0-0.6,0.1-1.6,0.3-2.1c0.2-0.7,0.9-1.2,1.7-1.2h5.5v-1.3h-7.7v-1.8h7.7
		v-1.4h2.7v1.4h4.2v-1.4h2.7v1.4h5c0.4,0,0.8,0.2,1.1,0.5c0.4,0.3,0.6,0.8,0.6,1.3v1.4c0,0.5-0.2,0.9-0.6,1.3
		c-0.4,0.3-0.8,0.5-1.3,0.5h-4.7v1.3h5.9c0.6,0,1.1,0.3,1.4,0.8c0.4,0.5,0.6,1.1,0.6,1.8C84.3-7.9,84.2-7.2,83.8-6.8z M64.9,7.7
		h-5.6c1.9-0.5,3.5-1.6,5.1-2.9h4.1C67.4,6,66.1,7,64.9,7.7z M62.5-12.3c-0.1,0-0.3,0.1-0.4,0.3c-0.1,0.1-0.1,0.5-0.1,0.6
		c0,0.2,0.2,0.4,0.4,0.4h4.1c0.1-0.3,0.2-0.9,0.2-1.3H62.5z M79.8-4.5c0-0.4-0.3-0.6-0.8-0.6H63.9c-0.4,0-0.8,0.2-0.8,0.5V-4h16.7
		V-4.5z M79.8-2.1H63.1v1.3h16.7V-2.1z M79.8,1H63.1v0.6c0,0.4,0.4,0.7,0.7,0.7H79c0.4,0,0.8-0.3,0.8-0.7V1z M73.7-9.2h-5
		c-0.3,0.7-0.8,1.7-1.3,2.3h6.3V-9.2z M73.7-12.3h-4.2c0,0.4-0.1,0.9-0.2,1.3h4.4V-12.3z M73.7-15.4h-4.2v1.3h4.2V-15.4z M79.4,7.7
		c-1.5-0.8-3-1.9-4.5-2.9h5c1.3,1,3.4,2.1,5.1,2.9H79.4z M80.4-15c0-0.2-0.2-0.4-0.4-0.4h-3.6v1.3H80c0.2,0,0.4-0.1,0.4-0.4V-15z
		 M80.7-9.2h-4.3v2.3h3l-0.5-0.8h1.9c0.5,0,0.7-0.4,0.7-0.8C81.4-8.8,81.2-9.2,80.7-9.2z"/>
	<path id="XMLID_163_" class="st2" d="M88.4-13.3v-2.2h4.1c-0.3-0.7-0.7-2.2-0.8-3.1h2.7c0.2,0.8,0.6,2.3,0.9,3.1h3.5v2.2H88.4z
		 M97.6,6.8c-0.4,0.5-1,0.8-1.8,0.8h-4.4c-0.7,0-1.3-0.2-1.8-0.6C89.2,6.6,89,6,89,5.3V0.1c0-0.6,0.2-1.2,0.7-1.6
		c0.4-0.4,0.9-0.6,1.5-0.6h4.9c0.6,0,1.1,0.3,1.5,0.8c0.3,0.4,0.5,0.8,0.5,1.4v5.3C98.2,5.9,98,6.4,97.6,6.8z M89.2-9V-11h8.6V-9
		H89.2z M89.2-4.5v-2.1h8.6v2.1H89.2z M95.6,0.4c0-0.2-0.3-0.4-0.5-0.4h-3c-0.3,0-0.6,0.3-0.6,0.5v4.4c0,0.3,0.3,0.6,0.6,0.6H95
		c0.3,0,0.7-0.4,0.7-0.7V0.4z M113.9,7.6h-4.6c-0.5,0-1-0.3-1.3-0.7c-0.3-0.4-0.6-0.9-0.6-1.4v-8.7h-2.3c-0.1,4.4-0.7,7.7-3.4,10.7
		h-3.5c3.2-2.9,4.5-6.2,4.3-10.7H102c-0.6,0-1.3-0.3-1.8-0.9c-0.3-0.4-0.5-0.9-0.5-1.6v-5.2c0-0.7,0.3-1.3,0.7-1.7
		c0.4-0.4,0.9-0.6,1.5-0.6h5c1.1-1.8,2-3.7,2.4-5.5h2.7c-0.5,1.7-1.4,4-2.4,5.5h1c0.7,0,1.4,0.2,1.8,0.6c0.5,0.4,0.8,1.1,0.8,1.8v5
		c0,0.7-0.2,1.2-0.6,1.7c-0.4,0.5-1.1,0.8-1.8,0.8H110v8c0,0.4,0.3,0.7,0.7,0.7h4.1L113.9,7.6z M102.2-14.1c-0.6-1-1.5-3.1-1.9-4.4
		h2.7c0.4,1.4,1.4,3.2,2.3,4.4H102.2z M110.5-10.3c0-0.4-0.3-0.7-0.6-0.7h-7c-0.4,0-0.6,0.3-0.6,0.7V-6c0,0.4,0.4,0.7,0.8,0.7h6.8
		c0.3,0,0.7-0.4,0.7-0.8V-10.3z"/>
	<path id="XMLID_172_" class="st2" d="M128.3,4c-0.4,0.5-1,0.8-1.7,0.8h-5.5c-0.5,0-1.1-0.2-1.5-0.6c-0.5-0.4-0.8-1-0.8-1.8v-17.3
		c0-0.7,0.4-1.3,0.9-1.7c0.5-0.3,1-0.5,1.5-0.5h4.9c0.8,0,1.4,0.3,1.9,0.8c0.5,0.5,0.7,1.2,0.7,1.9V2.4C128.8,3,128.7,3.6,128.3,4z
		 M126.2-14.4c0-0.3-0.2-0.6-0.6-0.6H122c-0.3,0-0.6,0.3-0.6,0.7v7.2h4.7V-14.4z M126.2-5h-4.7v7.2c0,0.4,0.3,0.6,0.6,0.6h3.6
		c0.3,0,0.5-0.1,0.5-0.5V-5z M143.4,7c-0.5,0.5-1.2,0.7-1.9,0.7h-3.4l-0.9-2h3.6c0.4,0,0.7-0.3,0.7-0.7v-6.8h-7.8
		c-0.2,4.4-1.4,7.4-2.7,9.5h-3.2c3.1-4.6,3.3-8,3.3-14.1v-9.3c0-0.6,0.3-1.2,0.7-1.6c0.5-0.5,1-0.7,1.7-0.7h8c0.6,0,1.2,0.2,1.6,0.5
		c0.6,0.5,1,1.1,1,1.9V5.3C144.1,6.1,143.8,6.6,143.4,7z M141.5-15.5c0-0.2-0.3-0.5-0.5-0.5h-6.7c-0.2,0-0.5,0.3-0.5,0.5v4.4h7.8
		V-15.5z M141.5-9h-7.8c0,1.4,0,3.9,0,5h7.8V-9z"/>
</g>
<g id="XMLID_3_">
	<path id="XMLID_65_" class="st2" d="M-29.4,34.3c-0.4,0-0.8-0.1-1-0.4c-0.2-0.2-0.3-0.6-0.3-0.9v-7.4c0-0.4,0.1-0.7,0.3-0.9
		c0.3-0.3,0.6-0.4,1.1-0.4h5.9v1H-29c-0.2,0-0.4,0.2-0.4,0.4v2.9h5.7v1h-5.7v3.3c0,0.2,0.2,0.4,0.5,0.4h5.7v1H-29.4z"/>
	<path id="XMLID_67_" class="st2" d="M-16.8,34.3l-2.1-2.6l-2,2.6h-1.6l2.8-3.7l-2.8-3.6h1.6l2,2.5l1.9-2.5h1.6l-2.7,3.6l2.9,3.7
		H-16.8z"/>
	<path id="XMLID_69_" class="st2" d="M-9.3,34c-0.5,0.3-1.2,0.5-1.8,0.4c-0.7-0.1-1.4-0.4-1.8-1.1v3.8h-1.2V27.1h1.2v1.1
		c0.4-0.6,0.9-1,1.6-1.1c0.7-0.1,1.4,0,2,0.4c0.6,0.4,1,0.9,1.2,1.6c0.4,1.1,0.5,2.5,0,3.6C-8.3,33.1-8.7,33.7-9.3,34z M-9.5,28.8
		c-0.3-0.4-0.8-0.8-1.3-0.9c-0.6-0.1-1.2,0.2-1.5,0.7c-0.8,1.1-0.7,2.7-0.2,3.9c0.3,0.6,0.9,1,1.6,1c0.6,0,1.2-0.5,1.4-1
		C-8.9,31.4-8.9,29.9-9.5,28.8z"/>
	<path id="XMLID_72_" class="st2" d="M-6.3,34.3v-10H-5v10H-6.3z"/>
	<path id="XMLID_75_" class="st2" d="M1.8,34.3c-0.1-0.3-0.2-0.7-0.3-1c-0.6,0.6-1.4,1-2.3,1.1c-0.6,0.1-1.3,0-1.8-0.3
		c-0.5-0.3-0.8-0.6-1-1.1c-0.2-0.5-0.2-1.1,0-1.6c0.2-0.6,0.7-1,1.3-1.2c0.5-0.2,1.2-0.3,1.8-0.3c0.7-0.1,1.4-0.3,1.8-0.7
		c0-0.3,0-0.7-0.3-1c-0.3-0.3-0.6-0.4-1-0.4c-0.5-0.1-1.1,0-1.6,0.2c-0.5,0.2-0.7,0.6-0.9,1.1h-1.3c0.1-0.8,0.7-1.5,1.5-1.8
		c0.6-0.3,1.6-0.4,2.2-0.4c0.7,0,1.5,0.2,2,0.8c0.4,0.4,0.6,1,0.6,1.7c0,0.9,0,2.1,0,2.8c0,0.7,0.2,1.6,0.5,2.1H1.8z M1.4,30.5
		c-0.5,0.3-1.1,0.5-1.6,0.5c-0.5,0-1,0.1-1.3,0.2c-0.3,0.1-0.5,0.3-0.7,0.6c-0.1,0.3-0.1,0.6,0,1c0.1,0.3,0.4,0.5,0.7,0.6
		c0.3,0.1,0.6,0.1,0.9,0c0.9-0.1,1.6-0.6,2.1-1.3C1.4,31.6,1.4,30.9,1.4,30.5z"/>
	<path id="XMLID_83_" class="st2" d="M9,34.3v-4.7c0-0.7-0.2-1.4-0.8-1.6c-0.6-0.2-1.2-0.1-1.7,0.2c-0.6,0.4-0.8,1-0.8,1.7v4.5H4.3
		V27h1.1v0.8C5.8,27.4,6.3,27.1,7,27c0.8-0.2,1.8,0,2.4,0.5c0.7,0.5,0.9,1.1,0.9,1.9v4.9H9z"/>
	<path id="XMLID_85_" class="st2" d="M16.9,34.3c-0.1-0.3-0.2-0.7-0.3-1c-0.6,0.6-1.4,1-2.3,1.1c-0.6,0.1-1.3,0-1.8-0.3
		c-0.5-0.3-0.8-0.6-1-1.1c-0.2-0.5-0.2-1.1,0-1.6c0.2-0.6,0.7-1,1.3-1.2c0.5-0.2,1.2-0.3,1.8-0.3c0.7-0.1,1.4-0.3,1.8-0.7
		c0-0.3,0-0.7-0.3-1c-0.3-0.3-0.6-0.4-1-0.4c-0.5-0.1-1.1,0-1.6,0.2c-0.5,0.2-0.7,0.6-0.9,1.1h-1.3c0.1-0.8,0.7-1.5,1.5-1.8
		c0.6-0.3,1.6-0.4,2.2-0.4c0.7,0,1.5,0.2,2,0.8c0.4,0.4,0.6,1,0.6,1.7c0,0.9,0,2.1,0,2.8c0,0.7,0.2,1.6,0.5,2.1H16.9z M16.5,30.5
		c-0.5,0.3-1.1,0.5-1.6,0.5c-0.5,0-1,0.1-1.3,0.2c-0.3,0.1-0.5,0.3-0.7,0.6c-0.1,0.3-0.1,0.6,0,1c0.1,0.3,0.4,0.5,0.7,0.6
		c0.3,0.1,0.6,0.1,0.9,0c0.9-0.1,1.6-0.6,2.1-1.3C16.5,31.6,16.5,30.9,16.5,30.5z"/>
	<path id="XMLID_88_" class="st2" d="M22.3,34.3h-1.1c-0.4,0-0.7-0.1-0.9-0.3c-0.2-0.2-0.3-0.5-0.3-0.9V28h-1v-1h1v-2.7h1.2V27h1.4
		v1h-1.4v5c0,0.2,0.2,0.4,0.4,0.4h1.2L22.3,34.3z"/>
	<path id="XMLID_90_" class="st2" d="M24.2,25.6v-1.3h1.3v1.3H24.2z M24.2,34.3V27h1.3v7.3H24.2z"/>
	<path id="XMLID_93_" class="st2" d="M32.1,34.2c-0.8,0.4-2,0.3-2.8-0.1c-0.8-0.4-1.5-1-1.8-1.9c-0.3-1-0.3-2.5,0.1-3.4
		c0.4-0.9,1.1-1.5,2-1.8c0.9-0.3,2-0.2,2.8,0.3c0.8,0.5,1.2,1,1.5,1.9c0.3,0.9,0.3,2,0,2.9C33.7,33.1,32.9,33.9,32.1,34.2z
		 M30.6,27.9c-0.8,0-1.6,0.5-1.8,1.3c-0.3,0.9-0.2,1.9,0,2.8c0.2,0.7,0.8,1.3,1.6,1.4c0.8,0.1,1.8-0.1,2.2-0.9
		c0.5-1,0.5-2.5,0.1-3.5C32.2,28.2,31.4,27.9,30.6,27.9z"/>
	<path id="XMLID_98_" class="st2" d="M40,34.3v-4.7c0-0.7-0.2-1.4-0.8-1.6c-0.6-0.2-1.2-0.1-1.7,0.2c-0.6,0.4-0.8,1-0.8,1.7v4.5
		h-1.3V27h1.1v0.8c0.4-0.5,0.9-0.8,1.6-0.9c0.8-0.2,1.8,0,2.4,0.5c0.7,0.5,0.9,1.1,0.9,1.9v4.9H40z"/>
	<path id="XMLID_101_" class="st2" d="M51,34.2c-0.8,0.4-2,0.3-2.8-0.1c-0.8-0.4-1.5-1-1.8-1.9c-0.3-1-0.3-2.5,0.1-3.4
		c0.4-0.9,1.1-1.5,2-1.8c0.9-0.3,2-0.2,2.8,0.3c0.8,0.5,1.2,1,1.5,1.9c0.3,0.9,0.3,2,0,2.9C52.7,33.1,51.9,33.9,51,34.2z M49.5,27.9
		c-0.8,0-1.6,0.5-1.8,1.3c-0.3,0.9-0.2,1.9,0,2.8c0.2,0.7,0.8,1.3,1.6,1.4c0.8,0.1,1.8-0.1,2.2-0.9c0.5-1,0.5-2.5,0.1-3.5
		C51.2,28.2,50.3,27.9,49.5,27.9z"/>
	<path id="XMLID_104_" class="st2" d="M58.9,34.3v-4.7c0-0.7-0.2-1.4-0.8-1.6c-0.6-0.2-1.2-0.1-1.7,0.2c-0.6,0.4-0.8,1-0.8,1.7v4.5
		h-1.3V27h1.1v0.8c0.4-0.5,0.9-0.8,1.6-0.9c0.8-0.2,1.8,0,2.4,0.5c0.7,0.5,0.9,1.1,0.9,1.9v4.9H58.9z"/>
	<path id="XMLID_106_" class="st2" d="M71.9,27.1c-0.1-0.5-0.2-1-0.5-1.3c-0.3-0.3-0.6-0.5-1.1-0.6c-0.7-0.2-1.5-0.1-2.2,0.1
		c-0.4,0.1-0.9,0.5-1.1,0.9c-0.2,0.4-0.2,1,0.1,1.4c0.2,0.4,0.6,0.6,1.1,0.7c1.2,0.3,2.6,0.6,3.4,0.8c0.6,0.2,1.1,0.6,1.5,1.1
		c0.4,0.7,0.4,1.6,0.1,2.3c-0.2,0.6-0.6,1-1.2,1.3c-1,0.6-2.2,0.7-3.3,0.6c-0.9-0.1-1.8-0.4-2.5-1c-0.6-0.6-0.9-1.4-1-2.2h1.3
		c0.1,0.7,0.4,1.3,0.9,1.7c0.5,0.4,1.2,0.5,1.8,0.6c0.7,0,1.6-0.1,2.2-0.5c0.5-0.3,0.7-0.8,0.7-1.4c0-0.6-0.3-1.1-0.9-1.4
		c-0.6-0.2-1.8-0.5-2.6-0.6c-0.8-0.1-1.7-0.5-2.3-1c-0.6-0.6-0.8-1.5-0.6-2.3c0.2-0.7,0.7-1.3,1.3-1.7c1-0.5,2.7-0.6,3.8-0.4
		c0.7,0.1,1.3,0.5,1.8,1.2c0.4,0.5,0.5,1.1,0.6,1.7H71.9z"/>
	<path id="XMLID_108_" class="st2" d="M79.7,34c-0.6,0.4-1.6,0.5-2.4,0.4c-0.9-0.1-1.7-0.4-2.2-1.2c-0.5-0.7-0.8-1.7-0.8-2.6
		c0-0.8,0.2-1.6,0.6-2.2c0.6-1,1.7-1.5,2.8-1.5c1,0,1.8,0.3,2.4,1c0.5,0.6,0.8,1.6,0.8,2.4c0,0.5-0.3,0.7-0.8,0.7h-4.5
		c0.1,0.9,0.4,1.7,1,2.2c0.4,0.3,0.9,0.4,1.4,0.4c0.4,0,0.8-0.2,1.1-0.4c0.3-0.3,0.5-0.7,0.5-1.1H81C80.8,32.7,80.4,33.6,79.7,34z
		 M78.9,28.2c-0.6-0.4-1.4-0.4-2-0.2c-0.8,0.3-1.2,1.1-1.3,1.9h3.7c0.2,0,0.3-0.2,0.3-0.3C79.7,29.1,79.4,28.5,78.9,28.2z"/>
	<path id="XMLID_111_" class="st2" d="M87.4,33.6c-0.5,0.6-1.3,0.8-2,0.8c-0.8,0-1.6-0.2-2.2-0.7c-1.3-1.1-1.4-3.5-0.9-4.9
		c0.3-0.7,0.9-1.3,1.7-1.7c0.9-0.4,2-0.4,2.8,0.1c0.6,0.3,1.4,1.2,1.5,1.9h-1.4c-0.2-0.5-0.7-1.2-1.3-1.3c-0.8-0.2-1.5,0.2-2,0.9
		c-0.7,1-0.6,2.7-0.1,3.7c0.3,0.5,0.7,0.9,1.2,1c0.5,0.1,1.1,0,1.5-0.3c0.4-0.3,0.6-1,0.7-1.5h1.3C88.2,32.4,87.9,33.1,87.4,33.6z"
		/>
	<path id="XMLID_113_" class="st2" d="M92.3,34.3h-1.1c-0.4,0-0.7-0.1-0.9-0.3c-0.2-0.2-0.3-0.5-0.3-0.9V28h-1v-1h1v-2.7h1.2V27h1.4
		v1h-1.4v5c0,0.2,0.2,0.4,0.4,0.4h1.2L92.3,34.3z"/>
	<path id="XMLID_115_" class="st2" d="M94.3,25.6v-1.3h1.3v1.3H94.3z M94.3,34.3V27h1.3v7.3H94.3z"/>
	<path id="XMLID_118_" class="st2" d="M102.1,34.2c-0.8,0.4-2,0.3-2.8-0.1c-0.8-0.4-1.5-1-1.8-1.9c-0.3-1-0.3-2.5,0.1-3.4
		c0.4-0.9,1.1-1.5,2-1.8c0.9-0.3,2-0.2,2.8,0.3c0.8,0.5,1.2,1,1.5,1.9c0.3,0.9,0.3,2,0,2.9C103.8,33.1,103,33.9,102.1,34.2z
		 M100.6,27.9c-0.8,0-1.6,0.5-1.8,1.3c-0.3,0.9-0.2,1.9,0,2.8c0.2,0.7,0.8,1.3,1.6,1.4c0.8,0.1,1.8-0.1,2.2-0.9
		c0.5-1,0.5-2.5,0.1-3.5C102.3,28.2,101.4,27.9,100.6,27.9z"/>
	<path id="XMLID_121_" class="st2" d="M110,34.3v-4.7c0-0.7-0.2-1.4-0.8-1.6c-0.6-0.2-1.2-0.1-1.7,0.2c-0.6,0.4-0.8,1-0.8,1.7v4.5
		h-1.3V27h1.1v0.8c0.4-0.5,0.9-0.8,1.6-0.9c0.8-0.2,1.8,0,2.4,0.5c0.7,0.5,0.9,1.1,0.9,1.9v4.9H110z"/>
	<path id="XMLID_123_" class="st2" d="M118.2,25.3c-0.2,0-0.4,0.2-0.4,0.4v2.9h5.2v1h-5.2v4.7h-1.2v-8.9c0-0.3,0.1-0.6,0.3-0.8
		c0.2-0.2,0.5-0.3,0.8-0.3h6.1v1H118.2z"/>
	<path id="XMLID_130_" class="st2" d="M130.2,34.3c-0.1-0.3-0.2-0.7-0.3-1c-0.6,0.6-1.4,1-2.3,1.1c-0.6,0.1-1.3,0-1.8-0.3
		c-0.5-0.3-0.8-0.6-1-1.1c-0.2-0.5-0.2-1.1,0-1.6c0.2-0.6,0.7-1,1.3-1.2c0.5-0.2,1.2-0.3,1.8-0.3c0.7-0.1,1.4-0.3,1.8-0.7
		c0-0.3,0-0.7-0.3-1c-0.3-0.3-0.6-0.4-1-0.4c-0.5-0.1-1.1,0-1.6,0.2c-0.5,0.2-0.7,0.6-0.9,1.1h-1.3c0.1-0.8,0.7-1.5,1.5-1.8
		c0.6-0.3,1.6-0.4,2.2-0.4c0.7,0,1.5,0.2,2,0.8c0.4,0.4,0.6,1,0.6,1.7c0,0.9,0,2.1,0,2.8c0,0.7,0.2,1.6,0.5,2.1H130.2z M129.7,30.5
		c-0.5,0.3-1.1,0.5-1.6,0.5c-0.5,0-1,0.1-1.3,0.2c-0.3,0.1-0.5,0.3-0.7,0.6c-0.1,0.3-0.1,0.6,0,1c0.1,0.3,0.4,0.5,0.7,0.6
		c0.3,0.1,0.6,0.1,0.9,0c0.9-0.1,1.6-0.6,2.1-1.3C129.7,31.6,129.7,30.9,129.7,30.5z"/>
	<path id="XMLID_133_" class="st2" d="M135.5,28.1c-0.4-0.1-0.7,0.1-1,0.4c-0.4,0.4-0.6,1-0.7,1.5v4.3h-1.2V27h1.2V28
		c0.2-0.4,0.8-0.9,1.3-1c0.5-0.1,1.1,0.1,1.6,0.4v1.4C136.4,28.5,135.9,28.2,135.5,28.1z"/>
	<path id="XMLID_135_" class="st2" d="M142.8,34c-0.6,0.4-1.6,0.5-2.4,0.4c-0.9-0.1-1.7-0.4-2.2-1.2c-0.5-0.7-0.8-1.7-0.8-2.6
		c0-0.8,0.2-1.6,0.6-2.2c0.6-1,1.7-1.5,2.8-1.5c1,0,1.8,0.3,2.4,1c0.5,0.6,0.8,1.6,0.8,2.4c0,0.5-0.3,0.7-0.8,0.7h-4.5
		c0.1,0.9,0.4,1.7,1,2.2c0.4,0.3,0.9,0.4,1.4,0.4c0.4,0,0.8-0.2,1.1-0.4c0.3-0.3,0.5-0.7,0.5-1.1h1.4C144,32.7,143.5,33.6,142.8,34z
		 M142.1,28.2c-0.6-0.4-1.4-0.4-2-0.2c-0.8,0.3-1.2,1.1-1.3,1.9h3.7c0.2,0,0.3-0.2,0.3-0.3C142.8,29.1,142.5,28.5,142.1,28.2z"/>
</g>
<g id="XMLID_73_">
	<g id="XMLID_440_">
		<path id="XMLID_448_" class="st2" d="M-41.3,10h-11.2c-1.5,0-2.8-1.2-2.8-2.8V-21c0-1.5,1.2-2.8,2.8-2.8h11.2
			c1.5,0,2.8,1.2,2.8,2.8V7.3C-38.5,8.8-39.8,10-41.3,10z"/>
		<path id="XMLID_445_" class="st2" d="M-50.1,36h-40.6c-1.5,0-2.7-1.2-2.7-2.7V-21c0-1.5,1.2-2.7,2.7-2.7h40.6
			c1.5,0,2.7,1.2,2.7,2.7v54.4C-47.4,34.8-48.6,36-50.1,36z"/>
		
			<rect id="XMLID_442_" x="-52.6" y="8.5" transform="matrix(0.7071 -0.7071 0.7071 0.7071 -21.5069 -29.0227)" class="st2" width="13.7" height="5.8"/>
	</g>
	<g id="XMLID_457_">
		<path id="XMLID_455_" d="M-43.4,8.9h-10.1c-1.4,0-2.5-1.1-2.5-2.5v-25.5c0-1.4,1.1-2.5,2.5-2.5h10.1c1.4,0,2.5,1.1,2.5,2.5V6.4
			C-40.9,7.8-42,8.9-43.4,8.9z"/>
		<path id="XMLID_390_" d="M-52.2,33.9h-36.8c-1.4,0-2.5-1.1-2.5-2.5v-50.5c0-1.4,1.1-2.5,2.5-2.5h36.8c1.4,0,2.5,1.1,2.5,2.5v50.5
			C-49.7,32.8-50.8,33.9-52.2,33.9z"/>
		
			<rect id="XMLID_456_" x="-54.2" y="7.7" transform="matrix(0.7071 -0.7071 0.7071 0.7071 -21.3923 -30.7976)" width="12.7" height="5.4"/>
	</g>
	<rect id="XMLID_391_" x="-86.8" y="-17.5" class="st3" width="32.6" height="23.6"/>
	<g id="XMLID_193_">
		<path id="XMLID_53_" class="st2" d="M-77.1-8.7v-0.9c-0.5,0-1-0.2-1.3-0.4l0.2-0.6c0.3,0.2,0.8,0.4,1.2,0.4c0.6,0,1-0.4,1-0.8
			c0-0.5-0.3-0.8-1-1c-0.9-0.3-1.4-0.7-1.4-1.5c0-0.7,0.5-1.3,1.3-1.4v-0.9h0.5v0.8c0.5,0,0.9,0.2,1.1,0.3l-0.2,0.6
			c-0.2-0.1-0.5-0.3-1.1-0.3c-0.7,0-0.9,0.4-0.9,0.7c0,0.4,0.3,0.7,1.1,1c0.9,0.4,1.3,0.8,1.3,1.6c0,0.7-0.5,1.3-1.4,1.5v0.9H-77.1z
			"/>
		<path id="XMLID_55_" class="st2" d="M-69-14.4h-2.1l-0.2,1.4c0.1,0,0.2,0,0.5,0c0.4,0,0.9,0.1,1.2,0.3c0.4,0.2,0.8,0.7,0.8,1.4
			c0,1.1-0.9,1.9-2.1,1.9c-0.6,0-1.1-0.2-1.4-0.3l0.2-0.6C-72-10.1-71.5-10-71-10c0.7,0,1.3-0.5,1.3-1.2c0-0.7-0.5-1.2-1.6-1.2
			c-0.3,0-0.6,0-0.8,0.1l0.4-2.7h2.7V-14.4z"/>
		<path id="XMLID_57_" class="st2" d="M-67.9-9.9c0-0.3,0.2-0.5,0.5-0.5c0.3,0,0.5,0.2,0.5,0.5c0,0.3-0.2,0.5-0.5,0.5
			C-67.7-9.3-67.9-9.6-67.9-9.9z"/>
		<path id="XMLID_59_" class="st2" d="M-66.3-10.9c0-0.7,0.4-1.2,1.1-1.5l0,0c-0.6-0.3-0.9-0.8-0.9-1.2c0-0.9,0.7-1.5,1.7-1.5
			c1.1,0,1.6,0.7,1.6,1.4c0,0.5-0.2,1-0.9,1.3v0c0.7,0.3,1.1,0.8,1.1,1.4c0,1-0.8,1.6-1.9,1.6C-65.5-9.3-66.3-10-66.3-10.9z
			 M-63.3-10.9c0-0.7-0.5-1-1.2-1.2c-0.7,0.2-1,0.6-1,1.1c0,0.6,0.4,1.1,1.1,1.1C-63.7-9.9-63.3-10.3-63.3-10.9z M-65.3-13.7
			c0,0.6,0.4,0.9,1.1,1c0.5-0.2,0.8-0.5,0.8-1c0-0.4-0.3-0.9-0.9-0.9C-65-14.6-65.3-14.2-65.3-13.7z"/>
	</g>
	<rect id="XMLID_392_" x="-77.1" y="-15.7" class="st2" width="0.6" height="7"/>
	<g id="XMLID_395_">
		<path id="XMLID_44_" class="st2" d="M-68.9-3v-0.5c-0.3,0-0.6-0.1-0.8-0.2l0.1-0.3c0.2,0.1,0.4,0.2,0.7,0.2c0.3,0,0.6-0.2,0.6-0.5
			c0-0.3-0.2-0.4-0.6-0.6c-0.5-0.2-0.8-0.4-0.8-0.9c0-0.4,0.3-0.7,0.7-0.8v-0.5h0.3v0.5c0.3,0,0.5,0.1,0.6,0.2l-0.1,0.3
			c-0.1-0.1-0.3-0.2-0.6-0.2c-0.4,0-0.5,0.2-0.5,0.4c0,0.3,0.2,0.4,0.6,0.6c0.5,0.2,0.8,0.5,0.8,0.9c0,0.4-0.3,0.8-0.8,0.8V-3H-68.9
			z"/>
		<path id="XMLID_46_" class="st2" d="M-66.2-3.5v-0.3l0.3-0.3c0.8-0.8,1.2-1.2,1.2-1.7c0-0.3-0.2-0.6-0.6-0.6
			c-0.3,0-0.5,0.1-0.7,0.3l-0.1-0.3c0.2-0.2,0.5-0.3,0.9-0.3c0.7,0,1,0.5,1,0.9c0,0.6-0.4,1.1-1.1,1.7l-0.3,0.2v0h1.4v0.4H-66.2z"/>
		<path id="XMLID_48_" class="st2" d="M-63.6-3.7c0-0.2,0.1-0.3,0.3-0.3s0.3,0.1,0.3,0.3c0,0.2-0.1,0.3-0.3,0.3
			C-63.5-3.4-63.6-3.5-63.6-3.7z"/>
		<path id="XMLID_50_" class="st2" d="M-62.4-3.8c0.1,0,0.2,0,0.3,0c0.3,0,0.5-0.1,0.7-0.3c0.2-0.2,0.4-0.5,0.4-0.9h0
			c-0.2,0.2-0.4,0.3-0.8,0.3c-0.6,0-0.9-0.4-0.9-1c0-0.6,0.4-1.1,1.1-1.1c0.7,0,1.1,0.5,1.1,1.3c0,0.7-0.2,1.2-0.6,1.5
			c-0.2,0.2-0.6,0.4-0.9,0.4c-0.2,0-0.3,0-0.4,0V-3.8z M-62.2-5.6c0,0.4,0.2,0.7,0.6,0.7c0.3,0,0.5-0.1,0.6-0.3c0,0,0-0.1,0-0.2
			c0-0.5-0.2-1-0.7-1C-62-6.4-62.2-6-62.2-5.6z"/>
	</g>
	<rect id="XMLID_394_" x="-68.9" y="-7.1" class="st2" width="0.3" height="3.7"/>
	<g id="XMLID_393_">
		<path id="XMLID_24_" class="st2" d="M-81.7-6.6h0.8v-0.8h0.2v0.8h0.8v0.2h-0.8V-6h0.9v0.2h-0.9v0.6h-0.2v-0.6h-0.9V-6h0.9v-0.4
			h-0.8V-6.6z M-81.5-7.3c0.1,0.2,0.2,0.3,0.4,0.5l-0.2,0.1c-0.1-0.2-0.2-0.4-0.3-0.5L-81.5-7.3z M-80.1-7.3l0.2,0.1
			C-79.9-7-80-6.8-80.2-6.7l-0.2-0.1C-80.3-7-80.2-7.1-80.1-7.3z"/>
		<path id="XMLID_28_" class="st2" d="M-79.1-7.4l0.2,0.1v0h1.6v0.2h-0.5V-7h0.4v0.5h-1.5V-7h0.5v-0.1h-0.5v-0.1
			c0,0.2-0.1,0.3-0.1,0.4v1.7h-0.2v-1.2c0,0.1-0.1,0.2-0.2,0.3l-0.1-0.3c0.1-0.1,0.2-0.3,0.2-0.4C-79.2-7-79.2-7.1-79.1-7.4z
			 M-78.4-5.5l0.1,0.2c-0.1,0.1-0.2,0.1-0.3,0.1c-0.1,0-0.2,0.1-0.3,0.1L-79-5.4c0.1,0,0.3,0,0.4-0.1C-78.5-5.5-78.5-5.5-78.4-5.5z
			 M-78.8-6.5h1.4v0.9h-1.4V-6.5z M-78.5-6.7v-0.2h-0.3v0.2H-78.5z M-78.6-6.2h1v-0.1h-1V-6.2z M-78.6-6h1v-0.1h-1V-6z M-77.6-5.7
			v-0.1h-1v0.1H-77.6z M-78-7v-0.1h-0.2V-7H-78z M-78-6.7v-0.2h-0.2v0.2H-78z M-77.9-5.5c0.2,0,0.4,0.1,0.6,0.2l-0.1,0.2
			c-0.2-0.1-0.4-0.1-0.6-0.2L-77.9-5.5z M-77.6-6.7v-0.2h-0.2v0.2H-77.6z"/>
	</g>
	<g id="XMLID_453_">
		<g id="XMLID_322_">
			<path id="XMLID_340_" class="st2" d="M-83.6-2.9v-1.7h0.3v0.7h0.6v-0.7h0.3v1.7h-0.3v-0.7h-0.6v0.7H-83.6z"/>
			<path id="XMLID_337_" class="st2" d="M-82-3.7l-0.2-0.1c0-0.1,0.1-0.2,0.1-0.3c0.1-0.1,0.2-0.1,0.3-0.1c0.1,0,0.2,0,0.3,0
				S-81.5-4-81.4-4c0,0.1,0,0.2,0,0.3l0,0.4c0,0.1,0,0.2,0,0.2c0,0.1,0,0.1,0,0.2h-0.3l0-0.1c0,0.1-0.1,0.1-0.1,0.1s-0.1,0-0.2,0
				c-0.1,0-0.2,0-0.2-0.1c-0.1-0.1-0.1-0.2-0.1-0.3c0-0.1,0-0.1,0-0.2c0-0.1,0.1-0.1,0.1-0.1c0,0,0.1-0.1,0.2-0.1
				c0.1,0,0.2-0.1,0.3-0.1c0-0.1,0-0.1,0-0.1c0,0,0,0-0.1-0.1s-0.1,0-0.1,0c0,0-0.1,0-0.1,0C-82-3.8-82-3.8-82-3.7z M-81.7-3.5
				c0,0-0.1,0-0.2,0c-0.1,0-0.1,0-0.2,0.1c0,0,0,0.1,0,0.1c0,0,0,0.1,0,0.1s0.1,0,0.1,0c0,0,0.1,0,0.1,0c0,0,0.1-0.1,0.1-0.1
				C-81.7-3.2-81.7-3.3-81.7-3.5L-81.7-3.5z"/>
			<path id="XMLID_335_" class="st2" d="M-81.1-2.9v-1.7h0.3v1.7H-81.1z"/>
			<path id="XMLID_333_" class="st2" d="M-80.7-4.1h0.1v-0.1c0-0.1,0-0.2,0-0.2c0-0.1,0.1-0.1,0.1-0.1c0,0,0.1,0,0.2,0
				c0.1,0,0.2,0,0.2,0l0,0.2c0,0-0.1,0-0.1,0c0,0-0.1,0-0.1,0s0,0.1,0,0.1v0.1h0.2v0.3h-0.2v1h-0.3v-1h-0.1V-4.1z"/>
			<path id="XMLID_331_" class="st2" d="M-79.4-2.9v-1.7h1v0.3h-0.7v0.4h0.6v0.3h-0.6v0.7H-79.4z"/>
			<path id="XMLID_328_" class="st2" d="M-78-3.7l-0.2-0.1c0-0.1,0.1-0.2,0.1-0.3c0.1-0.1,0.2-0.1,0.3-0.1c0.1,0,0.2,0,0.3,0
				S-77.5-4-77.4-4c0,0.1,0,0.2,0,0.3l0,0.4c0,0.1,0,0.2,0,0.2c0,0.1,0,0.1,0,0.2h-0.3l0-0.1c0,0.1-0.1,0.1-0.1,0.1s-0.1,0-0.2,0
				c-0.1,0-0.2,0-0.2-0.1c-0.1-0.1-0.1-0.2-0.1-0.3c0-0.1,0-0.1,0-0.2c0-0.1,0.1-0.1,0.1-0.1c0,0,0.1-0.1,0.2-0.1
				c0.1,0,0.2-0.1,0.3-0.1c0-0.1,0-0.1,0-0.1c0,0,0,0-0.1-0.1s-0.1,0-0.1,0c0,0-0.1,0-0.1,0C-78-3.8-78-3.8-78-3.7z M-77.7-3.5
				c0,0-0.1,0-0.2,0c-0.1,0-0.1,0-0.2,0.1c0,0,0,0.1,0,0.1c0,0,0,0.1,0,0.1s0.1,0,0.1,0c0,0,0.1,0,0.1,0c0,0,0.1-0.1,0.1-0.1
				C-77.7-3.2-77.7-3.3-77.7-3.5L-77.7-3.5z"/>
			<path id="XMLID_326_" class="st2" d="M-76.9-2.9h-0.3v-1.2h0.2v0.2c0-0.1,0.1-0.1,0.1-0.2c0,0,0.1,0,0.1,0c0.1,0,0.1,0,0.2,0.1
				l-0.1,0.3c0,0-0.1-0.1-0.1-0.1c0,0-0.1,0-0.1,0c0,0,0,0.1-0.1,0.1c0,0.1,0,0.2,0,0.4V-2.9z"/>
			<path id="XMLID_323_" class="st2" d="M-75.8-3.3l0.3,0.1c0,0.1-0.1,0.2-0.2,0.3s-0.2,0.1-0.3,0.1c-0.1,0-0.3,0-0.3-0.1
				c-0.1-0.1-0.1-0.3-0.1-0.5c0-0.2,0-0.4,0.1-0.5c0.1-0.1,0.2-0.2,0.3-0.2c0.1,0,0.3,0.1,0.3,0.2c0.1,0.1,0.1,0.3,0.1,0.5l0,0h-0.7
				c0,0.1,0,0.2,0.1,0.2c0,0.1,0.1,0.1,0.2,0.1C-75.9-3.1-75.8-3.1-75.8-3.3z M-75.8-3.6c0-0.1,0-0.2-0.1-0.2c0,0-0.1-0.1-0.1-0.1
				c-0.1,0-0.1,0-0.1,0.1c0,0.1-0.1,0.1-0.1,0.2H-75.8z"/>
		</g>
	</g>
	<rect id="XMLID_454_" x="-86.8" y="-1.8" class="st4" width="32.6" height="7.9"/>
	<rect id="XMLID_77_" x="-86.8" y="9.4" class="st5" width="32.6" height="20.2"/>
	<g id="XMLID_94_">
		<g id="Group-27_1_" transform="translate(0 3.756)">
			<defs>
				<filter id="Adobe_OpacityMaskFilter" filterUnits="userSpaceOnUse" x="-91.3" y="6.3" width="35.1" height="22.5">
					<feColorMatrix  type="matrix" values="1 0 0 0 0  0 1 0 0 0  0 0 1 0 0  0 0 0 1 0"/>
				</filter>
			</defs>
			<mask maskUnits="userSpaceOnUse" x="-91.3" y="6.3" width="35.1" height="22.5" id="mask-9_2_">
				<g id="XMLID_32_" class="st6">
					<path id="path-8_2_" class="st2" d="M-86.8,6.3c0,0.1,0,0.2,0,0.3l0,17.9c0,0.8,0.6,1.4,1.4,1.4l29.3,0V6.3L-86.8,6.3
						L-86.8,6.3L-86.8,6.3z"/>
				</g>
			</mask>
			<path id="Fill-25_1_" class="st7" d="M-58,6.9c-0.6-0.3-1.6-0.6-2.7-0.6c-0.7,0-5.4,0.2-8.9,5.5c-0.2,0.2-0.3,0.5-0.4,0.7l3.4,0
				c0.5-1.3,2.2-5.2,5.7-5.4c3.8-0.2,2.2,2.7,0.7,3.7c-1.1,0.8-2.2,1.6-5.9,2c0,0-2.5,0.4-5.2,0.3c-1.3,0-3.2,0-5-0.1
				c-9.6-0.2-15.2,5.2-15.1,9c0.2,4.2,3.4,6.8,9.9,6.8c7.3,0,11.5-5.1,12.8-8c0.7-1.6,1.2-3.5,1.4-4.8l-4.1-0.3
				c-0.2,0.5-0.5,1.1-0.7,1.7c-1.3,2.8-4.2,7.5-9.7,6.9c-5.5-0.6-4.2-4.9-2-6.8c2.3-2,6.4-3.8,12.4-3.3l0.2,0l4.9,0.4v0
				c4,0.2,7.5-0.3,9.4-3.1C-55.3,9.3-56.5,7.7-58,6.9"/>
		</g>
		<rect id="XMLID_80_" x="-86.8" y="28" class="st8" width="2" height="1.7"/>
	</g>
	<g id="XMLID_78_">
		<circle id="XMLID_81_" class="st9" cx="-47.4" cy="-14.9" r="2.3"/>
		<ellipse id="XMLID_82_" class="st10" cx="-47.4" cy="-14.9" rx="1.6" ry="1.5"/>
	</g>
	<g id="XMLID_96_">
		<circle id="XMLID_99_" class="st9" cx="-47.4" cy="-7.9" r="2.3"/>
		<ellipse id="XMLID_152_" class="st10" cx="-47.4" cy="-7.9" rx="1.6" ry="1.5"/>
	</g>
	<g id="XMLID_154_">
		<circle id="XMLID_431_" class="st9" cx="-47.4" cy="-0.9" r="2.3"/>
		<ellipse id="XMLID_396_" class="st10" cx="-47.4" cy="-0.9" rx="1.6" ry="1.5"/>
	</g>
	<g id="XMLID_432_">
		<circle id="XMLID_434_" class="st9" cx="-47.4" cy="6.1" r="2.3"/>
		<ellipse id="XMLID_433_" class="st10" cx="-47.4" cy="6.1" rx="1.6" ry="1.5"/>
	</g>
</g>
</svg>
