<?xml version="1.0" encoding="utf-8"?>
<!-- Generator: Adobe Illustrator 19.0.0, SVG Export Plug-In . SVG Version: 6.00 Build 0)  -->
<svg version="1.1" id="圖層_1" xmlns="http://www.w3.org/2000/svg" xmlns:xlink="http://www.w3.org/1999/xlink" x="0px" y="0px"
	 viewBox="-56 45.7 170.1 51" style="enable-background:new -56 45.7 170.1 51;" xml:space="preserve">
<style type="text/css">
	.st0{fill:#FFF888;}
	.st1{fill:#073E82;}
	.st2{fill:#FFFFFF;}
</style>
<path id="XMLID_1_" class="st0" d="M107.5,96.7H-49.3c-3.7,0-6.7-1.8-6.7-4V49.8c0-2.2,3-4,6.7-4h156.7c3.7,0,6.7,1.8,6.7,4v42.8
	C114.2,94.9,111.2,96.7,107.5,96.7z"/>
<path id="XMLID_21_" class="st1" d="M-4.7,90.8H-45c-3.9,0-7.1-3.2-7.1-7.1V58.8c0-3.9,3.2-7.1,7.1-7.1h40.3c3.9,0,7.1,3.2,7.1,7.1
	v24.9C2.4,87.6-0.7,90.8-4.7,90.8z"/>
<g id="XMLID_24_">
	<path id="XMLID_245_" class="st2" d="M-37.2,82.5l6.3-19.3h-7.8v-3.6h12.3V64l-5.6,18.4L-37.2,82.5L-37.2,82.5z"/>
	<path id="XMLID_247_" class="st2" d="M-24.3,77.2h4.6c0,1.5,0.6,2.3,1.7,2.3c0.9,0,1.4-0.3,1.7-0.9c0.3-0.6,0.4-1.9,0.4-3.8
		c0-1.6-0.2-2.8-0.5-3.4c-0.3-0.7-0.8-1-1.5-1c-1.2,0-1.7,0.9-1.7,2.7h-4.5V59.7h12.2v3.6h-7.5v5.8c0.8-1.1,1.9-1.6,3.4-1.6
		c1.8,0,3.1,0.6,3.8,1.8c0.7,1.2,1.1,3.1,1.1,5.6c0,2.9-0.5,5-1.6,6.2c-1.1,1.2-2.9,1.8-5.4,1.8c-4.1,0-6.2-1.7-6.2-5
		C-24.2,77.9-24.2,77.2-24.3,77.2z"/>
</g>
<g id="XMLID_539_">
	<polygon id="XMLID_534_" points="44.6,71.4 40.7,71.4 45.2,66.9 49.1,66.9 	"/>
	<polygon id="XMLID_536_" points="45.2,75.8 49.1,75.8 44.6,71.4 40.7,71.4 	"/>
	<polygon id="XMLID_538_" points="58.4,71.4 62.2,71.4 57.7,75.8 53.9,75.8 	"/>
	<polygon id="XMLID_537_" points="57.7,66.9 53.9,66.9 58.4,71.4 62.2,71.4 	"/>
	<rect id="XMLID_535_" x="42.4" y="69.7" width="18.3" height="3.2"/>
</g>
<g id="XMLID_162_">
</g>
<g id="XMLID_249_">
</g>
<g id="XMLID_250_">
</g>
<g id="XMLID_251_">
</g>
<g id="XMLID_252_">
</g>
<g id="XMLID_253_">
</g>
<g>
	<path d="M13.9,63.9c0.1,0.7,0.5,1.1,1.3,1.2c0,0.4,0,0.9,0,1.3c-1.2,0-1.8-0.8-1.9-2.4C13.5,64,13.7,63.9,13.9,63.9z M14.6,66.9
		h0.6c0,0.8,0,1.4-0.1,1.8c0,0.2-0.1,0.3-0.1,0.4c-0.3,0.7-0.8,1.2-1.6,1.4c0-0.7,0-1.2-0.1-1.7C14.2,68.7,14.6,68.1,14.6,66.9z
		 M14.4,61.7c0,0.5,0.4,0.9,1.1,0.9c-0.1,0.4-0.1,0.9-0.1,1.4c-1-0.2-1.6-1-1.6-2.3C14,61.8,14.2,61.7,14.4,61.7z M15.8,66.3h2.5v-1
		H19v1h2.7v1h-1.6c0.2,0.5,0.4,0.8,0.7,1.1c0.4,0.4,0.9,0.7,1.4,0.8c-0.3,0.5-0.6,0.9-0.8,1.3c-1.1-0.7-1.8-1.7-2-3.2H19v3.4h-0.8
		v-3.4h-0.4c-0.1,0.3-0.1,0.5-0.2,0.8c-0.1,0.3-0.2,0.7-0.4,1c-0.2,0.4-0.4,0.6-0.7,0.8c-0.2,0.2-0.5,0.4-0.8,0.6
		c-0.1-0.5-0.4-1-0.7-1.4c0.3-0.1,0.6-0.1,0.9-0.3c0.3-0.1,0.5-0.3,0.7-0.5c0.2-0.2,0.3-0.4,0.5-0.7c0-0.1,0.1-0.2,0.1-0.3h-1.4
		V66.3z M16.3,61.9h4.9c0.3,0,0.5,0.2,0.5,0.4v1.6h-0.8v-0.8c0-0.1-0.1-0.2-0.2-0.2h-0.9v1.6c0,0.1,0.1,0.2,0.2,0.2h0.8
		c0.1,0,0.1,0,0.2-0.1c0-0.1,0.1-0.2,0.1-0.2c0-0.1,0-0.2,0.1-0.3c0.1,0,0.2,0.1,0.2,0.1c0.1,0,0.2,0.1,0.3,0.1
		c-0.1,0.7-0.1,1.1-0.2,1.2c-0.1,0.1-0.2,0.2-0.5,0.2h-1.2c-0.4,0-0.7-0.2-0.7-0.5v-2.2h-0.8c-0.1,0.8-0.3,1.4-0.6,1.9
		c-0.5,0.5-1,0.9-1.7,1.1c0-0.4-0.1-0.9-0.2-1.3c0.2,0,0.4-0.1,0.7-0.2c0.4-0.1,0.6-0.3,0.7-0.5c0.2-0.2,0.4-0.6,0.4-1h-1
		c-0.1,0-0.2,0.1-0.2,0.2v1h-0.7v-1.7C15.9,62.1,16,62,16.3,61.9z"/>
	<path d="M23.9,64c0.1,0.7,0.4,1.1,1,1.2c0,0.4,0,0.8,0,1.2c-1,0-1.5-0.8-1.5-2.4C23.5,64,23.7,64,23.9,64z M24.4,66.9h0.6
		c0,0.7,0,1.3-0.1,1.8c-0.2,1-0.7,1.6-1.5,1.7c0-0.6,0-1.1-0.1-1.6C24.1,68.8,24.4,68.2,24.4,66.9z M24.2,61.7
		c0,0.7,0.3,1.1,0.9,1.2c-0.1,0.4-0.1,0.8-0.1,1.3c-0.8-0.3-1.3-1.1-1.3-2.5C23.9,61.8,24.1,61.7,24.2,61.7z M25.5,65l0.4,0.1
		c0,0.4-0.1,0.7-0.3,0.9c-0.1,0.2-0.3,0.3-0.5,0.5L25,65.6c0.2,0,0.3-0.1,0.4-0.2C25.4,65.3,25.5,65.2,25.5,65z M26,61.6l0.5,0.1
		c0,0.2-0.1,0.4-0.2,0.7c-0.1,0.2-0.1,0.3-0.2,0.4h0c0.1,0,0.2,0,0.3,0c0,0,0.1,0,0.1,0c0,0,0,0,0-0.1c0.1-0.2,0.2-0.4,0.2-0.6
		c0.2,0,0.3,0.1,0.5,0.1c-0.1,0.2-0.1,0.4-0.2,0.6c-0.1,0.2-0.1,0.4-0.2,0.5c-0.1,0.2-0.2,0.5-0.4,0.6c0,0.1-0.1,0.1-0.1,0.2
		c0.1,0,0.2,0,0.3,0c0.1,0,0.2,0,0.3,0c0-0.2,0-0.4-0.1-0.6c0.1,0,0.2,0,0.3-0.1c0,0.3,0.2,0.6,0.5,0.7c0,0,0,0,0,0h1.8v0.5h-1.9
		v-0.2c-0.1,0.2-0.1,0.5-0.1,0.7c-0.2-0.1-0.3-0.3-0.4-0.6c-0.1,0-0.3,0.1-0.4,0.1v1.8h-0.5v-1.7c-0.2,0.1-0.5,0.1-0.7,0.2
		c-0.1-0.3-0.1-0.6-0.2-0.9c0.2,0,0.4-0.1,0.6-0.2c0.2-0.2,0.3-0.3,0.4-0.4c-0.1,0-0.2,0-0.3,0.1c-0.2,0-0.3,0.1-0.5,0.1
		c-0.1-0.3-0.2-0.5-0.3-0.8c0.3-0.1,0.4-0.2,0.5-0.4C25.9,62.2,26,61.9,26,61.6z M25.7,66.6h5.5c0.2,0,0.3,0.1,0.3,0.3
		c0,0.4,0,0.8,0,1.1c0,0.2-0.1,0.3-0.4,0.3h-4.9c0,0,0,0-0.1,0c0,0,0,0.1,0,0.2c0,0,0,0.1,0.1,0.1h5.4c0.2,0,0.4,0.2,0.4,0.4
		c0,0.9-0.3,1.4-0.8,1.4c-0.1,0.1-1.1,0.1-2.9,0.1c0-0.3-0.1-0.5-0.3-0.8c0.8,0,1.8,0,2.9,0c0.3,0,0.4-0.1,0.4-0.3
		c0-0.1,0-0.1-0.1-0.1h-5.4c-0.2,0-0.3-0.1-0.3-0.3c0.1-0.4,0.2-0.7,0.2-1.1c0-0.1,0.1-0.2,0.3-0.2h4.9c0.1,0,0.1,0,0.1-0.1
		c0,0,0-0.1,0-0.1c0-0.1,0-0.1-0.1-0.1h-5.1V66.6z M27.1,65c0,0.2,0.1,0.3,0.1,0.4c0.1,0.1,0.1,0.2,0.3,0.2
		c-0.1,0.3-0.1,0.6-0.1,0.8c-0.2-0.1-0.3-0.3-0.4-0.5c-0.1-0.2-0.2-0.5-0.2-0.9L27.1,65z M30.3,61.6l0.5,0.1c0,0.2-0.1,0.4-0.2,0.7
		c-0.1,0.2-0.1,0.3-0.2,0.4h0.1c0.1,0,0.2,0,0.3,0c0,0,0.1,0,0.1,0c0-0.1,0-0.1,0.1-0.2c0.1-0.2,0.2-0.4,0.2-0.6
		c0.2,0,0.3,0.1,0.5,0.1c-0.1,0.2-0.1,0.4-0.2,0.6c-0.1,0.2-0.2,0.4-0.2,0.5c-0.1,0.3-0.3,0.5-0.4,0.7c-0.1,0.1-0.1,0.2-0.2,0.2
		c0.1,0,0.3,0,0.4,0c0.1,0,0.1,0,0.2,0c0-0.2-0.1-0.4-0.1-0.6c0.1,0,0.3-0.1,0.4-0.1c0,0.4,0.3,0.7,0.6,0.9c-0.2,0.4-0.3,0.7-0.3,1
		c-0.2-0.1-0.4-0.3-0.5-0.6c-0.1,0-0.3,0.1-0.4,0.1v1.9h-0.6v-1.8c-0.3,0.1-0.5,0.1-0.8,0.2c-0.1-0.3-0.1-0.6-0.2-0.9
		c0.2,0,0.5-0.1,0.7-0.3c0.2-0.2,0.3-0.3,0.4-0.4c-0.1,0-0.2,0-0.3,0.1c-0.2,0-0.3,0.1-0.5,0.1c0-0.1-0.1-0.3-0.1-0.4v0.2h-2.3v-0.6
		h2.3v0.1c0.2-0.1,0.3-0.2,0.4-0.3C30.1,62.1,30.2,61.8,30.3,61.6z M29.1,66.5h-1.3c-0.2,0-0.3-0.1-0.3-0.3v-1.1
		c0-0.1,0.2-0.2,0.4-0.2h1.2c0.2,0,0.4,0.1,0.4,0.3v1.1C29.4,66.4,29.3,66.4,29.1,66.5z M27.5,63.4h1.9v0.5h-1.9V63.4z M27.5,61.8
		h1.9v0.6h-1.9V61.8z M28.1,65.5c-0.1,0-0.1,0-0.1,0.1v0.2c0,0.1,0.1,0.1,0.2,0.1h0.7c0.1,0,0.1,0,0.2-0.1v-0.1c0-0.1,0-0.1-0.1-0.1
		H28.1z M29.9,65l0.4,0.1c0,0.4-0.1,0.8-0.2,1c-0.1,0.2-0.2,0.4-0.5,0.5l-0.1-1c0.1,0,0.2-0.1,0.3-0.2C29.9,65.3,29.9,65.1,29.9,65z
		 M31.6,64.9c0,0.2,0.1,0.4,0.1,0.6c0.1,0.1,0.2,0.2,0.3,0.3C32,66,32,66.3,32,66.6c-0.2-0.1-0.4-0.3-0.5-0.6
		c-0.1-0.3-0.2-0.6-0.3-1.1L31.6,64.9z"/>
</g>
<g>
	<path d="M72.8,68.4h-2.9v2.3h-0.8v-2.3h-2.9c-0.3,0-0.4-0.2-0.4-0.5v-4.3c0.1-0.3,0.2-0.4,0.6-0.5h2.7v-1.6h0.8v1.6h2.8
		c0.4,0.1,0.6,0.2,0.6,0.5v4.2C73.3,68.2,73.2,68.3,72.8,68.4z M66.8,64.3c-0.1,0-0.2,0.1-0.2,0.2V67c0.1,0.1,0.1,0.2,0.3,0.2h2.4
		v-2.8H66.8z M69.9,64.3v2.8h2.4c0.1,0,0.2-0.1,0.3-0.2v-2.4c0-0.1-0.1-0.2-0.2-0.2H69.9z"/>
	<path d="M78,67.9c0,0.2,0,0.3,0,0.5c0.8-0.1,1.4-0.3,1.9-0.5h-0.8c-0.3,0-0.4-0.1-0.4-0.4v-1.5c0.1-0.2,0.2-0.3,0.6-0.3H83
		c0.3,0,0.5,0.2,0.5,0.4v1.5c0,0.2-0.2,0.4-0.5,0.4h-1.3c0,0.1,0.1,0.2,0.2,0.3c0.1,0.1,0.2,0.3,0.3,0.4c0.6-0.2,0.9-0.4,1.1-0.6
		l0.5,0.3c-0.2,0.3-0.4,0.6-0.8,0.9c0.1,0,0.2,0.1,0.3,0.1c0.3,0.1,0.6,0.2,1,0.2c-0.1,0.1-0.2,0.3-0.4,0.6
		c-0.1,0.2-0.2,0.4-0.3,0.6c-0.4-0.1-0.7-0.3-0.9-0.4c-0.3-0.2-0.6-0.4-0.8-0.7c-0.2-0.3-0.4-0.6-0.6-0.9c-0.1-0.2-0.2-0.5-0.2-0.8
		h-0.2c-0.2,0.2-0.4,0.4-0.6,0.6v0.9c0.4-0.1,0.8-0.1,1.2-0.2c0,0.2,0,0.5,0,0.7c-0.4,0.1-0.9,0.2-1.3,0.4c-0.4,0.1-0.9,0.2-1.3,0.3
		c0-0.1,0-0.3-0.1-0.5c-0.1-0.2-0.1-0.4-0.1-0.5c0.2,0,0.6-0.1,1-0.1v-0.6c-0.4,0.2-0.9,0.4-1.4,0.6c-0.1-0.2-0.1-0.4-0.2-0.6
		c-0.4,0.2-0.8,0.4-1.2,0.6c-0.4,0.2-0.9,0.4-1.4,0.6c0-0.1,0-0.4-0.1-0.7c-0.1-0.3-0.1-0.5-0.2-0.7c0.3-0.1,0.7-0.2,1.2-0.3v-2.1
		h-1v-1h1v-1.9h-1.1v-1.1H78v1.1H77v1.9h0.9v1H77v1.9C77.3,68.1,77.7,68,78,67.9z M78.1,64.4h6v0.9h-6V64.4z M83.2,64.1h-4.3
		c-0.2,0-0.4-0.1-0.4-0.3v-1.6c0-0.2,0.2-0.3,0.5-0.3h4.1c0.3,0,0.5,0.2,0.5,0.4v1.5C83.7,63.9,83.5,64.1,83.2,64.1z M80,62.7h-0.7
		c-0.1,0-0.2,0.1-0.2,0.1v0.3c0,0.1,0.1,0.1,0.2,0.1H80V62.7z M79.5,66.5c-0.1,0-0.2,0.1-0.2,0.1v0.2c0,0.1,0.1,0.1,0.2,0.1h3.1
		c0.1,0,0.2-0.1,0.2-0.1v-0.2c0-0.1-0.1-0.1-0.2-0.1H79.5z M80.6,63.2h0.8v-0.6h-0.8V63.2z M82.1,63.2h0.7c0.1,0,0.2-0.1,0.2-0.1
		v-0.3c0-0.1-0.1-0.1-0.2-0.2h-0.7V63.2z"/>
	<path d="M87.7,69.8L87.6,70c-0.5-0.2-0.8-0.6-1-1c-0.1-0.4-0.2-0.8-0.2-1.4c0-0.6,0.1-1,0.2-1.4c0.2-0.4,0.5-0.8,1-1l0.1,0.2
		c-0.3,0.2-0.6,0.5-0.7,1C87,66.7,87,67.1,87,67.6c0,0.6,0.1,1.1,0.2,1.4C87.2,69.4,87.4,69.7,87.7,69.8z"/>
	<path d="M90.9,67.6h0.3c-0.1,0.5-0.3,0.9-0.6,1.2c0.2,0.1,0.5,0.2,0.7,0.3c0.3,0.1,0.7,0.1,1.1,0.1c-0.1,0.1-0.1,0.2-0.2,0.3
		c-0.1,0.1-0.1,0.2-0.1,0.3c-0.4-0.1-0.7-0.2-1-0.3c-0.3-0.1-0.6-0.3-0.8-0.5c-0.5,0.4-1.2,0.6-2,0.7c0-0.2-0.1-0.4-0.2-0.6
		c0.9,0,1.5-0.1,1.9-0.4c-0.1-0.1-0.3-0.3-0.4-0.4c-0.2-0.3-0.3-0.6-0.4-0.9l0.3,0c0.1,0.3,0.2,0.5,0.3,0.7c0.1,0.2,0.3,0.3,0.4,0.4
		C90.6,68.4,90.8,68,90.9,67.6z M90.1,65.4h0.4v0.5h1.8v0.6h-4v-0.6h1.8V65.4z M89.4,66.5l0.3,0.1c-0.1,0.6-0.5,1-1.1,1.4
		c0-0.3-0.1-0.5-0.2-0.7C88.9,67.2,89.3,66.9,89.4,66.5z M91,66.6h0.3c0,0.3,0.1,0.4,0.2,0.5c0.2,0.1,0.5,0.2,0.7,0.2
		c0,0.2-0.1,0.5-0.1,0.7c-0.3-0.1-0.6-0.2-0.9-0.5c-0.1-0.1-0.2-0.3-0.2-0.5C91,66.9,91,66.7,91,66.6z"/>
	<path d="M96.8,67.3h-2.3c0,0.1,0,0.2-0.1,0.3h2.5c0.2,0,0.4,0.1,0.4,0.3v1.5c0,0.2-0.1,0.3-0.3,0.4c-0.1,0-0.2,0.1-0.4,0.1
		c-0.2,0-0.3,0-0.4,0c0-0.2,0-0.5-0.1-0.7c0.1,0,0.3,0,0.4,0c0.2,0,0.3-0.1,0.3-0.3v-0.7c0-0.1-0.1-0.1-0.2-0.1h-0.5
		c0,0.5-0.1,0.9-0.3,1.1c-0.2,0.3-0.5,0.5-1,0.7c0-0.3,0-0.5-0.1-0.7c0.5-0.1,0.8-0.3,0.9-0.5c0.1-0.1,0.2-0.3,0.3-0.6h-0.7
		c-0.2,0.9-0.8,1.4-1.8,1.6c0-0.3-0.1-0.4-0.2-0.6c0.8-0.1,1.4-0.5,1.7-1h-0.6c-0.2,0.3-0.5,0.4-0.8,0.5c0-0.2-0.1-0.5-0.1-0.7
		c0.4,0,0.7-0.2,0.9-0.6h-0.2c-0.1,0-0.2-0.1-0.2-0.2v-1.4c0-0.1,0.1-0.2,0.3-0.2h2.8c0.2,0,0.3,0.1,0.3,0.2v1.4
		C97,67.2,96.9,67.3,96.8,67.3z M96.7,66.2v-0.2c0,0,0-0.1-0.1-0.1h-2.4c-0.1,0-0.1,0-0.1,0.1v0.2H96.7z M94,66.6v0.2
		c0,0,0.1,0.1,0.1,0.1h2.4c0.1,0,0.1,0,0.1-0.1v-0.2H94z"/>
	<path d="M99.1,66.4h0.6v-0.2H99c-0.1,0-0.1,0-0.1,0.1v1.4c0,1-0.2,1.7-0.6,2.2c0-0.3-0.1-0.6-0.2-0.9c0.3-0.2,0.4-0.7,0.5-1.5v-1.7
		c0-0.1,0.1-0.2,0.2-0.2h1.5v-0.3h0.4v0.3h1.8v0.5h-0.8v0.2h0.6v0.4h-0.6v0.3c0,0.1-0.1,0.2-0.2,0.2H100c-0.2,0-0.2-0.1-0.2-0.2
		v-0.3h-0.6V66.4z M99,67.4h3.5v0.4h-1.7v0.1h1.1c0.1,0,0.2,0.1,0.2,0.2v1.1c0,0.1-0.1,0.2-0.2,0.2h-0.5c0.2,0.1,0.6,0.1,1.1,0.1
		c-0.1,0.1-0.1,0.3-0.2,0.5c-0.5-0.1-1-0.2-1.3-0.5l0.2-0.1h-1l0.2,0.1c-0.4,0.3-0.8,0.4-1.4,0.5c0-0.2-0.1-0.3-0.2-0.5
		c0.6,0,1,0,1.2-0.1h-0.6c-0.1,0-0.2-0.1-0.2-0.2V68c0-0.1,0.1-0.1,0.2-0.2h1v-0.1H99V67.4z M100.6,68.5v-0.2h-0.9
		c0,0-0.1,0-0.1,0.1v0.1H100.6z M99.6,68.8L99.6,68.8c0,0.1,0.1,0.1,0.1,0.1h0.9v-0.1H99.6z M101.3,66.2h-1.3v0.2h1.3V66.2z
		 M100.1,66.7L100.1,66.7c0,0.1,0.1,0.1,0.2,0.1h1c0.1,0,0.2,0,0.2-0.1v0H100.1z M101.9,68.5L101.9,68.5c0-0.1,0-0.1-0.1-0.2h-0.9
		v0.2H101.9z M100.9,68.8v0.1h0.9c0.1,0,0.1,0,0.1-0.1v-0.1H100.9z"/>
	<path d="M104.5,68.4c0,0.2,0,0.3,0.1,0.5c-0.1,0.1-0.3,0.2-0.5,0.3c-0.3,0.1-0.6,0.2-0.8,0.2c0-0.2,0-0.4-0.1-0.7
		c0.2,0,0.4,0,0.6,0v-1.8h-0.5v-0.5h0.5v-1h0.4v1h0.5v0.5H104v1.7C104.2,68.5,104.3,68.4,104.5,68.4z M104.5,67.3h3.1v0.5h-1.9
		c0,0.1,0,0.1-0.1,0.2h1.5c0.2,0,0.3,0.1,0.3,0.2v1.2c0,0.2-0.1,0.3-0.3,0.4c-0.1,0-0.1,0.1-0.3,0.1c-0.1,0-0.2,0-0.3,0
		c0-0.2,0-0.4-0.1-0.6c0.1,0,0.1,0,0.2,0c0.2,0,0.3-0.1,0.3-0.3v-0.5c0-0.1-0.1-0.1-0.2-0.1h-0.2c0,0.2,0,0.3-0.1,0.4
		c0,0.2-0.1,0.3-0.2,0.5c-0.1,0.1-0.1,0.2-0.3,0.3c-0.1,0.1-0.3,0.2-0.5,0.3c0-0.2-0.1-0.5-0.2-0.6c0.1,0,0.2,0,0.4-0.1
		c0.1,0,0.2-0.1,0.3-0.2c0.1-0.1,0.1-0.2,0.2-0.4c0-0.1,0-0.1,0-0.2h-0.5c0,0.1,0,0.2-0.1,0.3c0,0.1-0.1,0.3-0.2,0.4
		c-0.1,0.1-0.2,0.2-0.3,0.3c-0.1,0.1-0.3,0.2-0.5,0.2c0-0.3-0.1-0.5-0.2-0.6c0.1,0,0.2,0,0.4-0.1c0.1,0,0.3-0.1,0.3-0.2
		c0.1-0.1,0.1-0.2,0.2-0.3c0,0,0-0.1,0-0.1h-0.2c-0.1,0.1-0.3,0.2-0.6,0.3l-0.2-0.6c0.4,0,0.6-0.1,0.8-0.4h-0.8V67.3z M106.9,67.1
		h-1.9c-0.1,0-0.2-0.1-0.2-0.2v-1.3c0-0.1,0.1-0.2,0.3-0.2h1.8c0.2,0,0.3,0.1,0.3,0.2v1.3C107.2,67,107.1,67.1,106.9,67.1z
		 M106.8,66.1V66c0,0,0-0.1-0.1-0.1h-1.5c0,0-0.1,0-0.1,0.1v0.1H106.8z M105.2,66.5v0.1c0,0,0.1,0.1,0.1,0.1h1.4
		c0.1,0,0.1,0,0.1-0.1v-0.1H105.2z"/>
	<path d="M109.3,67.6c0,0.6-0.1,1-0.2,1.4c-0.2,0.4-0.5,0.8-1,1l-0.1-0.2c0.3-0.1,0.5-0.4,0.6-0.8c0.1-0.3,0.2-0.8,0.2-1.4
		c0-0.5,0-0.9-0.1-1.2c-0.1-0.5-0.3-0.8-0.7-1l0.1-0.2c0.5,0.2,0.8,0.5,1,1C109.2,66.6,109.3,67.1,109.3,67.6z"/>
</g>
<g>
	<path d="M12.2,80.2c0,0.3-0.1,0.6-0.4,0.8c-0.2,0.2-0.5,0.3-0.9,0.3c-0.2,0-0.5,0-0.7-0.1c-0.2-0.1-0.4-0.2-0.5-0.3l0.3-0.4
		c0.1,0.1,0.2,0.1,0.3,0.2c0.2,0.1,0.4,0.2,0.5,0.2c0.2,0,0.3,0,0.4-0.1c0.1-0.1,0.2-0.2,0.2-0.4c0-0.1-0.1-0.3-0.2-0.4
		c-0.1-0.1-0.2-0.2-0.3-0.3l-0.3-0.2c-0.2-0.1-0.3-0.2-0.3-0.3c-0.1-0.1-0.2-0.2-0.2-0.3c-0.1-0.1-0.1-0.2-0.1-0.4
		c0-0.3,0.1-0.5,0.3-0.7s0.5-0.3,0.8-0.3c0.2,0,0.4,0,0.6,0.1c0.2,0.1,0.3,0.1,0.4,0.2l-0.3,0.4c-0.1-0.1-0.1-0.1-0.2-0.1
		c-0.1-0.1-0.3-0.1-0.4-0.1c-0.2,0-0.3,0-0.4,0.1c-0.1,0.1-0.1,0.2-0.1,0.3c0,0.1,0,0.2,0.1,0.3c0,0,0.1,0.1,0.3,0.2l0.5,0.4
		c0.2,0.2,0.3,0.3,0.4,0.4C12.1,79.8,12.2,80,12.2,80.2z"/>
	<path d="M15.2,81.1h-0.7v-1.7c0-0.2,0-0.3-0.1-0.4c-0.1-0.1-0.2-0.2-0.4-0.2c-0.2,0-0.4,0.1-0.5,0.2c-0.1,0.1-0.1,0.3-0.1,0.5
		l0,1.5h-0.7v-3.9h0.7v1.6c0.1-0.1,0.2-0.2,0.4-0.3c0.2-0.1,0.3-0.1,0.5-0.1c0.3,0,0.5,0.1,0.6,0.2c0.1,0.1,0.2,0.2,0.2,0.4
		c0,0.1,0,0.2,0,0.3V81.1z"/>
	<path d="M18.2,81.1h-0.7v-0.3c-0.1,0.1-0.2,0.2-0.4,0.3c-0.2,0.1-0.3,0.1-0.5,0.1c-0.3,0-0.5-0.1-0.7-0.3c-0.2-0.2-0.2-0.4-0.2-0.7
		v-1.8h0.7v1.6c0,0.2,0,0.4,0.1,0.5c0.1,0.1,0.2,0.2,0.4,0.2c0.2,0,0.3-0.1,0.4-0.2c0.1-0.1,0.2-0.3,0.2-0.4v-1.6h0.7V81.1z"/>
	<path d="M22.9,81.1h-0.7v-1.7c0-0.2,0-0.3-0.1-0.4c-0.1-0.1-0.2-0.2-0.3-0.2c0,0,0,0-0.1,0c-0.1,0-0.3,0.1-0.4,0.2
		s-0.1,0.2-0.1,0.4v1.7h-0.7v-1.7c0-0.2,0-0.3-0.1-0.4c-0.1-0.1-0.2-0.1-0.3-0.1c-0.1,0-0.3,0-0.4,0.1s-0.2,0.2-0.2,0.4v1.7h-0.7
		v-2.6h0.7v0.4c0.1-0.1,0.2-0.2,0.3-0.3c0.2-0.1,0.3-0.1,0.5-0.1c0.2,0,0.4,0,0.5,0.1c0.1,0,0.2,0.1,0.3,0.3c0,0,0.1-0.1,0.1-0.1
		c0.1-0.1,0.2-0.1,0.3-0.2c0.2-0.1,0.3-0.1,0.5-0.1c0.3,0,0.5,0.1,0.6,0.3c0.1,0.2,0.2,0.4,0.2,0.6V81.1z"/>
	<path d="M29.7,77.5l-1.1,3.6h-0.7l-0.8-2.7l-0.9,2.7l-0.7,0l-0.9-3.6l0.7-0.1l0.7,2.9l0.9-2.8h0.6l0.8,2.8l0.8-2.9L29.7,77.5z"/>
	<path d="M32.5,81.1h-0.7c0,0,0,0,0,0c0,0,0,0,0-0.1c0,0,0-0.1,0-0.1s0-0.1,0-0.1v-0.1L31.4,81c-0.1,0.1-0.2,0.1-0.2,0.2
		c-0.1,0-0.2,0.1-0.3,0.1c-0.2,0-0.4-0.1-0.6-0.2s-0.2-0.3-0.2-0.5c0-0.3,0.1-0.5,0.3-0.6c0.2-0.1,0.4-0.2,0.7-0.3l0.6-0.2
		c0-0.1-0.1-0.2-0.1-0.2c-0.1-0.1-0.2-0.2-0.4-0.2c-0.2,0-0.4,0-0.5,0.1c-0.1,0-0.1,0.1-0.2,0.1l-0.2-0.3c0.1-0.1,0.2-0.1,0.4-0.2
		c0.2-0.1,0.4-0.1,0.5-0.1c0.4,0,0.6,0.1,0.8,0.2c0.2,0.2,0.3,0.4,0.3,0.6v1.1c0,0.1,0,0.1,0,0.2s0,0.1,0,0.2c0,0,0,0.1,0,0.1
		C32.5,81,32.5,81.1,32.5,81.1z M31.7,79.8v-0.2l-0.3,0.1c-0.3,0.1-0.5,0.2-0.6,0.3c-0.1,0.1-0.1,0.2-0.1,0.3c0,0.1,0,0.2,0.1,0.3
		c0.1,0.1,0.2,0.1,0.3,0.1c0.2,0,0.3-0.1,0.4-0.3C31.7,80.3,31.7,80.1,31.7,79.8z"/>
	<path d="M35.5,81.1h-0.7v-1.7c0-0.2-0.1-0.3-0.2-0.4c-0.1-0.1-0.2-0.1-0.4-0.1c-0.2,0-0.3,0.1-0.4,0.2c-0.1,0.1-0.2,0.3-0.2,0.4
		v1.6H33v-2.6h0.7v0.4c0.1-0.1,0.2-0.2,0.4-0.3c0.2-0.1,0.4-0.1,0.5-0.1c0.3,0,0.5,0.1,0.6,0.2c0.2,0.2,0.3,0.4,0.3,0.8V81.1z"/>
</g>
<g>
	<path d="M69.3,77.7L69,78.2c-0.1-0.1-0.2-0.1-0.3-0.2c-0.2-0.1-0.3-0.1-0.5-0.1c-0.4,0-0.7,0.1-1,0.4c-0.2,0.3-0.3,0.6-0.3,1
		s0.1,0.7,0.3,1c0.2,0.3,0.6,0.4,1,0.4c0.1,0,0.3,0,0.4-0.1c0.1,0,0.2-0.1,0.3-0.1l0.2,0.4c-0.2,0.1-0.4,0.2-0.5,0.2
		c-0.2,0-0.3,0.1-0.6,0.1c-0.6,0-1-0.2-1.4-0.5c-0.4-0.4-0.6-0.8-0.6-1.4c0-0.5,0.2-1,0.6-1.3c0.4-0.4,0.8-0.5,1.4-0.5
		c0.2,0,0.5,0,0.7,0.1C68.9,77.6,69.1,77.6,69.3,77.7z"/>
	<path d="M72.2,79.9h-1.7c0,0.2,0.1,0.4,0.2,0.6c0.2,0.2,0.4,0.3,0.6,0.3c0.2,0,0.3,0,0.4-0.1c0.1,0,0.2-0.1,0.2-0.1l0.2,0.3
		c-0.1,0.1-0.2,0.2-0.4,0.2c-0.2,0.1-0.4,0.1-0.6,0.1c-0.4,0-0.7-0.1-1-0.4c-0.3-0.3-0.4-0.6-0.4-1c0-0.4,0.1-0.7,0.4-1
		c0.2-0.2,0.6-0.4,1-0.4c0.4,0,0.7,0.1,0.9,0.4c0.2,0.2,0.3,0.5,0.3,0.8C72.2,79.8,72.2,79.8,72.2,79.9
		C72.2,79.9,72.2,79.9,72.2,79.9z M71.6,79.6c0-0.2,0-0.4-0.1-0.5c-0.1-0.1-0.2-0.2-0.4-0.2c-0.2,0-0.3,0.1-0.4,0.2
		c-0.1,0.1-0.2,0.3-0.2,0.5H71.6z"/>
	<path d="M75.2,81.1h-0.7v-1.7c0-0.2-0.1-0.3-0.2-0.4c-0.1-0.1-0.2-0.1-0.4-0.1c-0.2,0-0.3,0-0.4,0.1c-0.1,0.1-0.2,0.3-0.2,0.4v1.6
		h-0.7v-2.6h0.7v0.4c0.1-0.1,0.2-0.2,0.4-0.3c0.2-0.1,0.3-0.1,0.5-0.1c0.3,0,0.5,0.1,0.6,0.2c0.2,0.2,0.3,0.4,0.3,0.8V81.1z"/>
	<path d="M77.6,81c-0.1,0-0.1,0.1-0.2,0.1c-0.2,0.1-0.3,0.1-0.5,0.1c-0.3,0-0.5-0.1-0.6-0.2c-0.1-0.1-0.2-0.3-0.2-0.5v-1.6h-0.4
		v-0.3h0.4v-0.6l0.7-0.2v0.8h0.7v0.3h-0.7v1.3c0,0.2,0,0.4,0.1,0.5c0.1,0.1,0.2,0.1,0.3,0.1c0.1,0,0.1,0,0.2,0c0.1,0,0.1,0,0.1-0.1
		L77.6,81z"/>
	<path d="M79.8,78.7l-0.2,0.5c0,0-0.1,0-0.1,0s-0.1,0-0.2,0c0,0-0.1,0-0.1,0c-0.1,0-0.2,0.1-0.3,0.2c-0.1,0.1-0.1,0.2-0.1,0.4v1.5
		h-0.7v-2.6h0.7v0.6c0.1-0.1,0.1-0.3,0.1-0.3c0.1-0.2,0.3-0.3,0.4-0.3c0.1,0,0.2,0,0.3,0.1C79.7,78.6,79.8,78.6,79.8,78.7z"/>
	<path d="M82.6,81.1h-0.7c0,0,0,0,0,0c0,0,0,0,0-0.1c0,0,0-0.1,0-0.1c0,0,0-0.1,0-0.1v-0.1L81.6,81c-0.1,0.1-0.2,0.1-0.2,0.2
		c-0.1,0-0.2,0.1-0.3,0.1c-0.2,0-0.4-0.1-0.6-0.2c-0.2-0.1-0.2-0.3-0.2-0.5c0-0.3,0.1-0.5,0.3-0.6c0.2-0.1,0.4-0.2,0.7-0.3l0.6-0.2
		c0-0.1-0.1-0.2-0.1-0.2c-0.1-0.1-0.2-0.2-0.4-0.2c-0.2,0-0.4,0-0.5,0.1c-0.1,0-0.1,0.1-0.2,0.1l-0.2-0.3c0.1-0.1,0.2-0.1,0.4-0.2
		c0.2-0.1,0.4-0.1,0.5-0.1c0.4,0,0.6,0.1,0.8,0.2c0.2,0.2,0.3,0.4,0.3,0.6v1.1c0,0.1,0,0.1,0,0.2c0,0.1,0,0.1,0,0.2c0,0,0,0.1,0,0.1
		C82.6,81,82.6,81.1,82.6,81.1z M81.9,79.8v-0.2l-0.3,0.1c-0.3,0.1-0.5,0.2-0.6,0.3c-0.1,0.1-0.1,0.2-0.1,0.3c0,0.1,0,0.2,0.1,0.3
		c0.1,0.1,0.2,0.1,0.3,0.1c0.2,0,0.3-0.1,0.4-0.3C81.8,80.3,81.9,80.1,81.9,79.8z"/>
	<path d="M83.9,81.1h-0.7v-3.9h0.7V81.1z"/>
	<path d="M86,81.4l-0.1,0.1c-0.1-0.1-0.2-0.1-0.3-0.2c-0.1-0.1-0.2-0.3-0.3-0.4c-0.1-0.2-0.1-0.4-0.1-0.6c0-0.3,0.1-0.5,0.2-0.7
		c0.1-0.2,0.2-0.3,0.3-0.4c0.1-0.1,0.1-0.1,0.2-0.2l0.2,0.1c-0.1,0.1-0.3,0.3-0.3,0.5c-0.1,0.2-0.2,0.4-0.2,0.7s0,0.4,0.1,0.6
		C85.8,81.1,85.9,81.2,86,81.4z"/>
	<path d="M87.3,81.1h-1v-1.8h1v0.2h-0.6V80h0.6v0.2h-0.6v0.6h0.7V81.1z"/>
	<path d="M88.8,81.1l-0.3,0.1l-0.3-0.5l-0.4,0.5l-0.3-0.1l0.5-0.6l-0.4-0.6l0.3-0.1l0.3,0.4l0.3-0.4l0.3,0.1l-0.4,0.5L88.8,81.1z"/>
	<path d="M90.2,81c-0.1,0-0.1,0.1-0.2,0.1c-0.1,0-0.1,0-0.2,0c-0.2,0-0.4-0.1-0.5-0.2c-0.1-0.1-0.2-0.3-0.2-0.5
		c0-0.2,0.1-0.4,0.2-0.5c0.1-0.1,0.3-0.2,0.5-0.2c0.1,0,0.1,0,0.2,0c0.1,0,0.1,0,0.2,0.1L90,80.1c0,0-0.1,0-0.1,0
		c-0.1,0-0.1,0-0.1,0c-0.1,0-0.2,0-0.3,0.1c-0.1,0.1-0.1,0.2-0.1,0.3c0,0.1,0,0.2,0.1,0.3c0.1,0.1,0.2,0.1,0.3,0.1
		c0.1,0,0.1,0,0.2,0c0,0,0.1,0,0.1,0L90.2,81z"/>
	<path d="M91.6,81.1h-0.3v-0.8c0-0.1,0-0.1-0.1-0.2c0-0.1-0.1-0.1-0.2-0.1c-0.1,0-0.2,0-0.2,0.1c0,0.1-0.1,0.1-0.1,0.2l0,0.8h-0.3
		v-1.9h0.3V80c0-0.1,0.1-0.1,0.2-0.2s0.2-0.1,0.3-0.1c0.1,0,0.2,0,0.3,0.1c0.1,0.1,0.1,0.1,0.1,0.2c0,0,0,0.1,0,0.1V81.1z"/>
	<path d="M93.1,81.1h-0.4c0,0,0,0,0,0c0,0,0,0,0,0s0,0,0,0c0,0,0,0,0-0.1v-0.1L92.5,81c-0.1,0-0.1,0.1-0.1,0.1c0,0-0.1,0-0.1,0
		c-0.1,0-0.2,0-0.3-0.1c-0.1-0.1-0.1-0.2-0.1-0.3c0-0.1,0.1-0.2,0.2-0.3c0.1-0.1,0.2-0.1,0.4-0.2l0.3-0.1c0-0.1,0-0.1,0-0.1
		c0-0.1-0.1-0.1-0.2-0.1c-0.1,0-0.2,0-0.3,0.1c0,0-0.1,0-0.1,0.1L92,80c0,0,0.1-0.1,0.2-0.1c0.1,0,0.2-0.1,0.3-0.1
		c0.2,0,0.3,0,0.4,0.1C93,80,93,80.1,93,80.2v0.6c0,0,0,0.1,0,0.1c0,0,0,0.1,0,0.1C93,81,93.1,81.1,93.1,81.1
		C93.1,81.1,93.1,81.1,93.1,81.1z M92.7,80.5v-0.1l-0.1,0c-0.1,0-0.2,0.1-0.3,0.1c0,0-0.1,0.1-0.1,0.2c0,0.1,0,0.1,0.1,0.1
		s0.1,0.1,0.1,0.1c0.1,0,0.2,0,0.2-0.1C92.7,80.7,92.7,80.6,92.7,80.5z"/>
	<path d="M94.6,81.1h-0.3v-0.8c0-0.1,0-0.1-0.1-0.2c0,0-0.1-0.1-0.2-0.1c-0.1,0-0.1,0-0.2,0.1c-0.1,0.1-0.1,0.1-0.1,0.2v0.8h-0.3
		v-1.3h0.3V80c0-0.1,0.1-0.1,0.2-0.1c0.1,0,0.2-0.1,0.3-0.1c0.1,0,0.2,0,0.3,0.1c0.1,0.1,0.1,0.2,0.1,0.4V81.1z"/>
	<path d="M96.2,81.1c0,0.2-0.1,0.4-0.2,0.5c-0.1,0.1-0.3,0.2-0.5,0.2c-0.1,0-0.2,0-0.3,0s-0.2-0.1-0.2-0.1l0.1-0.2
		c0,0,0.1,0.1,0.2,0.1c0.1,0,0.2,0,0.2,0c0,0,0,0,0,0c0,0,0,0,0,0c0.1,0,0.2-0.1,0.3-0.1c0.1-0.1,0.1-0.2,0.1-0.3v-0.2
		c-0.1,0.1-0.1,0.1-0.2,0.2c-0.1,0-0.2,0.1-0.3,0.1c-0.2,0-0.3-0.1-0.4-0.2c-0.1-0.1-0.1-0.3-0.1-0.5c0-0.2,0.1-0.4,0.2-0.5
		c0.1-0.1,0.3-0.2,0.5-0.2c0.1,0,0.2,0,0.2,0.1c0,0,0.1,0.1,0.2,0.2v-0.2h0.3V81.1z M95.9,80.5c0-0.1,0-0.2-0.1-0.3
		C95.7,80,95.6,80,95.5,80c-0.1,0-0.2,0.1-0.3,0.2c0,0.1-0.1,0.2-0.1,0.3c0,0.1,0,0.2,0.1,0.3c0.1,0.1,0.1,0.2,0.2,0.2
		c0.1,0,0.2-0.1,0.3-0.2C95.8,80.7,95.9,80.6,95.9,80.5z"/>
	<path d="M97.7,80.5h-0.9c0,0.1,0,0.2,0.1,0.3c0.1,0.1,0.2,0.1,0.3,0.1c0.1,0,0.2,0,0.2,0c0,0,0.1,0,0.1-0.1l0.1,0.2
		c-0.1,0-0.1,0.1-0.2,0.1c-0.1,0-0.2,0-0.3,0c-0.2,0-0.4-0.1-0.5-0.2c-0.1-0.1-0.2-0.3-0.2-0.5c0-0.2,0.1-0.4,0.2-0.5
		c0.1-0.1,0.3-0.2,0.5-0.2c0.2,0,0.3,0.1,0.4,0.2C97.6,80.1,97.7,80.3,97.7,80.5C97.7,80.4,97.7,80.5,97.7,80.5
		C97.7,80.5,97.7,80.5,97.7,80.5z M97.4,80.3c0-0.1,0-0.2,0-0.2c0-0.1-0.1-0.1-0.2-0.1c-0.1,0-0.2,0-0.2,0.1
		c-0.1,0.1-0.1,0.2-0.1,0.3H97.4z"/>
	<path d="M99.8,80.7c0,0.2-0.1,0.3-0.2,0.4c-0.1,0.1-0.3,0.1-0.4,0.1c-0.1,0-0.2,0-0.3-0.1c-0.1,0-0.2-0.1-0.2-0.1l0.1-0.2
		c0.1,0,0.1,0.1,0.1,0.1c0.1,0.1,0.2,0.1,0.3,0.1c0.1,0,0.2,0,0.2-0.1c0.1,0,0.1-0.1,0.1-0.2c0-0.1,0-0.1-0.1-0.2
		c0,0-0.1-0.1-0.2-0.1l-0.2-0.1c-0.1-0.1-0.1-0.1-0.2-0.1c0,0-0.1-0.1-0.1-0.1c0-0.1,0-0.1,0-0.2c0-0.1,0.1-0.3,0.2-0.3
		c0.1-0.1,0.3-0.1,0.4-0.1c0.1,0,0.2,0,0.3,0.1c0.1,0,0.1,0.1,0.2,0.1l-0.1,0.2c0,0-0.1,0-0.1-0.1c-0.1,0-0.1-0.1-0.2-0.1
		c-0.1,0-0.1,0-0.2,0.1c0,0-0.1,0.1-0.1,0.1c0,0,0,0.1,0.1,0.1c0,0,0.1,0.1,0.1,0.1l0.2,0.2c0.1,0.1,0.2,0.2,0.2,0.2
		C99.8,80.5,99.8,80.6,99.8,80.7z"/>
	<path d="M101.4,81.8h-0.3v-0.9c-0.1,0.1-0.1,0.1-0.2,0.2c-0.1,0-0.2,0.1-0.3,0.1c-0.2,0-0.3-0.1-0.4-0.2c-0.1-0.1-0.1-0.3-0.1-0.5
		c0-0.2,0-0.3,0.1-0.5c0.1-0.2,0.3-0.2,0.5-0.2c0.1,0,0.2,0,0.2,0c0.1,0,0.1,0.1,0.2,0.2v-0.2h0.3V81.8z M101.1,80.5
		c0-0.1,0-0.2-0.1-0.3c-0.1-0.1-0.2-0.2-0.3-0.2c-0.1,0-0.2,0.1-0.3,0.2c0,0.1-0.1,0.2-0.1,0.3c0,0.1,0,0.2,0.1,0.3
		c0.1,0.1,0.1,0.2,0.2,0.2c0,0,0,0,0,0c0.1,0,0.2-0.1,0.3-0.2C101.1,80.7,101.1,80.6,101.1,80.5z"/>
	<path d="M103,81.1h-0.3V81c0,0-0.1,0.1-0.2,0.1c-0.1,0-0.2,0.1-0.3,0.1c-0.2,0-0.3,0-0.3-0.1c-0.1-0.1-0.1-0.2-0.1-0.3v-0.9h0.3
		v0.8c0,0.1,0,0.2,0.1,0.2c0,0.1,0.1,0.1,0.2,0.1c0.1,0,0.1,0,0.2-0.1s0.1-0.1,0.1-0.2v-0.8h0.3V81.1z"/>
	<path d="M104.4,81.1h-0.4c0,0,0,0,0,0c0,0,0,0,0,0c0,0,0,0,0,0c0,0,0,0,0-0.1v-0.1l-0.1,0.1c-0.1,0-0.1,0.1-0.1,0.1
		c0,0-0.1,0-0.1,0c-0.1,0-0.2,0-0.3-0.1s-0.1-0.2-0.1-0.3c0-0.1,0.1-0.2,0.2-0.3c0.1-0.1,0.2-0.1,0.4-0.2l0.3-0.1c0-0.1,0-0.1,0-0.1
		c0-0.1-0.1-0.1-0.2-0.1c-0.1,0-0.2,0-0.3,0.1c0,0-0.1,0-0.1,0.1l-0.1-0.2c0,0,0.1-0.1,0.2-0.1c0.1,0,0.2-0.1,0.3-0.1
		c0.2,0,0.3,0,0.4,0.1c0.1,0.1,0.1,0.2,0.1,0.3v0.6c0,0,0,0.1,0,0.1c0,0,0,0.1,0,0.1C104.4,81,104.4,81.1,104.4,81.1
		C104.4,81.1,104.4,81.1,104.4,81.1z M104.1,80.5v-0.1l-0.1,0c-0.1,0-0.2,0.1-0.3,0.1c0,0-0.1,0.1-0.1,0.2c0,0.1,0,0.1,0.1,0.1
		s0.1,0.1,0.1,0.1c0.1,0,0.2,0,0.2-0.1C104,80.7,104.1,80.6,104.1,80.5z"/>
	<path d="M105.6,79.9l-0.1,0.2c0,0,0,0-0.1,0s-0.1,0-0.1,0c0,0,0,0,0,0c-0.1,0-0.1,0-0.2,0.1c0,0.1-0.1,0.1-0.1,0.2v0.7h-0.3v-1.3
		h0.3v0.3c0-0.1,0-0.1,0.1-0.2c0.1-0.1,0.1-0.2,0.2-0.2c0,0,0.1,0,0.1,0C105.5,79.9,105.6,79.9,105.6,79.9z"/>
	<path d="M107,80.5h-0.9c0,0.1,0,0.2,0.1,0.3c0.1,0.1,0.2,0.1,0.3,0.1c0.1,0,0.2,0,0.2,0c0,0,0.1,0,0.1-0.1L107,81
		c-0.1,0-0.1,0.1-0.2,0.1c-0.1,0-0.2,0-0.3,0c-0.2,0-0.4-0.1-0.5-0.2c-0.1-0.1-0.2-0.3-0.2-0.5c0-0.2,0.1-0.4,0.2-0.5
		c0.1-0.1,0.3-0.2,0.5-0.2c0.2,0,0.3,0.1,0.4,0.2C107,80.1,107,80.3,107,80.5C107,80.4,107,80.5,107,80.5
		C107,80.5,107,80.5,107,80.5z M106.7,80.3c0-0.1,0-0.2,0-0.2c0-0.1-0.1-0.1-0.2-0.1c-0.1,0-0.2,0-0.2,0.1c-0.1,0.1-0.1,0.2-0.1,0.3
		H106.7z"/>
	<path d="M108.1,80.3c0,0.2,0,0.4-0.1,0.6c-0.1,0.1-0.2,0.3-0.3,0.4c-0.1,0.1-0.2,0.2-0.3,0.2l-0.1-0.1c0.2-0.1,0.3-0.3,0.4-0.5
		c0.1-0.2,0.1-0.4,0.1-0.6s-0.1-0.4-0.2-0.7c-0.1-0.2-0.2-0.3-0.3-0.5l0.2-0.1c0.1,0.1,0.1,0.1,0.2,0.2c0.1,0.1,0.2,0.3,0.3,0.4
		C108,79.8,108.1,80,108.1,80.3z"/>
</g>
</svg>
