<?xml version="1.0" encoding="utf-8"?>
<!-- Generator: Adobe Illustrator 19.0.0, SVG Export Plug-In . SVG Version: 6.00 Build 0)  -->
<svg version="1.1" id="圖層_1" xmlns="http://www.w3.org/2000/svg" xmlns:xlink="http://www.w3.org/1999/xlink" x="0px" y="0px"
	 viewBox="50 -26.019 272.126 85.039" style="enable-background:new 50 -26.019 272.126 85.039;" xml:space="preserve">
<style type="text/css">
	.st0{fill:url(#XMLID_3_);}
	.st1{fill:#ECECEC;}
	.st2{fill:#0079C4;}
	.st3{fill:url(#XMLID_4_);}
	.st4{fill:#00FF00;}
</style>
<radialGradient id="XMLID_3_" cx="186.1066" cy="15.3782" r="100.9042" gradientTransform="matrix(0.9998 0 0 -0.9905 -0.0064 31.7326)" gradientUnits="userSpaceOnUse">
	<stop  offset="0.2193" style="stop-color:#00FF00;stop-opacity:0"/>
	<stop  offset="1" style="stop-color:#035353"/>
</radialGradient>
<path id="XMLID_63_" class="st0" d="M310.805,59.02H61.321C55.069,59.02,50,53.951,50,47.699v-62.397
	c0-6.252,5.069-11.321,11.321-11.321h249.484c6.252,0,11.321,5.069,11.321,11.321v62.397
	C322.126,53.951,317.058,59.02,310.805,59.02z"/>
<path id="XMLID_62_" class="st1" d="M305.854,53.976H66.272c-5.742,0-10.396-4.655-10.396-10.396v-54.159
	c0-5.742,4.655-10.396,10.396-10.396h239.582c5.742,0,10.396,4.655,10.396,10.396V43.58
	C316.25,49.321,311.596,53.976,305.854,53.976z"/>
<g id="XMLID_31_">
	<path id="XMLID_93_" class="st2" d="M82.343,16.159c-0.866,0.267-1.745,0.433-2.53,0.8c-1.646,0.771-2.42,2.152-2.529,3.958
		c-0.138,2.281,0.934,3.986,2.528,5.438c1.392,1.268,2.976,2.268,4.641,3.137c0.266,0.139,0.561,0.258,0.854,0.298
		c0.859,0.116,1.399-0.112,1.719-0.924c0.397-1.004,0.741-2.05,0.935-3.109c0.521-2.845,0.994-5.702,1.401-8.566
		c0.258-1.819,0.356-3.661,0.545-5.491c0.046-0.448-0.092-0.695-0.502-0.918c-2.562-1.395-4.936-3.053-6.955-5.181
		c-2.222-2.343-3.827-5.022-4.436-8.234c-0.549-2.896-0.252-5.647,1.556-8.079c1.893-2.546,4.413-4.156,7.563-4.597
		c1.037-0.145,2.13,0.114,3.198,0.17c0.293,0.015,0.62,0.041,0.88-0.064c2.289-0.928,4.72,0.466,5.108,2.903
		c0.272,1.708-0.878,3.25-2.085,3.819c-0.33,0.155-0.471,0.332-0.485,0.714c-0.061,1.651-0.204,3.3-0.239,4.952
		c-0.063,2.93-0.062,5.862-0.112,8.793c-0.007,0.399,0.136,0.533,0.493,0.656c2.288,0.787,4.608,1.503,6.838,2.434
		c3.712,1.551,7.191,3.529,10.202,6.245c1.796,1.621,3.287,3.475,4.282,5.701c1.253,2.802,1.199,5.658,0.322,8.534
		c-0.679,2.227-1.789,4.244-3.117,6.148c-0.191,0.274-0.343,0.288-0.632,0.136c-2.171-1.139-4.35-2.261-6.735-2.908
		c-1.607-0.436-3.242-0.651-4.903-0.563c-1.632,0.086-3.194,0.517-4.738,1.038c-0.904,0.305-1.82,0.605-2.755,0.778
		c-1.235,0.229-2.482,0.16-3.695-0.231c-1.103-0.355-2.199-0.735-3.313-1.053c-2.764-0.789-5.523-0.702-8.274,0.099
		c-2.117,0.616-4.076,1.592-6.026,2.592c-0.533,0.273-0.531,0.28-0.794-0.238c-1.533-3.025-2.213-6.24-1.887-9.606
		c0.407-4.204,2.401-7.512,5.971-9.825c1.825-1.182,3.819-1.361,5.895-0.933C81.295,15.138,81.897,15.586,82.343,16.159z
		 M90.318,5.446c0.071-0.973,0.147-1.865,0.2-2.758c0.071-1.201,0.128-2.403,0.186-3.605c0.113-2.376,0.23-4.751,0.32-7.128
		c0.008-0.205-0.112-0.497-0.272-0.612c-0.939-0.676-1.57-1.524-1.744-2.694c-0.024-0.163-0.201-0.357-0.357-0.437
		c-0.626-0.319-1.293-0.397-1.984-0.233c-2.313,0.549-4.108,1.798-5,4.041c-0.984,2.475-0.543,4.869,0.894,7.044
		c1.828,2.768,4.389,4.719,7.314,6.218C89.986,5.34,90.111,5.371,90.318,5.446z M93.537,12.786
		c-0.015,0.143-0.036,0.242-0.033,0.341c0.032,1.204,0.043,2.409,0.108,3.611c0.057,1.055,0.138,2.112,0.273,3.159
		c0.288,2.239,0.605,4.474,0.937,6.707c0.106,0.713,0.251,1.428,0.46,2.116c0.218,0.716,0.746,0.848,1.351,0.395
		c0.208-0.156,0.396-0.341,0.575-0.529c1.036-1.084,1.649-2.409,2.138-3.8c0.834-2.374,0.894-4.715-0.354-6.981
		c-1.193-2.167-2.991-3.708-5.119-4.902C93.78,12.85,93.667,12.83,93.537,12.786z M91.285,29.721
		c0.092-0.084,0.144-0.116,0.174-0.163c0.071-0.109,0.133-0.224,0.196-0.339c0.544-0.988,0.515-2.068,0.481-3.141
		c-0.091-2.871-0.201-5.741-0.303-8.612c-0.061-1.711-0.122-3.422-0.187-5.132c-0.003-0.082-0.05-0.163-0.076-0.244
		c-0.118,0.174-0.144,0.338-0.155,0.504c-0.065,1.012-0.124,2.025-0.188,3.038c-0.112,1.765-0.227,3.53-0.338,5.295
		c-0.067,1.056-0.141,2.112-0.191,3.168c-0.063,1.317-0.144,2.635-0.139,3.952C90.56,28.653,90.841,29.216,91.285,29.721z
		 M93.854-11.896c0.006-0.789-0.512-1.335-1.274-1.343c-0.754-0.007-1.341,0.559-1.342,1.295c-0.001,0.74,0.545,1.298,1.274,1.305
		C93.328-10.631,93.848-11.119,93.854-11.896z"/>
	<path id="XMLID_92_" class="st2" d="M77.016,42.872c1.488-0.665,2.857-1.188,4.339-1.397c1.987-0.28,3.856,0.156,5.703,0.818
		c1.298,0.465,2.623,0.844,4.014,0.884c1.287,0.037,2.531-0.223,3.756-0.611c1.117-0.354,2.229-0.744,3.371-0.993
		c1.765-0.386,3.517-0.192,5.221,0.402c0.655,0.228,1.3,0.482,2.053,0.762c-0.22,0.17-0.359,0.283-0.504,0.387
		c-3.51,2.513-7.305,4.442-11.48,5.587c-0.767,0.21-1.546,0.398-2.332,0.51c-0.352,0.05-0.742-0.082-1.101-0.18
		c-3.854-1.059-7.517-2.567-10.902-4.712C78.459,43.891,77.795,43.405,77.016,42.872z"/>
	<path id="XMLID_91_" class="st2" d="M71.826,37.474c0.453-0.235,0.846-0.445,1.243-0.645c1.906-0.961,3.841-1.858,5.943-2.306
		c2.287-0.487,4.545-0.371,6.774,0.372c1.181,0.394,2.369,0.784,3.578,1.073c1.823,0.436,3.624,0.208,5.394-0.37
		c1.17-0.382,2.335-0.803,3.532-1.074c2.495-0.565,4.971-0.356,7.349,0.568c1.793,0.698,3.535,1.529,5.416,2.353
		c-0.433,0.489-0.75,0.875-1.104,1.223c-0.062,0.061-0.294-0.012-0.427-0.07c-1.339-0.593-2.647-1.264-4.014-1.782
		c-3.394-1.284-6.798-1.199-10.203,0.041c-0.974,0.355-1.998,0.589-3.014,0.807c-1.164,0.25-2.306,0.012-3.428-0.321
		c-1.388-0.412-2.754-0.931-4.167-1.217c-2.324-0.471-4.659-0.338-6.894,0.493c-1.559,0.579-3.07,1.291-4.587,1.977
		c-0.328,0.149-0.511,0.151-0.704-0.162C72.318,38.118,72.082,37.827,71.826,37.474z"/>
	<path id="XMLID_90_" class="st2" d="M108.426,40.225c-0.424,0.383-0.806,0.757-1.224,1.084c-0.092,0.072-0.322,0.013-0.47-0.039
		c-1.323-0.467-2.618-1.029-3.966-1.404c-2.424-0.675-4.809-0.358-7.169,0.453c-1.144,0.393-2.337,0.655-3.519,0.925
		c-1.066,0.243-2.103-0.032-3.122-0.326c-1.266-0.366-2.509-0.817-3.786-1.134c-2.138-0.53-4.265-0.309-6.336,0.368
		c-1.044,0.341-2.05,0.801-3.063,1.23c-0.246,0.104-0.412,0.128-0.61-0.084c-0.314-0.338-0.658-0.648-1.068-1.046
		c0.099-0.04,0.155-0.057,0.206-0.084c1.761-0.931,3.572-1.734,5.53-2.162c2.184-0.478,4.308-0.256,6.411,0.473
		c1.133,0.393,2.285,0.78,3.461,0.981c1.444,0.247,2.916,0.23,4.348-0.215c1.355-0.421,2.699-0.89,4.075-1.228
		c2.094-0.514,4.185-0.324,6.201,0.395c1.294,0.461,2.537,1.064,3.801,1.607C108.214,40.056,108.287,40.128,108.426,40.225z"/>
</g>
<g id="XMLID_50_">
	
		<linearGradient id="XMLID_4_" gradientUnits="userSpaceOnUse" x1="102.761" y1="15.1115" x2="144.365" y2="15.1115" gradientTransform="matrix(-1 0 0 1 252.364 1.935)">
		<stop  offset="0" style="stop-color:#00FF00;stop-opacity:0"/>
		<stop  offset="0.3" style="stop-color:#00FF00"/>
	</linearGradient>
	<rect id="XMLID_53_" x="107.999" y="12.457" class="st3" width="41.604" height="9.179"/>
	<polygon id="XMLID_52_" class="st4" points="115.945,3.985 128.653,3.985 115.47,17.046 102.761,17.046 	"/>
	<polygon id="XMLID_51_" class="st4" points="115.47,16.87 102.761,16.87 115.945,29.932 128.653,29.932 	"/>
</g>
<g id="XMLID_1_">
</g>
<g id="XMLID_124_">
</g>
<g id="XMLID_125_">
</g>
<g id="XMLID_126_">
</g>
<g id="XMLID_127_">
</g>
<g id="XMLID_128_">
</g>
<g>
	<path d="M160.43,2.582h1.44v11.459h-2.729V3.751h-3.03c2.49-2.61,4.17-5.67,5.55-8.73h2.82C163.43-2.338,162.08,0.182,160.43,2.582
		z M159.53-5.188h-3.33c2.07-2.1,3.45-4.59,4.74-7.05h3C162.74-9.778,161.3-7.408,159.53-5.188z M163.7,14.041v-2.13h8.04v-8.13
		h-6.689v-2.16h6.689v-7.53h-7.379v-2.1h6.93c-0.39-0.9-1.26-3.12-1.5-4.23h2.79c0.3,1.26,1.14,3.42,1.56,4.2h7.5v2.13h-7.11v7.53
		h6.39v2.13h-6.39v8.16h7.83v2.13H163.7z"/>
	<path d="M197.06,3.781c-0.48,0.42-1.14,0.63-1.771,0.63h-1.68v9.57h-2.67v-9.57h-1.529c-0.9,0-1.591-0.27-2.07-0.78
		c-0.48-0.51-0.72-1.23-0.72-2.19v-10.62c0-0.69,0.33-1.29,0.81-1.71c0.45-0.42,1.021-0.66,1.56-0.66h6.391
		c0.72,0,1.35,0.27,1.8,0.72c0.449,0.45,0.72,1.08,0.72,1.8v10.86C197.899,2.701,197.569,3.332,197.06,3.781z M190.939-9.598h-1.29
		c-0.27,0-0.569,0.24-0.569,0.57v4.47h1.859V-9.598z M190.939-2.608h-1.859v4.44c0,0.36,0.27,0.63,0.6,0.63h1.26V-2.608z
		 M195.499-8.968c0-0.33-0.27-0.63-0.6-0.63h-1.29v5.04h1.89V-8.968z M195.499-2.608h-1.89v5.07h1.29c0.33,0,0.6-0.27,0.6-0.63
		V-2.608z M198.89,13.351h-2.55c0.75-1.86,1.289-4.5,1.529-6.66h2.25C199.97,8.941,199.489,11.251,198.89,13.351z M211.699,13.291
		c-0.42,0.42-1.051,0.69-1.771,0.69h-1.83l-0.84-1.92h1.98c0.3,0,0.54-0.24,0.54-0.57v-5.19c0-0.36-0.33-0.72-0.78-0.72h-7.56
		c-0.57,0-1.11-0.27-1.53-0.72c-0.39-0.42-0.66-1.02-0.66-1.71V-7.978c0-0.63,0.271-1.2,0.69-1.62c0.42-0.45,1.02-0.72,1.62-0.72
		h1.47c0.24-0.45,0.6-1.229,0.87-1.92h3.029c-0.239,0.57-0.689,1.56-0.899,1.92h3.029c0.721,0,1.29,0.18,1.681,0.57
		c0.449,0.39,0.689,1.05,0.689,1.89v3.93c0,0.69-0.3,1.29-0.78,1.71c-0.449,0.42-1.05,0.66-1.68,0.66h-7.14v1.71h10.529v1.83
		h-10.529v1.11c0,0.36,0.3,0.69,0.69,0.69h7.229c0.84,0,1.47,0.3,1.92,0.78c0.45,0.51,0.72,1.2,0.72,1.95v5.16
		C212.389,12.301,212.119,12.871,211.699,13.291z M201.439,13.351c-0.3-1.95-0.63-4.47-0.72-6.66h2.039
		c0.061,1.92,0.601,5.28,0.931,6.66H201.439z M208.819-7.768c0-0.42-0.24-0.69-0.631-0.69h-5.669c-0.33,0-0.69,0.3-0.69,0.69v0.81
		h6.99V-7.768z M208.819-5.068h-6.99v1.59h6.45c0.39,0,0.54-0.27,0.54-0.6V-5.068z M204.709,13.351c-0.36-1.47-0.899-4.65-1.02-6.66
		h2.069c0.24,1.86,0.57,4.56,1.11,6.66H204.709z M207.259,10.771c-0.21-0.93-0.6-3.12-0.72-4.08h2.07
		c0.119,1.41,0.449,2.88,0.72,4.08H207.259z"/>
	<path d="M224.029,13.141c-0.449,0.54-1.14,0.87-1.979,0.87h-1.32l-0.869-2.1h1.56c0.33,0,0.6-0.24,0.6-0.6v-6.72h-2.52
		c-0.09,3.21-0.33,6.42-0.93,9.419h-2.58c0.84-3.51,0.93-7.02,0.93-10.709v-12.87c0-0.69,0.271-1.26,0.72-1.65
		c0.45-0.42,1.08-0.63,1.71-0.63h3c0.72,0,1.32,0.36,1.71,0.87c0.33,0.42,0.51,0.96,0.51,1.53v20.849
		C224.569,12.091,224.39,12.691,224.029,13.141z M222.02-9.178c0-0.3-0.239-0.51-0.54-0.51h-1.5c-0.21,0-0.51,0.24-0.51,0.51v4.41
		h2.55V-9.178z M222.02-2.608h-2.55c0.03,1.35,0.061,4.05,0.03,5.07h2.52V-2.608z M227.029,10.591h-2.159
		c0.96-3.81,1.14-8.009,1.17-12.179h2.04C228.109,2.551,227.81,6.661,227.029,10.591z M231.26-3.269v17.279h-2.431V-3.269h-3.63
		v-2.07h3.63v-3.81c-0.899,0.12-2.52,0.3-3.359,0.36v-2.07c2.43-0.24,6.359-0.72,8.58-1.38v2.19c-0.75,0.15-2.19,0.42-2.79,0.54
		v4.17h2.97v2.07H231.26z M232.819,7.141c-0.51-2.82-0.689-5.79-0.87-8.729h1.98c0.21,2.85,0.479,6.27,1.05,8.729H232.819z
		 M235.129,7.801v-18.449h2.37V7.801H235.129z M241.129,13.441c-0.479,0.36-1.17,0.57-1.979,0.57h-2.521l-0.989-2.19h3.06
		c0.33,0,0.689-0.24,0.689-0.69v-23.459h2.58v24.029C241.969,12.421,241.669,13.021,241.129,13.441z"/>
	<path d="M249.17,14.041h-3.149c1.979-3.51,3.18-7.32,4.169-11.25h2.73C251.899,6.631,250.79,10.441,249.17,14.041z M249.89-5.968
		c-1.439-2.01-2.76-4.08-3.779-6.27h3.029c0.9,1.86,2.28,4.23,4.11,6.27H249.89z M249.29,1.082c-1.11-1.62-2.43-3.93-3.15-5.88h2.94
		c0.78,1.74,2.069,4.14,3.39,5.88H249.29z M254.96,1.801h-2.28c0.78-2.31,1.08-5.55,1.17-7.919h2.07
		C255.89-3.718,255.529-0.539,254.96,1.801z M256.37,14.041h-3.24c3.06-4.26,3.33-9.81,3.33-15.27v-11.01h2.489V0.991
		C258.949,5.341,258.619,10.321,256.37,14.041z M260.569,1.801c-0.479-2.58-0.72-5.189-0.899-7.919h1.92
		c0.18,2.7,0.479,5.37,1.05,7.919H260.569z M262.909,12.631v-24.089h2.58v24.089H262.909z M266.989,1.801
		c-0.39-2.34-0.72-5.43-0.93-7.919h1.949c0.181,2.25,0.601,5.43,1.17,7.919H266.989z M269.479,14.041v-26.279h2.579v26.279H269.479z
		"/>
	<path d="M290.51,13.921h-5.58c-0.9,0-1.56-0.39-1.979-1.02c-0.36-0.54-0.54-1.29-0.54-2.04V6.481h-2.49
		c-1.14,0-1.89-0.45-2.31-1.11c-0.33-0.51-0.48-1.17-0.48-1.86v-7.169h2.61v7.29c0,0.48,0.39,0.81,0.779,0.81h1.891v-10.26
		c-1.44,0.18-4.351,0.48-5.85,0.51v-2.04c1.47-0.06,4.289-0.33,5.85-0.54v-4.26h2.67v3.84c1.529-0.18,4.079-0.69,5.43-1.02v2.19
		c-1.38,0.27-4.021,0.72-5.43,0.93v10.65h2.01c0.42,0,0.779-0.33,0.779-0.87v-7.229h2.58v7.529c0,0.9-0.3,1.53-0.84,1.98
		c-0.51,0.42-1.229,0.63-2.069,0.63h-2.46v4.53c0,0.45,0.39,0.87,0.899,0.87h5.25L290.51,13.921z M301.279,8.401
		c-0.75,0.96-1.92,1.5-3.45,1.5h-2.01l-0.72-2.1h2.34c0.779,0,1.319-0.21,1.68-0.63c0.3-0.36,0.48-0.9,0.54-1.62
		c0.27-2.82-1.47-6.12-3.78-8.19c1.051-1.86,2.25-4.319,3-6.6c0.061-0.21-0.12-0.45-0.359-0.45h-3.3c-0.271,0-0.57,0.42-0.57,0.72
		v22.889h-2.67V-9.058c0-0.84,0.18-1.56,0.63-2.04c0.39-0.42,0.93-0.66,1.74-0.66h5.039c0.841,0,1.5,0.3,1.891,0.81
		c0.45,0.54,0.54,1.32,0.24,2.19c-0.69,1.92-1.86,4.23-2.79,5.85c1.949,1.89,3.6,5.189,3.63,7.68
		C302.359,6.271,301.999,7.501,301.279,8.401z"/>
</g>
<g>
	<path d="M158.438,30.985v9.675h-1.365v-9.675h-3.735V29.92h8.76v1.065H158.438z"/>
	<path d="M168.008,40.54c-0.9,0.375-2.13,0.33-3.03-0.061c-0.9-0.39-1.575-1.079-1.875-2.039c-0.33-1.08-0.315-2.625,0.135-3.646
		c0.405-0.944,1.17-1.604,2.16-1.89c0.975-0.285,2.115-0.195,2.955,0.27c0.885,0.495,1.32,1.11,1.59,2.056
		c0.285,1.005,0.285,2.145,0.03,3.135C169.733,39.31,168.923,40.165,168.008,40.54z M166.374,33.79
		c-0.825,0.03-1.665,0.585-1.92,1.396c-0.285,0.93-0.255,2.039-0.03,3.015c0.165,0.765,0.9,1.395,1.665,1.515
		c0.87,0.135,1.92-0.135,2.34-0.99c0.54-1.095,0.495-2.654,0.06-3.749C168.158,34.135,167.258,33.745,166.374,33.79z"/>
	<path d="M184.133,40.66l-1.35-3.18h-4.8l-1.32,3.18h-1.485l4.455-10.71h1.395l4.62,10.71H184.133z M180.339,31.886l-1.92,4.544
		h3.899L180.339,31.886z"/>
	<path d="M192.068,40.345c-0.585,0.36-1.26,0.51-1.95,0.42c-0.75-0.09-1.47-0.479-1.935-1.125v4.035h-1.335v-10.8h1.335v1.141
		c0.375-0.646,0.99-1.08,1.71-1.23c0.734-0.15,1.529,0.015,2.16,0.405c0.675,0.404,1.034,0.96,1.305,1.68
		c0.45,1.229,0.495,2.625,0.03,3.854C193.133,39.4,192.729,39.939,192.068,40.345z M191.828,34.75c-0.27-0.479-0.81-0.87-1.365-0.93
		c-0.659-0.061-1.244,0.18-1.619,0.72c-0.811,1.14-0.795,2.895-0.181,4.125c0.33,0.645,0.931,1.064,1.681,1.08
		c0.659,0.015,1.274-0.495,1.545-1.05C192.474,37.525,192.474,35.89,191.828,34.75z"/>
	<path d="M200.288,40.645c-0.39,0-0.675-0.135-0.854-0.345c-0.165-0.195-0.24-0.45-0.24-0.734V29.92h1.35v9.271
		c0,0.21,0.181,0.42,0.391,0.42h5.279v1.034H200.288z"/>
	<path d="M213.023,40.36c-0.615,0.404-1.695,0.524-2.55,0.449c-0.96-0.09-1.815-0.479-2.385-1.29
		c-0.556-0.779-0.841-1.814-0.825-2.834c0-0.855,0.21-1.681,0.6-2.37c0.646-1.125,1.8-1.59,3.015-1.605
		c1.11-0.015,1.95,0.285,2.61,1.035c0.57,0.646,0.854,1.665,0.81,2.52c-0.029,0.511-0.33,0.75-0.824,0.75h-4.815
		c0.09,0.915,0.375,1.801,1.065,2.355c0.42,0.345,0.944,0.435,1.484,0.405c0.436-0.03,0.84-0.165,1.155-0.48
		s0.495-0.765,0.585-1.155h1.485C214.253,38.89,213.773,39.865,213.023,40.36z M212.213,34.09c-0.6-0.42-1.484-0.39-2.145-0.18
		c-0.885,0.27-1.32,1.215-1.35,2.055h4.005c0.194,0,0.284-0.165,0.284-0.33C213.008,35.095,212.679,34.42,212.213,34.09z"/>
	<path d="M216.413,31.33v-1.395h1.38v1.395H216.413z M216.413,40.645V32.86h1.38v7.784H216.413z"/>
	<path d="M231.263,40.27c-0.975,0.48-2.25,0.615-3.314,0.466c-1.141-0.15-2.101-0.601-2.865-1.485
		c-0.915-1.05-1.305-2.354-1.32-3.78c-0.029-2.024,0.631-4.034,2.535-5.055c1.32-0.72,3.21-0.824,4.665-0.21
		c1.245,0.525,2.16,1.681,2.64,2.925h-1.545c-0.479-0.915-0.99-1.604-1.965-2.01c-0.795-0.314-1.755-0.39-2.58-0.06
		c-1.814,0.72-2.43,2.534-2.385,4.35c0.045,1.545,0.495,3.015,1.89,3.87c0.99,0.614,2.49,0.645,3.54,0.045
		c0.78-0.45,1.41-1.335,1.681-2.19h1.545C233.393,38.395,232.478,39.67,231.263,40.27z"/>
	<path d="M240.338,40.66v-5.175c0-0.615-0.255-1.141-0.72-1.44c-0.51-0.33-1.125-0.27-1.71-0.149c-0.735,0.149-1.365,0.75-1.65,1.47
		v5.295h-1.319V29.936h1.319v3.824c0.601-0.585,1.351-0.93,2.13-1.005c0.841-0.09,1.785,0.075,2.4,0.63
		c0.54,0.511,0.87,1.245,0.87,1.905v5.37H240.338z"/>
	<path d="M248.783,40.66c-0.136-0.33-0.255-0.721-0.3-1.035c-0.676,0.615-1.516,1.05-2.431,1.155
		c-0.645,0.074-1.364,0.015-1.92-0.285c-0.495-0.271-0.854-0.66-1.02-1.2c-0.18-0.555-0.165-1.2,0.03-1.725
		c0.239-0.615,0.72-1.021,1.364-1.245c0.54-0.195,1.306-0.271,1.936-0.33c0.705-0.06,1.5-0.33,1.92-0.705
		c0.029-0.285,0-0.75-0.285-1.064c-0.271-0.285-0.69-0.436-1.095-0.48c-0.525-0.075-1.186,0.015-1.681,0.225
		s-0.795,0.631-0.93,1.141h-1.41c0.105-0.825,0.795-1.59,1.575-1.965c0.66-0.315,1.665-0.465,2.385-0.436
		c0.78,0.03,1.62,0.255,2.175,0.825c0.45,0.48,0.615,1.11,0.601,1.86c-0.016,0.975-0.016,2.295,0,2.984
		c0.015,0.75,0.255,1.725,0.555,2.28H248.783z M248.333,36.535c-0.54,0.285-1.155,0.495-1.71,0.54
		c-0.525,0.045-1.035,0.104-1.425,0.24c-0.36,0.135-0.585,0.3-0.735,0.63c-0.135,0.314-0.149,0.689-0.045,1.02
		c0.12,0.345,0.405,0.57,0.75,0.69c0.285,0.09,0.646,0.074,0.96,0.015c0.93-0.15,1.695-0.645,2.205-1.439
		C248.333,37.735,248.333,37,248.333,36.535z"/>
	<path d="M256.777,40.66v-0.99c-0.449,0.6-1.109,0.99-1.845,1.11c-0.765,0.119-1.604-0.016-2.234-0.48
		c-0.615-0.465-1.005-1.215-1.005-2.13v-5.31h1.38v5.489c0,0.466,0.239,0.976,0.645,1.23c0.375,0.24,0.87,0.255,1.29,0.135
		c0.75-0.195,1.455-0.81,1.77-1.5V32.86h1.365l-0.015,7.8H256.777z"/>
	<path d="M265.313,40.645c-0.465,0-0.825-0.149-1.05-0.42c-0.225-0.255-0.33-0.6-0.33-1.005v-7.874c0-0.436,0.135-0.78,0.36-1.006
		c0.285-0.27,0.689-0.404,1.185-0.404h6.36v1.05h-6.12c-0.225,0-0.45,0.195-0.45,0.435v3.15h6.09v1.05h-6.09v3.54
		c0,0.255,0.255,0.45,0.495,0.45h6.075v1.034H265.313z"/>
	<path d="M278.813,39.985c-0.615,0.614-1.59,0.795-2.415,0.84c-0.78,0.029-1.62-0.12-2.25-0.63c-0.614-0.495-1.02-1.275-1.199-2.04
		h1.425c0.06,0.479,0.27,0.989,0.645,1.29c0.39,0.314,0.99,0.345,1.47,0.33c0.511-0.016,1.005-0.165,1.365-0.511
		c0.225-0.225,0.3-0.54,0.27-0.854c-0.029-0.375-0.284-0.601-0.585-0.75c-0.494-0.24-1.784-0.646-2.52-0.811
		c-0.479-0.119-1.229-0.479-1.545-0.989c-0.3-0.51-0.345-1.215-0.09-1.74c0.27-0.585,0.854-1.05,1.439-1.229
		c0.976-0.301,2.19-0.256,3.105,0.21c0.765,0.39,1.154,1.14,1.38,1.949h-1.455c-0.105-0.479-0.39-0.975-0.87-1.17
		c-0.54-0.21-1.529-0.194-2.024,0.181c-0.301,0.225-0.495,0.645-0.375,0.975c0.104,0.3,0.555,0.525,0.84,0.6
		c0.93,0.24,2.205,0.63,2.97,1.005c0.63,0.301,1.064,0.96,1.095,1.65C279.518,38.92,279.263,39.535,278.813,39.985z"/>
	<path d="M283.777,40.645h-1.215c-0.42,0-0.734-0.104-0.944-0.314c-0.226-0.21-0.346-0.54-0.346-0.96v-5.475h-1.095v-1.021h1.095
		v-2.939h1.335v2.925h1.53v1.035h-1.53v5.31c0,0.24,0.24,0.405,0.436,0.405h1.335L283.777,40.645z"/>
	<path d="M290.843,40.66c-0.135-0.33-0.255-0.721-0.3-1.035c-0.676,0.615-1.516,1.05-2.431,1.155
		c-0.645,0.074-1.364,0.015-1.92-0.285c-0.495-0.271-0.854-0.66-1.02-1.2c-0.18-0.555-0.165-1.2,0.03-1.725
		c0.239-0.615,0.72-1.021,1.364-1.245c0.54-0.195,1.306-0.271,1.936-0.33c0.705-0.06,1.5-0.33,1.92-0.705
		c0.029-0.285,0-0.75-0.285-1.064c-0.271-0.285-0.69-0.436-1.095-0.48c-0.525-0.075-1.186,0.015-1.681,0.225
		c-0.494,0.21-0.795,0.631-0.93,1.141h-1.41c0.105-0.825,0.795-1.59,1.575-1.965c0.66-0.315,1.665-0.465,2.385-0.436
		c0.78,0.03,1.62,0.255,2.175,0.825c0.45,0.48,0.615,1.11,0.601,1.86c-0.016,0.975-0.016,2.295,0,2.984
		c0.015,0.75,0.255,1.725,0.555,2.28H290.843z M290.393,36.535c-0.54,0.285-1.155,0.495-1.71,0.54
		c-0.525,0.045-1.035,0.104-1.425,0.24c-0.36,0.135-0.585,0.3-0.735,0.63c-0.135,0.314-0.149,0.689-0.045,1.02
		c0.12,0.345,0.405,0.57,0.75,0.69c0.285,0.09,0.646,0.074,0.96,0.015c0.93-0.15,1.695-0.645,2.205-1.439
		C290.393,37.735,290.393,37,290.393,36.535z"/>
	<path d="M296.617,40.645h-1.215c-0.42,0-0.734-0.104-0.944-0.314c-0.226-0.21-0.346-0.54-0.346-0.96v-5.475h-1.095v-1.021h1.095
		v-2.939h1.335v2.925h1.53v1.035h-1.53v5.31c0,0.24,0.24,0.405,0.436,0.405h1.335L296.617,40.645z"/>
	<path d="M303.652,40.36c-0.615,0.404-1.695,0.524-2.55,0.449c-0.96-0.09-1.815-0.479-2.385-1.29
		c-0.556-0.779-0.84-1.814-0.825-2.834c0-0.855,0.21-1.681,0.6-2.37c0.646-1.125,1.801-1.59,3.016-1.605
		c1.109-0.015,1.949,0.285,2.609,1.035c0.57,0.646,0.855,1.665,0.811,2.52c-0.03,0.511-0.33,0.75-0.825,0.75h-4.815
		c0.091,0.915,0.375,1.801,1.065,2.355c0.42,0.345,0.945,0.435,1.485,0.405c0.435-0.03,0.84-0.165,1.154-0.48
		c0.315-0.315,0.495-0.765,0.585-1.155h1.485C304.882,38.89,304.402,39.865,303.652,40.36z M302.843,34.09
		c-0.601-0.42-1.485-0.39-2.146-0.18c-0.885,0.27-1.319,1.215-1.35,2.055h4.005c0.195,0,0.285-0.165,0.285-0.33
		C303.638,35.095,303.308,34.42,302.843,34.09z"/>
</g>
</svg>
