<?xml version="1.0" encoding="utf-8"?>
<!-- Generator: Adobe Illustrator 19.0.0, SVG Export Plug-In . SVG Version: 6.00 Build 0)  -->
<svg version="1.1" id="圖層_1" xmlns="http://www.w3.org/2000/svg" xmlns:xlink="http://www.w3.org/1999/xlink" x="0px" y="0px"
	 viewBox="-112.672 -35.353 272.126 85.039" style="enable-background:new -112.672 -35.353 272.126 85.039;" xml:space="preserve">
<style type="text/css">
	.st0{fill:url(#XMLID_131_);}
	.st1{fill:#ECECEC;}
	.st2{fill:#0079C4;}
	.st3{fill:url(#XMLID_132_);}
	.st4{fill:#FF0000;}
</style>
<g id="XMLID_3_">
	
		<radialGradient id="XMLID_131_" cx="23.423" cy="7.3121" r="100.9072" gradientTransform="matrix(0.9998 0 0 0.9905 -0.0264 0.0641)" gradientUnits="userSpaceOnUse">
		<stop  offset="0.2193" style="stop-color:#00FF00;stop-opacity:0"/>
		<stop  offset="1" style="stop-color:#035353"/>
	</radialGradient>
	<path id="XMLID_63_" class="st0" d="M148.133,49.827h-249.484c-6.252,0-11.321-5.069-11.321-11.321v-62.397
		c0-6.252,5.069-11.321,11.321-11.321h249.484c6.252,0,11.321,5.069,11.321,11.321v62.397
		C159.454,44.758,154.386,49.827,148.133,49.827z"/>
	<path id="XMLID_62_" class="st1" d="M143.182,44.783H-96.4c-5.742,0-10.396-4.655-10.396-10.396v-54.159
		c0-5.742,4.655-10.396,10.396-10.396h239.582c5.742,0,10.396,4.655,10.396,10.396v54.159
		C153.578,40.128,148.924,44.783,143.182,44.783z"/>
	<g id="XMLID_49_">
		<path id="XMLID_73_" d="M12.709-6.716h1.44V4.632H11.42v-10.19H8.39c2.49-2.584,4.17-5.615,5.55-8.645h2.82
			C15.709-11.589,14.36-9.093,12.709-6.716z M11.81-14.411H8.48c2.07-2.08,3.45-4.545,4.74-6.981h3
			C15.02-18.957,13.58-16.609,11.81-14.411z M15.979,4.632V2.523h8.04v-8.051H17.33v-2.139h6.689v-7.457H16.64v-2.08h6.93
			c-0.39-0.892-1.26-3.09-1.5-4.189h2.79c0.3,1.248,1.14,3.387,1.56,4.159h7.5v2.109h-7.11v7.457h6.39v2.109h-6.39v8.081h7.83v2.109
			H15.979z"/>
		<path id="XMLID_77_" d="M46.363-14.53c-0.6-1.188-1.26-2.822-1.68-4.07c-0.06-0.178-0.24-0.356-0.42-0.356h-0.27
			c-0.15,0-0.33,0.178-0.39,0.356c-0.6,1.634-1.5,3.565-2.16,4.724h6.42v2.021h-2.85v2.733h3.81v2.021h-3.81v7.992
			c0.99-0.238,2.91-0.862,3.87-1.188v2.168c-2.79,0.862-7.38,2.199-10.38,2.823V2.553c1.02-0.178,2.94-0.624,3.93-0.921v-8.734
			h-3.87v-2.021h3.87v-2.733h-2.31v-1.248h-2.01c1.41-2.139,2.79-5.199,3.48-6.952c0.12-0.297,0.36-0.535,0.66-0.713
			c0.27-0.148,0.6-0.237,0.93-0.237h1.89c0.33,0,0.69,0.119,0.99,0.297c0.33,0.208,0.57,0.535,0.72,0.921
			c0.48,1.159,1.29,3.268,2.37,5.259H46.363z M39.643-0.151c-0.27-1.337-0.75-4.1-0.87-5.556h2.16c0.12,1.545,0.6,4.278,0.9,5.556
			H39.643z M47.893-0.626h-2.22c0.36-1.308,0.66-3.536,0.84-5.081h2.1C48.553-4.31,48.193-1.934,47.893-0.626z M63.642,3.949
			c-0.39,0.357-0.87,0.594-1.44,0.594h-3l-0.99-2.02h2.79c0.3,0,0.69-0.268,0.69-0.654v-19.786c0-0.416-0.33-0.683-0.72-0.683
			h-7.979c-0.33,0-0.69,0.297-0.69,0.683v22.46h-2.67v-22.727c0-0.713,0.3-1.337,0.78-1.783c0.45-0.416,1.02-0.683,1.68-0.683h9.69
			c0.72,0,1.35,0.267,1.8,0.683c0.51,0.476,0.81,1.129,0.81,1.842V2.404C64.392,2.939,64.092,3.533,63.642,3.949z M52.933-13.609
			v-2.05h7.83v2.05H52.933z M59.952-1.606c-0.39,0.445-0.96,0.713-1.53,0.713h-2.85c-0.51,0-1.02-0.238-1.41-0.624
			c-0.36-0.356-0.6-0.861-0.6-1.456v-6.001c0-0.505,0.24-0.98,0.6-1.337c0.39-0.356,0.9-0.594,1.38-0.594h2.76
			c0.6,0,1.11,0.208,1.5,0.535c0.42,0.386,0.69,0.951,0.69,1.604v5.764C60.492-2.439,60.282-1.963,59.952-1.606z M58.092-8.41
			c0-0.208-0.24-0.445-0.51-0.445h-1.17c-0.24,0-0.42,0.238-0.42,0.505v4.873c0,0.237,0.24,0.475,0.42,0.475h1.2
			c0.27,0,0.48-0.238,0.48-0.475V-8.41z"/>
		<path id="XMLID_85_" d="M75.575-14.501c-0.39-0.95-1.08-2.941-1.47-4.248c-0.09-0.208-0.21-0.386-0.36-0.386h-0.24
			c-0.12,0-0.24,0.178-0.3,0.356c-0.42,1.277-1.17,3.387-1.86,4.872h5.55v1.901h-2.31v2.882h3.03v1.961h-3.03v8.2
			c0.84-0.178,2.34-0.684,3.03-0.921v2.02c-2.43,0.832-6.18,1.872-9.06,2.525V2.701c0.93-0.208,2.61-0.624,3.51-0.891v-8.972h-3.36
			v-1.961h3.36v-2.882h-2.22v-1.099h-1.68c1.2-1.961,2.22-4.902,2.82-6.803c0.12-0.356,0.39-0.683,0.72-0.891
			c0.3-0.208,0.66-0.297,1.05-0.297h1.71c0.48,0,0.87,0.089,1.14,0.268c0.33,0.208,0.51,0.505,0.6,0.802
			c0.57,1.664,1.38,4.04,2.07,5.525H75.575z M69.576,0.027c-0.39-1.337-0.72-4.1-0.84-5.704h2.16c0.12,1.456,0.57,4.308,0.87,5.704
			H69.576z M77.075-0.834h-2.1c0.33-1.545,0.63-3.595,0.69-4.843h2.16C77.765-4.459,77.465-2.32,77.075-0.834z M79.505,4.573h-1.98
			c0.6-1.723,0.93-3.892,1.02-5.229h1.95C80.405,1.364,79.955,3.503,79.505,4.573z M81.335-3.657h1.71
			c-0.06-0.475-0.15-1.248-0.21-1.634h2.01c0.06,0.802,0.42,2.792,0.72,3.803h-2.07c-0.09-0.505-0.27-1.307-0.39-1.723l-0.81,1.456
			h-2.669c-0.45,0-0.78-0.208-0.96-0.535c-0.21-0.356-0.21-0.861,0.03-1.277l2.25-3.743h-1.26c-0.48,0-0.84-0.208-1.08-0.505
			c-0.27-0.386-0.33-0.891-0.03-1.337l2.16-4.218h2.55l-2.16,4.129h0.93l0.99-1.693h2.64L81.335-3.657z M93.485-14.708
			c-0.391,0.386-0.96,0.594-1.62,0.594h-11.01c-0.54,0-1.02-0.148-1.38-0.475c-0.42-0.356-0.69-0.891-0.69-1.515v-2.912
			c0-0.653,0.27-1.188,0.66-1.545c0.36-0.297,0.84-0.505,1.41-0.505h11.07c0.69,0,1.23,0.297,1.62,0.713
			c0.33,0.386,0.54,0.862,0.54,1.367v2.733C94.085-15.57,93.845-15.065,93.485-14.708z M81.215,4.573
			c-0.15-1.307-0.3-3.833-0.3-5.229h1.77c0.03,1.307,0.18,3.921,0.39,5.229H81.215z M83.135-19.135h-1.11
			c-0.33,0-0.57,0.267-0.57,0.624v1.872c0,0.386,0.24,0.624,0.6,0.624h1.08V-19.135z M83.855,4.573
			c-0.24-1.277-0.48-3.892-0.54-5.229h1.74c0.09,1.337,0.45,3.921,0.75,5.229H83.855z M88.266,4.573c-0.66,0-1.17-0.208-1.561-0.594
			c-0.449-0.445-0.689-1.04-0.689-1.782v-8.289h-2.101c1.44-2.08,2.431-5.11,3.061-7.308h2.279c-0.119,0.653-0.6,2.139-0.989,3.208
			h1.68c-0.12-0.684-0.36-1.961-0.45-2.555h2.19c0.12,0.654,0.39,1.931,0.51,2.555h2.22v1.99h-2.31v2.109h1.83v1.961h-1.83v2.228
			h1.83v1.931h-1.83v2.584h2.43v1.961H88.266z M87.306-19.135h-1.71v3.119h1.71V-19.135z M89.825-8.202h-1.56v2.109h1.56V-8.202z
			 M89.825-4.132h-1.56v2.228h1.56V-4.132z M89.825,0.027h-1.56v1.961c0,0.356,0.359,0.624,0.72,0.624h0.84V0.027z M91.505-18.511
			c0-0.297-0.3-0.624-0.569-0.624h-1.2v3.119h1.14c0.33,0,0.63-0.327,0.63-0.653V-18.511z"/>
		<path id="XMLID_110_" d="M101.278,4.632h-2.909c1.05-2.733,2.399-7.665,2.699-10.666h2.58C103.259-3.3,102.148,1.78,101.278,4.632
			z M101.039-15.124c-0.721-1.396-2.04-4.457-2.61-6.239h2.76c0.42,1.604,1.771,4.604,2.76,6.239H101.039z M100.949-7.548
			c-0.811-1.545-2.04-4.753-2.49-6.536h2.729c0.42,1.753,1.8,4.902,2.76,6.536H100.949z M105.688-8.321h-1.68
			c0.33-1.04,0.63-2.941,0.72-4.308h1.5C106.169-11.292,105.988-9.45,105.688-8.321z M120.388-14.886h2.13
			c-0.12-0.416-0.3-1.159-0.359-1.486h1.649c0.12,0.772,0.54,2.258,0.9,3.03h-1.71c-0.12-0.297-0.3-0.891-0.42-1.218l-0.72,1.218
			h-2.881c-0.569,0-0.93-0.267-1.05-0.624s0-0.832,0.391-1.218c0.6-0.624,1.529-1.604,1.859-2.05h-0.989
			c-0.301,0-0.54-0.06-0.721-0.178c-0.239-0.148-0.359-0.386-0.449-0.654h-7.141v-0.683c-0.899,0.921-2.939,3-3.959,3.981h2.1
			c-0.09-0.386-0.24-1.04-0.271-1.456h1.65c0.09,0.802,0.45,2.168,0.78,2.941h-1.71c-0.091-0.238-0.271-0.743-0.36-1.04l-0.689,1.04
			h-3.33c-0.36,0-0.66-0.238-0.78-0.535c-0.15-0.297-0.12-0.654,0.15-0.921c0.72-0.684,1.739-1.753,2.34-2.407h-1.44
			c-0.42,0-0.75-0.237-0.899-0.535c-0.15-0.327-0.15-0.832,0.149-1.099c0.601-0.594,1.86-1.901,2.46-2.555h2.55
			c-0.689,0.743-2.04,2.139-2.729,2.823h1.29c0.21-0.208,0.63-0.624,0.779-0.802h1.92v-0.476h2.34
			c-0.149-0.416-0.329-1.159-0.42-1.574h2.431c0.029,0.386,0.239,1.158,0.39,1.574h2.61v0.802c0.6-0.624,1.619-1.812,2.13-2.436
			h2.279c-0.54,0.713-1.74,2.139-2.399,2.852h1.229c0.33-0.327,0.84-0.891,1.08-1.218h2.28
			C123.718-18.511,121.828-16.402,120.388-14.886z M123.448,3.89c-0.391,0.445-1.021,0.743-1.65,0.743h-8.159l-1.141-1.872h8.25
			c0.24,0,0.51-0.327,0.51-0.594V1.513c0-0.267-0.24-0.624-0.51-0.624h-13.319c-0.63,0-1.141-0.179-1.5-0.535
			c-0.33-0.327-0.51-0.772-0.51-1.366v-1.01c0-0.772,0.27-1.307,0.75-1.664c0.39-0.268,0.899-0.416,1.56-0.416h12.6
			c0.27,0,0.54-0.327,0.54-0.564v-0.327c0-0.267-0.24-0.505-0.51-0.505h-15.27v-1.723h16.469c0.66,0,1.23,0.178,1.59,0.505
			c0.271,0.297,0.45,0.683,0.45,1.218v1.337c0,0.564-0.21,1.01-0.569,1.337c-0.36,0.297-0.87,0.476-1.471,0.476h-12.989
			c-0.24,0-0.479,0.237-0.479,0.505v0.505c0,0.268,0.239,0.505,0.51,0.505h13.379c0.57,0,0.99,0.208,1.32,0.475
			c0.39,0.386,0.6,0.891,0.6,1.426v1.634C123.897,3.147,123.718,3.563,123.448,3.89z M107.158-8.321
			c-0.149-1.04-0.359-3.208-0.359-4.308h1.38c-0.03,1.099,0.18,3.208,0.39,4.308H107.158z M109.318-8.321
			c-0.24-1.188-0.45-3.238-0.479-4.308h1.35c0.03,1.218,0.33,3.238,0.57,4.308H109.318z M117.148-8.707
			c-0.271,0.268-0.63,0.416-1.08,0.416h-3.48c-0.479,0-0.869-0.119-1.109-0.386c-0.271-0.268-0.42-0.624-0.42-1.099v-1.278
			c0-0.564,0.18-1.01,0.54-1.307c0.27-0.208,0.63-0.297,1.08-0.297h3.359c0.48,0,0.9,0.178,1.17,0.505
			c0.21,0.268,0.33,0.594,0.33,1.04v1.367C117.538-9.331,117.388-8.975,117.148-8.707z M111.389-15.748v-1.485h6.06v1.485H111.389z
			 M111.389-13.46v-1.515h6.09v1.515H111.389z M115.468-10.727c0-0.208-0.18-0.446-0.39-0.446h-1.53
			c-0.21,0-0.449,0.208-0.449,0.446v0.475c0,0.238,0.21,0.446,0.449,0.446h1.561c0.21,0,0.359-0.208,0.359-0.416V-10.727z
			 M119.278-8.351h-1.62c0.42-1.277,0.689-3.149,0.75-4.337h1.5C119.908-11.529,119.608-9.509,119.278-8.351z M120.778-8.351
			c-0.181-0.98-0.33-3.119-0.301-4.337h1.351c0.03,1.159,0.27,3.357,0.45,4.337H120.778z M123.118-8.351
			c-0.21-1.04-0.45-3.208-0.54-4.337h1.439c0.09,1.099,0.36,3.268,0.57,4.337H123.118z"/>
	</g>
	<g id="XMLID_48_">
		<path id="XMLID_32_" d="M-0.988,19.901v11.495h-1.637V19.901h-4.479v-1.266H3.402v1.266H-0.988z"/>
		<path id="XMLID_34_" d="M10.493,31.254c-1.079,0.445-2.555,0.392-3.634-0.071C5.78,30.72,4.97,29.899,4.61,28.759
			c-0.396-1.283-0.377-3.119,0.162-4.331c0.486-1.122,1.403-1.907,2.59-2.245c1.169-0.339,2.537-0.232,3.544,0.32
			c1.061,0.588,1.583,1.319,1.907,2.441c0.342,1.194,0.342,2.549,0.036,3.726C12.562,29.792,11.591,30.809,10.493,31.254z
			 M8.532,23.233c-0.989,0.036-1.997,0.695-2.303,1.658c-0.342,1.104-0.306,2.424-0.036,3.582c0.198,0.909,1.079,1.657,1.997,1.8
			c1.043,0.161,2.303-0.16,2.807-1.176c0.647-1.302,0.594-3.155,0.072-4.456C10.673,23.644,9.594,23.181,8.532,23.233z"/>
		<path id="XMLID_37_" d="M28.218,30.933c-1.169,0.57-2.699,0.731-3.976,0.553c-1.367-0.178-2.519-0.713-3.436-1.764
			c-1.097-1.248-1.565-2.799-1.583-4.492c-0.036-2.405,0.755-4.794,3.04-6.006c1.583-0.855,3.85-0.98,5.595-0.249
			c1.493,0.624,2.59,1.996,3.166,3.476h-1.853c-0.576-1.088-1.187-1.907-2.356-2.389c-0.954-0.374-2.105-0.463-3.094-0.071
			c-2.177,0.855-2.915,3.012-2.86,5.169c0.054,1.835,0.593,3.582,2.267,4.598c1.188,0.73,2.986,0.767,4.246,0.054
			c0.936-0.535,1.691-1.587,2.015-2.603h1.853C30.772,28.705,29.675,30.22,28.218,30.933z"/>
		<path id="XMLID_39_" d="M39.376,31.396c-0.162-0.392-0.306-0.855-0.36-1.229c-0.81,0.73-1.817,1.247-2.915,1.372
			c-0.773,0.089-1.637,0.018-2.303-0.339c-0.594-0.32-1.025-0.784-1.223-1.426c-0.216-0.659-0.198-1.426,0.036-2.049
			c0.288-0.731,0.864-1.213,1.637-1.479c0.647-0.231,1.565-0.321,2.321-0.393c0.846-0.071,1.799-0.392,2.303-0.837
			c0.036-0.339,0-0.892-0.342-1.266c-0.324-0.339-0.828-0.518-1.313-0.57c-0.629-0.09-1.421,0.018-2.015,0.268
			c-0.594,0.249-0.954,0.748-1.115,1.354h-1.691c0.126-0.979,0.954-1.889,1.889-2.334c0.792-0.375,1.997-0.553,2.86-0.518
			c0.936,0.036,1.943,0.304,2.608,0.98c0.54,0.57,0.738,1.319,0.72,2.21c-0.018,1.159-0.018,2.728,0,3.547
			c0.018,0.892,0.306,2.05,0.666,2.709H39.376z M38.836,26.495c-0.647,0.339-1.385,0.588-2.051,0.642
			c-0.629,0.054-1.241,0.125-1.709,0.285c-0.432,0.161-0.702,0.356-0.881,0.749c-0.162,0.374-0.18,0.819-0.054,1.212
			c0.144,0.409,0.486,0.677,0.899,0.819c0.342,0.107,0.774,0.09,1.151,0.018c1.116-0.178,2.033-0.766,2.645-1.711
			C38.836,27.921,38.836,27.048,38.836,26.495z"/>
		<path id="XMLID_42_" d="M48.968,31.396V30.22c-0.54,0.713-1.331,1.177-2.213,1.319c-0.917,0.143-1.925-0.018-2.68-0.57
			c-0.738-0.553-1.206-1.443-1.206-2.53v-6.31h1.655v6.522c0,0.553,0.288,1.159,0.773,1.462c0.45,0.285,1.043,0.303,1.547,0.16
			c0.899-0.231,1.745-0.962,2.123-1.782v-6.362h1.637l-0.018,9.268H48.968z"/>
		<path id="XMLID_44_" d="M59.352,30.595c-0.738,0.73-1.907,0.944-2.896,0.998c-0.936,0.035-1.943-0.143-2.699-0.749
			c-0.737-0.588-1.223-1.515-1.439-2.424h1.709c0.072,0.57,0.324,1.177,0.773,1.533c0.468,0.374,1.188,0.409,1.763,0.392
			c0.612-0.018,1.206-0.195,1.637-0.605c0.27-0.268,0.36-0.642,0.324-1.016c-0.036-0.446-0.342-0.713-0.702-0.892
			c-0.594-0.285-2.141-0.767-3.022-0.962c-0.576-0.143-1.475-0.57-1.853-1.177c-0.36-0.606-0.414-1.443-0.108-2.067
			c0.324-0.695,1.026-1.248,1.727-1.461c1.169-0.357,2.627-0.304,3.724,0.249c0.917,0.464,1.385,1.354,1.655,2.317H58.2
			c-0.126-0.57-0.468-1.159-1.043-1.391c-0.647-0.25-1.835-0.231-2.429,0.214c-0.36,0.268-0.594,0.767-0.45,1.158
			c0.126,0.356,0.666,0.624,1.007,0.713c1.116,0.285,2.645,0.749,3.562,1.194c0.756,0.356,1.277,1.141,1.313,1.961
			C60.197,29.329,59.891,30.06,59.352,30.595z"/>
		<path id="XMLID_46_" d="M68.349,31.04c-0.738,0.481-2.033,0.624-3.059,0.535c-1.151-0.107-2.177-0.57-2.86-1.533
			c-0.666-0.927-1.007-2.156-0.989-3.368c0-1.017,0.252-1.996,0.72-2.816c0.773-1.337,2.159-1.889,3.616-1.907
			c1.332-0.018,2.339,0.339,3.13,1.23c0.684,0.766,1.025,1.979,0.972,2.994c-0.036,0.605-0.396,0.891-0.99,0.891h-5.775
			c0.108,1.088,0.45,2.139,1.277,2.799c0.504,0.409,1.133,0.517,1.781,0.48c0.521-0.035,1.007-0.195,1.385-0.57
			c0.377-0.374,0.594-0.908,0.702-1.372h1.781C69.824,29.294,69.249,30.452,68.349,31.04z M67.377,23.591
			c-0.719-0.5-1.781-0.464-2.572-0.215c-1.062,0.321-1.583,1.444-1.619,2.442h4.803c0.234,0,0.342-0.196,0.342-0.393
			C68.331,24.784,67.935,23.982,67.377,23.591z"/>
		<path id="XMLID_55_" d="M71.123,22.146h1.691l1.511,5.347l0.162,0.553l0.27,0.944l0.126,0.481h0.036l0.09-0.481l0.216-0.713
			l0.18-0.713l1.511-5.418h1.691l1.421,5.364c0.036,0.143,0.09,0.375,0.18,0.66c0.162,0.588,0.198,0.695,0.288,1.104h0.036
			c0.09-0.392,0.108-0.445,0.288-1.033c0.09-0.268,0.18-0.517,0.251-0.749l1.637-5.347h1.583l-3.004,9.232h-1.691l-1.529-5.597
			l-0.306-1.354l-0.036-0.214h-0.054l-1.925,7.165h-1.691L71.123,22.146z"/>
		<path id="XMLID_57_" d="M92.319,31.396c-0.162-0.392-0.306-0.855-0.359-1.229c-0.81,0.73-1.817,1.247-2.914,1.372
			c-0.774,0.089-1.638,0.018-2.303-0.339c-0.594-0.32-1.026-0.784-1.224-1.426c-0.216-0.659-0.198-1.426,0.036-2.049
			c0.288-0.731,0.864-1.213,1.638-1.479c0.647-0.231,1.565-0.321,2.32-0.393c0.846-0.071,1.8-0.392,2.303-0.837
			c0.036-0.339,0-0.892-0.342-1.266c-0.323-0.339-0.827-0.518-1.313-0.57c-0.63-0.09-1.422,0.018-2.016,0.268
			c-0.594,0.249-0.953,0.748-1.115,1.354h-1.691c0.126-0.979,0.954-1.889,1.89-2.334c0.791-0.375,1.997-0.553,2.86-0.518
			c0.936,0.036,1.943,0.304,2.608,0.98c0.54,0.57,0.737,1.319,0.72,2.21c-0.018,1.159-0.018,2.728,0,3.547
			c0.018,0.892,0.306,2.05,0.666,2.709H92.319z M91.78,26.495c-0.648,0.339-1.386,0.588-2.051,0.642
			c-0.63,0.054-1.242,0.125-1.71,0.285c-0.432,0.161-0.701,0.356-0.881,0.749c-0.162,0.374-0.18,0.819-0.054,1.212
			c0.144,0.409,0.485,0.677,0.899,0.819c0.342,0.107,0.773,0.09,1.151,0.018c1.115-0.178,2.032-0.766,2.645-1.711
			C91.78,27.921,91.78,27.048,91.78,26.495z"/>
		<path id="XMLID_60_" d="M99.303,33.838c-0.161,0.374-0.432,0.695-0.755,0.874c-0.306,0.178-0.666,0.267-1.044,0.267h-1.277
			l-0.737-1.247h1.619c0.324,0,0.594-0.25,0.701-0.518l0.918-2.228l-3.778-8.857h1.817l2.843,6.665l2.806-6.665h1.854L99.303,33.838
			z"/>
		<path id="XMLID_64_" d="M118.665,30.684c-0.684,0.606-1.565,0.695-2.519,0.695h-4.21c-0.449,0-0.863-0.196-1.151-0.499
			c-0.252-0.285-0.414-0.642-0.414-1.034v-9.677c0-0.464,0.181-0.855,0.486-1.123c0.288-0.25,0.665-0.393,1.133-0.393h4.354
			c0.972,0,1.943,0.57,2.465,1.408c0.504,0.802,0.594,1.979,0.342,2.869c-0.233,0.855-0.701,1.391-1.475,1.836
			c0.737,0.16,1.385,0.678,1.78,1.337c0.433,0.73,0.504,1.675,0.36,2.495C119.673,29.383,119.313,30.113,118.665,30.684z
			 M116.128,19.848h-3.615c-0.288,0-0.522,0.214-0.522,0.481v3.85h3.904c0.611,0,1.224-0.375,1.547-0.892
			c0.414-0.659,0.432-1.692,0.145-2.424C117.37,20.293,116.758,19.848,116.128,19.848z M117.621,25.961
			c-0.468-0.446-1.079-0.553-1.727-0.553h-3.904v4.26c0,0.267,0.271,0.481,0.504,0.481h3.4c0.666,0,1.476-0.107,1.925-0.624
			c0.378-0.41,0.521-1.177,0.504-1.711C118.305,27.173,118.107,26.406,117.621,25.961z"/>
		<path id="XMLID_68_" d="M128.059,31.396c-0.161-0.392-0.306-0.855-0.359-1.229c-0.81,0.73-1.817,1.247-2.914,1.372
			c-0.774,0.089-1.638,0.018-2.303-0.339c-0.594-0.32-1.026-0.784-1.224-1.426c-0.216-0.659-0.198-1.426,0.036-2.049
			c0.287-0.731,0.863-1.213,1.637-1.479c0.647-0.231,1.565-0.321,2.32-0.393c0.846-0.071,1.8-0.392,2.303-0.837
			c0.036-0.339,0-0.892-0.342-1.266c-0.323-0.339-0.827-0.518-1.313-0.57c-0.63-0.09-1.422,0.018-2.016,0.268
			c-0.593,0.249-0.953,0.748-1.115,1.354h-1.69c0.126-0.979,0.953-1.889,1.889-2.334c0.791-0.375,1.997-0.553,2.86-0.518
			c0.936,0.036,1.943,0.304,2.608,0.98c0.54,0.57,0.737,1.319,0.72,2.21c-0.018,1.159-0.018,2.728,0,3.547
			c0.018,0.892,0.306,2.05,0.666,2.709H128.059z M127.52,26.495c-0.648,0.339-1.386,0.588-2.051,0.642
			c-0.63,0.054-1.242,0.125-1.71,0.285c-0.432,0.161-0.701,0.356-0.881,0.749c-0.162,0.374-0.18,0.819-0.054,1.212
			c0.144,0.409,0.485,0.677,0.899,0.819c0.342,0.107,0.773,0.09,1.151,0.018c1.115-0.178,2.032-0.766,2.645-1.711
			C127.52,27.921,127.52,27.048,127.52,26.495z"/>
		<path id="XMLID_71_" d="M135.042,33.838c-0.161,0.374-0.432,0.695-0.755,0.874c-0.306,0.178-0.666,0.267-1.044,0.267h-1.277
			l-0.737-1.247h1.619c0.324,0,0.594-0.25,0.701-0.518l0.918-2.228l-3.778-8.857h1.817l2.843,6.665l2.806-6.665h1.854
			L135.042,33.838z"/>
	</g>
	<g id="XMLID_31_">
		<path id="XMLID_93_" class="st2" d="M-80.329,6.966c-0.866,0.267-1.745,0.433-2.53,0.8c-1.646,0.771-2.42,2.152-2.529,3.958
			c-0.138,2.281,0.934,3.986,2.528,5.438c1.392,1.268,2.976,2.268,4.641,3.137c0.266,0.139,0.561,0.258,0.854,0.298
			c0.859,0.116,1.399-0.112,1.719-0.924c0.397-1.004,0.741-2.05,0.935-3.109c0.521-2.845,0.994-5.702,1.401-8.566
			c0.258-1.819,0.356-3.661,0.545-5.491c0.046-0.448-0.092-0.695-0.502-0.918c-2.562-1.395-4.936-3.053-6.955-5.181
			c-2.222-2.343-3.827-5.022-4.436-8.234c-0.549-2.896-0.252-5.647,1.556-8.079c1.893-2.546,4.413-4.156,7.563-4.597
			c1.037-0.145,2.13,0.114,3.198,0.17c0.293,0.015,0.62,0.041,0.88-0.064c2.289-0.928,4.72,0.466,5.108,2.903
			c0.272,1.708-0.878,3.25-2.085,3.819c-0.33,0.155-0.471,0.332-0.485,0.714c-0.061,1.651-0.204,3.3-0.239,4.952
			c-0.063,2.93-0.062,5.862-0.112,8.793c-0.007,0.399,0.136,0.533,0.493,0.656c2.288,0.787,4.608,1.503,6.838,2.434
			c3.712,1.551,7.191,3.529,10.202,6.245c1.796,1.621,3.287,3.475,4.282,5.701c1.253,2.802,1.199,5.658,0.322,8.534
			c-0.679,2.227-1.789,4.244-3.117,6.148c-0.191,0.274-0.343,0.288-0.632,0.136c-2.171-1.139-4.35-2.261-6.735-2.908
			c-1.607-0.436-3.242-0.651-4.903-0.563c-1.632,0.086-3.194,0.517-4.738,1.038c-0.904,0.305-1.82,0.605-2.755,0.778
			c-1.235,0.229-2.482,0.16-3.695-0.231c-1.103-0.355-2.199-0.735-3.313-1.053c-2.764-0.789-5.523-0.702-8.274,0.099
			c-2.117,0.616-4.076,1.592-6.026,2.592c-0.533,0.273-0.531,0.28-0.794-0.238c-1.533-3.025-2.213-6.24-1.887-9.606
			c0.407-4.204,2.401-7.512,5.971-9.825c1.825-1.182,3.819-1.361,5.895-0.933C-81.377,5.945-80.775,6.393-80.329,6.966z
			 M-72.354-3.747c0.071-0.973,0.147-1.865,0.2-2.758c0.071-1.201,0.128-2.403,0.186-3.605c0.113-2.376,0.23-4.751,0.32-7.128
			c0.008-0.205-0.112-0.497-0.272-0.612c-0.939-0.676-1.57-1.524-1.744-2.694c-0.024-0.163-0.201-0.357-0.357-0.437
			c-0.626-0.319-1.293-0.397-1.984-0.233c-2.313,0.549-4.108,1.798-5,4.041c-0.984,2.475-0.543,4.869,0.894,7.044
			c1.828,2.768,4.389,4.719,7.314,6.218C-72.686-3.853-72.561-3.822-72.354-3.747z M-69.135,3.593
			c-0.015,0.143-0.036,0.242-0.033,0.341c0.032,1.204,0.043,2.409,0.108,3.611c0.057,1.055,0.138,2.112,0.273,3.159
			c0.288,2.239,0.605,4.474,0.937,6.707c0.106,0.713,0.251,1.428,0.46,2.116c0.218,0.716,0.746,0.848,1.351,0.395
			c0.208-0.156,0.396-0.341,0.575-0.529c1.036-1.084,1.649-2.409,2.138-3.8c0.834-2.374,0.894-4.715-0.354-6.981
			c-1.193-2.167-2.991-3.708-5.119-4.902C-68.892,3.657-69.005,3.637-69.135,3.593z M-71.387,20.528
			c0.092-0.084,0.144-0.116,0.174-0.163c0.071-0.109,0.133-0.224,0.196-0.339c0.544-0.988,0.515-2.068,0.481-3.141
			c-0.091-2.871-0.201-5.741-0.303-8.612c-0.061-1.711-0.122-3.422-0.187-5.132c-0.003-0.082-0.05-0.163-0.076-0.244
			c-0.118,0.174-0.144,0.338-0.155,0.504c-0.065,1.012-0.124,2.025-0.188,3.038c-0.112,1.765-0.227,3.53-0.338,5.295
			c-0.067,1.056-0.141,2.112-0.191,3.168c-0.063,1.317-0.144,2.635-0.139,3.952C-72.112,19.46-71.831,20.023-71.387,20.528z
			 M-68.818-21.089c0.006-0.789-0.512-1.335-1.274-1.343c-0.754-0.007-1.341,0.559-1.342,1.295c-0.001,0.74,0.545,1.298,1.274,1.305
			C-69.344-19.824-68.824-20.312-68.818-21.089z"/>
		<path id="XMLID_92_" class="st2" d="M-85.656,33.679c1.488-0.665,2.857-1.188,4.339-1.397c1.987-0.28,3.856,0.156,5.703,0.818
			c1.298,0.465,2.623,0.844,4.014,0.884c1.287,0.037,2.531-0.223,3.756-0.611c1.117-0.354,2.229-0.744,3.371-0.993
			c1.765-0.386,3.517-0.192,5.221,0.402c0.655,0.228,1.3,0.482,2.053,0.762c-0.22,0.17-0.359,0.283-0.504,0.387
			c-3.51,2.513-7.305,4.442-11.48,5.587c-0.767,0.21-1.546,0.398-2.332,0.51c-0.352,0.05-0.742-0.082-1.101-0.18
			c-3.854-1.059-7.517-2.567-10.902-4.712C-84.213,34.698-84.877,34.212-85.656,33.679z"/>
		<path id="XMLID_91_" class="st2" d="M-90.846,28.281c0.453-0.235,0.846-0.445,1.243-0.645c1.906-0.961,3.841-1.858,5.943-2.306
			c2.287-0.487,4.545-0.371,6.774,0.372c1.181,0.394,2.369,0.784,3.578,1.073c1.823,0.436,3.624,0.208,5.394-0.37
			c1.17-0.382,2.335-0.803,3.532-1.074c2.495-0.565,4.971-0.356,7.349,0.568c1.793,0.698,3.535,1.529,5.416,2.353
			c-0.433,0.489-0.75,0.875-1.104,1.223c-0.062,0.061-0.294-0.012-0.427-0.07c-1.339-0.593-2.647-1.264-4.014-1.782
			c-3.394-1.284-6.798-1.199-10.203,0.041c-0.974,0.355-1.998,0.589-3.014,0.807c-1.164,0.25-2.306,0.012-3.428-0.321
			c-1.388-0.412-2.754-0.931-4.167-1.217c-2.324-0.471-4.659-0.338-6.894,0.493c-1.559,0.579-3.07,1.291-4.587,1.977
			c-0.328,0.149-0.511,0.151-0.704-0.162C-90.354,28.925-90.59,28.634-90.846,28.281z"/>
		<path id="XMLID_90_" class="st2" d="M-54.246,31.032c-0.424,0.383-0.806,0.757-1.224,1.084c-0.092,0.072-0.322,0.013-0.47-0.039
			c-1.323-0.467-2.618-1.029-3.966-1.404c-2.424-0.675-4.809-0.358-7.169,0.453c-1.144,0.393-2.337,0.655-3.519,0.925
			c-1.066,0.243-2.103-0.032-3.122-0.326c-1.266-0.366-2.509-0.817-3.786-1.134c-2.138-0.53-4.265-0.309-6.336,0.368
			c-1.044,0.341-2.05,0.801-3.063,1.23c-0.246,0.104-0.412,0.128-0.61-0.084c-0.314-0.338-0.658-0.648-1.068-1.046
			c0.099-0.04,0.155-0.057,0.206-0.084c1.761-0.931,3.572-1.734,5.53-2.162c2.184-0.478,4.308-0.256,6.411,0.473
			c1.133,0.393,2.285,0.78,3.461,0.981c1.444,0.247,2.916,0.23,4.348-0.215c1.355-0.421,2.699-0.89,4.075-1.228
			c2.094-0.514,4.185-0.324,6.201,0.395c1.294,0.461,2.537,1.064,3.801,1.607C-54.458,30.863-54.385,30.935-54.246,31.032z"/>
	</g>
	<g id="XMLID_50_">
		<linearGradient id="XMLID_132_" gradientUnits="userSpaceOnUse" x1="-59.9106" y1="7.6775" x2="-18.3061" y2="7.6775">
			<stop  offset="0" style="stop-color:#FF0000;stop-opacity:0"/>
			<stop  offset="0.3" style="stop-color:#FF0000"/>
		</linearGradient>
		<rect id="XMLID_53_" x="-59.911" y="3.088" class="st3" width="41.604" height="9.179"/>
		<polygon id="XMLID_52_" class="st4" points="-26.253,20.739 -38.961,20.739 -25.778,7.678 -13.069,7.678 		"/>
		<polygon id="XMLID_51_" class="st4" points="-25.778,7.854 -13.069,7.854 -26.253,-5.208 -38.961,-5.208 		"/>
	</g>
</g>
<g id="XMLID_1_">
</g>
<g id="XMLID_124_">
</g>
<g id="XMLID_125_">
</g>
<g id="XMLID_126_">
</g>
<g id="XMLID_127_">
</g>
<g id="XMLID_128_">
</g>
<rect id="XMLID_2_" x="342" y="-838.96" class="st2" width="428" height="156"/>
</svg>
