<?xml version="1.0" encoding="iso-8859-1"?>
<!-- Generator: Adobe Illustrator 19.0.0, SVG Export Plug-In . SVG Version: 6.00 Build 0)  -->
<svg version="1.1" id="&#x5716;&#x5C64;_1" xmlns="http://www.w3.org/2000/svg" xmlns:xlink="http://www.w3.org/1999/xlink" x="0px"
	 y="0px" viewBox="-112.672 -35.353 272.126 85.039" style="enable-background:new -112.672 -35.353 272.126 85.039;"
	 xml:space="preserve">
<g id="XMLID_1_">
</g>
<g id="XMLID_124_">
</g>
<g id="XMLID_125_">
</g>
<g id="XMLID_126_">
</g>
<g id="XMLID_127_">
</g>
<g id="XMLID_128_">
</g>
<radialGradient id="XMLID_183_" cx="23.4222" cy="26.8896" r="100.9042" gradientTransform="matrix(0.9998 0 0 -0.9905 -0.0264 33.8007)" gradientUnits="userSpaceOnUse">
	<stop  offset="0.2193" style="stop-color:#00FF00;stop-opacity:0"/>
	<stop  offset="1" style="stop-color:#035353"/>
</radialGradient>
<path id="XMLID_63_" style="fill:url(#XMLID_183_);" d="M148.133,49.686h-249.484c-6.252,0-11.321-5.069-11.321-11.321v-62.397
	c0-6.252,5.069-11.321,11.321-11.321h249.484c6.252,0,11.321,5.069,11.321,11.321v62.397
	C159.454,44.617,154.386,49.686,148.133,49.686z"/>
<path id="XMLID_62_" style="fill:#FFFFFF;" d="M143.182,44.642H-96.4c-5.742,0-10.396-4.655-10.396-10.396v-54.159
	c0-5.742,4.655-10.396,10.396-10.396h239.582c5.742,0,10.396,4.655,10.396,10.396v54.159
	C153.578,39.987,148.924,44.642,143.182,44.642z"/>
<g id="XMLID_4_">
	<path id="XMLID_149_" d="M59.705-1.681c-0.382,0.404-0.914,0.616-1.55,0.616h-5.735v5.098h-1.975v-5.098h-5.968
		c-0.531,0-0.978-0.233-1.296-0.595c-0.276-0.34-0.446-0.765-0.446-1.168v-6.224c0-0.616,0.255-1.083,0.659-1.402
		c0.382-0.297,0.892-0.467,1.423-0.467h5.628v-3.675h1.975v3.675h5.799c0.637,0,1.147,0.255,1.508,0.658
		c0.298,0.361,0.468,0.829,0.468,1.359v5.862C60.193-2.466,60.002-1.999,59.705-1.681z M50.444-9.391h-5.077
		c-0.318,0-0.616,0.276-0.616,0.616v5.586c0,0.34,0.191,0.573,0.552,0.573h5.14V-9.391z M58.175-8.796
		c0-0.318-0.255-0.595-0.552-0.595h-5.204v6.775h5.247c0.255,0,0.51-0.212,0.51-0.531V-8.796z"/>
	<path id="XMLID_153_" d="M63.521,2.334V0.55c0.425-0.17,1.168-0.488,1.869-0.786V-5.95H63.67v-1.444h1.721v-4.779h-1.912v-1.466
		h5.692v1.466H67.26v4.779h1.593v1.444H67.26v4.779c0.488-0.233,1.636-0.807,2.23-1.189v1.721
		C67.812,0.337,65.306,1.633,63.521,2.334z M80.684-2.849c-0.297,0.34-0.743,0.488-1.253,0.488h-3.675
		c-0.658,0.786-1.381,1.572-2.103,2.252v2.145c0,0.297,0.233,0.467,0.446,0.467h2.783l-0.595,1.423h-3.123
		c-0.361,0-0.701-0.148-0.977-0.382c-0.276-0.234-0.446-0.553-0.446-0.956V1.293H68.98c1.593-0.935,3.25-2.188,4.481-3.653H72.23
		c-0.531,0-0.935-0.106-1.232-0.318c-0.382-0.276-0.573-0.743-0.573-1.466v-0.68c0-0.51,0.148-0.913,0.425-1.189
		c0.276-0.297,0.68-0.446,1.146-0.446h7.52c0.446,0,0.871,0.17,1.168,0.51c0.233,0.276,0.382,0.659,0.382,1.168v0.722
		C81.066-3.528,80.917-3.125,80.684-2.849z M69.256-7.415v-1.317h12.68v1.317H69.256z M81.023-10.219
		c-0.255,0.276-0.616,0.467-1.062,0.467h-8.73c-0.318,0-0.637-0.148-0.913-0.382c-0.276-0.255-0.467-0.616-0.467-1.02v-1.508
		c0-0.51,0.149-0.935,0.467-1.232c0.276-0.255,0.68-0.403,1.253-0.403h8.093c0.531,0,0.956,0.17,1.232,0.425
		c0.361,0.297,0.531,0.765,0.531,1.295v1.317C81.427-10.877,81.278-10.495,81.023-10.219z M73.165-13.022h-1.02
		c-0.234,0-0.425,0.212-0.425,0.403v1.211c0,0.233,0.212,0.403,0.446,0.403h0.999V-13.022z M79.176-4.781
		c0-0.213-0.128-0.404-0.425-0.404H72.74c-0.212,0-0.404,0.212-0.404,0.404v0.616c0,0.234,0.149,0.425,0.361,0.425h6.075
		c0.234,0,0.404-0.149,0.404-0.404V-4.781z M76.372-13.022h-1.551v2.018h1.551V-13.022z M79.388,3.948
		c-1.614-1.657-2.931-3.441-3.865-5.374h2.018c0.233,0.446,0.595,1.083,0.828,1.423c0.553-0.51,0.999-1.147,1.359-1.784h2.146
		c-0.658,1.104-1.466,2.209-2.442,3.165c0.85,0.956,1.826,1.827,2.804,2.57H79.388z M79.579-12.598c0-0.213-0.191-0.425-0.467-0.425
		h-1.02v2.018h1.062c0.233,0,0.425-0.17,0.425-0.403V-12.598z"/>
	<path id="XMLID_163_" d="M89.786-4.125c-0.401,1.529-0.34,3.181,0.154,4.679c0.479,1.482,1.358,2.795,2.439,4.015h-1.822
		c-0.864-1.112-1.544-2.394-1.961-3.737c-0.51-1.668-0.633-3.444-0.17-5.235c0.387-1.544,1.205-2.918,2.224-4.2h1.807
		C91.191-7.259,90.233-5.792,89.786-4.125z"/>
	<path id="XMLID_165_" d="M95.67,2.639h-1.977c1.837-1.729,3.289-3.552,4.199-5.806c0.031-0.108-0.062-0.247-0.169-0.247h-3.366
		v-1.05h3.721c0.479,0,0.865,0.201,1.081,0.525c0.201,0.324,0.263,0.772,0.062,1.25C98.295-0.418,97.074,1.219,95.67,2.639z
		 M105.213,2.639c-1.637-1.56-2.935-3.351-4-5.173v4.709c0,0.494-0.154,0.896-0.433,1.158c-0.247,0.231-0.602,0.355-1.019,0.355
		h-1.961l-0.541-1.05h2.115c0.232,0,0.433-0.201,0.433-0.432v-7.675c0-0.186-0.139-0.371-0.37-0.371h-3.182v-1.065h3.613
		c0.371,0,0.742,0.154,0.988,0.401c0.232,0.231,0.355,0.571,0.355,0.973v0.51c0.34,0.633,0.726,1.282,1.065,1.792
		c1.112-0.865,2.054-1.992,2.625-3.181h1.606c-0.664,1.652-2.054,3.104-3.49,4.308c1.22,1.683,2.688,3.459,4.417,4.741H105.213z
		 M100.981-6.935c-0.911-0.618-2.27-1.946-3.089-2.857h2.085c0.988,1.127,2.162,2.131,3.382,2.857H100.981z"/>
	<path id="XMLID_169_" d="M110.448,2.299h-1.297c0.617-2.084,0.787-4.385,0.88-6.655h1.205
		C111.174-2.055,110.958,0.184,110.448,2.299z M113.135-5.097v8.74h-1.343v-8.74h-2.625v-1.065h2.625v-1.93
		c-0.571,0.062-1.699,0.139-2.239,0.17v-1.112c1.884-0.092,3.783-0.278,5.528-0.772v1.174c-0.51,0.108-1.498,0.293-1.946,0.355
		v2.116h2.563v1.065H113.135z M114.68,2.299c-0.618-2.084-0.85-4.339-0.881-6.655h1.235c-0.015,2.332,0.294,4.602,0.942,6.655
		H114.68z M121.922,3.334c-0.247,0.201-0.587,0.309-0.958,0.309h-3.474c-0.278,0-0.572-0.139-0.788-0.386
		c-0.231-0.247-0.401-0.602-0.401-1.004v-9.852c0-0.417,0.17-0.772,0.463-1.004c0.232-0.201,0.557-0.309,0.927-0.309h3.212
		c0.433,0,0.788,0.139,1.02,0.401c0.247,0.278,0.37,0.664,0.37,1.127v9.821C122.292,2.84,122.153,3.133,121.922,3.334z
		 M120.841-7.522c0-0.124-0.139-0.263-0.324-0.263h-2.518c-0.185,0-0.293,0.139-0.293,0.324v9.682c0,0.216,0.139,0.34,0.34,0.34
		h2.471c0.2,0,0.324-0.139,0.324-0.324V-7.522z"/>
	<path id="XMLID_175_" d="M126.556-2.364h0.603v6.054h-1.39v-5.405h-1.189c0.85-1.328,1.498-2.733,1.977-4.2h1.498
		C127.652-4.696,127.174-3.507,126.556-2.364z M126.386-6.225h-1.775c0.926-1.127,1.575-2.301,2.131-3.567h1.56
		C127.791-8.572,127.111-7.244,126.386-6.225z M128.007,3.01V1.898c0.772-0.062,1.575-0.139,2.348-0.231v-2.378h-1.868v-1.081h1.868
		v-1.683h1.374v1.683h1.761v1.081h-1.761V1.45c0.603-0.046,1.637-0.216,2.285-0.386v1.112C131.945,2.516,129.876,2.84,128.007,3.01z
		 M136.964-4.711v7.196c0,0.371-0.14,0.648-0.355,0.849c-0.247,0.247-0.603,0.355-0.942,0.355h-1.358l-0.401-1.035h1.297
		c0.154,0,0.371-0.155,0.371-0.402v-6.964h-1.715v0.787h-5.713v-1.019h2.177v-1.992h-1.915v-1.05h1.915v-1.807h1.375v1.807h1.807
		v1.05h-1.807v1.992h1.945v-0.818h4.432v1.05H136.964z M133.999-8.201v-1.065h3.659v1.065H133.999z"/>
	<path id="XMLID_181_" d="M141.087-8.603c1.02,1.282,1.838,2.656,2.224,4.2c0.463,1.791,0.34,3.567-0.17,5.235
		c-0.417,1.343-1.097,2.625-1.961,3.737h-1.822c1.081-1.22,1.961-2.532,2.439-4.015c0.494-1.498,0.557-3.15,0.155-4.679
		c-0.448-1.667-1.405-3.135-2.672-4.478H141.087z"/>
</g>
<g id="XMLID_3_">
	<path id="XMLID_103_" d="M43.249,30.988c-0.845,0.416-1.95,0.532-2.873,0.402c-0.988-0.13-1.82-0.52-2.483-1.287
		c-0.793-0.91-1.131-2.041-1.144-3.275c-0.026-1.756,0.546-3.497,2.197-4.382c1.145-0.624,2.782-0.715,4.043-0.182
		c1.079,0.455,1.872,1.456,2.288,2.535h-1.339c-0.416-0.793-0.858-1.392-1.703-1.742c-0.689-0.273-1.521-0.338-2.236-0.052
		c-1.573,0.624-2.106,2.197-2.067,3.77c0.039,1.34,0.429,2.613,1.638,3.354c0.858,0.533,2.158,0.559,3.068,0.039
		c0.676-0.39,1.222-1.157,1.456-1.898h1.339C45.095,29.363,44.302,30.468,43.249,30.988z"/>
	<path id="XMLID_105_" d="M51.282,31.065c-0.533,0.352-1.469,0.455-2.21,0.391c-0.832-0.078-1.573-0.416-2.067-1.118
		c-0.481-0.676-0.728-1.573-0.715-2.457c0-0.741,0.182-1.456,0.52-2.054c0.559-0.976,1.56-1.379,2.613-1.392
		c0.962-0.013,1.69,0.247,2.262,0.897c0.494,0.559,0.741,1.442,0.702,2.184c-0.026,0.442-0.286,0.65-0.715,0.65h-4.173
		c0.078,0.793,0.325,1.56,0.923,2.041c0.364,0.299,0.819,0.377,1.287,0.351c0.377-0.025,0.728-0.143,1.001-0.416
		c0.273-0.272,0.429-0.663,0.507-1.001h1.287C52.349,29.792,51.933,30.637,51.282,31.065z M50.581,25.632
		c-0.52-0.364-1.287-0.338-1.859-0.156c-0.767,0.234-1.144,1.053-1.17,1.781h3.471c0.169,0,0.247-0.144,0.247-0.286
		C51.27,26.503,50.983,25.918,50.581,25.632z"/>
	<path id="XMLID_108_" d="M57.978,31.326v-4.382c0-0.61-0.182-1.273-0.78-1.508c-0.52-0.195-1.144-0.104-1.612,0.183
		c-0.585,0.351-0.78,0.884-0.78,1.533v4.174h-1.17v-6.761h1.014v0.768c0.364-0.442,0.793-0.702,1.456-0.832
		c0.754-0.144,1.651,0.025,2.197,0.441c0.637,0.481,0.845,1.04,0.845,1.808v4.576H57.978z"/>
	<path id="XMLID_110_" d="M63.073,31.312H62.02c-0.364,0-0.637-0.091-0.819-0.272c-0.195-0.183-0.299-0.468-0.299-0.832v-4.745
		h-0.949v-0.884h0.949V22.03h1.157v2.535h1.326v0.897h-1.326v4.602c0,0.208,0.208,0.352,0.377,0.352h1.157L63.073,31.312z"/>
	<path id="XMLID_112_" d="M66.882,25.593c-0.351-0.052-0.676,0.104-0.923,0.351c-0.364,0.377-0.52,0.897-0.611,1.392v3.978h-1.144
		v-6.747h1.144v0.846c0.221-0.352,0.741-0.819,1.183-0.897c0.494-0.091,1.04,0.091,1.456,0.351v1.34
		C67.74,25.957,67.259,25.644,66.882,25.593z"/>
	<path id="XMLID_114_" d="M73.746,31.326c-0.117-0.286-0.221-0.624-0.26-0.897c-0.585,0.533-1.313,0.91-2.106,1.001
		c-0.559,0.065-1.183,0.014-1.664-0.247c-0.429-0.233-0.741-0.571-0.884-1.04c-0.156-0.48-0.143-1.04,0.026-1.495
		c0.208-0.532,0.624-0.884,1.183-1.079c0.468-0.169,1.131-0.233,1.677-0.285c0.611-0.053,1.3-0.286,1.664-0.611
		c0.026-0.247,0-0.65-0.247-0.923c-0.234-0.247-0.598-0.377-0.949-0.416c-0.455-0.065-1.027,0.013-1.456,0.194
		c-0.429,0.183-0.689,0.546-0.806,0.988h-1.222c0.091-0.715,0.689-1.378,1.365-1.703c0.572-0.272,1.443-0.403,2.067-0.377
		c0.676,0.026,1.404,0.221,1.885,0.715c0.39,0.416,0.533,0.962,0.52,1.612c-0.013,0.845-0.013,1.989,0,2.587
		c0.013,0.65,0.221,1.495,0.481,1.977H73.746z M73.356,27.751c-0.468,0.247-1.001,0.429-1.482,0.468
		c-0.455,0.039-0.897,0.091-1.235,0.208c-0.312,0.117-0.507,0.26-0.637,0.546c-0.117,0.273-0.13,0.599-0.039,0.884
		c0.104,0.3,0.351,0.494,0.65,0.599c0.247,0.078,0.559,0.064,0.832,0.013c0.806-0.13,1.469-0.559,1.911-1.248
		C73.356,28.791,73.356,28.153,73.356,27.751z"/>
	<path id="XMLID_117_" d="M76.281,31.326V22.03h1.222v9.296H76.281z"/>
	<path id="XMLID_119_" d="M82.977,26.331c-0.286,1.089-0.242,2.267,0.11,3.334c0.341,1.056,0.968,1.991,1.738,2.86h-1.298
		c-0.616-0.792-1.1-1.705-1.397-2.663c-0.363-1.188-0.451-2.453-0.121-3.729c0.275-1.1,0.858-2.079,1.584-2.992h1.287
		C83.978,24.098,83.296,25.143,82.977,26.331z"/>
	<path id="XMLID_121_" d="M92.866,31.326h-0.99l-1.848-5.985l-1.673,5.985h-1.045l-2.123-7.866h0.979l1.693,6.139l1.706-6.139h0.913
		l1.837,6.018l1.573-6.018h0.979L92.866,31.326z"/>
	<path id="XMLID_123_" d="M96.022,24.483V23.46h1.012v1.023H96.022z M96.022,31.314v-5.709h1.012v5.709H96.022z"/>
	<path id="XMLID_131_" d="M102.26,31.326v-3.708c0-0.517-0.153-1.078-0.66-1.276c-0.439-0.165-0.968-0.088-1.364,0.154
		c-0.495,0.297-0.66,0.748-0.66,1.298v3.532h-0.989v-5.721h0.857v0.648c0.309-0.374,0.671-0.594,1.232-0.704
		c0.638-0.121,1.397,0.022,1.859,0.374c0.539,0.407,0.715,0.881,0.715,1.529v3.873H102.26z"/>
	<path id="XMLID_133_" d="M108.64,32.833c-0.418,0.474-1.045,0.683-1.661,0.737c-0.517,0.044-1.31-0.022-1.771-0.297
		c-0.517-0.297-0.857-0.892-0.88-1.475h0.968c0.022,0.43,0.286,0.814,0.639,0.902c0.407,0.099,0.814,0.121,1.145,0.077
		c0.374-0.056,0.759-0.265,0.957-0.671c0.23-0.451,0.209-0.969,0.209-1.519c-0.341,0.352-0.759,0.583-1.222,0.682
		c-0.616,0.133-1.254,0.022-1.771-0.352c-0.418-0.309-0.748-0.759-0.891-1.21c-0.209-0.66-0.265-1.464-0.11-2.179
		c0.132-0.572,0.407-1.111,0.858-1.496c0.418-0.363,1.001-0.539,1.563-0.518c0.627,0.033,1.144,0.33,1.573,0.793v-0.704h0.957v5.522
		C109.201,31.766,109.036,32.382,108.64,32.833z M107.892,26.947c-0.308-0.418-0.748-0.638-1.231-0.638
		c-0.528,0.011-0.958,0.274-1.222,0.748c-0.341,0.616-0.353,1.925-0.077,2.552c0.231,0.539,0.671,0.902,1.266,0.925
		c0.604,0.021,1.111-0.298,1.386-0.825C108.365,29.026,108.376,27.597,107.892,26.947z"/>
	<path id="XMLID_136_" d="M120.564,31.326h-0.99l-1.849-5.985l-1.672,5.985h-1.046l-2.123-7.866h0.979l1.694,6.139l1.705-6.139
		h0.913l1.837,6.018l1.573-6.018h0.979L120.564,31.326z"/>
	<path id="XMLID_138_" d="M126.834,31.238c-0.66,0.274-1.563,0.241-2.223-0.044c-0.66-0.286-1.155-0.793-1.375-1.497
		c-0.242-0.792-0.231-1.925,0.099-2.673c0.298-0.693,0.858-1.178,1.585-1.387c0.715-0.209,1.551-0.143,2.167,0.198
		c0.649,0.363,0.968,0.814,1.166,1.508c0.209,0.736,0.209,1.573,0.022,2.299C128.099,30.336,127.505,30.963,126.834,31.238z
		 M125.635,26.287c-0.605,0.022-1.222,0.429-1.408,1.023c-0.209,0.682-0.188,1.496-0.022,2.211c0.121,0.562,0.66,1.023,1.222,1.111
		c0.638,0.099,1.408-0.099,1.716-0.727c0.396-0.803,0.363-1.947,0.044-2.75C126.944,26.54,126.284,26.254,125.635,26.287z"/>
	<path id="XMLID_141_" d="M137.471,25.682c-0.044-0.374-0.132-0.759-0.374-1.056c-0.23-0.264-0.506-0.374-0.847-0.44
		c-0.572-0.121-1.21-0.065-1.75,0.056c-0.352,0.077-0.704,0.362-0.857,0.704c-0.144,0.318-0.132,0.759,0.044,1.066
		c0.176,0.33,0.506,0.451,0.891,0.528c0.925,0.198,2.014,0.44,2.685,0.66c0.451,0.144,0.902,0.462,1.145,0.892
		c0.286,0.517,0.297,1.265,0.088,1.793c-0.176,0.473-0.506,0.803-0.924,1.056c-0.76,0.451-1.694,0.518-2.63,0.44
		c-0.715-0.055-1.43-0.286-1.947-0.814c-0.451-0.462-0.693-1.122-0.803-1.727h1.022c0.044,0.527,0.309,1.034,0.727,1.353
		c0.407,0.298,0.936,0.43,1.441,0.451c0.517,0.033,1.265-0.065,1.716-0.362c0.374-0.254,0.572-0.66,0.572-1.123
		c0.011-0.483-0.275-0.891-0.727-1.066c-0.462-0.188-1.408-0.386-2.057-0.495c-0.595-0.11-1.364-0.363-1.782-0.76
		c-0.484-0.451-0.627-1.144-0.462-1.771c0.132-0.528,0.517-1.034,1.001-1.31c0.759-0.429,2.123-0.473,2.992-0.297
		c0.539,0.109,1.034,0.429,1.386,0.924c0.275,0.385,0.396,0.836,0.484,1.298H137.471z"/>
	<path id="XMLID_143_" d="M141.749,31.314h-0.891c-0.308,0-0.539-0.076-0.693-0.23c-0.165-0.154-0.253-0.396-0.253-0.704v-4.016
		h-0.803v-0.748h0.803V23.46h0.979v2.146h1.122v0.759h-1.122v3.895c0,0.176,0.176,0.297,0.318,0.297h0.979L141.749,31.314z"/>
	<path id="XMLID_145_" d="M143.201,31.326v-1.045h1.089v1.045H143.201z"/>
	<path id="XMLID_147_" d="M146.776,23.141c0.727,0.913,1.31,1.893,1.585,2.992c0.33,1.276,0.241,2.542-0.121,3.729
		c-0.298,0.958-0.781,1.871-1.397,2.663h-1.298c0.77-0.869,1.396-1.805,1.738-2.86c0.352-1.067,0.396-2.245,0.109-3.334
		c-0.319-1.188-1.001-2.233-1.903-3.19H146.776z"/>
</g>
<g id="XMLID_6_">
	<path id="XMLID_86_" d="M-87.578,3.927h-3.929c1.508-0.658,3.038-1.614,3.951-2.464h2.931C-85.475,2.397-86.579,3.269-87.578,3.927
		z M-81.121-7.309v1.02h5.268c0.468,0,1.041,0.17,1.444,0.574c0.255,0.276,0.425,0.658,0.425,1.231v3.611
		c0,0.403-0.191,0.786-0.467,1.083c-0.319,0.34-0.765,0.573-1.168,0.573h-12.744c-0.382,0-0.765-0.148-1.062-0.425
		c-0.361-0.297-0.616-0.765-0.616-1.253v-3.717c0-0.383,0.191-0.829,0.531-1.168c0.297-0.297,0.701-0.51,1.211-0.51h5.246v-1.02
		h-8.241v-1.359h18.458v1.359H-81.121z M-77.021-11.855v0.658c0,0.404-0.148,0.871-0.488,1.211
		c-0.255,0.255-0.616,0.446-1.104,0.446h-7.01c-0.467,0-0.871-0.234-1.146-0.574c-0.234-0.297-0.383-0.68-0.383-1.062v-0.68h-3.695
		v-1.359h3.695v-1.423h1.997v1.423h6.159v-1.423h1.976v1.423h3.76v1.359H-77.021z M-83.053-4.909h-4.524
		c-0.297,0-0.552,0.255-0.552,0.51v0.914h5.076V-4.909z M-83.053-2.084h-5.076v0.935c0,0.255,0.276,0.552,0.531,0.552h4.545V-2.084z
		 M-78.997-11.855h-6.159v0.425c0,0.233,0.255,0.467,0.51,0.467h5.14c0.276,0,0.51-0.212,0.51-0.489V-11.855z M-75.895-4.399
		c0-0.255-0.255-0.51-0.553-0.51h-4.673v1.423h5.226V-4.399z M-75.895-2.084h-5.226v1.487h4.609c0.34,0,0.616-0.234,0.616-0.552
		V-2.084z M-76.384,3.927c-1.125-0.722-2.273-1.508-3.292-2.464h3.123c1.253,0.978,2.719,1.827,4.121,2.464H-76.384z"/>
	<path id="XMLID_96_" d="M-64.963-10.623V3.948h-1.975v-14.571h-0.106c-0.212,1.104-0.637,2.379-1.02,3.377h-2.146
		c0.893-1.763,1.657-4.652,1.954-7.328h2.018c-0.106,0.68-0.319,1.827-0.467,2.464h5.098v1.487H-64.963z M-54.024-10.623V2.249
		c0,0.403-0.17,0.871-0.531,1.211c-0.298,0.276-0.743,0.488-1.317,0.488h-3.419l-0.893-1.508h3.675c0.297,0,0.531-0.213,0.531-0.51
		v-12.553h-2.953c-0.361,1.125-0.956,2.613-1.317,3.377h-2.124c1.274-2.422,2.124-4.949,2.527-7.328h1.954
		c-0.127,0.616-0.403,1.721-0.616,2.464h6.967v1.487H-54.024z"/>
	<path id="XMLID_99_" d="M-48.784,1.697V0.061c0.595-0.213,1.636-0.553,2.209-0.765v-7.774h-2.146v-1.465h2.146v-4.609h1.848v4.609
		h2.252v1.465h-2.252v7.095c0.701-0.234,2.082-0.829,2.952-1.232v1.614C-43.708-0.172-46.575,0.975-48.784,1.697z M-30.984,3.948
		h-1.997c-0.446,0-0.85-0.127-1.168-0.382c-0.446-0.361-0.743-0.935-0.743-1.72v-8.114c0-0.297-0.191-0.51-0.489-0.51h-2.442
		c-0.318,0-0.51,0.213-0.51,0.446c-0.021,3.122,0.17,7.349-2.464,10.28h-2.677c3.484-2.761,3.398-7.285,3.271-10.493
		c-0.021-0.595,0.255-1.062,0.658-1.338c0.34-0.233,0.744-0.361,1.126-0.361h3.675c0.573,0,1.02,0.212,1.316,0.574
		c0.298,0.361,0.446,0.85,0.446,1.444v8.007c0,0.467,0.276,0.744,0.68,0.744h2.018L-30.984,3.948z M-42.029-10.134v-1.487h4.8
		c-0.361-0.913-0.808-2.188-1.02-2.931h2.018c0.298,0.998,0.638,1.975,1.063,2.931h4.63v1.487H-42.029z"/>
</g>
<g id="XMLID_5_">
	<path id="XMLID_56_" d="M-95.032,31.326h-0.99l-1.848-5.985l-1.672,5.985h-1.045l-2.124-7.866h0.979l1.694,6.139l1.706-6.139h0.913
		l1.837,6.018l1.573-6.018h0.979L-95.032,31.326z"/>
	<path id="XMLID_58_" d="M-88.762,31.238c-0.66,0.274-1.563,0.241-2.223-0.044c-0.66-0.286-1.155-0.793-1.375-1.497
		c-0.242-0.792-0.231-1.925,0.099-2.673c0.297-0.693,0.858-1.178,1.584-1.387c0.715-0.209,1.551-0.143,2.167,0.198
		c0.649,0.363,0.968,0.814,1.166,1.508c0.209,0.736,0.209,1.573,0.022,2.299C-87.497,30.336-88.091,30.963-88.762,31.238z
		 M-89.961,26.287c-0.605,0.022-1.221,0.429-1.408,1.023c-0.209,0.682-0.187,1.496-0.022,2.211c0.121,0.562,0.66,1.023,1.221,1.111
		c0.638,0.099,1.408-0.099,1.716-0.727c0.396-0.803,0.363-1.947,0.044-2.75C-88.652,26.54-89.313,26.254-89.961,26.287z"/>
	<path id="XMLID_61_" d="M-82.58,31.326v-3.708c0-0.517-0.154-1.078-0.66-1.276c-0.44-0.165-0.968-0.088-1.364,0.154
		c-0.495,0.297-0.66,0.748-0.66,1.298v3.532h-0.99v-5.721h0.858v0.648c0.308-0.374,0.671-0.594,1.232-0.704
		c0.638-0.121,1.397,0.022,1.859,0.374c0.539,0.407,0.715,0.881,0.715,1.529v3.873H-82.58z"/>
	<path id="XMLID_65_" d="M-76.2,32.833c-0.418,0.474-1.045,0.683-1.661,0.737c-0.517,0.044-1.31-0.022-1.771-0.297
		c-0.517-0.297-0.858-0.892-0.88-1.475h0.968c0.022,0.43,0.286,0.814,0.638,0.902c0.407,0.099,0.814,0.121,1.144,0.077
		c0.374-0.056,0.759-0.265,0.958-0.671c0.231-0.451,0.209-0.969,0.209-1.519c-0.341,0.352-0.759,0.583-1.221,0.682
		c-0.616,0.133-1.254,0.022-1.771-0.352c-0.418-0.309-0.748-0.759-0.891-1.21c-0.209-0.66-0.264-1.464-0.11-2.179
		c0.132-0.572,0.407-1.111,0.858-1.496c0.418-0.363,1.001-0.539,1.563-0.518c0.627,0.033,1.144,0.33,1.573,0.793v-0.704h0.957v5.522
		C-75.639,31.766-75.804,32.382-76.2,32.833z M-76.948,26.947c-0.308-0.418-0.748-0.638-1.232-0.638
		c-0.528,0.011-0.957,0.274-1.221,0.748c-0.341,0.616-0.352,1.925-0.077,2.552c0.231,0.539,0.671,0.902,1.266,0.925
		c0.605,0.021,1.111-0.298,1.386-0.825C-76.475,29.026-76.464,27.597-76.948,26.947z"/>
	<path id="XMLID_68_" d="M-66.289,31.04c-0.715,0.352-1.65,0.451-2.431,0.341c-0.836-0.11-1.541-0.44-2.102-1.089
		c-0.671-0.771-0.957-1.728-0.968-2.772c-0.022-1.485,0.462-2.96,1.859-3.708c0.968-0.527,2.354-0.604,3.421-0.153
		c0.913,0.385,1.584,1.231,1.937,2.145h-1.133c-0.352-0.671-0.726-1.177-1.441-1.474c-0.583-0.231-1.288-0.286-1.893-0.044
		c-1.331,0.527-1.782,1.859-1.749,3.19c0.033,1.133,0.363,2.211,1.386,2.838c0.726,0.451,1.826,0.474,2.596,0.033
		c0.572-0.33,1.034-0.979,1.232-1.606h1.133C-64.727,29.665-65.398,30.6-66.289,31.04z"/>
	<path id="XMLID_70_" d="M-59.634,31.326V27.53c0-0.451-0.187-0.836-0.528-1.056c-0.374-0.242-0.825-0.198-1.254-0.11
		c-0.539,0.11-1.001,0.55-1.21,1.078v3.884h-0.968V23.46h0.968v2.806c0.44-0.43,0.99-0.683,1.563-0.737
		c0.616-0.066,1.309,0.055,1.76,0.462c0.396,0.374,0.638,0.913,0.638,1.397v3.938H-59.634z"/>
	<path id="XMLID_72_" d="M-53.694,31.326V30.6c-0.33,0.44-0.814,0.727-1.354,0.814c-0.561,0.088-1.177-0.011-1.639-0.353
		c-0.451-0.341-0.737-0.891-0.737-1.562v-3.895h1.012v4.026c0,0.341,0.176,0.715,0.473,0.902c0.275,0.176,0.638,0.187,0.946,0.099
		c0.55-0.143,1.067-0.594,1.298-1.101v-3.927h1.001l-0.011,5.721H-53.694z"/>
	<path id="XMLID_74_" d="M-47.766,31.326l-2.146-2.948l-0.594,0.527v2.421h-1.023V23.46h1.023v4.125l2.146-1.979h1.463l-2.288,2.09
		l2.651,3.631H-47.766z"/>
	<path id="XMLID_76_" d="M-37.722,31.326v-3.686h-4.137v3.686h-1.002v-7.855h1.002v3.41h4.137v-3.41h1.001v7.855H-37.722z"/>
	<path id="XMLID_78_" d="M-31.53,31.326c-0.1-0.242-0.188-0.528-0.22-0.76c-0.495,0.451-1.111,0.771-1.782,0.848
		c-0.474,0.055-1.002,0.011-1.408-0.209c-0.363-0.198-0.628-0.484-0.749-0.88c-0.132-0.407-0.12-0.881,0.022-1.266
		c0.176-0.451,0.528-0.748,1.001-0.913c0.396-0.143,0.957-0.198,1.419-0.242c0.518-0.044,1.101-0.242,1.408-0.517
		c0.022-0.209,0-0.551-0.209-0.781c-0.197-0.209-0.506-0.319-0.803-0.353c-0.385-0.055-0.869,0.012-1.232,0.165
		c-0.363,0.154-0.583,0.462-0.682,0.836h-1.034c0.077-0.604,0.583-1.166,1.155-1.44c0.483-0.231,1.221-0.342,1.749-0.319
		c0.572,0.021,1.188,0.187,1.595,0.605c0.33,0.352,0.451,0.813,0.44,1.364c-0.011,0.715-0.011,1.683,0,2.188
		c0.011,0.551,0.188,1.266,0.407,1.673H-31.53z M-31.86,28.301c-0.396,0.209-0.848,0.362-1.254,0.396
		c-0.386,0.033-0.76,0.077-1.046,0.177c-0.264,0.099-0.429,0.22-0.539,0.462c-0.099,0.23-0.109,0.506-0.032,0.748
		c0.088,0.253,0.297,0.418,0.55,0.506c0.209,0.066,0.473,0.055,0.704,0.011c0.682-0.109,1.243-0.473,1.617-1.056
		C-31.86,29.181-31.86,28.642-31.86,28.301z"/>
	<path id="XMLID_81_" d="M-25.887,31.326v-3.708c0-0.517-0.153-1.078-0.659-1.276c-0.44-0.165-0.969-0.088-1.364,0.154
		c-0.495,0.297-0.66,0.748-0.66,1.298v3.532h-0.99v-5.721h0.857v0.648c0.309-0.374,0.672-0.594,1.232-0.704
		c0.639-0.121,1.397,0.022,1.859,0.374c0.539,0.407,0.715,0.881,0.715,1.529v3.873H-25.887z"/>
	<path id="XMLID_83_" d="M-19.507,32.833c-0.418,0.474-1.045,0.683-1.661,0.737c-0.517,0.044-1.309-0.022-1.771-0.297
		c-0.518-0.297-0.858-0.892-0.881-1.475h0.969c0.021,0.43,0.286,0.814,0.638,0.902c0.407,0.099,0.814,0.121,1.145,0.077
		c0.374-0.056,0.759-0.265,0.957-0.671c0.23-0.451,0.209-0.969,0.209-1.519c-0.341,0.352-0.759,0.583-1.222,0.682
		c-0.616,0.133-1.254,0.022-1.771-0.352c-0.418-0.309-0.748-0.759-0.892-1.21c-0.209-0.66-0.264-1.464-0.11-2.179
		c0.133-0.572,0.407-1.111,0.858-1.496c0.418-0.363,1.001-0.539,1.563-0.518c0.627,0.033,1.144,0.33,1.573,0.793v-0.704h0.957v5.522
		C-18.946,31.766-19.111,32.382-19.507,32.833z M-20.255,26.947c-0.308-0.418-0.748-0.638-1.231-0.638
		c-0.528,0.011-0.958,0.274-1.222,0.748c-0.341,0.616-0.352,1.925-0.077,2.552c0.231,0.539,0.671,0.902,1.266,0.925
		c0.604,0.021,1.111-0.298,1.386-0.825C-19.782,29.026-19.771,27.597-20.255,26.947z"/>
</g>
<g id="XMLID_21_">
	<circle id="XMLID_2_" style="fill:#FFFF00;" cx="6.551" cy="7.597" r="23.729"/>
	<path id="XMLID_29_" style="fill:none;stroke:#000000;stroke-width:5;stroke-miterlimit:10;" d="M25.201-7.172
		c3.227,4.053,5.155,9.186,5.155,14.769c0,13.105-10.624,23.729-23.729,23.729S-17.102,20.702-17.102,7.597
		S-6.478-16.132,6.627-16.132"/>
	<polygon id="XMLID_28_" points="12.504,-16.132 0.749,-22.997 0.749,-9.267 	"/>
</g>
<g id="XMLID_12_">
	<path id="XMLID_31_" d="M-8.946,3.945c-0.363,0.378-0.741,0.691-1.134,0.941V3.627c0.854-0.703,1.523-1.689,2.007-2.958h1.156
		c-0.302,0.726-0.631,1.368-0.986,1.927v6.008h-1.043V3.945z M-8.391-1.599h1.145c-0.726,1.859-1.659,3.174-2.8,3.945V1.054
		C-9.343,0.427-8.792-0.458-8.391-1.599z M-5.613,1.564v1.009c-0.008,2.298-0.072,4.255-0.193,5.873h-1.065
		c0.151-1.202,0.227-3.091,0.227-5.668v-4.104c2.313,0,4.365-0.049,6.156-0.147L-0.5-0.442C-1.158-0.419-1.85-0.401-2.575-0.386
		l-0.022,0.953h2.358v0.998h-2.381l-0.022,0.839h0.499C-1.532,2.464-1.067,2.74-0.75,3.231c0.355,0.537,0.533,1.236,0.533,2.097
		c0,0.907-0.178,1.621-0.533,2.143c-0.317,0.56-0.744,0.851-1.281,0.873h-3.106v-5.94h1.462l0.023-0.839H-5.613z M-3.595-0.363
		c-0.65,0.007-1.323,0.015-2.018,0.022v0.907h1.995L-3.595-0.363z M-1.543,4.092c-0.197-0.4-0.51-0.631-0.941-0.691h-1.564v0.691
		H-1.543z M-4.049,4.977v0.737h2.721c0.015-0.167,0.026-0.336,0.034-0.51c0-0.083-0.004-0.159-0.011-0.227H-4.049z M-4.049,6.586
		v0.749h1.734c0.348-0.091,0.605-0.34,0.771-0.749H-4.049z"/>
	<path id="XMLID_39_" d="M1.722,2.482h1.122v-2.46H1.733v-0.998h3.311v0.998H3.898v2.46h0.986v1.066H3.898v2.54
		c0.333-0.061,0.665-0.136,0.998-0.227v1.077c-0.869,0.227-1.942,0.389-3.22,0.488V6.349c0.393-0.007,0.782-0.034,1.167-0.08V3.548
		H1.722V2.482z M9.85,2.981c0.393,0.022,0.71,0.144,0.952,0.363c0.272,0.227,0.408,0.521,0.408,0.884
		c0,0.438-0.109,0.775-0.329,1.009c-0.212,0.234-0.51,0.367-0.896,0.397H9.204c0.09,0.189,0.185,0.359,0.283,0.51
		c0.574-0.272,1.19-0.427,1.848-0.465v0.93c-0.408,0.038-0.828,0.121-1.259,0.25c0.386,0.34,0.839,0.563,1.361,0.668v0.975
		C9.933,8.306,8.856,7.35,8.206,5.634H7.832c-0.166,0.333-0.359,0.62-0.578,0.862C7.247,6.617,7.243,6.734,7.243,6.847
		c0,0.174,0.007,0.31,0.022,0.408C7.326,7.452,7.488,7.55,7.753,7.55C8.259,7.535,8.675,7.505,9,7.459v0.907
		C8.758,8.435,8.232,8.469,7.424,8.469c-0.635,0-1.001-0.234-1.1-0.703C6.302,7.599,6.287,7.433,6.279,7.267
		c-0.333,0.182-0.699,0.321-1.1,0.42V6.711C5.875,6.484,6.4,6.125,6.755,5.634H5.553V2.981H9.85z M5.19,1.678h6.224v0.907H5.19
		V1.678z M10.1-1.383c0.393,0.023,0.703,0.147,0.93,0.374c0.264,0.227,0.396,0.521,0.396,0.884c0,0.431-0.106,0.764-0.317,0.998
		c-0.196,0.234-0.484,0.366-0.861,0.396H5.406v-2.653H10.1z M6.347,0.396h0.726v-0.941H6.347V0.396z M6.562,4.728h3.186
		c0.295,0,0.442-0.147,0.442-0.442c0-0.265-0.186-0.404-0.556-0.419H6.562V4.728z M7.991-0.544v0.941h0.726v-0.941H7.991z
		 M9.635-0.544v0.941h0.374c0.287,0,0.431-0.159,0.431-0.476c0-0.294-0.178-0.45-0.533-0.465H9.635z"/>
	<path id="XMLID_48_" d="M15.269-1.599h1.236l-1.95,2.619h0.68l0.953-1.292h1.235l-2.562,3.378h1.009
		c0.188,0,0.283-0.136,0.283-0.408V1.836h0.964v1.27c0,0.62-0.34,0.949-1.021,0.986h-0.317v4.456h-0.986V4.092h-0.589
		c-0.469,0-0.703-0.2-0.703-0.601c0-0.113,0.098-0.295,0.295-0.544l0.714-0.963h-0.771c-0.325-0.053-0.488-0.265-0.488-0.635
		c0-0.128,0.057-0.265,0.17-0.408L15.269-1.599z M13.648,4.433h0.85c-0.022,1.905-0.412,3.186-1.167,3.843V6.904
		C13.542,6.382,13.648,5.559,13.648,4.433z M16.04,4.421h0.839c0.007,0.824,0.079,1.512,0.215,2.063v1.882
		C16.52,7.588,16.168,6.273,16.04,4.421z M17.264,3.764h1.213c0.529,0,0.793,0.291,0.793,0.873c0,0.604-0.189,1.254-0.567,1.95
		c-0.438,0.771-0.88,1.255-1.326,1.451V6.904c0.181-0.105,0.385-0.393,0.612-0.861c0.219-0.491,0.329-0.899,0.329-1.225
		c0-0.121-0.053-0.181-0.159-0.181h-0.896V3.764z M19.441-1.61h1.327c-0.144,0.227-0.272,0.442-0.386,0.646h0.601
		c1.254,0.045,1.882,0.764,1.882,2.154c0,1.277-0.544,1.973-1.632,2.086h-0.658c0.007,0.242,0.015,0.533,0.022,0.873
		c0.008,0.038,0.015,0.075,0.023,0.113c0.703-0.423,1.462-0.665,2.279-0.726v0.952C22.271,4.55,21.637,4.75,20.994,5.09
		c0.431,0.695,1.137,1.353,2.12,1.973v1.145c-1.066-0.484-1.901-1.183-2.505-2.098c-0.008,0.612-0.034,1.043-0.08,1.292
		c-0.106,0.643-0.412,0.986-0.918,1.032c-0.521-0.015-0.922-0.083-1.202-0.204V7.29c0.302,0.105,0.575,0.159,0.816,0.159
		c0.151-0.015,0.257-0.155,0.317-0.419C19.581,6.87,19.6,6.451,19.6,5.77c-0.007-1.149-0.019-1.98-0.034-2.494l-1.871-0.011v-4.229
		h1.36C19.176-1.183,19.305-1.398,19.441-1.61z M18.738,0.691h3.027c-0.091-0.499-0.359-0.748-0.805-0.748h-2.222V0.691z
		 M18.738,2.335l2.301,0.011c0.408-0.007,0.654-0.257,0.737-0.749h-3.038V2.335z"/>
</g>
<g id="XMLID_17_">
	<path id="XMLID_8_" d="M-1.893,16.442v0.937c-0.625,0.342-1.347,0.512-2.165,0.512c-0.665,0-1.229-0.134-1.692-0.4
		c-0.463-0.268-0.83-0.635-1.1-1.104c-0.27-0.469-0.405-0.976-0.405-1.521c0-0.867,0.309-1.595,0.927-2.186
		c0.618-0.591,1.38-0.887,2.286-0.887c0.625,0,1.32,0.164,2.084,0.49v0.916c-0.696-0.397-1.376-0.596-2.041-0.596
		c-0.682,0-1.248,0.215-1.698,0.646c-0.451,0.43-0.676,0.969-0.676,1.617c0,0.653,0.222,1.19,0.665,1.611s1.01,0.63,1.7,0.63
		C-3.285,17.106-2.58,16.885-1.893,16.442z"/>
	<path id="XMLID_10_" d="M-0.55,12.253c0.128,0,0.237,0.044,0.328,0.132c0.091,0.088,0.137,0.196,0.137,0.324
		c0,0.125-0.046,0.233-0.137,0.324s-0.2,0.136-0.328,0.136c-0.119,0-0.224-0.046-0.315-0.138c-0.091-0.092-0.136-0.2-0.136-0.322
		c0-0.12,0.045-0.225,0.136-0.318C-0.774,12.299-0.669,12.253-0.55,12.253z M-0.934,13.902h0.775v3.92h-0.775V13.902z"/>
	<path id="XMLID_14_" d="M1.794,13.902v0.899l0.042-0.068c0.375-0.605,0.75-0.908,1.125-0.908c0.292,0,0.598,0.148,0.917,0.443
		L3.469,14.95c-0.27-0.255-0.52-0.383-0.75-0.383c-0.25,0-0.467,0.119-0.65,0.358c-0.184,0.239-0.275,0.521-0.275,0.848v2.049h-0.78
		v-3.92H1.794z"/>
	<path id="XMLID_16_" d="M7.142,16.907v0.767C6.753,17.818,6.372,17.891,6,17.891c-0.614,0-1.103-0.182-1.468-0.546
		c-0.365-0.363-0.547-0.85-0.547-1.461c0-0.617,0.177-1.114,0.533-1.492c0.355-0.378,0.822-0.567,1.402-0.567
		c0.202,0,0.383,0.02,0.543,0.058c0.161,0.039,0.358,0.11,0.594,0.215v0.827c-0.392-0.25-0.755-0.375-1.091-0.375
		c-0.35,0-0.636,0.123-0.861,0.369s-0.336,0.559-0.336,0.94c0,0.4,0.121,0.719,0.364,0.955c0.243,0.236,0.57,0.353,0.982,0.353
		C6.414,17.166,6.756,17.08,7.142,16.907z"/>
	<path id="XMLID_19_" d="M10.521,17.822v-0.503c-0.165,0.181-0.353,0.321-0.564,0.421c-0.212,0.101-0.423,0.15-0.633,0.15
		c-0.247,0-0.475-0.062-0.684-0.186c-0.209-0.123-0.367-0.291-0.473-0.503c-0.106-0.211-0.16-0.563-0.16-1.054v-2.246h0.775v2.235
		c0,0.411,0.059,0.699,0.177,0.862c0.118,0.163,0.324,0.245,0.62,0.245c0.369,0,0.683-0.181,0.941-0.541v-2.8h0.776v3.92H10.521z"/>
	<path id="XMLID_22_" d="M12.405,11.869h0.775v5.953h-0.775V11.869z"/>
	<path id="XMLID_24_" d="M16.765,15.466v1.666c0,0.134,0.045,0.2,0.136,0.2c0.094,0,0.24-0.069,0.439-0.208v0.473
		c-0.176,0.113-0.317,0.191-0.424,0.232c-0.106,0.041-0.218,0.062-0.334,0.062c-0.333,0-0.528-0.131-0.588-0.392
		c-0.33,0.255-0.681,0.383-1.053,0.383c-0.273,0-0.5-0.09-0.682-0.271c-0.182-0.18-0.273-0.407-0.273-0.679
		c0-0.247,0.089-0.468,0.267-0.663c0.177-0.195,0.43-0.349,0.756-0.462l0.993-0.341v-0.209c0-0.472-0.236-0.708-0.708-0.708
		c-0.423,0-0.835,0.219-1.236,0.656v-0.848c0.301-0.355,0.734-0.533,1.3-0.533c0.423,0,0.763,0.111,1.019,0.333
		c0.085,0.071,0.162,0.166,0.23,0.284c0.068,0.118,0.111,0.236,0.13,0.354S16.765,15.137,16.765,15.466z M16.002,17.047v-1.163
		l-0.52,0.2c-0.264,0.105-0.451,0.211-0.56,0.317s-0.164,0.24-0.164,0.398c0,0.162,0.052,0.294,0.155,0.396
		c0.104,0.102,0.238,0.153,0.403,0.153C15.563,17.35,15.792,17.249,16.002,17.047z"/>
	<path id="XMLID_27_" d="M18.857,13.902v0.899l0.042-0.068c0.375-0.605,0.75-0.908,1.125-0.908c0.292,0,0.598,0.148,0.917,0.443
		l-0.409,0.682c-0.27-0.255-0.52-0.383-0.75-0.383c-0.25,0-0.467,0.119-0.65,0.358c-0.184,0.239-0.275,0.521-0.275,0.848v2.049
		h-0.78v-3.92H18.857z"/>
</g>
</svg>
