<?xml version="1.0" encoding="utf-8"?>
<!-- Generator: Adobe Illustrator 19.0.0, SVG Export Plug-In . SVG Version: 6.00 Build 0)  -->
<svg version="1.1" id="圖層_1" xmlns="http://www.w3.org/2000/svg" xmlns:xlink="http://www.w3.org/1999/xlink" x="0px" y="0px"
	 viewBox="50 -26 272.1 85" style="enable-background:new 50 -26 272.1 85;" xml:space="preserve">
<style type="text/css">
	.st0{fill:url(#XMLID_4_);}
	.st1{fill:#FFFFFF;}
	.st2{fill:#FFFF00;}
	.st3{fill:none;stroke:#000000;stroke-width:5;stroke-miterlimit:10;}
</style>
<g id="XMLID_1_">
</g>
<g id="XMLID_124_">
</g>
<g id="XMLID_125_">
</g>
<g id="XMLID_126_">
</g>
<g id="XMLID_127_">
</g>
<g id="XMLID_128_">
</g>
<radialGradient id="XMLID_4_" cx="186.1066" cy="16.3557" r="100.9042" gradientTransform="matrix(0.9998 0 0 0.9905 -6.402642e-003 9.421106e-002)" gradientUnits="userSpaceOnUse">
	<stop  offset="0.2193" style="stop-color:#00FF00;stop-opacity:0"/>
	<stop  offset="1" style="stop-color:#035353"/>
</radialGradient>
<path id="XMLID_63_" class="st0" d="M310.8,58.8H61.3c-6.3,0-11.3-5.1-11.3-11.3v-62.4c0-6.3,5.1-11.3,11.3-11.3h249.5
	c6.3,0,11.3,5.1,11.3,11.3v62.4C322.1,53.7,317.1,58.8,310.8,58.8z"/>
<path id="XMLID_62_" class="st1" d="M305.9,53.8H66.3c-5.7,0-10.4-4.7-10.4-10.4v-54.2c0-5.7,4.7-10.4,10.4-10.4h239.6
	c5.7,0,10.4,4.7,10.4,10.4v54.2C316.3,49.1,311.6,53.8,305.9,53.8z"/>
<g id="XMLID_21_">
	<circle id="XMLID_2_" class="st2" cx="169.2" cy="16.7" r="23.7"/>
	<path id="XMLID_29_" class="st3" d="M187.9,2c3.2,4.1,5.2,9.2,5.2,14.8c0,13.1-10.6,23.7-23.7,23.7c-13.1,0-23.7-10.6-23.7-23.7
		S156.2-7,169.3-7"/>
	<polygon id="XMLID_28_" points="175.2,-7 163.4,-13.9 163.4,-0.1 	"/>
</g>
<g id="XMLID_12_">
	<path id="XMLID_31_" d="M153.7,13.1c-0.4,0.4-0.7,0.7-1.1,0.9v-1.3c0.9-0.7,1.5-1.7,2-3h1.2c-0.3,0.7-0.6,1.4-1,1.9v6h-1V13.1z
		 M154.3,7.5h1.1c-0.7,1.9-1.7,3.2-2.8,3.9v-1.3C153.3,9.6,153.9,8.7,154.3,7.5z M157.1,10.7v1c0,2.3-0.1,4.3-0.2,5.9h-1.1
		c0.2-1.2,0.2-3.1,0.2-5.7V7.8c2.3,0,4.4,0,6.2-0.1l0,1c-0.7,0-1.3,0-2.1,0.1l0,1h2.4v1h-2.4l0,0.8h0.5c0.6,0.1,1.1,0.3,1.4,0.8
		c0.4,0.5,0.5,1.2,0.5,2.1c0,0.9-0.2,1.6-0.5,2.1c-0.3,0.6-0.7,0.9-1.3,0.9h-3.1v-5.9h1.5l0-0.8L157.1,10.7L157.1,10.7z M159.1,8.8
		c-0.7,0-1.3,0-2,0v0.9h2L159.1,8.8z M161.1,13.2c-0.2-0.4-0.5-0.6-0.9-0.7h-1.6v0.7H161.1z M158.6,14.1v0.7h2.7c0-0.2,0-0.3,0-0.5
		c0-0.1,0-0.2,0-0.2H158.6z M158.6,15.7v0.7h1.7c0.3-0.1,0.6-0.3,0.8-0.7H158.6z"/>
	<path id="XMLID_39_" d="M164.4,11.6h1.1V9.1h-1.1v-1h3.3v1h-1.1v2.5h1v1.1h-1v2.5c0.3-0.1,0.7-0.1,1-0.2v1.1
		c-0.9,0.2-1.9,0.4-3.2,0.5v-1.1c0.4,0,0.8,0,1.2-0.1v-2.7h-1.1V11.6z M172.5,12.1c0.4,0,0.7,0.1,1,0.4c0.3,0.2,0.4,0.5,0.4,0.9
		c0,0.4-0.1,0.8-0.3,1c-0.2,0.2-0.5,0.4-0.9,0.4h-0.8c0.1,0.2,0.2,0.4,0.3,0.5c0.6-0.3,1.2-0.4,1.8-0.5v0.9c-0.4,0-0.8,0.1-1.3,0.3
		c0.4,0.3,0.8,0.6,1.4,0.7v1c-1.5-0.2-2.6-1.2-3.2-2.9h-0.4c-0.2,0.3-0.4,0.6-0.6,0.9c0,0.1,0,0.2,0,0.4c0,0.2,0,0.3,0,0.4
		c0.1,0.2,0.2,0.3,0.5,0.3c0.5,0,0.9,0,1.2-0.1v0.9c-0.2,0.1-0.8,0.1-1.6,0.1c-0.6,0-1-0.2-1.1-0.7c0-0.2,0-0.3,0-0.5
		c-0.3,0.2-0.7,0.3-1.1,0.4v-1c0.7-0.2,1.2-0.6,1.6-1.1h-1.2v-2.7H172.5z M167.9,10.8h6.2v0.9h-6.2V10.8z M172.8,7.7
		c0.4,0,0.7,0.1,0.9,0.4c0.3,0.2,0.4,0.5,0.4,0.9c0,0.4-0.1,0.8-0.3,1c-0.2,0.2-0.5,0.4-0.9,0.4h-4.8V7.7L172.8,7.7L172.8,7.7z
		 M169,9.5h0.7V8.6H169V9.5z M169.2,13.9h3.2c0.3,0,0.4-0.1,0.4-0.4c0-0.3-0.2-0.4-0.6-0.4h-3.1V13.9z M170.7,8.6v0.9h0.7V8.6H170.7
		z M172.3,8.6v0.9h0.4c0.3,0,0.4-0.2,0.4-0.5c0-0.3-0.2-0.4-0.5-0.5H172.3z"/>
	<path id="XMLID_48_" d="M177.9,7.5h1.2l-1.9,2.6h0.7l1-1.3h1.2l-2.6,3.4h1c0.2,0,0.3-0.1,0.3-0.4V11h1v1.3c0,0.6-0.3,0.9-1,1h-0.3
		v4.5h-1v-4.5h-0.6c-0.5,0-0.7-0.2-0.7-0.6c0-0.1,0.1-0.3,0.3-0.5l0.7-1h-0.8c-0.3-0.1-0.5-0.3-0.5-0.6c0-0.1,0.1-0.3,0.2-0.4
		L177.9,7.5z M176.3,13.6h0.8c0,1.9-0.4,3.2-1.2,3.8V16C176.2,15.5,176.3,14.7,176.3,13.6z M178.7,13.5h0.8c0,0.8,0.1,1.5,0.2,2.1
		v1.9C179.2,16.7,178.8,15.4,178.7,13.5z M179.9,12.9h1.2c0.5,0,0.8,0.3,0.8,0.9c0,0.6-0.2,1.3-0.6,1.9c-0.4,0.8-0.9,1.3-1.3,1.5V16
		c0.2-0.1,0.4-0.4,0.6-0.9c0.2-0.5,0.3-0.9,0.3-1.2c0-0.1-0.1-0.2-0.2-0.2h-0.9L179.9,12.9L179.9,12.9z M182.1,7.5h1.3
		c-0.1,0.2-0.3,0.4-0.4,0.6h0.6c1.3,0,1.9,0.8,1.9,2.2c0,1.3-0.5,2-1.6,2.1h-0.7c0,0.2,0,0.5,0,0.9c0,0,0,0.1,0,0.1
		c0.7-0.4,1.5-0.7,2.3-0.7v1c-0.6,0.1-1.3,0.3-1.9,0.6c0.4,0.7,1.1,1.4,2.1,2v1.1c-1.1-0.5-1.9-1.2-2.5-2.1c0,0.6,0,1-0.1,1.3
		c-0.1,0.6-0.4,1-0.9,1c-0.5,0-0.9-0.1-1.2-0.2v-0.9c0.3,0.1,0.6,0.2,0.8,0.2c0.2,0,0.3-0.2,0.3-0.4c0-0.2,0.1-0.6,0.1-1.3
		c0-1.1,0-2,0-2.5l-1.9,0V8.2h1.4C181.8,7.9,182,7.7,182.1,7.5z M181.4,9.8h3c-0.1-0.5-0.4-0.7-0.8-0.7h-2.2V9.8z M181.4,11.5l2.3,0
		c0.4,0,0.7-0.3,0.7-0.7h-3V11.5z"/>
</g>
<g id="XMLID_17_">
	<path id="XMLID_8_" d="M160.8,25.6v0.9c-0.6,0.3-1.3,0.5-2.2,0.5c-0.7,0-1.2-0.1-1.7-0.4c-0.5-0.3-0.8-0.6-1.1-1.1s-0.4-1-0.4-1.5
		c0-0.9,0.3-1.6,0.9-2.2c0.6-0.6,1.4-0.9,2.3-0.9c0.6,0,1.3,0.2,2.1,0.5v0.9c-0.7-0.4-1.4-0.6-2-0.6c-0.7,0-1.2,0.2-1.7,0.6
		c-0.5,0.4-0.7,1-0.7,1.6c0,0.7,0.2,1.2,0.7,1.6s1,0.6,1.7,0.6C159.4,26.2,160.1,26,160.8,25.6z"/>
	<path id="XMLID_10_" d="M162.1,21.4c0.1,0,0.2,0,0.3,0.1c0.1,0.1,0.1,0.2,0.1,0.3c0,0.1,0,0.2-0.1,0.3c-0.1,0.1-0.2,0.1-0.3,0.1
		c-0.1,0-0.2,0-0.3-0.1c-0.1-0.1-0.1-0.2-0.1-0.3c0-0.1,0-0.2,0.1-0.3C161.9,21.4,162,21.4,162.1,21.4z M161.7,23h0.8v3.9h-0.8V23z"
		/>
	<path id="XMLID_14_" d="M164.5,23v0.9l0-0.1c0.4-0.6,0.8-0.9,1.1-0.9c0.3,0,0.6,0.1,0.9,0.4l-0.4,0.7c-0.3-0.3-0.5-0.4-0.8-0.4
		c-0.3,0-0.5,0.1-0.7,0.4c-0.2,0.2-0.3,0.5-0.3,0.8v2h-0.8V23C163.7,23,164.5,23,164.5,23z"/>
	<path id="XMLID_16_" d="M169.8,26v0.8c-0.4,0.1-0.8,0.2-1.1,0.2c-0.6,0-1.1-0.2-1.5-0.5c-0.4-0.4-0.5-0.9-0.5-1.5
		c0-0.6,0.2-1.1,0.5-1.5c0.4-0.4,0.8-0.6,1.4-0.6c0.2,0,0.4,0,0.5,0.1c0.2,0,0.4,0.1,0.6,0.2v0.8c-0.4-0.3-0.8-0.4-1.1-0.4
		c-0.3,0-0.6,0.1-0.9,0.4c-0.2,0.2-0.3,0.6-0.3,0.9c0,0.4,0.1,0.7,0.4,1s0.6,0.4,1,0.4C169.1,26.3,169.4,26.2,169.8,26z"/>
	<path id="XMLID_19_" d="M173.2,26.9v-0.5c-0.2,0.2-0.4,0.3-0.6,0.4c-0.2,0.1-0.4,0.1-0.6,0.1c-0.2,0-0.5-0.1-0.7-0.2
		c-0.2-0.1-0.4-0.3-0.5-0.5c-0.1-0.2-0.2-0.6-0.2-1.1V23h0.8v2.2c0,0.4,0.1,0.7,0.2,0.9c0.1,0.2,0.3,0.2,0.6,0.2
		c0.4,0,0.7-0.2,0.9-0.5V23h0.8v3.9C174,26.9,173.2,26.9,173.2,26.9z"/>
	<path id="XMLID_22_" d="M175.1,21h0.8v6h-0.8V21z"/>
	<path id="XMLID_24_" d="M179.4,24.6v1.7c0,0.1,0,0.2,0.1,0.2c0.1,0,0.2-0.1,0.4-0.2v0.5c-0.2,0.1-0.3,0.2-0.4,0.2
		c-0.1,0-0.2,0.1-0.3,0.1c-0.3,0-0.5-0.1-0.6-0.4c-0.3,0.3-0.7,0.4-1.1,0.4c-0.3,0-0.5-0.1-0.7-0.3c-0.2-0.2-0.3-0.4-0.3-0.7
		c0-0.2,0.1-0.5,0.3-0.7c0.2-0.2,0.4-0.3,0.8-0.5l1-0.3v-0.2c0-0.5-0.2-0.7-0.7-0.7c-0.4,0-0.8,0.2-1.2,0.7v-0.8
		c0.3-0.4,0.7-0.5,1.3-0.5c0.4,0,0.8,0.1,1,0.3c0.1,0.1,0.2,0.2,0.2,0.3c0.1,0.1,0.1,0.2,0.1,0.4S179.4,24.3,179.4,24.6z
		 M178.7,26.2V25l-0.5,0.2c-0.3,0.1-0.5,0.2-0.6,0.3c-0.1,0.1-0.2,0.2-0.2,0.4c0,0.2,0.1,0.3,0.2,0.4c0.1,0.1,0.2,0.2,0.4,0.2
		C178.2,26.5,178.5,26.4,178.7,26.2z"/>
	<path id="XMLID_27_" d="M181.5,23v0.9l0-0.1c0.4-0.6,0.8-0.9,1.1-0.9c0.3,0,0.6,0.1,0.9,0.4l-0.4,0.7c-0.3-0.3-0.5-0.4-0.8-0.4
		c-0.3,0-0.5,0.1-0.7,0.4c-0.2,0.2-0.3,0.5-0.3,0.8v2h-0.8V23H181.5z"/>
</g>
<g>
	<path d="M79.1,5.7c-0.3,0.3-0.8,0.4-1.2,0.4h-1.2v6.7h-1.9V6.2h-1.1c-0.6,0-1.1-0.2-1.4-0.5s-0.5-0.9-0.5-1.5v-7.4
		c0-0.5,0.2-0.9,0.6-1.2C72.6-4.8,73-5,73.4-5h4.5c0.5,0,0.9,0.2,1.3,0.5s0.5,0.8,0.5,1.3v7.6C79.7,5,79.4,5.4,79.1,5.7z M74.8-3.6
		h-0.9c-0.2,0-0.4,0.2-0.4,0.4v3.1h1.3V-3.6z M74.8,1.3h-1.3v3.1c0,0.3,0.2,0.4,0.4,0.4h0.9V1.3z M78-3.2c0-0.2-0.2-0.4-0.4-0.4
		h-0.9v3.5H78V-3.2z M78,1.3h-1.3v3.5h0.9c0.2,0,0.4-0.2,0.4-0.4V1.3z M80.4,12.4h-1.8c0.5-1.3,0.9-3.1,1.1-4.7h1.6
		C81.1,9.3,80.8,11,80.4,12.4z M89.3,12.4c-0.3,0.3-0.7,0.5-1.2,0.5h-1.3l-0.6-1.3h1.4c0.2,0,0.4-0.2,0.4-0.4V7.5
		C88,7.2,87.7,7,87.4,7h-5.3c-0.4,0-0.8-0.2-1.1-0.5c-0.3-0.3-0.5-0.7-0.5-1.2v-7.8c0-0.4,0.2-0.8,0.5-1.1c0.3-0.3,0.7-0.5,1.1-0.5
		h1c0.2-0.3,0.4-0.9,0.6-1.3H86c-0.2,0.4-0.5,1.1-0.6,1.3h2.1c0.5,0,0.9,0.1,1.2,0.4C89-3.5,89.1-3,89.1-2.4v2.8
		c0,0.5-0.2,0.9-0.5,1.2C88.3,1.8,87.8,2,87.4,2h-5v1.2h7.4v1.3h-7.4v0.8c0,0.3,0.2,0.5,0.5,0.5H88c0.6,0,1,0.2,1.3,0.5
		c0.3,0.4,0.5,0.8,0.5,1.4v3.6C89.8,11.7,89.6,12.1,89.3,12.4z M82.1,12.4c-0.2-1.4-0.4-3.1-0.5-4.7h1.4c0,1.3,0.4,3.7,0.7,4.7H82.1
		z M87.3-2.3c0-0.3-0.2-0.5-0.4-0.5h-4c-0.2,0-0.5,0.2-0.5,0.5v0.6h4.9V-2.3z M87.3-0.5h-4.9v1.1h4.5c0.3,0,0.4-0.2,0.4-0.4V-0.5z
		 M84.4,12.4c-0.3-1-0.6-3.3-0.7-4.7h1.4c0.2,1.3,0.4,3.2,0.8,4.7H84.4z M86.2,10.6c-0.1-0.7-0.4-2.2-0.5-2.9h1.4
		c0.1,1,0.3,2,0.5,2.9H86.2z"/>
	<path d="M98,12.3c-0.3,0.4-0.8,0.6-1.4,0.6h-0.9L95,11.4h1.1c0.2,0,0.4-0.2,0.4-0.4V6.3h-1.8c-0.1,2.2-0.2,4.5-0.7,6.6h-1.8
		C92.9,10.4,93,8,93,5.4v-9c0-0.5,0.2-0.9,0.5-1.2c0.3-0.3,0.8-0.4,1.2-0.4h2.1c0.5,0,0.9,0.3,1.2,0.6c0.2,0.3,0.4,0.7,0.4,1.1v14.6
		C98.3,11.6,98.2,12,98,12.3z M96.5-3.3c0-0.2-0.2-0.4-0.4-0.4h-1c-0.1,0-0.4,0.2-0.4,0.4v3.1h1.8V-3.3z M96.5,1.3h-1.8
		c0,0.9,0,2.8,0,3.5h1.8V1.3z M100,10.5h-1.5c0.7-2.7,0.8-5.6,0.8-8.5h1.4C100.8,4.9,100.6,7.8,100,10.5z M103,0.8v12.1h-1.7V0.8
		h-2.5v-1.4h2.5v-2.7c-0.6,0.1-1.8,0.2-2.4,0.3v-1.4c1.7-0.2,4.5-0.5,6-1v1.5c-0.5,0.1-1.5,0.3-2,0.4v2.9h2.1v1.4H103z M104.1,8.1
		c-0.4-2-0.5-4.1-0.6-6.1h1.4c0.1,2,0.3,4.4,0.7,6.1H104.1z M105.7,8.5V-4.4h1.7V8.5H105.7z M109.9,12.5c-0.3,0.3-0.8,0.4-1.4,0.4
		h-1.8l-0.7-1.5h2.1c0.2,0,0.5-0.2,0.5-0.5V-5.5h1.8v16.8C110.5,11.8,110.3,12.2,109.9,12.5z"/>
	<path d="M115.5,12.9h-2.2c1.4-2.5,2.2-5.1,2.9-7.9h1.9C117.5,7.7,116.7,10.4,115.5,12.9z M116.1-1.1c-1-1.4-1.9-2.9-2.6-4.4h2.1
		c0.6,1.3,1.6,3,2.9,4.4H116.1z M115.6,3.8c-0.8-1.1-1.7-2.8-2.2-4.1h2.1c0.5,1.2,1.4,2.9,2.4,4.1H115.6z M119.6,4.3H118
		c0.5-1.6,0.8-3.9,0.8-5.5h1.4C120.3,0.5,120,2.7,119.6,4.3z M120.6,12.9h-2.3c2.1-3,2.3-6.9,2.3-10.7v-7.7h1.7v9.3
		C122.4,6.8,122.2,10.3,120.6,12.9z M123.5,4.3c-0.3-1.8-0.5-3.6-0.6-5.5h1.3c0.1,1.9,0.3,3.8,0.7,5.5H123.5z M125.2,11.9V-4.9h1.8
		v16.9H125.2z M128,4.3c-0.3-1.6-0.5-3.8-0.7-5.5h1.4c0.1,1.6,0.4,3.8,0.8,5.5H128z M129.8,12.9V-5.5h1.8v18.4H129.8z"/>
</g>
<g>
	<path d="M70.4,41.1l-1.3-3h-4.5l-1.2,3H62l4.2-10h1.3l4.3,10H70.4z M66.9,32.9l-1.8,4.2h3.6L66.9,32.9z"/>
	<path d="M77.8,40.8c-0.5,0.3-1.2,0.5-1.8,0.4c-0.7-0.1-1.4-0.4-1.8-1v3.8h-1.2V33.9h1.2v1.1c0.4-0.6,0.9-1,1.6-1.1
		c0.7-0.1,1.4,0,2,0.4c0.6,0.4,1,0.9,1.2,1.6c0.4,1.1,0.5,2.5,0,3.6C78.8,39.9,78.4,40.5,77.8,40.8z M77.6,35.6
		c-0.3-0.4-0.8-0.8-1.3-0.9c-0.6-0.1-1.2,0.2-1.5,0.7c-0.8,1.1-0.7,2.7-0.2,3.9c0.3,0.6,0.9,1,1.6,1c0.6,0,1.2-0.5,1.4-1
		C78.2,38.2,78.2,36.7,77.6,35.6z"/>
	<path d="M85.5,41.1c-0.4,0-0.6-0.1-0.8-0.3c-0.2-0.2-0.2-0.4-0.2-0.7v-9h1.3v8.7c0,0.2,0.2,0.4,0.4,0.4H91v1H85.5z"/>
	<path d="M97.4,40.8c-0.6,0.4-1.6,0.5-2.4,0.4c-0.9-0.1-1.7-0.4-2.2-1.2c-0.5-0.7-0.8-1.7-0.8-2.6c0-0.8,0.2-1.6,0.6-2.2
		c0.6-1.1,1.7-1.5,2.8-1.5c1,0,1.8,0.3,2.4,1c0.5,0.6,0.8,1.6,0.8,2.4c0,0.5-0.3,0.7-0.8,0.7h-4.5c0.1,0.9,0.4,1.7,1,2.2
		c0.4,0.3,0.9,0.4,1.4,0.4c0.4,0,0.8-0.2,1.1-0.4c0.3-0.3,0.5-0.7,0.5-1.1h1.4C98.5,39.5,98.1,40.4,97.4,40.8z M96.6,35
		c-0.6-0.4-1.4-0.4-2-0.2c-0.8,0.3-1.2,1.1-1.3,1.9h3.7c0.2,0,0.3-0.2,0.3-0.3C97.4,35.9,97,35.3,96.6,35z"/>
	<path d="M100.5,32.4v-1.3h1.3v1.3H100.5z M100.5,41.1v-7.3h1.3v7.3H100.5z"/>
	<path d="M114.4,40.8c-0.9,0.4-2.1,0.6-3.1,0.4c-1.1-0.1-2-0.6-2.7-1.4c-0.9-1-1.2-2.2-1.2-3.5c0-1.9,0.6-3.8,2.4-4.7
		c1.2-0.7,3-0.8,4.4-0.2c1.2,0.5,2,1.6,2.5,2.7h-1.4c-0.4-0.9-0.9-1.5-1.8-1.9c-0.7-0.3-1.6-0.4-2.4-0.1c-1.7,0.7-2.3,2.4-2.2,4.1
		c0,1.4,0.5,2.8,1.8,3.6c0.9,0.6,2.3,0.6,3.3,0c0.7-0.4,1.3-1.2,1.6-2h1.4C116.4,39,115.5,40.2,114.4,40.8z"/>
	<path d="M122.9,41.1v-4.8c0-0.6-0.2-1.1-0.7-1.3c-0.5-0.3-1.1-0.3-1.6-0.1c-0.7,0.1-1.3,0.7-1.5,1.4v4.9h-1.2v-10h1.2v3.6
		c0.6-0.5,1.3-0.9,2-0.9c0.8-0.1,1.7,0.1,2.2,0.6c0.5,0.5,0.8,1.2,0.8,1.8v5H122.9z"/>
	<path d="M130.7,41.1c-0.1-0.3-0.2-0.7-0.3-1c-0.6,0.6-1.4,1-2.3,1.1c-0.6,0.1-1.3,0-1.8-0.3c-0.5-0.3-0.8-0.6-1-1.1
		c-0.2-0.5-0.2-1.1,0-1.6c0.2-0.6,0.7-1,1.3-1.2c0.5-0.2,1.2-0.3,1.8-0.3c0.7-0.1,1.4-0.3,1.8-0.7c0-0.3,0-0.7-0.3-1
		c-0.3-0.3-0.6-0.4-1-0.4c-0.5-0.1-1.1,0-1.6,0.2c-0.5,0.2-0.7,0.6-0.9,1.1h-1.3c0.1-0.8,0.7-1.5,1.5-1.8c0.6-0.3,1.6-0.4,2.2-0.4
		c0.7,0,1.5,0.2,2,0.8c0.4,0.4,0.6,1,0.6,1.7c0,0.9,0,2.1,0,2.8c0,0.7,0.2,1.6,0.5,2.1H130.7z M130.3,37.3c-0.5,0.3-1.1,0.5-1.6,0.5
		c-0.5,0-1,0.1-1.3,0.2c-0.3,0.1-0.5,0.3-0.7,0.6c-0.1,0.3-0.1,0.6,0,1c0.1,0.3,0.4,0.5,0.7,0.6c0.3,0.1,0.6,0.1,0.9,0
		c0.9-0.1,1.6-0.6,2.1-1.3C130.3,38.4,130.3,37.7,130.3,37.3z"/>
	<path d="M138.2,41.1v-0.9c-0.4,0.6-1,0.9-1.7,1c-0.7,0.1-1.5,0-2.1-0.4c-0.6-0.4-0.9-1.1-0.9-2v-5h1.3V39c0,0.4,0.2,0.9,0.6,1.1
		c0.4,0.2,0.8,0.2,1.2,0.1c0.7-0.2,1.4-0.8,1.7-1.4v-5h1.3l0,7.3H138.2z"/>
</g>
<g>
	<path d="M208.2,9h-3.3c1.3-0.6,2.6-1.4,3.3-2.1h2.5C210,7.7,209,8.4,208.2,9z M213.7-0.5v0.9h4.5c0.4,0,0.9,0.1,1.2,0.5
		c0.2,0.2,0.4,0.6,0.4,1v3.1c0,0.3-0.2,0.7-0.4,0.9c-0.3,0.3-0.6,0.5-1,0.5h-10.8c-0.3,0-0.6-0.1-0.9-0.4c-0.3-0.3-0.5-0.6-0.5-1.1
		V1.8c0-0.3,0.2-0.7,0.5-1c0.3-0.3,0.6-0.4,1-0.4h4.4v-0.9h-7v-1.2h15.6v1.2H213.7z M217.1-4.4v0.6c0,0.3-0.1,0.7-0.4,1
		c-0.2,0.2-0.5,0.4-0.9,0.4h-5.9c-0.4,0-0.7-0.2-1-0.5c-0.2-0.3-0.3-0.6-0.3-0.9v-0.6h-3.1v-1.2h3.1v-1.2h1.7v1.2h5.2v-1.2h1.7v1.2
		h3.2v1.2H217.1z M212,1.5h-3.8c-0.3,0-0.5,0.2-0.5,0.4v0.8h4.3V1.5z M212,3.9h-4.3v0.8c0,0.2,0.2,0.5,0.5,0.5h3.9V3.9z M215.5-4.4
		h-5.2V-4c0,0.2,0.2,0.4,0.4,0.4h4.4c0.2,0,0.4-0.2,0.4-0.4V-4.4z M218.1,1.9c0-0.2-0.2-0.4-0.5-0.4h-4v1.2h4.4V1.9z M218.1,3.9
		h-4.4v1.3h3.9c0.3,0,0.5-0.2,0.5-0.5V3.9z M217.7,9c-1-0.6-1.9-1.3-2.8-2.1h2.6c1.1,0.8,2.3,1.5,3.5,2.1H217.7z"/>
	<path d="M227.4-3.3V9h-1.7V-3.3h-0.1c-0.2,0.9-0.5,2-0.9,2.9h-1.8c0.8-1.5,1.4-3.9,1.7-6.2h1.7c-0.1,0.6-0.3,1.5-0.4,2.1h4.3v1.3
		H227.4z M236.6-3.3V7.6c0,0.3-0.1,0.7-0.5,1c-0.3,0.2-0.6,0.4-1.1,0.4h-2.9l-0.8-1.3h3.1c0.3,0,0.5-0.2,0.5-0.4V-3.3h-2.5
		c-0.3,1-0.8,2.2-1.1,2.9h-1.8c1.1-2.1,1.8-4.2,2.1-6.2h1.7c-0.1,0.5-0.3,1.5-0.5,2.1h5.9v1.3H236.6z"/>
	<path d="M241.1,7.1V5.7c0.5-0.2,1.4-0.5,1.9-0.6v-6.6h-1.8v-1.2h1.8v-3.9h1.6v3.9h1.9v1.2h-1.9v6c0.6-0.2,1.8-0.7,2.5-1v1.4
		C245.4,5.5,243,6.5,241.1,7.1z M256.2,9h-1.7c-0.4,0-0.7-0.1-1-0.3c-0.4-0.3-0.6-0.8-0.6-1.5V0.3c0-0.3-0.2-0.4-0.4-0.4h-2.1
		c-0.3,0-0.4,0.2-0.4,0.4c0,2.6,0.1,6.2-2.1,8.7h-2.3c3-2.3,2.9-6.2,2.8-8.9c0-0.5,0.2-0.9,0.6-1.1c0.3-0.2,0.6-0.3,1-0.3h3.1
		c0.5,0,0.9,0.2,1.1,0.5s0.4,0.7,0.4,1.2v6.8c0,0.4,0.2,0.6,0.6,0.6h1.7L256.2,9z M246.8-2.9v-1.3h4.1C250.6-5,250.2-6,250-6.7h1.7
		c0.3,0.8,0.5,1.7,0.9,2.5h3.9v1.3H246.8z"/>
	<path d="M266.5-4.7h1.3l-3.6,12.9h-1.3L266.5-4.7z"/>
	<path d="M276.1-2.9c-0.8-1.2-1.5-2.4-2-3.7h1.8c0.6,1.3,1.4,2.5,2.2,3.7H276.1z M275.9,9.1h-1.8c1-2.1,1.7-4.3,2.1-6.6h1.7
		C277.5,4.5,276.9,6.9,275.9,9.1z M276,1.6c-0.8-1.2-1.4-2.5-1.9-3.9h1.7c0.5,1.4,1.3,2.6,2,3.9H276z M280,8.2h-2
		c1.2-1.5,2.1-3.2,2.6-5h1.7C281.8,5,281.1,6.7,280,8.2z M281,0h-3c1.6-0.6,3.5-2.1,3.5-4.4h1.7C283.2-2.7,282.6-1.1,281,0z
		 M284.7,2.5v6.6h-1.6V2.5h-4.9V1.3h4.9v-1.6h1.6v1.6h4.8v1.2H284.7z M287.7-2.9v-1.9c0-0.3-0.1-0.5-0.4-0.5h-6.7
		c-0.2,0-0.5,0.2-0.5,0.5v1.9h-1.5v-2c0-0.6,0.2-1,0.5-1.2c0.4-0.3,0.9-0.4,1.4-0.4h7.4c0.5,0,0.8,0.2,1.1,0.5
		c0.2,0.3,0.4,0.7,0.4,1.1v2H287.7z M289.1,0h-3.1c-0.5,0-0.8-0.2-1.1-0.5c-0.3-0.3-0.4-0.7-0.4-1.1v-2.8h1.6v2.7
		c0,0.3,0.2,0.5,0.4,0.5h3.2L289.1,0z M287.9,8.2c-1-1.6-1.7-3.3-2.3-5h1.7c0.6,1.7,1.5,3.4,2.6,5H287.9z"/>
	<path d="M293.8,9H292c0.6-1.7,1.4-4.6,1.6-6.5h1.5C295,4.2,294.3,7.3,293.8,9z M293.6-2.9c-0.4-0.8-1.2-2.7-1.6-3.8h1.7
		c0.3,1,1.1,2.8,1.7,3.8H293.6z M293.6,1.7c-0.5-0.9-1.2-2.9-1.5-4h1.6c0.3,1.1,1.1,3,1.7,4H293.6z M296.4,1.2h-1
		c0.2-0.6,0.4-1.8,0.4-2.6h0.9C296.7-0.6,296.6,0.5,296.4,1.2z M305.3-2.8h1.3c-0.1-0.3-0.2-0.7-0.2-0.9h1c0.1,0.5,0.3,1.4,0.5,1.8
		h-1c-0.1-0.2-0.2-0.5-0.3-0.7l-0.4,0.7h-1.7c-0.3,0-0.6-0.2-0.6-0.4c-0.1-0.2,0-0.5,0.2-0.7c0.4-0.4,0.9-1,1.1-1.2h-0.6
		c-0.2,0-0.3,0-0.4-0.1c-0.1-0.1-0.2-0.2-0.3-0.4h-4.3v-0.4c-0.5,0.6-1.8,1.8-2.4,2.4h1.3c-0.1-0.2-0.1-0.6-0.2-0.9h1
		c0.1,0.5,0.3,1.3,0.5,1.8h-1c-0.1-0.1-0.2-0.5-0.2-0.6l-0.4,0.6h-2c-0.2,0-0.4-0.1-0.5-0.3c-0.1-0.2-0.1-0.4,0.1-0.6
		c0.4-0.4,1-1.1,1.4-1.5h-0.9c-0.3,0-0.5-0.1-0.5-0.3c-0.1-0.2-0.1-0.5,0.1-0.7c0.4-0.4,1.1-1.2,1.5-1.5h1.5
		c-0.4,0.5-1.2,1.3-1.6,1.7h0.8c0.1-0.1,0.4-0.4,0.5-0.5h1.2v-0.3h1.4c-0.1-0.3-0.2-0.7-0.3-1h1.5c0,0.2,0.1,0.7,0.2,1h1.6v0.5
		c0.4-0.4,1-1.1,1.3-1.5h1.4c-0.3,0.4-1,1.3-1.4,1.7h0.7c0.2-0.2,0.5-0.5,0.6-0.7h1.4C307.3-5,306.1-3.7,305.3-2.8z M307.1,8.6
		c-0.2,0.3-0.6,0.5-1,0.5h-4.9l-0.7-1.1h5c0.1,0,0.3-0.2,0.3-0.4V7.2c0-0.2-0.1-0.4-0.3-0.4h-8c-0.4,0-0.7-0.1-0.9-0.3
		c-0.2-0.2-0.3-0.5-0.3-0.8V5c0-0.5,0.2-0.8,0.5-1c0.2-0.2,0.5-0.3,0.9-0.3h7.6c0.2,0,0.3-0.2,0.3-0.3V3.2c0-0.2-0.1-0.3-0.3-0.3
		h-9.2v-1h9.9c0.4,0,0.7,0.1,1,0.3c0.2,0.2,0.3,0.4,0.3,0.7v0.8c0,0.3-0.1,0.6-0.3,0.8c-0.2,0.2-0.5,0.3-0.9,0.3h-7.8
		c-0.1,0-0.3,0.1-0.3,0.3v0.3c0,0.2,0.1,0.3,0.3,0.3h8c0.3,0,0.6,0.1,0.8,0.3c0.2,0.2,0.4,0.5,0.4,0.9v1
		C307.4,8.1,307.3,8.4,307.1,8.6z M297.3,1.2c-0.1-0.6-0.2-1.9-0.2-2.6h0.8c0,0.7,0.1,1.9,0.2,2.6H297.3z M298.6,1.2
		c-0.1-0.7-0.3-2-0.3-2.6h0.8c0,0.7,0.2,2,0.3,2.6H298.6z M303.3,1c-0.2,0.2-0.4,0.3-0.6,0.3h-2.1c-0.3,0-0.5-0.1-0.7-0.2
		c-0.2-0.2-0.3-0.4-0.3-0.7v-0.8c0-0.3,0.1-0.6,0.3-0.8c0.2-0.1,0.4-0.2,0.6-0.2h2c0.3,0,0.5,0.1,0.7,0.3c0.1,0.2,0.2,0.4,0.2,0.6
		v0.8C303.5,0.6,303.5,0.8,303.3,1z M299.9-3.3v-0.9h3.6v0.9H299.9z M299.9-1.9v-0.9h3.7v0.9H299.9z M302.3-0.3
		c0-0.1-0.1-0.3-0.2-0.3h-0.9c-0.1,0-0.3,0.1-0.3,0.3V0c0,0.1,0.1,0.3,0.3,0.3h0.9c0.1,0,0.2-0.1,0.2-0.3V-0.3z M304.6,1.2h-1
		c0.3-0.8,0.4-1.9,0.5-2.6h0.9C305-0.7,304.8,0.5,304.6,1.2z M305.5,1.2c-0.1-0.6-0.2-1.9-0.2-2.6h0.8c0,0.7,0.2,2,0.3,2.6H305.5z
		 M306.9,1.2c-0.1-0.6-0.3-1.9-0.3-2.6h0.9c0.1,0.7,0.2,2,0.3,2.6H306.9z"/>
</g>
<g>
	<path d="M212.1,28.4h-1.2l-2.2-7.1l-2,7.1h-1.2l-2.5-9.3h1.2l2,7.3l2-7.3h1.1l2.2,7.1l1.9-7.1h1.2L212.1,28.4z"/>
	<path d="M219.5,28.3c-0.8,0.3-1.8,0.3-2.6-0.1c-0.8-0.3-1.4-0.9-1.6-1.8c-0.3-0.9-0.3-2.3,0.1-3.2c0.4-0.8,1-1.4,1.9-1.6
		c0.8-0.2,1.8-0.2,2.6,0.2c0.8,0.4,1.1,1,1.4,1.8c0.2,0.9,0.2,1.9,0,2.7C221,27.3,220.3,28,219.5,28.3z M218.1,22.5
		c-0.7,0-1.4,0.5-1.7,1.2c-0.2,0.8-0.2,1.8,0,2.6c0.1,0.7,0.8,1.2,1.4,1.3c0.8,0.1,1.7-0.1,2-0.9c0.5-0.9,0.4-2.3,0.1-3.3
		C219.7,22.8,218.9,22.4,218.1,22.5z"/>
	<path d="M226.8,28.4v-4.4c0-0.6-0.2-1.3-0.8-1.5c-0.5-0.2-1.1-0.1-1.6,0.2c-0.6,0.4-0.8,0.9-0.8,1.5v4.2h-1.2v-6.8h1v0.8
		c0.4-0.4,0.8-0.7,1.5-0.8c0.8-0.1,1.7,0,2.2,0.4c0.6,0.5,0.8,1,0.8,1.8v4.6H226.8z"/>
	<path d="M234.4,30.2c-0.5,0.6-1.2,0.8-2,0.9c-0.6,0.1-1.5,0-2.1-0.4c-0.6-0.4-1-1.1-1-1.7h1.1c0,0.5,0.3,1,0.8,1.1
		c0.5,0.1,1,0.1,1.4,0.1c0.4-0.1,0.9-0.3,1.1-0.8c0.3-0.5,0.2-1.1,0.2-1.8c-0.4,0.4-0.9,0.7-1.4,0.8c-0.7,0.2-1.5,0-2.1-0.4
		c-0.5-0.4-0.9-0.9-1.1-1.4c-0.2-0.8-0.3-1.7-0.1-2.6c0.2-0.7,0.5-1.3,1-1.8c0.5-0.4,1.2-0.6,1.8-0.6c0.7,0,1.4,0.4,1.9,0.9v-0.8
		h1.1v6.5C235,29,234.8,29.7,234.4,30.2z M233.5,23.3c-0.4-0.5-0.9-0.8-1.5-0.8c-0.6,0-1.1,0.3-1.4,0.9c-0.4,0.7-0.4,2.3-0.1,3
		c0.3,0.6,0.8,1.1,1.5,1.1c0.7,0,1.3-0.4,1.6-1C234,25.7,234.1,24,233.5,23.3z"/>
	<path d="M246.1,28.1c-0.8,0.4-2,0.5-2.9,0.4c-1-0.1-1.8-0.5-2.5-1.3c-0.8-0.9-1.1-2-1.1-3.3c0-1.8,0.5-3.5,2.2-4.4
		c1.1-0.6,2.8-0.7,4-0.2c1.1,0.5,1.9,1.5,2.3,2.5h-1.3c-0.4-0.8-0.9-1.4-1.7-1.7c-0.7-0.3-1.5-0.3-2.2-0.1c-1.6,0.6-2.1,2.2-2.1,3.8
		c0,1.3,0.4,2.6,1.6,3.4c0.9,0.5,2.2,0.6,3.1,0c0.7-0.4,1.2-1.2,1.5-1.9h1.3C247.9,26.5,247.1,27.6,246.1,28.1z"/>
	<path d="M253.9,28.4V24c0-0.5-0.2-1-0.6-1.2c-0.4-0.3-1-0.2-1.5-0.1c-0.6,0.1-1.2,0.7-1.4,1.3v4.6h-1.1v-9.3h1.1v3.3
		c0.5-0.5,1.2-0.8,1.8-0.9c0.7-0.1,1.5,0.1,2.1,0.5c0.5,0.4,0.8,1.1,0.8,1.7v4.7H253.9z"/>
	<path d="M261,28.4v-0.9c-0.4,0.5-1,0.9-1.6,1c-0.7,0.1-1.4,0-1.9-0.4c-0.5-0.4-0.9-1.1-0.9-1.8v-4.6h1.2v4.8c0,0.4,0.2,0.8,0.6,1.1
		c0.3,0.2,0.8,0.2,1.1,0.1c0.6-0.2,1.3-0.7,1.5-1.3v-4.6h1.2l0,6.8H261z"/>
	<path d="M268,28.4l-2.5-3.5l-0.7,0.6v2.9h-1.2v-9.3h1.2V24l2.5-2.3h1.7l-2.7,2.5l3.1,4.3H268z"/>
	<path d="M279.8,28.4v-4.4H275v4.4h-1.2v-9.3h1.2v4h4.9v-4h1.2v9.3H279.8z"/>
	<path d="M287.2,28.4c-0.1-0.3-0.2-0.6-0.3-0.9c-0.6,0.5-1.3,0.9-2.1,1c-0.6,0.1-1.2,0-1.7-0.2c-0.4-0.2-0.7-0.6-0.9-1
		c-0.2-0.5-0.1-1,0-1.5c0.2-0.5,0.6-0.9,1.2-1.1c0.5-0.2,1.1-0.2,1.7-0.3c0.6-0.1,1.3-0.3,1.7-0.6c0-0.2,0-0.6-0.2-0.9
		c-0.2-0.2-0.6-0.4-0.9-0.4c-0.5-0.1-1,0-1.5,0.2c-0.4,0.2-0.7,0.5-0.8,1h-1.2c0.1-0.7,0.7-1.4,1.4-1.7c0.6-0.3,1.4-0.4,2.1-0.4
		c0.7,0,1.4,0.2,1.9,0.7c0.4,0.4,0.5,1,0.5,1.6c0,0.8,0,2,0,2.6c0,0.6,0.2,1.5,0.5,2H287.2z M286.8,24.9c-0.5,0.2-1,0.4-1.5,0.5
		c-0.5,0-0.9,0.1-1.2,0.2c-0.3,0.1-0.5,0.3-0.6,0.5c-0.1,0.3-0.1,0.6,0,0.9c0.1,0.3,0.4,0.5,0.6,0.6c0.2,0.1,0.6,0.1,0.8,0
		c0.8-0.1,1.5-0.6,1.9-1.2C286.8,25.9,286.8,25.3,286.8,24.9z"/>
	<path d="M293.8,28.4v-4.4c0-0.6-0.2-1.3-0.8-1.5c-0.5-0.2-1.1-0.1-1.6,0.2c-0.6,0.4-0.8,0.9-0.8,1.5v4.2h-1.2v-6.8h1v0.8
		c0.4-0.4,0.8-0.7,1.5-0.8c0.8-0.1,1.7,0,2.2,0.4c0.6,0.5,0.8,1,0.8,1.8v4.6H293.8z"/>
	<path d="M301.4,30.2c-0.5,0.6-1.2,0.8-2,0.9c-0.6,0.1-1.5,0-2.1-0.4c-0.6-0.4-1-1.1-1-1.7h1.1c0,0.5,0.3,1,0.8,1.1
		c0.5,0.1,1,0.1,1.4,0.1c0.4-0.1,0.9-0.3,1.1-0.8c0.3-0.5,0.2-1.1,0.2-1.8c-0.4,0.4-0.9,0.7-1.4,0.8c-0.7,0.2-1.5,0-2.1-0.4
		c-0.5-0.4-0.9-0.9-1.1-1.4c-0.2-0.8-0.3-1.7-0.1-2.6c0.2-0.7,0.5-1.3,1-1.8c0.5-0.4,1.2-0.6,1.8-0.6c0.7,0,1.4,0.4,1.9,0.9v-0.8
		h1.1v6.5C302,29,301.8,29.7,301.4,30.2z M300.5,23.3c-0.4-0.5-0.9-0.8-1.5-0.8c-0.6,0-1.1,0.3-1.4,0.9c-0.4,0.7-0.4,2.3-0.1,3
		c0.3,0.6,0.8,1.1,1.5,1.1c0.7,0,1.3-0.4,1.6-1C301,25.7,301.1,24,300.5,23.3z"/>
	<path d="M308.9,19.2h0.9l-2.6,9.3h-0.9L308.9,19.2z"/>
	<path d="M231.7,37.4c-0.1-0.4-0.2-0.9-0.4-1.2c-0.3-0.3-0.6-0.4-1-0.5c-0.7-0.1-1.4-0.1-2.1,0.1c-0.4,0.1-0.8,0.4-1,0.8
		c-0.2,0.4-0.2,0.9,0.1,1.3c0.2,0.4,0.6,0.5,1.1,0.6c1.1,0.2,2.4,0.5,3.2,0.8c0.5,0.2,1.1,0.5,1.4,1.1c0.3,0.6,0.4,1.5,0.1,2.1
		c-0.2,0.6-0.6,0.9-1.1,1.2c-0.9,0.5-2,0.6-3.1,0.5c-0.8-0.1-1.7-0.3-2.3-1c-0.5-0.5-0.8-1.3-0.9-2h1.2c0.1,0.6,0.4,1.2,0.9,1.6
		c0.5,0.4,1.1,0.5,1.7,0.5c0.6,0,1.5-0.1,2-0.4c0.4-0.3,0.7-0.8,0.7-1.3c0-0.6-0.3-1.1-0.9-1.3c-0.5-0.2-1.7-0.5-2.4-0.6
		c-0.7-0.1-1.6-0.4-2.1-0.9c-0.6-0.5-0.7-1.4-0.5-2.1c0.2-0.6,0.6-1.2,1.2-1.5c0.9-0.5,2.5-0.6,3.5-0.4c0.6,0.1,1.2,0.5,1.6,1.1
		c0.3,0.5,0.5,1,0.6,1.5H231.7z"/>
	<path d="M238.8,44v-4.5c0-0.5-0.2-1-0.6-1.2c-0.4-0.3-1-0.2-1.5-0.1c-0.6,0.1-1.2,0.7-1.4,1.3V44h-1.1v-9.3h1.1v3.3
		c0.5-0.5,1.2-0.8,1.8-0.9c0.7-0.1,1.5,0.1,2.1,0.5c0.5,0.4,0.8,1.1,0.8,1.7V44H238.8z"/>
	<path d="M245.8,44v-0.9c-0.4,0.5-1,0.9-1.6,1c-0.7,0.1-1.4,0-1.9-0.4c-0.5-0.4-0.9-1.1-0.9-1.8v-4.6h1.2V42c0,0.4,0.2,0.8,0.6,1.1
		c0.3,0.2,0.8,0.2,1.1,0.1c0.6-0.2,1.3-0.7,1.5-1.3v-4.6h1.2l0,6.8H245.8z"/>
	<path d="M256.6,44v-4.7c0-0.4-0.1-0.8-0.4-1c-0.4-0.3-0.9-0.3-1.4-0.2c-0.5,0.2-0.9,0.5-1.2,1V44h-1.1v-4.8c0-0.5-0.3-1-0.8-1.2
		c-0.5-0.2-0.9-0.1-1.3,0.1c-0.4,0.2-0.8,0.7-0.9,1.2V44h-1.1v-6.8h1.1v0.8c0.4-0.4,0.8-0.8,1.3-0.9c0.5-0.1,1-0.1,1.5,0.1
		c0.4,0.2,0.8,0.4,1,0.8c0.4-0.6,1.1-0.8,1.7-0.9c0.7-0.1,1.5,0,2,0.5c0.5,0.4,0.6,1,0.6,1.6V44H256.6z"/>
	<path d="M271.2,44H270l-2.2-7.1l-2,7.1h-1.2l-2.5-9.3h1.2l2,7.3l2-7.3h1.1l2.2,7.1l1.9-7.1h1.2L271.2,44z"/>
	<path d="M279.2,44c-0.1-0.3-0.2-0.6-0.3-0.9c-0.6,0.5-1.3,0.9-2.1,1c-0.6,0.1-1.2,0-1.7-0.2c-0.4-0.2-0.7-0.6-0.9-1
		c-0.2-0.5-0.1-1,0-1.5c0.2-0.5,0.6-0.9,1.2-1.1c0.5-0.2,1.1-0.2,1.7-0.3c0.6-0.1,1.3-0.3,1.7-0.6c0-0.2,0-0.6-0.2-0.9
		c-0.2-0.2-0.6-0.4-0.9-0.4c-0.5-0.1-1,0-1.5,0.2c-0.4,0.2-0.7,0.5-0.8,1h-1.2c0.1-0.7,0.7-1.4,1.4-1.7c0.6-0.3,1.4-0.4,2.1-0.4
		c0.7,0,1.4,0.2,1.9,0.7c0.4,0.4,0.5,1,0.5,1.6c0,0.8,0,2,0,2.6c0,0.6,0.2,1.5,0.5,2H279.2z M278.8,40.5c-0.5,0.2-1,0.4-1.5,0.5
		c-0.5,0-0.9,0.1-1.2,0.2c-0.3,0.1-0.5,0.3-0.6,0.5c-0.1,0.3-0.1,0.6,0,0.9c0.1,0.3,0.4,0.5,0.6,0.6c0.2,0.1,0.6,0.1,0.8,0
		c0.8-0.1,1.5-0.6,1.9-1.2C278.8,41.5,278.8,40.9,278.8,40.5z"/>
	<path d="M285.9,44v-4.4c0-0.6-0.2-1.3-0.8-1.5c-0.5-0.2-1.1-0.1-1.6,0.2c-0.6,0.4-0.8,0.9-0.8,1.5V44h-1.2v-6.8h1V38
		c0.4-0.4,0.8-0.7,1.5-0.8c0.8-0.1,1.7,0,2.2,0.4c0.6,0.5,0.8,1,0.8,1.8V44H285.9z"/>
</g>
</svg>
