<?xml version="1.0" encoding="iso-8859-1"?>
<!-- Generator: Adobe Illustrator 19.0.0, SVG Export Plug-In . SVG Version: 6.00 Build 0)  -->
<svg version="1.1" id="&#x5716;&#x5C64;_1" xmlns="http://www.w3.org/2000/svg" xmlns:xlink="http://www.w3.org/1999/xlink" x="0px"
	 y="0px" viewBox="-112.672 -35.353 272.126 85.039" style="enable-background:new -112.672 -35.353 272.126 85.039;"
	 xml:space="preserve">
<g id="XMLID_1_">
</g>
<g id="XMLID_124_">
</g>
<g id="XMLID_125_">
</g>
<g id="XMLID_126_">
</g>
<g id="XMLID_127_">
</g>
<g id="XMLID_128_">
</g>
<radialGradient id="XMLID_113_" cx="23.4222" cy="26.8896" r="100.9042" gradientTransform="matrix(0.9998 0 0 -0.9905 -0.0264 33.8007)" gradientUnits="userSpaceOnUse">
	<stop  offset="0.2193" style="stop-color:#00FF00;stop-opacity:0"/>
	<stop  offset="1" style="stop-color:#035353"/>
</radialGradient>
<path id="XMLID_63_" style="fill:url(#XMLID_113_);" d="M148.133,49.686h-249.484c-6.252,0-11.321-5.069-11.321-11.321v-62.397
	c0-6.252,5.069-11.321,11.321-11.321h249.484c6.252,0,11.321,5.069,11.321,11.321v62.397
	C159.454,44.617,154.386,49.686,148.133,49.686z"/>
<path id="XMLID_62_" style="fill:#FFFFFF;" d="M143.182,44.642H-96.4c-5.742,0-10.396-4.655-10.396-10.396v-54.159
	c0-5.742,4.655-10.396,10.396-10.396h239.582c5.742,0,10.396,4.655,10.396,10.396v54.159
	C153.578,39.987,148.924,44.642,143.182,44.642z"/>
<g id="XMLID_4_">
	<path id="XMLID_47_" d="M-4.087-4.114h1.056v8.405h-2.002v-7.547h-2.222c1.826-1.915,3.059-4.159,4.071-6.403h2.068
		C-1.887-7.722-2.877-5.874-4.087-4.114z M-4.747-9.813h-2.442c1.519-1.54,2.53-3.366,3.477-5.17h2.2
		C-2.393-13.179-3.449-11.44-4.747-9.813z M-1.688,4.291V2.729h5.897v-5.963h-4.907v-1.584h4.907v-5.522h-5.413v-1.541h5.083
		c-0.286-0.66-0.924-2.288-1.1-3.102h2.046c0.22,0.924,0.836,2.508,1.145,3.08h5.5v1.563H6.254v5.522h4.687v1.562H6.254v5.985h5.743
		v1.562H-1.688z"/>
	<path id="XMLID_51_" d="M24.294-0.659C23.59,0.485,22.622,1.629,21.5,2.465c1.056,0.572,2.376,1.056,3.521,1.474h-4.291
		c-0.176-0.066-0.572-0.264-0.77-0.374c-0.308,0.22-0.792,0.528-1.1,0.704h-4.312c1.1-0.33,2.596-1.034,3.696-1.672
		c-0.748-0.44-1.496-0.88-1.98-1.298c-0.33-0.286-0.242-0.792-0.044-1.1c0.154-0.242,0.462-0.616,0.682-0.858h-2.068v-1.298h3.146
		c0.286-0.352,0.594-0.748,0.88-1.1h-2.024c-0.396,0-0.748-0.11-1.012-0.33c-0.286-0.22-0.462-0.55-0.462-0.946v-1.298
		c0-0.506,0.198-0.836,0.506-1.056c0.308-0.22,0.748-0.308,1.167-0.308h2.31v-0.88h-2.134c-0.308,0-0.704-0.132-0.99-0.396
		c-0.264-0.22-0.462-0.55-0.462-0.946v-1.078h-0.946v-1.276h0.946v-0.836c0-0.418,0.154-0.77,0.374-1.034
		c0.242-0.286,0.572-0.462,0.924-0.462h2.288v-1.056h1.826v1.056h2.289c0.44,0,0.814,0.176,1.056,0.462
		c0.242,0.264,0.374,0.616,0.374,0.99v0.88h1.034v1.276h-1.034v0.902c0,0.418-0.132,0.814-0.418,1.1
		c-0.242,0.264-0.594,0.418-1.078,0.418h-2.223v0.88h2.75c0.374,0,0.748,0.198,1.012,0.55c0.154,0.22,0.264,0.506,0.264,0.836v0.968
		c0,0.484-0.088,0.88-0.33,1.144c-0.242,0.286-0.616,0.44-1.21,0.44h-2.442c-0.352,0.352-0.682,0.726-0.924,1.1h5.655v1.298H24.294z
		 M19.343-5.676h-1.738c-0.198,0-0.396,0.176-0.396,0.396v0.572c0,0.154,0.176,0.33,0.33,0.33h1.804V-5.676z M19.343-12.607h-1.408
		c-0.176,0-0.352,0.198-0.352,0.418v0.616h1.76V-12.607z M19.343-10.296h-1.76v0.66c0,0.242,0.22,0.396,0.374,0.396h1.386V-10.296z
		 M19.233-0.659c-0.308,0.374-0.594,0.726-0.836,1.1c-0.044,0.044-0.044,0.154,0.022,0.198c0.506,0.352,0.902,0.594,1.431,0.902
		c0.814-0.616,1.628-1.364,2.222-2.2H19.233z M23.018-12.189c0-0.264-0.132-0.418-0.375-0.418h-1.474v1.034h1.849V-12.189z
		 M23.018-10.296h-1.849v1.056h1.474c0.22,0,0.375-0.198,0.375-0.396V-10.296z M23.392-5.258c0-0.242-0.198-0.418-0.418-0.418
		h-1.804v1.298h1.827c0.198,0,0.396-0.198,0.396-0.396V-5.258z M31.753,4.269c-0.704-1.034-1.342-2.112-1.958-3.19
		c-0.704,1.078-1.563,2.2-2.42,3.19h-2.552c1.496-1.562,3.036-3.564,3.938-5.325c-0.814-1.87-1.518-3.873-2.068-5.853h-1.386
		c1.078-2.53,1.694-5.281,2.112-8.053h1.937c-0.088,0.814-0.308,2.09-0.484,3.036h5.083v1.43h-1.012
		c-0.242,3.345-0.792,6.535-2.068,9.439c0.814,1.87,2.068,3.675,3.366,5.325H31.753z M28.562-10.495
		c-0.242,0.946-0.528,2.156-0.946,3.168h0.946c0.352,1.232,0.792,2.508,1.254,3.653c0.682-2.156,1.012-4.445,1.188-6.821H28.562z"/>
	<path id="XMLID_64_" d="M40.903-12.607c-0.264,1.672-0.55,3.345-0.968,4.951h1.408c0.484,0,0.88,0.11,1.188,0.308
		c0.418,0.286,0.66,0.748,0.66,1.364v7.525c0,0.506-0.154,0.902-0.44,1.188s-0.726,0.44-1.276,0.44h-2.267
		c-0.396,0-0.814-0.198-1.122-0.506c-0.286-0.286-0.484-0.66-0.484-1.145V-4.07h-0.88c1.166-2.662,1.848-5.566,2.266-8.537h-1.936
		v-1.518h6.821v1.518H40.903z M41.409-5.764c0-0.176-0.22-0.396-0.418-0.396h-1.078c-0.22,0-0.396,0.176-0.396,0.396v7.019
		c0,0.264,0.286,0.44,0.462,0.44h1.012c0.286,0,0.418-0.198,0.418-0.462V-5.764z M45.128,3.83h-1.893
		c0.616-1.892,1.012-3.873,1.167-5.897h1.694C45.964-0.043,45.612,1.937,45.128,3.83z M55.293,3.653
		c-0.33,0.375-0.836,0.616-1.408,0.616h-1.628l-0.572-1.452h1.496c0.374,0,0.704-0.22,0.704-0.638v-4.599
		c0-0.352-0.241-0.638-0.682-0.638h-6.997c-0.528,0-1.012-0.22-1.342-0.572c-0.286-0.33-0.462-0.77-0.462-1.298v-7.877
		c0-0.594,0.22-1.078,0.594-1.43c0.374-0.33,0.88-0.528,1.496-0.528h9.175v1.496h-4.225v1.937h3.499v1.496h-3.499v1.915h3.499v1.452
		h-3.499v1.98h2.267c0.683,0,1.188,0.198,1.54,0.55c0.396,0.396,0.572,0.99,0.572,1.672v4.488
		C55.821,2.795,55.623,3.301,55.293,3.653z M49.462-13.267h-2.42c-0.418,0-0.682,0.242-0.682,0.572v1.364h3.103V-13.267z
		 M49.462-9.835H46.36v1.915h3.103V-9.835z M49.462-6.468H46.36v1.32c0,0.418,0.352,0.66,0.638,0.66h2.464V-6.468z M47.218,3.83
		c-0.308-1.937-0.462-3.895-0.594-5.897h1.65c0.066,1.98,0.308,3.96,0.682,5.897H47.218z M49.727,3.83
		c-0.33-1.937-0.66-3.895-0.704-5.897h1.628c0.088,2.002,0.353,4.027,0.858,5.897H49.727z M51.839,1.783
		c-0.286-1.254-0.44-2.552-0.55-3.851h1.672c0.044,1.32,0.264,2.597,0.55,3.851H51.839z"/>
	<path id="XMLID_86_" d="M61.275-10.407c-1.078-1.43-1.915-2.97-2.619-4.554h2.289c0.616,1.408,1.628,3.19,2.86,4.554H61.275z
		 M60.923,4.226h-2.244c1.386-2.552,2.311-5.215,3.036-8.031h2.135C63.079-0.945,62.133,1.761,60.923,4.226z M61.011-4.862
		c-0.968-1.496-1.672-3.146-2.311-4.774h2.267c0.66,1.672,1.387,3.322,2.553,4.774H61.011z M75.731-1.781v0.352
		c0,0.682-0.133,1.166-0.462,1.474c-0.33,0.308-0.837,0.462-1.585,0.462h-6.183v1.892c0,0.176,0.154,0.352,0.286,0.352h10.188
		l-0.792,1.474h-9.77c-0.594,0-1.057-0.264-1.387-0.682c-0.352-0.462-0.55-1.056-0.55-1.65v-3.674h-2.112
		c1.563-1.518,2.597-3.344,3.389-5.215h-2.971v-1.518h3.169v-2.641h-2.641v-1.54h2.641v-2.266h1.958v2.266h3.543v-2.266h1.936v2.266
		h3.015v1.54h-3.015v2.641h3.543v1.518h-3.146c0.55,1.672,2.046,3.983,3.345,5.215H75.731z M73.751-3.432
		c0-0.176-0.22-0.352-0.374-0.352h-5.501c-0.154,0-0.374,0.242-0.374,0.418v2.354h5.919c0.176,0,0.33-0.198,0.33-0.352V-3.432z
		 M72.782-6.996h-3.916c-0.198,0.506-0.528,1.254-0.771,1.694h5.325C73.267-5.676,72.98-6.446,72.782-6.996z M72.453-11.155H68.91
		v2.641h3.543V-11.155z"/>
	<path id="XMLID_94_" d="M89.897-12.563h1.563l-4.401,15.71h-1.562L89.897-12.563z"/>
	<path id="XMLID_96_" d="M113.24-11.903v1.254h-2.002v-1.254h-5.127v1.254h-2.002v-1.254h-4.995v-1.43h4.995v-1.628h2.002v1.628
		h5.127v-1.628h2.002v1.628h5.061v1.43H113.24z M114.803-4.796v2.068h2.772v1.386h-7.812v1.716h7.085v1.452h-7.085v2.552h-2.09
		V1.827h-7.02V0.375h7.02v-1.716H99.95v-1.386h2.685v-2.068h-3.521v-1.452h3.521v-2.31h-2.706v-1.474h17.624v1.474h-2.75v2.31h3.521
		v1.452H114.803z M107.674-8.558h-3.081v2.31h3.081V-8.558z M107.674-4.796h-3.081v2.068h3.081V-4.796z M112.801-8.558h-3.037v2.31
		h3.037V-8.558z M112.801-4.796h-3.037v2.068h3.037V-4.796z"/>
	<path id="XMLID_103_" d="M138.232-9.373v-2.134c0-0.242-0.176-0.484-0.571-0.484h-13.885c-0.308,0-0.506,0.176-0.506,0.506v2.112
		h-2.002v-2.178c0-0.528,0.176-1.034,0.55-1.408c0.33-0.308,0.792-0.506,1.431-0.506h6.358c-0.33-0.484-0.594-1.012-0.88-1.518
		h2.574c0.242,0.528,0.55,1.034,0.902,1.54h6.183c0.55,0,1.034,0.242,1.387,0.638c0.285,0.33,0.462,0.792,0.462,1.298v2.134H138.232
		z M139.047,3.631c-0.33,0.352-0.771,0.55-1.21,0.55h-14.104c-0.506,0-0.99-0.242-1.32-0.638c-0.285-0.352-0.462-0.836-0.462-1.386
		v-3.212c0-0.572,0.177-1.1,0.551-1.474c0.329-0.308,0.792-0.528,1.43-0.528h13.664c0.44,0,1.122,0.198,1.54,0.726
		c0.265,0.308,0.44,0.704,0.44,1.254v3.433C139.575,2.861,139.354,3.301,139.047,3.631z M137.242-4.62
		c-0.264,0.264-0.615,0.44-0.989,0.44h-11.112c-0.33,0-0.682-0.176-0.946-0.462c-0.22-0.242-0.396-0.572-0.396-0.924v-1.188
		c0-0.506,0.198-0.88,0.484-1.122c0.285-0.264,0.682-0.396,1.078-0.396h10.781c0.418,0,0.858,0.132,1.145,0.462
		c0.241,0.242,0.396,0.594,0.396,1.1v1.232C137.683-5.192,137.507-4.862,137.242-4.62z M129.783-1.583h-5.456
		c-0.11,0-0.353,0.11-0.353,0.308v1.123h5.809V-1.583z M129.783,1.321h-5.809v1.1c0,0.22,0.154,0.352,0.353,0.352h5.456V1.321z
		 M124.679-9.328v-1.453h12.146v1.453H124.679z M135.702-6.402c0-0.242-0.109-0.44-0.352-0.44h-9.153
		c-0.265,0-0.396,0.154-0.396,0.264v0.616c0,0.22,0.154,0.352,0.33,0.352h9.22c0.198,0,0.352-0.11,0.352-0.33V-6.402z
		 M137.595-1.187c0-0.22-0.22-0.396-0.44-0.396h-5.391v1.43h5.831V-1.187z M137.595,1.321h-5.831v1.452h5.369
		c0.264,0,0.462-0.22,0.462-0.396V1.321z"/>
</g>
<g id="XMLID_3_">
	<path id="XMLID_5_" d="M-4.518,21.651v9.675h-1.365v-9.675h-3.735v-1.065h8.76v1.065H-4.518z"/>
	<path id="XMLID_9_" d="M5.052,31.206c-0.9,0.375-2.13,0.33-3.03-0.061c-0.9-0.39-1.575-1.079-1.875-2.039
		c-0.33-1.08-0.315-2.625,0.135-3.646c0.405-0.944,1.17-1.604,2.16-1.89c0.975-0.285,2.115-0.195,2.955,0.27
		c0.885,0.495,1.32,1.11,1.59,2.056c0.285,1.005,0.285,2.145,0.03,3.135C6.777,29.976,5.967,30.831,5.052,31.206z M3.417,24.456
		c-0.825,0.03-1.665,0.585-1.92,1.396c-0.285,0.93-0.255,2.039-0.03,3.015c0.165,0.765,0.9,1.395,1.665,1.515
		c0.87,0.135,1.92-0.135,2.34-0.99c0.54-1.095,0.495-2.654,0.06-3.749C5.202,24.801,4.302,24.411,3.417,24.456z"/>
	<path id="XMLID_12_" d="M19.827,30.936c-0.975,0.48-2.25,0.615-3.315,0.466c-1.14-0.15-2.1-0.601-2.865-1.485
		c-0.915-1.05-1.305-2.354-1.32-3.78c-0.03-2.024,0.63-4.034,2.535-5.055c1.32-0.72,3.21-0.824,4.665-0.21
		c1.245,0.525,2.16,1.681,2.64,2.925h-1.545c-0.48-0.915-0.99-1.604-1.965-2.01c-0.795-0.314-1.755-0.39-2.58-0.06
		c-1.815,0.72-2.43,2.534-2.385,4.35c0.045,1.545,0.495,3.015,1.89,3.87c0.99,0.614,2.49,0.645,3.54,0.045
		c0.78-0.45,1.41-1.335,1.68-2.19h1.545C21.957,29.061,21.042,30.336,19.827,30.936z"/>
	<path id="XMLID_14_" d="M26.607,33.381c-0.135,0.315-0.36,0.585-0.63,0.735c-0.255,0.149-0.555,0.225-0.87,0.225h-1.065
		l-0.615-1.05h1.35c0.27,0,0.495-0.21,0.585-0.436l0.765-1.875l-3.15-7.454h1.515l2.37,5.609l2.34-5.609h1.545L26.607,33.381z"/>
	<path id="XMLID_16_" d="M37.466,30.666c-0.555,0.555-1.305,0.84-2.085,0.825c-0.945-0.016-1.59-0.436-2.22-1.125v0.96h-1.38V20.602
		h1.38v3.854c0.75-0.795,1.77-1.229,2.925-1.02c1.005,0.194,1.98,1.125,2.265,2.1C38.861,27.231,38.786,29.376,37.466,30.666z
		 M36.836,25.461c-0.27-0.54-0.855-0.93-1.47-0.96c-0.735-0.029-1.38,0.436-1.755,1.05c-0.66,1.08-0.705,2.835,0.03,3.87
		c0.42,0.585,1.035,1.005,1.725,0.96c0.675-0.045,1.23-0.51,1.53-1.095C37.406,28.266,37.316,26.466,36.836,25.461z"/>
	<path id="XMLID_19_" d="M45.477,31.026c-0.615,0.404-1.695,0.524-2.55,0.449c-0.96-0.09-1.815-0.479-2.385-1.29
		c-0.555-0.779-0.84-1.814-0.825-2.834c0-0.855,0.21-1.681,0.6-2.37c0.645-1.125,1.8-1.59,3.015-1.605
		c1.11-0.015,1.95,0.285,2.61,1.035c0.57,0.646,0.855,1.665,0.81,2.52c-0.03,0.511-0.33,0.75-0.825,0.75h-4.815
		c0.09,0.915,0.375,1.801,1.065,2.355c0.42,0.345,0.945,0.435,1.485,0.405c0.435-0.03,0.84-0.165,1.155-0.48
		c0.315-0.315,0.495-0.765,0.585-1.155h1.485C46.707,29.556,46.227,30.531,45.477,31.026z M44.667,24.756
		c-0.6-0.42-1.485-0.39-2.145-0.18c-0.885,0.27-1.32,1.215-1.35,2.055h4.005c0.195,0,0.285-0.165,0.285-0.33
		C45.461,25.761,45.132,25.086,44.667,24.756z"/>
	<path id="XMLID_22_" d="M51.177,24.711c-0.405-0.06-0.78,0.12-1.065,0.405c-0.42,0.435-0.6,1.035-0.705,1.604v4.59h-1.32v-7.784
		h1.32v0.975c0.255-0.404,0.855-0.944,1.365-1.035c0.57-0.104,1.2,0.105,1.68,0.405v1.545
		C52.167,25.131,51.611,24.771,51.177,24.711z"/>
	<path id="XMLID_24_" d="M58.841,31.011c-0.585,0.36-1.26,0.51-1.95,0.42c-0.75-0.09-1.47-0.479-1.935-1.125v4.035h-1.335v-10.8
		h1.335v1.141c0.375-0.646,0.99-1.08,1.71-1.23c0.735-0.15,1.53,0.015,2.16,0.405c0.675,0.404,1.035,0.96,1.305,1.68
		c0.45,1.229,0.495,2.625,0.03,3.854C59.906,30.066,59.501,30.605,58.841,31.011z M58.602,25.416c-0.27-0.479-0.81-0.87-1.365-0.93
		c-0.66-0.061-1.245,0.18-1.62,0.72c-0.81,1.14-0.795,2.895-0.18,4.125c0.33,0.645,0.93,1.064,1.68,1.08
		c0.66,0.015,1.275-0.495,1.545-1.05C59.247,28.191,59.247,26.556,58.602,25.416z"/>
	<path id="XMLID_27_" d="M66.701,31.206c-0.9,0.375-2.13,0.33-3.03-0.061c-0.9-0.39-1.575-1.079-1.875-2.039
		c-0.33-1.08-0.315-2.625,0.135-3.646c0.405-0.944,1.17-1.604,2.16-1.89c0.975-0.285,2.115-0.195,2.955,0.27
		c0.885,0.495,1.32,1.11,1.59,2.056c0.285,1.005,0.285,2.145,0.03,3.135C68.426,29.976,67.616,30.831,66.701,31.206z M65.066,24.456
		c-0.825,0.03-1.665,0.585-1.92,1.396c-0.285,0.93-0.255,2.039-0.03,3.015c0.165,0.765,0.9,1.395,1.665,1.515
		c0.87,0.135,1.92-0.135,2.34-0.99c0.54-1.095,0.495-2.654,0.06-3.749C66.851,24.801,65.951,24.411,65.066,24.456z"/>
	<path id="XMLID_30_" d="M73.106,24.711c-0.405-0.06-0.78,0.12-1.065,0.405c-0.42,0.435-0.6,1.035-0.705,1.604v4.59h-1.32v-7.784
		h1.32v0.975c0.255-0.404,0.855-0.944,1.365-1.035c0.57-0.104,1.2,0.105,1.68,0.405v1.545
		C74.096,25.131,73.541,24.771,73.106,24.711z"/>
	<path id="XMLID_32_" d="M78.461,31.311h-1.215c-0.42,0-0.735-0.104-0.945-0.314c-0.225-0.21-0.345-0.54-0.345-0.96v-5.475h-1.095
		v-1.021h1.095v-2.939h1.334v2.925h1.53v1.035h-1.53v5.31c0,0.24,0.24,0.405,0.435,0.405h1.335L78.461,31.311z"/>
	<path id="XMLID_34_" d="M86.366,20.616h1.064l-2.999,10.71h-1.065L86.366,20.616z"/>
	<path id="XMLID_36_" d="M102.311,31.326h-1.35l-2.521-8.16l-2.279,8.16h-1.425l-2.896-10.725h1.335l2.311,8.369l2.324-8.369h1.245
		l2.505,8.204l2.146-8.204h1.335L102.311,31.326z"/>
	<path id="XMLID_38_" d="M111.596,31.326c-0.136-0.33-0.255-0.721-0.3-1.035c-0.676,0.615-1.516,1.05-2.431,1.155
		c-0.645,0.074-1.364,0.015-1.92-0.285c-0.495-0.271-0.854-0.66-1.02-1.2c-0.18-0.555-0.165-1.2,0.03-1.725
		c0.239-0.615,0.72-1.021,1.364-1.245c0.54-0.195,1.306-0.271,1.936-0.33c0.705-0.06,1.5-0.33,1.92-0.705
		c0.029-0.285,0-0.75-0.285-1.064c-0.271-0.285-0.69-0.436-1.095-0.48c-0.525-0.075-1.186,0.015-1.681,0.225
		s-0.795,0.631-0.93,1.141h-1.41c0.105-0.825,0.795-1.59,1.575-1.965c0.66-0.315,1.665-0.465,2.385-0.436
		c0.78,0.03,1.62,0.255,2.175,0.825c0.45,0.48,0.615,1.11,0.601,1.86c-0.016,0.975-0.016,2.295,0,2.984
		c0.015,0.75,0.255,1.725,0.555,2.28H111.596z M111.146,27.201c-0.54,0.285-1.155,0.495-1.71,0.54
		c-0.525,0.045-1.035,0.104-1.425,0.24c-0.36,0.135-0.585,0.3-0.735,0.63c-0.135,0.314-0.149,0.689-0.045,1.02
		c0.12,0.345,0.405,0.57,0.75,0.69c0.285,0.09,0.646,0.074,0.96,0.015c0.93-0.15,1.695-0.645,2.205-1.439
		C111.146,28.401,111.146,27.666,111.146,27.201z"/>
	<path id="XMLID_41_" d="M119.711,31.326v-5.175c0-0.615-0.255-1.141-0.72-1.44c-0.51-0.33-1.125-0.27-1.71-0.149
		c-0.734,0.149-1.365,0.75-1.649,1.47v5.295h-1.32V20.602h1.32v3.824c0.6-0.585,1.35-0.93,2.13-1.005
		c0.84-0.09,1.784,0.075,2.399,0.63c0.54,0.511,0.87,1.245,0.87,1.905v5.37H119.711z"/>
	<path id="XMLID_43_" d="M128.456,21.651c-0.24,0-0.465,0.24-0.465,0.465v3.12h5.55v1.05h-5.55v5.04h-1.335v-9.57
		c0-0.314,0.12-0.6,0.345-0.824c0.21-0.21,0.525-0.33,0.9-0.33h6.51v1.05H128.456z"/>
	<path id="XMLID_45_" d="M140.95,31.326v-0.99c-0.449,0.6-1.109,0.99-1.845,1.11c-0.765,0.119-1.604-0.016-2.234-0.48
		c-0.615-0.465-1.005-1.215-1.005-2.13v-5.31h1.38v5.489c0,0.466,0.239,0.976,0.645,1.23c0.375,0.24,0.87,0.255,1.29,0.135
		c0.75-0.195,1.455-0.81,1.77-1.5v-5.354h1.365l-0.015,7.8H140.95z"/>
</g>
<g id="XMLID_8_">
	<g id="XMLID_7_">
		<path id="XMLID_79_" style="fill:#01126B;" d="M-25.431,3.739c0-9.002,0-18.004,0-27.006c0-0.837,0-0.838-0.811-0.838
			c-7.536-0.001-15.072,0.01-22.608-0.02c-0.824-0.003-1.417,0.183-2.011,0.804c-1.909,1.994-3.896,3.913-5.857,5.856
			c-0.18,0.178-0.181,0.385-0.18,0.607c0.002,1.04,0.002,2.08,0.002,3.121c0,10.882,0.005,21.765-0.013,32.647
			c-0.001,0.566,0.116,0.762,0.709,0.734c1.093-0.05,2.191-0.038,3.286-0.003c0.469,0.015,0.594-0.117,0.593-0.592
			c-0.015-7.942-0.011-15.884-0.011-23.825c0-3.321,0.004-6.641-0.004-9.962c-0.001-0.398,0.09-0.679,0.408-0.982
			c1.216-1.16,2.381-2.374,3.553-3.58c0.167-0.172,0.325-0.255,0.565-0.254c5.802,0.005,11.603,0.006,17.405-0.004
			c0.337-0.001,0.467,0.094,0.438,0.437c-0.027,0.318-0.017,0.639-0.017,0.959c-0.001,16.344-0.001,32.687-0.001,49.031
			c0,0.775,0,0.774,0.781,0.775c1.077,0,2.153-0.014,3.23,0.01c0.416,0.009,0.562-0.126,0.551-0.548
			c-0.024-0.98-0.007-1.96-0.007-2.94C-25.431,20.022-25.431,11.88-25.431,3.739z"/>
		<path id="XMLID_78_" style="fill:#01126C;" d="M-89.879,19.94c-0.001,5.941,0.007,11.882-0.013,17.824
			c-0.002,0.55,0.141,0.716,0.696,0.693c1.115-0.046,2.233-0.031,3.348-0.004c0.423,0.01,0.554-0.132,0.543-0.547
			c-0.025-0.879-0.008-1.76-0.008-2.64c0.001-10.302,0.018-20.604-0.025-30.906c-0.004-0.904,0.453-1.389,0.978-1.916
			c0.98-0.982,1.991-1.932,2.96-2.925c0.27-0.277,0.546-0.337,0.9-0.336c6.34,0.007,12.679,0.005,19.019,0.005
			c0.767,0,0.766,0,0.765-0.78c0-1.08-0.014-2.161,0.01-3.24c0.009-0.394-0.068-0.567-0.513-0.566
			c-7.137,0.013-14.274,0.01-21.411,0.006c-0.255,0-0.438,0.071-0.625,0.261c-1.731,1.757-3.474,3.504-5.219,5.248
			c-0.252,0.252-0.507,0.515-0.777,0.731c-0.594,0.475-0.639,1.065-0.637,1.749C-89.872,8.378-89.879,14.159-89.879,19.94z"/>
		<path id="XMLID_77_" style="fill:#80D305;" d="M-71.324,9.268c1.932,0,3.864-0.012,5.796,0.009
			c0.489,0.006,0.647-0.121,0.632-0.644c-0.032-1.116,0.02-2.234,0.052-3.351c0.015-0.515-0.147-0.733-0.722-0.729
			c-3.864,0.027-7.729,0.024-11.593,0.007c-0.508-0.002-0.718,0.137-0.704,0.672c0.031,1.138,0.032,2.279,0.007,3.417
			c-0.01,0.469,0.144,0.631,0.615,0.626C-75.268,9.256-73.296,9.267-71.324,9.268z"/>
		<path id="XMLID_76_" style="fill:#03B2F8;" d="M-40.975-13.541c-1.912,0-3.824,0.019-5.735-0.012
			c-0.551-0.009-0.742,0.161-0.726,0.713c0.032,1.156,0.02,2.313,0.01,3.47c-0.003,0.343,0.089,0.509,0.469,0.508
			c3.983-0.009,7.966-0.009,11.949-0.001c0.348,0.001,0.5-0.101,0.496-0.476c-0.014-1.239-0.013-2.478,0.008-3.716
			c0.007-0.427-0.206-0.488-0.556-0.486c-1.972,0.009-3.943,0.004-5.915,0.004C-40.975-13.539-40.975-13.54-40.975-13.541z"/>
		<path id="XMLID_75_" style="fill:#37B5E6;" d="M-40.966,3.978c-1.932,0.001-3.864,0.014-5.796-0.008
			c-0.51-0.006-0.712,0.141-0.697,0.679c0.033,1.178,0.024,2.358,0.006,3.537c-0.007,0.436,0.136,0.595,0.586,0.593
			c3.864-0.016,7.728-0.01,11.592-0.014c0.777-0.001,0.823-0.049,0.827-0.804c0.005-1.079-0.024-2.159,0.014-3.237
			c0.02-0.568-0.151-0.767-0.736-0.758C-37.102,3.998-39.034,3.978-40.966,3.978z"/>
		<path id="XMLID_74_" style="fill:#35B0E0;" d="M-40.936-4.795c-1.911,0-3.822-0.001-5.733,0c-0.775,0-0.775,0.002-0.775,0.806
			c0,1.099,0.019,2.198-0.012,3.296c-0.013,0.467,0.174,0.662,0.607,0.68c0.159,0.007,0.318,0.009,0.478,0.009
			c3.663,0,7.326,0.001,10.989,0c0.86,0,0.928-0.055,0.938-0.905c0.013-1.078-0.017-2.158,0.011-3.236
			c0.013-0.496-0.155-0.664-0.65-0.658C-37.034-4.782-38.985-4.795-40.936-4.795z"/>
		<path id="XMLID_70_" style="fill:#02B2F9;" d="M-41.003,4.344c-1.793,0-3.587,0.029-5.378-0.015
			c-0.636-0.016-0.817,0.294-0.831,0.81c-0.027,0.987-0.034,1.975,0.117,2.956c0.039,0.251,0.19,0.332,0.414,0.332
			c0.379,0.001,0.757,0.002,1.136,0.002c3.287,0,6.574,0,9.861-0.001c0.849,0,0.905-0.058,0.906-0.932
			c0.001-0.78,0.002-1.559,0-2.339c-0.002-0.81-0.003-0.812-0.786-0.812C-37.377,4.344-39.19,4.344-41.003,4.344z"/>
		<path id="XMLID_69_" style="fill:#01B0F8;" d="M-40.953-4.538c-1.715,0-3.429,0-5.144,0c-0.843,0-1.064,0.173-1.109,1.03
			c-0.043,0.798-0.042,1.602,0.003,2.4c0.028,0.494,0.265,0.792,0.873,0.787c3.609-0.028,7.217-0.023,10.826-0.004
			c0.53,0.003,0.762-0.127,0.738-0.703c-0.04-0.939-0.033-1.881-0.003-2.82c0.016-0.514-0.147-0.706-0.681-0.699
			C-37.285-4.521-39.119-4.537-40.953-4.538z"/>
		<path id="XMLID_68_" style="fill:#93CB34;" d="M-71.394,26.778c1.933,0,3.866-0.011,5.798,0.007
			c0.492,0.005,0.69-0.122,0.715-0.669c0.046-1.039,0.002-2.079,0.052-3.115c0.03-0.626-0.242-0.87-0.826-0.868
			c-0.578,0.002-1.156-0.004-1.733-0.004c-3.049-0.002-6.097-0.003-9.146-0.004c-0.199,0-0.399-0.001-0.598,0.007
			c-0.485,0.02-0.75,0.19-0.727,0.765c0.044,1.098,0.021,2.199,0.003,3.298c-0.007,0.442,0.167,0.588,0.604,0.585
			c1.953-0.017,3.905-0.007,5.858-0.007C-71.394,26.774-71.394,26.776-71.394,26.778z"/>
		<path id="XMLID_66_" style="fill:#80D302;" d="M-71.674,26.436c1.593,0,3.186-0.001,4.778,0c0.159,0,0.33-0.03,0.475,0.017
			c1.033,0.333,1.115-0.061,1.231-1.015c0.1-0.827,0.021-1.676,0.023-2.515c0.001-0.255-0.094-0.408-0.365-0.456
			c-0.273-0.048-0.538-0.115-0.822-0.115c-3.396,0.006-6.791,0.003-10.187,0.004c-0.98,0.001-1.173,0.201-1.176,1.199
			c-0.002,0.619-0.009,1.239,0.001,1.858c0.012,0.695,0.341,1.02,1.023,1.021C-75.019,26.438-73.347,26.436-71.674,26.436z"/>
		<path id="XMLID_65_" style="fill:#80D106;" d="M-71.267,13.478c-1.854,0-3.708-0.002-5.562,0.001
			c-0.695,0.001-0.888,0.189-0.895,0.889c-0.009,0.96,0.021,1.921-0.01,2.88c-0.013,0.418,0.166,0.576,0.531,0.614
			c0.178,0.019,0.357,0.036,0.535,0.036c3.449,0.002,6.898,0.004,10.347,0c1.272-0.002,1.274-0.009,1.279-1.265
			c0.003-0.8,0.001-1.6,0-2.401c-0.001-0.75-0.002-0.752-0.783-0.752c-1.814-0.001-3.629,0-5.443,0
			C-71.267,13.48-71.267,13.479-71.267,13.478z"/>
	</g>
</g>
</svg>
