<?xml version="1.0" encoding="utf-8"?>
<!-- Generator: Adobe Illustrator 19.0.0, SVG Export Plug-In . SVG Version: 6.00 Build 0)  -->
<svg version="1.1" id="圖層_1" xmlns="http://www.w3.org/2000/svg" xmlns:xlink="http://www.w3.org/1999/xlink" x="0px" y="0px"
	 viewBox="-112.672 -35.353 272.126 85.039" style="enable-background:new -112.672 -35.353 272.126 85.039;" xml:space="preserve">
<style type="text/css">
	.st0{fill:url(#XMLID_102_);}
	.st1{fill:#ECECEC;}
	.st2{fill:#0079C4;}
	.st3{fill:url(#XMLID_103_);}
	.st4{fill:#FF0000;}
</style>
<g id="XMLID_3_">
	
		<radialGradient id="XMLID_102_" cx="23.423" cy="7.3121" r="100.9072" gradientTransform="matrix(0.9998 0 0 0.9905 -0.0264 0.0641)" gradientUnits="userSpaceOnUse">
		<stop  offset="0.2193" style="stop-color:#00FF00;stop-opacity:0"/>
		<stop  offset="1" style="stop-color:#035353"/>
	</radialGradient>
	<path id="XMLID_63_" class="st0" d="M148.133,49.827h-249.484c-6.252,0-11.321-5.069-11.321-11.321v-62.397
		c0-6.252,5.069-11.321,11.321-11.321h249.484c6.252,0,11.321,5.069,11.321,11.321v62.397
		C159.454,44.758,154.386,49.827,148.133,49.827z"/>
	<path id="XMLID_62_" class="st1" d="M143.182,44.783H-96.4c-5.742,0-10.396-4.655-10.396-10.396v-54.159
		c0-5.742,4.655-10.396,10.396-10.396h239.582c5.742,0,10.396,4.655,10.396,10.396v54.159
		C153.578,40.128,148.924,44.783,143.182,44.783z"/>
	<g id="XMLID_49_">
		<path id="XMLID_73_" d="M12.709-6.716h1.44V4.632H11.42v-10.19H8.39c2.49-2.584,4.17-5.615,5.55-8.645h2.82
			C15.709-11.589,14.36-9.093,12.709-6.716z M11.81-14.411H8.48c2.07-2.08,3.45-4.545,4.74-6.981h3
			C15.02-18.957,13.58-16.609,11.81-14.411z M15.979,4.632V2.523h8.04v-8.051H17.33v-2.139h6.689v-7.457H16.64v-2.08h6.93
			c-0.39-0.892-1.26-3.09-1.5-4.189h2.79c0.3,1.248,1.14,3.387,1.56,4.159h7.5v2.109h-7.11v7.457h6.39v2.109h-6.39v8.081h7.83v2.109
			H15.979z"/>
		<path id="XMLID_77_" d="M55.002-9.658h-1.32c-0.51,0-0.9-0.148-1.17-0.446c-0.27-0.297-0.39-0.743-0.39-1.248v-2.139h-0.87
			c-0.24,1.188-0.69,3-1.56,3.833h-2.97c1.44-0.832,1.92-2.525,2.22-3.833h-1.11v-0.861h-2.34c-0.39-0.98-1.02-2.882-1.38-4.07
			c-0.03-0.178-0.21-0.327-0.33-0.327h-0.3c-0.18,0-0.27,0.148-0.33,0.327c-0.36,1.367-1.26,3.625-1.71,4.635h5.49v1.99h-2.31v2.822
			h3.42v1.901h-3.42v8.051c0.75-0.178,2.55-0.772,3.48-1.069v2.168c-2.37,0.772-7.169,2.199-9.6,2.644V2.553
			c1.05-0.238,2.76-0.654,3.63-0.862v-8.764h-3.45v-1.901h3.45v-2.822h-2.49v-1.248h-1.38c0.9-1.575,2.22-4.753,2.7-6.566
			c0.12-0.416,0.42-0.772,0.84-1.01c0.33-0.178,0.69-0.268,1.11-0.268h1.38c0.39,0,0.78,0.089,1.11,0.268
			c0.39,0.208,0.69,0.535,0.84,0.921c0.36,1.04,0.99,2.941,1.53,4.189h3.21v-1.604h-1.08c-0.06,0.238-0.15,0.624-0.24,0.832h-2.01
			c0.42-0.921,0.81-2.941,0.99-4.337h1.86c-0.03,0.386-0.12,1.069-0.21,1.485h0.69v-2.109h2.4v2.109h2.07v2.02h-2.1v1.604h2.28v2.02
			h-1.26v1.604c0,0.327,0.24,0.475,0.48,0.475h0.87L55.002-9.658z M39.703,0.117c-0.3-1.337-0.81-4.189-0.99-5.764h2.1
			c0.18,1.515,0.72,4.367,1.11,5.764H39.703z M47.113-0.448h-2.25c0.51-1.545,0.93-3.892,1.11-5.199h2.13
			C47.923-4.34,47.443-1.874,47.113-0.448z M51.643,4.662h-4.35c1.35-0.713,3.09-1.991,3.87-2.763h3.84
			C54.252,2.731,52.782,3.89,51.643,4.662z M62.652,0.562c-0.42,0.446-0.99,0.713-1.68,0.713h-9.72c-0.54,0-1.05-0.208-1.44-0.565
			c-0.48-0.416-0.78-1.04-0.78-1.812v-5.734c0-0.713,0.42-1.367,0.99-1.782c0.42-0.297,0.93-0.446,1.44-0.446h9.03
			c0.96,0,1.65,0.238,2.1,0.713c0.39,0.386,0.6,0.951,0.6,1.634v5.823C63.192-0.329,62.982,0.176,62.652,0.562z M60.612-6.865
			c0-0.327-0.21-0.535-0.51-0.535h-7.979c-0.24,0-0.45,0.208-0.45,0.476v0.743h8.94V-6.865z M60.612-4.607h-8.94v1.278h8.94V-4.607z
			 M60.612-1.755h-8.94v0.713c0,0.237,0.21,0.505,0.51,0.505h8.009c0.24,0,0.42-0.208,0.42-0.505V-1.755z M63.852-9.658h-1.56
			c-0.54,0-0.99-0.178-1.26-0.475c-0.3-0.297-0.45-0.743-0.45-1.248v-2.109h-1.02c-0.24,1.456-0.66,2.644-1.59,3.833h-2.64
			c1.26-0.951,1.65-2.436,1.89-3.833h-0.99v-2.02h3.09v-1.604h-1.38c-0.06,0.238-0.21,0.654-0.27,0.832h-2.01
			c0.51-1.188,1.02-2.792,1.2-4.337h1.83c-0.03,0.327-0.12,1.01-0.24,1.485h0.87v-2.109h2.4v2.109h2.07v2.02h-2.07v1.604h2.64v2.02
			h-1.44v1.664c0,0.238,0.15,0.416,0.42,0.416h1.23L63.852-9.658z M60.612,4.662c-0.84-0.654-2.34-2.021-2.97-2.763h3.81
			c0.93,1.04,2.43,2.169,3.45,2.763H60.612z"/>
		<path id="XMLID_88_" d="M78.455-18.749c-0.69,2.674-1.8,5.764-2.82,7.605h14.4c0.811,0,1.59,0.238,2.16,0.683
			c0.63,0.476,1.02,1.188,1.02,2.139V1.691c0,0.862-0.33,1.545-0.84,2.05c-0.63,0.624-1.529,0.951-2.46,0.951H74.226
			c-1.08,0-1.86-0.416-2.37-1.1c-0.39-0.564-0.6-1.307-0.6-2.168v-7.605h-2.97c3.81-3.149,6.06-7.873,7.29-12.567h-6.87v-2.109
			h25.53v2.109H78.455z M90.396-7.964c0-0.624-0.48-1.01-1.08-1.01h-14.43c-0.45,0-0.87,0.386-0.87,0.832v9.625
			c0,0.684,0.39,1.07,1.02,1.07h14.28c0.6,0,1.08-0.446,1.08-1.099V-7.964z"/>
		<path id="XMLID_100_" d="M122.848,3.8c-0.45,0.476-1.17,0.772-2.189,0.772h-18.42c-0.869,0-1.59-0.297-2.069-0.891
			c-0.391-0.476-0.601-1.129-0.601-1.991v-18.924h2.7V1.691c0,0.476,0.42,0.832,0.84,0.832h7.05v-23.886h2.7V2.523h7.08
			c0.51,0,0.84-0.356,0.84-0.802v-18.954h2.729V1.869C123.508,2.642,123.328,3.325,122.848,3.8z"/>
	</g>
	<g id="XMLID_48_">
		<path id="XMLID_32_" d="M9.54,19.901v11.495H7.902V19.901H3.423v-1.266h10.506v1.266H9.54z"/>
		<path id="XMLID_34_" d="M21.021,31.254c-1.079,0.445-2.555,0.392-3.634-0.071c-1.08-0.463-1.889-1.283-2.249-2.424
			c-0.396-1.283-0.377-3.119,0.162-4.331c0.486-1.122,1.403-1.907,2.59-2.245c1.169-0.339,2.537-0.232,3.544,0.32
			c1.061,0.588,1.583,1.319,1.907,2.441c0.342,1.194,0.342,2.549,0.036,3.726C23.089,29.792,22.118,30.809,21.021,31.254z
			 M19.06,23.233c-0.989,0.036-1.997,0.695-2.303,1.658c-0.342,1.104-0.306,2.424-0.036,3.582c0.198,0.909,1.079,1.657,1.997,1.8
			c1.043,0.161,2.303-0.16,2.807-1.176c0.647-1.302,0.594-3.155,0.072-4.456C21.201,23.644,20.121,23.181,19.06,23.233z"/>
		<path id="XMLID_37_" d="M40.167,28.26c-0.288,0.998-0.936,1.711-1.547,2.21c-0.774,0.642-1.637,0.909-2.752,0.909h-4.138
			c-0.504,0-0.936-0.143-1.224-0.428c-0.27-0.25-0.414-0.606-0.414-1.052v-9.82c0-0.392,0.126-0.748,0.36-0.998
			c0.251-0.268,0.629-0.428,1.133-0.428h4.569c0.773,0,1.529,0.232,2.195,0.642c0.702,0.446,1.295,1.087,1.637,1.854
			c0.414,0.98,0.629,2.157,0.647,3.298C40.67,25.711,40.508,27.065,40.167,28.26z M38.547,21.755
			c-0.288-0.624-0.755-1.158-1.385-1.479c-0.503-0.268-1.151-0.428-1.979-0.428h-3.004c-0.234,0-0.468,0.231-0.468,0.481v9.374
			c0,0.214,0.288,0.464,0.54,0.464h3.382c0.702,0,1.421-0.285,1.979-0.713c0.576-0.464,0.936-1.105,1.151-1.782
			c0.234-0.749,0.306-2.3,0.288-3.244C39.051,23.537,38.907,22.574,38.547,21.755z"/>
		<path id="XMLID_40_" d="M42.959,20.311v-1.658h1.655v1.658H42.959z M42.959,31.379v-9.25h1.655v9.25H42.959z"/>
		<path id="XMLID_43_" d="M53.935,31.396c-0.162-0.392-0.306-0.855-0.36-1.229c-0.81,0.73-1.817,1.247-2.915,1.372
			c-0.773,0.089-1.637,0.018-2.303-0.339c-0.594-0.32-1.025-0.784-1.223-1.426c-0.216-0.659-0.198-1.426,0.036-2.049
			c0.288-0.731,0.864-1.213,1.637-1.479c0.648-0.231,1.565-0.321,2.321-0.393c0.846-0.071,1.799-0.392,2.303-0.837
			c0.036-0.339,0-0.892-0.342-1.266c-0.324-0.339-0.828-0.518-1.313-0.57c-0.629-0.09-1.421,0.018-2.015,0.268
			c-0.594,0.249-0.954,0.748-1.115,1.354h-1.691c0.126-0.979,0.954-1.889,1.889-2.334c0.792-0.375,1.997-0.553,2.86-0.518
			c0.936,0.036,1.943,0.304,2.608,0.98c0.54,0.57,0.738,1.319,0.72,2.21c-0.018,1.159-0.018,2.728,0,3.547
			c0.018,0.892,0.306,2.05,0.666,2.709H53.935z M53.395,26.495c-0.647,0.339-1.385,0.588-2.051,0.642
			c-0.629,0.054-1.241,0.125-1.709,0.285c-0.432,0.161-0.702,0.356-0.881,0.749c-0.162,0.374-0.18,0.819-0.054,1.212
			c0.144,0.409,0.486,0.677,0.899,0.819c0.342,0.107,0.774,0.09,1.151,0.018c1.116-0.178,2.033-0.766,2.645-1.711
			C53.395,27.921,53.395,27.048,53.395,26.495z"/>
		<path id="XMLID_46_" d="M68.456,31.396v-6.452c0-0.517-0.126-1.087-0.54-1.407c-0.504-0.393-1.295-0.428-1.943-0.231
			c-0.72,0.213-1.259,0.748-1.619,1.372v6.719h-1.565v-6.541c0-0.677-0.396-1.372-1.062-1.622c-0.63-0.231-1.259-0.106-1.799,0.196
			c-0.611,0.339-1.043,0.909-1.205,1.604v6.362h-1.565v-9.268h1.565v1.087c0.521-0.588,1.043-1.033,1.817-1.212
			c0.648-0.16,1.349-0.124,2.015,0.143c0.54,0.214,1.079,0.606,1.403,1.141c0.612-0.784,1.458-1.158,2.411-1.301
			c0.972-0.143,2.069,0,2.807,0.677c0.63,0.553,0.828,1.319,0.828,2.229v6.505H68.456z"/>
		<path id="XMLID_54_" d="M77.635,31.254c-1.079,0.445-2.555,0.392-3.634-0.071c-1.08-0.463-1.889-1.283-2.249-2.424
			c-0.396-1.283-0.377-3.119,0.162-4.331c0.486-1.122,1.403-1.907,2.59-2.245c1.169-0.339,2.537-0.232,3.544,0.32
			c1.061,0.588,1.583,1.319,1.907,2.441c0.342,1.194,0.342,2.549,0.036,3.726C79.704,29.792,78.733,30.809,77.635,31.254z
			 M75.674,23.233c-0.989,0.036-1.997,0.695-2.303,1.658c-0.342,1.104-0.306,2.424-0.036,3.582c0.198,0.909,1.079,1.657,1.997,1.8
			c1.043,0.161,2.303-0.16,2.807-1.176c0.647-1.302,0.594-3.155,0.072-4.456C77.815,23.644,76.736,23.181,75.674,23.233z"/>
		<path id="XMLID_57_" d="M87.749,31.396v-6.006c0-0.838-0.252-1.747-1.079-2.067c-0.72-0.268-1.584-0.143-2.231,0.249
			c-0.81,0.481-1.08,1.212-1.08,2.104v5.721H81.74v-9.268h1.403v1.052c0.504-0.606,1.098-0.963,2.015-1.141
			c1.044-0.196,2.285,0.035,3.041,0.605c0.881,0.66,1.169,1.426,1.169,2.478v6.273H87.749z"/>
		<path id="XMLID_59_" d="M97.412,31.396V30.31c-0.665,0.695-1.205,1.123-2.213,1.229c-0.773,0.071-1.583-0.071-2.212-0.41
			c-0.774-0.409-1.277-1.033-1.584-1.729c-0.611-1.426-0.684-3.618-0.054-5.044c0.378-0.891,0.989-1.604,1.854-2.049
			c0.737-0.393,1.601-0.481,2.41-0.304c0.81,0.196,1.457,0.784,1.799,1.229v-4.58h1.638v12.743H97.412z M94.876,23.198
			c-1.044,0-1.709,0.73-2.051,1.586c-0.504,1.301-0.36,3.173,0.126,4.225c0.342,0.73,1.115,1.265,1.853,1.265
			c0.828-0.018,1.547-0.32,2.015-0.979c0.918-1.302,0.702-3.262,0.145-4.652C96.657,23.84,95.758,23.198,94.876,23.198z"/>
		<path id="XMLID_64_" d="M114.274,31.396v-5.971h-6.765v5.971h-1.637V18.671h1.637v5.525h6.765v-5.525h1.637v12.726H114.274z"/>
		<path id="XMLID_66_" d="M118.434,20.311v-1.658h1.655v1.658H118.434z M118.434,31.379v-9.25h1.655v9.25H118.434z"/>
		<path id="XMLID_69_" d="M122.914,31.396V18.653h1.691v12.743H122.914z"/>
		<path id="XMLID_71_" d="M126.909,31.396V18.653h1.691v12.743H126.909z"/>
	</g>
	<g id="XMLID_31_">
		<path id="XMLID_93_" class="st2" d="M-80.329,6.966c-0.866,0.267-1.745,0.433-2.53,0.8c-1.646,0.771-2.42,2.152-2.529,3.958
			c-0.138,2.281,0.934,3.986,2.528,5.438c1.392,1.268,2.976,2.268,4.641,3.137c0.266,0.139,0.561,0.258,0.854,0.298
			c0.859,0.116,1.399-0.112,1.719-0.924c0.397-1.004,0.741-2.05,0.935-3.109c0.521-2.845,0.994-5.702,1.401-8.566
			c0.258-1.819,0.356-3.661,0.545-5.491c0.046-0.448-0.092-0.695-0.502-0.918c-2.562-1.395-4.936-3.053-6.955-5.181
			c-2.222-2.343-3.827-5.022-4.436-8.234c-0.549-2.896-0.252-5.647,1.556-8.079c1.893-2.546,4.413-4.156,7.563-4.597
			c1.037-0.145,2.13,0.114,3.198,0.17c0.293,0.015,0.62,0.041,0.88-0.064c2.289-0.928,4.72,0.466,5.108,2.903
			c0.272,1.708-0.878,3.25-2.085,3.819c-0.33,0.155-0.471,0.332-0.485,0.714c-0.061,1.651-0.204,3.3-0.239,4.952
			c-0.063,2.93-0.062,5.862-0.112,8.793c-0.007,0.399,0.136,0.533,0.493,0.656c2.288,0.787,4.608,1.503,6.838,2.434
			c3.712,1.551,7.191,3.529,10.202,6.245c1.796,1.621,3.287,3.475,4.282,5.701c1.253,2.802,1.199,5.658,0.322,8.534
			c-0.679,2.227-1.789,4.244-3.117,6.148c-0.191,0.274-0.343,0.288-0.632,0.136c-2.171-1.139-4.35-2.261-6.735-2.908
			c-1.607-0.436-3.242-0.651-4.903-0.563c-1.632,0.086-3.194,0.517-4.738,1.038c-0.904,0.305-1.82,0.605-2.755,0.778
			c-1.235,0.229-2.482,0.16-3.695-0.231c-1.103-0.355-2.199-0.735-3.313-1.053c-2.764-0.789-5.523-0.702-8.274,0.099
			c-2.117,0.616-4.076,1.592-6.026,2.592c-0.533,0.273-0.531,0.28-0.794-0.238c-1.533-3.025-2.213-6.24-1.887-9.606
			c0.407-4.204,2.401-7.512,5.971-9.825c1.825-1.182,3.819-1.361,5.895-0.933C-81.377,5.945-80.775,6.393-80.329,6.966z
			 M-72.354-3.747c0.071-0.973,0.147-1.865,0.2-2.758c0.071-1.201,0.128-2.403,0.186-3.605c0.113-2.376,0.23-4.751,0.32-7.128
			c0.008-0.205-0.112-0.497-0.272-0.612c-0.939-0.676-1.57-1.524-1.744-2.694c-0.024-0.163-0.201-0.357-0.357-0.437
			c-0.626-0.319-1.293-0.397-1.984-0.233c-2.313,0.549-4.108,1.798-5,4.041c-0.984,2.475-0.543,4.869,0.894,7.044
			c1.828,2.768,4.389,4.719,7.314,6.218C-72.686-3.853-72.561-3.822-72.354-3.747z M-69.135,3.593
			c-0.015,0.143-0.036,0.242-0.033,0.341c0.032,1.204,0.043,2.409,0.108,3.611c0.057,1.055,0.138,2.112,0.273,3.159
			c0.288,2.239,0.605,4.474,0.937,6.707c0.106,0.713,0.251,1.428,0.46,2.116c0.218,0.716,0.746,0.848,1.351,0.395
			c0.208-0.156,0.396-0.341,0.575-0.529c1.036-1.084,1.649-2.409,2.138-3.8c0.834-2.374,0.894-4.715-0.354-6.981
			c-1.193-2.167-2.991-3.708-5.119-4.902C-68.892,3.657-69.005,3.637-69.135,3.593z M-71.387,20.528
			c0.092-0.084,0.144-0.116,0.174-0.163c0.071-0.109,0.133-0.224,0.196-0.339c0.544-0.988,0.515-2.068,0.481-3.141
			c-0.091-2.871-0.201-5.741-0.303-8.612c-0.061-1.711-0.122-3.422-0.187-5.132c-0.003-0.082-0.05-0.163-0.076-0.244
			c-0.118,0.174-0.144,0.338-0.155,0.504c-0.065,1.012-0.124,2.025-0.188,3.038c-0.112,1.765-0.227,3.53-0.338,5.295
			c-0.067,1.056-0.141,2.112-0.191,3.168c-0.063,1.317-0.144,2.635-0.139,3.952C-72.112,19.46-71.831,20.023-71.387,20.528z
			 M-68.818-21.089c0.006-0.789-0.512-1.335-1.274-1.343c-0.754-0.007-1.341,0.559-1.342,1.295c-0.001,0.74,0.545,1.298,1.274,1.305
			C-69.344-19.824-68.824-20.312-68.818-21.089z"/>
		<path id="XMLID_92_" class="st2" d="M-85.656,33.679c1.488-0.665,2.857-1.188,4.339-1.397c1.987-0.28,3.856,0.156,5.703,0.818
			c1.298,0.465,2.623,0.844,4.014,0.884c1.287,0.037,2.531-0.223,3.756-0.611c1.117-0.354,2.229-0.744,3.371-0.993
			c1.765-0.386,3.517-0.192,5.221,0.402c0.655,0.228,1.3,0.482,2.053,0.762c-0.22,0.17-0.359,0.283-0.504,0.387
			c-3.51,2.513-7.305,4.442-11.48,5.587c-0.767,0.21-1.546,0.398-2.332,0.51c-0.352,0.05-0.742-0.082-1.101-0.18
			c-3.854-1.059-7.517-2.567-10.902-4.712C-84.213,34.698-84.877,34.212-85.656,33.679z"/>
		<path id="XMLID_91_" class="st2" d="M-90.846,28.281c0.453-0.235,0.846-0.445,1.243-0.645c1.906-0.961,3.841-1.858,5.943-2.306
			c2.287-0.487,4.545-0.371,6.774,0.372c1.181,0.394,2.369,0.784,3.578,1.073c1.823,0.436,3.624,0.208,5.394-0.37
			c1.17-0.382,2.335-0.803,3.532-1.074c2.495-0.565,4.971-0.356,7.349,0.568c1.793,0.698,3.535,1.529,5.416,2.353
			c-0.433,0.489-0.75,0.875-1.104,1.223c-0.062,0.061-0.294-0.012-0.427-0.07c-1.339-0.593-2.647-1.264-4.014-1.782
			c-3.394-1.284-6.798-1.199-10.203,0.041c-0.974,0.355-1.998,0.589-3.014,0.807c-1.164,0.25-2.306,0.012-3.428-0.321
			c-1.388-0.412-2.754-0.931-4.167-1.217c-2.324-0.471-4.659-0.338-6.894,0.493c-1.559,0.579-3.07,1.291-4.587,1.977
			c-0.328,0.149-0.511,0.151-0.704-0.162C-90.354,28.925-90.59,28.634-90.846,28.281z"/>
		<path id="XMLID_90_" class="st2" d="M-54.246,31.032c-0.424,0.383-0.806,0.757-1.224,1.084c-0.092,0.072-0.322,0.013-0.47-0.039
			c-1.323-0.467-2.618-1.029-3.966-1.404c-2.424-0.675-4.809-0.358-7.169,0.453c-1.144,0.393-2.337,0.655-3.519,0.925
			c-1.066,0.243-2.103-0.032-3.122-0.326c-1.266-0.366-2.509-0.817-3.786-1.134c-2.138-0.53-4.265-0.309-6.336,0.368
			c-1.044,0.341-2.05,0.801-3.063,1.23c-0.246,0.104-0.412,0.128-0.61-0.084c-0.314-0.338-0.658-0.648-1.068-1.046
			c0.099-0.04,0.155-0.057,0.206-0.084c1.761-0.931,3.572-1.734,5.53-2.162c2.184-0.478,4.308-0.256,6.411,0.473
			c1.133,0.393,2.285,0.78,3.461,0.981c1.444,0.247,2.916,0.23,4.348-0.215c1.355-0.421,2.699-0.89,4.075-1.228
			c2.094-0.514,4.185-0.324,6.201,0.395c1.294,0.461,2.537,1.064,3.801,1.607C-54.458,30.863-54.385,30.935-54.246,31.032z"/>
	</g>
	<g id="XMLID_50_">
		<linearGradient id="XMLID_103_" gradientUnits="userSpaceOnUse" x1="-59.9106" y1="7.6775" x2="-18.3061" y2="7.6775">
			<stop  offset="0" style="stop-color:#FF0000;stop-opacity:0"/>
			<stop  offset="0.3" style="stop-color:#FF0000"/>
		</linearGradient>
		<rect id="XMLID_53_" x="-59.911" y="3.088" class="st3" width="41.604" height="9.179"/>
		<polygon id="XMLID_52_" class="st4" points="-26.253,20.739 -38.961,20.739 -25.778,7.678 -13.069,7.678 		"/>
		<polygon id="XMLID_51_" class="st4" points="-25.778,7.854 -13.069,7.854 -26.253,-5.208 -38.961,-5.208 		"/>
	</g>
</g>
<g id="XMLID_1_">
</g>
<g id="XMLID_124_">
</g>
<g id="XMLID_125_">
</g>
<g id="XMLID_126_">
</g>
<g id="XMLID_127_">
</g>
<g id="XMLID_128_">
</g>
<rect id="XMLID_2_" x="342" y="-838.96" class="st2" width="428" height="156"/>
</svg>
