<?xml version="1.0" encoding="utf-8"?>
<!-- Generator: Adobe Illustrator 19.0.0, SVG Export Plug-In . SVG Version: 6.00 Build 0)  -->
<svg version="1.1" id="圖層_1" xmlns="http://www.w3.org/2000/svg" xmlns:xlink="http://www.w3.org/1999/xlink" x="0px" y="0px"
	 viewBox="-112.7 -35.4 272.1 85" style="enable-background:new -112.7 -35.4 272.1 85;" xml:space="preserve">
<style type="text/css">
	.st0{fill:url(#XMLID_4_);}
	.st1{fill:#ECECEC;}
	.st2{fill:#0079C4;}
	.st3{font-family:'MElleHK-Medium-B5pc-H';}
	.st4{font-size:29.7156px;}
	.st5{font-size:17.8293px;}
	.st6{fill:url(#XMLID_5_);}
	.st7{fill:#00FF00;}
</style>
<g id="XMLID_1_">
</g>
<g id="XMLID_124_">
</g>
<g id="XMLID_125_">
</g>
<g id="XMLID_126_">
</g>
<g id="XMLID_127_">
</g>
<g id="XMLID_128_">
</g>
<g id="XMLID_2_">
	
		<radialGradient id="XMLID_4_" cx="23.423" cy="6.3077" r="100.9072" gradientTransform="matrix(0.9998 0 0 0.9905 -2.641622e-002 0.9187)" gradientUnits="userSpaceOnUse">
		<stop  offset="0.2193" style="stop-color:#00FF00;stop-opacity:0"/>
		<stop  offset="1" style="stop-color:#035353"/>
	</radialGradient>
	<path id="XMLID_46_" class="st0" d="M148.1,49.7h-249.5c-6.3,0-11.3-5.1-11.3-11.3V-24c0-6.3,5.1-11.3,11.3-11.3h249.5
		c6.3,0,11.3,5.1,11.3,11.3v62.4C159.5,44.6,154.4,49.7,148.1,49.7z"/>
	<path id="XMLID_45_" class="st1" d="M143.2,44.6H-96.4c-5.7,0-10.4-4.7-10.4-10.4v-54.2c0-5.7,4.7-10.4,10.4-10.4h239.6
		c5.7,0,10.4,4.7,10.4,10.4v54.2C153.6,40,148.9,44.6,143.2,44.6z"/>
	<g id="layer1_1_" transform="translate(2128.4768,164.8031)" inkscape:label="Layer 1" inkscape:groupmode="layer">
		<g id="g3163_1_" transform="translate(-1785.7143,-54.285714)">
			
				<path id="path3165_1_" sodipodi:nodetypes="ssssssssssccssssssssscssssssscscssssscssssssssssscsscscsssssscssssssssssssssssscsssssssscsssssssscsssssscsscssssscssssscscssscssssscssssccsscsscssssscsscssssscc" inkscape:connector-curvature="0" class="st2" d="
				M-416.7-69.2c-5-1.4-9.6-3.5-13.2-6.1c-0.4-0.3-0.7-0.5-0.7-0.5c0,0,0.3-0.2,0.7-0.4c2.3-1,3.8-1.3,5.8-1.3c1.4,0,2,0.2,4.2,0.9
				c2.5,0.8,3.8,1.1,5.5,0.9c1.1-0.1,2.1-0.3,4-0.9c2.3-0.8,2.8-0.9,4.3-0.9c1.4,0,2.1,0,3.4,0.4c0.8,0.2,2.1,0.7,2.7,1l0.3,0.1
				l-0.7,0.5c-4.4,3.1-9.6,5.5-14.2,6.3c-0.3,0.1-0.6,0.1-0.7,0.1S-416.1-69-416.7-69.2L-416.7-69.2z M-433-77.8
				c-0.4-0.4-0.7-0.7-0.7-0.8c0-0.1,2.2-1.2,3.3-1.6c3.1-1.2,5.7-1.5,8.3-0.9c0.3,0.1,1.4,0.4,2.3,0.7c1,0.3,2.1,0.7,2.6,0.8
				c0.8,0.2,1,0.2,2.2,0.2c1.2,0,1.4,0,2.2-0.2c0.5-0.1,1.7-0.5,2.7-0.8c2.3-0.8,3.1-0.9,4.5-1c2.5-0.1,4.7,0.5,8.1,2.1
				c0.6,0.3,1.1,0.5,1.1,0.6c0,0.1-0.9,0.9-1.3,1.2l-0.3,0.2l-0.9-0.4c-3.6-1.6-6.7-2-9.7-1.3c-0.4,0.1-1.3,0.4-2.1,0.7
				c-1.8,0.6-2.5,0.8-3.5,0.9c-1.4,0.1-2.5-0.1-4.9-0.9c-1.7-0.6-2.5-0.8-3.5-0.9c-2.7-0.4-5.8,0.3-9.1,1.9l-0.4,0.2L-433-77.8z
				 M-435.7-80.8c-0.3-0.4-0.5-0.8-0.5-0.8c0,0,0.7-0.4,1.5-0.8c4.1-2,6.8-2.8,9.7-2.7c1.7,0.1,2.6,0.3,5.3,1.1
				c1.9,0.6,2.7,0.8,3.9,0.9c1.6,0.1,2.8-0.1,5.4-0.9c1-0.3,2-0.6,2.2-0.7c1.4-0.4,3.4-0.6,4.8-0.4c2.5,0.3,5,1.1,8.5,2.9l1.1,0.6
				l-0.3,0.3c-0.1,0.2-0.4,0.5-0.6,0.7l-0.4,0.4l-1.5-0.7c-3.6-1.8-5.9-2.4-8.7-2.4c-2,0-2.9,0.2-5.7,1.1c-2.2,0.7-2.9,0.9-4.2,0.9
				c-1.2,0-1.9-0.2-4.2-0.9c-2.9-0.9-3.6-1.1-5.6-1.1c-1,0-1.6,0-2.1,0.1c-2.1,0.3-4.2,1-6.9,2.4l-1.3,0.6L-435.7-80.8z M-393-83.3
				c-0.8-0.4-3.4-1.7-4.2-2.1c-4.1-1.7-7.6-2.1-11.2-1.2c-0.3,0.1-1.4,0.4-2.4,0.7c-2.4,0.8-2.9,0.9-4.3,0.9c-1.4,0-1.9-0.1-4.2-0.9
				c-1-0.3-2-0.7-2.4-0.7c-3-0.7-5.7-0.6-8.9,0.3c-1.5,0.5-3.5,1.3-5.7,2.4c-0.6,0.3-1,0.5-1.1,0.5c-0.1,0-0.6-1-0.9-1.8
				c-1.8-4.2-2-8.9-0.7-12.6c1.3-3.4,3.9-6.3,7-7.6c1.2-0.5,1.6-0.6,3.1-0.6c1.5,0,2,0.1,2.8,0.5c0.4,0.2,1,0.7,1.3,1l0.1,0.2
				l-0.6,0.1c-2.7,0.3-4.4,1.7-4.9,4c-0.1,0.6-0.1,1.7,0,2.3c0.4,2,1.7,3.8,4.2,5.5c1,0.7,2.6,1.7,3.3,2.1c0.6,0.3,0.8,0.4,1.2,0.4
				c1.3,0.1,1.8-0.7,2.6-3.9c1-4.3,1.9-10.7,2.1-15.4l0-0.6l-0.3-0.2c-0.2-0.1-0.7-0.4-1.1-0.6c-7.4-4.2-11.4-9.9-11.7-16.1
				c-0.1-1.7,0.1-2.8,0.7-4.2c0.3-0.7,0.9-1.8,1.4-2.5c0.4-0.5,1.5-1.6,2-2.1c1.1-0.9,2.7-1.8,4.1-2.2c1.8-0.6,3.3-0.7,5.3-0.3
				l0.7,0.1l0.4-0.2c0.6-0.3,0.9-0.3,1.6-0.3c1.1,0,2,0.4,2.9,1.2c0.8,0.8,1.2,1.7,1.2,2.8c0,1.1-0.4,2-1.2,2.8
				c-0.4,0.4-0.7,0.6-1.1,0.8l-0.5,0.3l-0.1,1c-0.2,2.9-0.3,7-0.4,11.3l0,3.4l0.5,0.2c4.9,1.5,6.7,2.2,9.6,3.6
				c6.5,3.2,10.9,6.9,13,11c0.9,1.8,1.3,3.3,1.4,5.2c0.1,3-0.9,6.2-2.9,9.5c-0.5,0.9-1.5,2.2-1.5,2.2
				C-392.6-83.1-392.8-83.1-393-83.3L-393-83.3z M-414.8-90.4c0.1-0.2,0.3-0.7,0.4-1c0.1-0.5,0.2-0.6,0.1-2.4
				c0-1.7-0.1-4.7-0.4-11.9c-0.1-1.7-0.1-3.1-0.1-3.1c0-0.1,0-0.1,0-0.1c-0.1,0.1-1,15.6-1,16.4c0,0.6,0,0.8,0.2,1.3
				c0.2,0.5,0.5,1.1,0.6,1.1C-415.1-89.9-414.9-90.1-414.8-90.4z M-409.7-90.4c0.4-0.2,1.2-1,1.7-1.8c0.8-1.2,1.6-3,1.9-4.6
				c0.2-0.9,0.2-2.4,0.1-3.2c-0.3-1.5-1-3-2.1-4.4c-1.1-1.3-2.9-2.8-4.4-3.5l-0.2-0.1l0,1.7c0.1,2.8,0.3,5.3,0.6,7.7
				c0.1,0.7,0.3,2.4,0.5,3.7c0.5,3.3,0.6,4.1,1.1,4.4C-410.2-90.2-410-90.2-409.7-90.4L-409.7-90.4z M-416-119
				c0.3-4,0.4-7.7,0.5-10.1l0-1.6l-0.4-0.2c-1-0.6-1.6-1.6-1.8-2.7l-0.1-0.5l-0.4-0.2c-1.2-0.6-3.2-0.2-5,1.1
				c-1.8,1.3-2.8,3.1-2.9,5.3c-0.1,2.7,1.1,5.2,3.6,7.6c1.8,1.7,3.4,2.9,5.3,3.9l0.8,0.4l0-0.5C-416.2-116.6-416.1-117.8-416-119z
				 M-413.2-133.2c0.5-0.2,0.8-0.7,0.8-1.2c0-0.4-0.1-0.7-0.3-0.9c-0.3-0.3-0.6-0.4-1-0.4c-0.4,0-0.7,0.1-1,0.4
				c-0.7,0.7-0.4,1.8,0.4,2.2C-414-133-413.5-133-413.2-133.2L-413.2-133.2z"/>
		</g>
	</g>
	<text id="XMLID_32_" transform="matrix(1.0093 0 0 1 21.4367 2.9473)" class="st3 st4">往利東</text>
	<text id="XMLID_29_" transform="matrix(1.0093 0 0 1 18.3058 31.2569)" class="st3 st5">To Lei Tung</text>
	<g id="XMLID_34_">
		
			<linearGradient id="XMLID_5_" gradientUnits="userSpaceOnUse" x1="39.8863" y1="46.7738" x2="81.4908" y2="46.7738" gradientTransform="matrix(-1 0 0 -1 26.8173 54.4876)">
			<stop  offset="0" style="stop-color:#00FF00;stop-opacity:0"/>
			<stop  offset="0.3" style="stop-color:#00FF00"/>
		</linearGradient>
		<rect id="XMLID_37_" x="-54.7" y="3.1" class="st6" width="41.6" height="9.2"/>
		<polygon id="XMLID_36_" class="st7" points="-46.7,-5.3 -34,-5.3 -47.2,7.7 -59.9,7.7 		"/>
		<polygon id="XMLID_35_" class="st7" points="-47.2,7.5 -59.9,7.5 -46.7,20.6 -34,20.6 		"/>
	</g>
</g>
</svg>
