<?xml version="1.0" encoding="utf-8"?>
<!-- Generator: Adobe Illustrator 19.0.0, SVG Export Plug-In . SVG Version: 6.00 Build 0)  -->
<svg version="1.1" id="圖層_1" xmlns="http://www.w3.org/2000/svg" xmlns:xlink="http://www.w3.org/1999/xlink" x="0px" y="0px"
	 viewBox="50 -26.019 272.126 85.039" style="enable-background:new 50 -26.019 272.126 85.039;" xml:space="preserve">
<style type="text/css">
	.st0{fill:url(#XMLID_3_);}
	.st1{fill:#ECECEC;}
	.st2{fill:#0079C4;}
	.st3{fill:url(#XMLID_4_);}
	.st4{fill:#00FF00;}
</style>
<radialGradient id="XMLID_3_" cx="186.1066" cy="15.3782" r="100.9042" gradientTransform="matrix(0.9998 0 0 -0.9905 -0.0064 31.7326)" gradientUnits="userSpaceOnUse">
	<stop  offset="0.2193" style="stop-color:#00FF00;stop-opacity:0"/>
	<stop  offset="1" style="stop-color:#035353"/>
</radialGradient>
<path id="XMLID_63_" class="st0" d="M310.805,59.02H61.321C55.069,59.02,50,53.951,50,47.699v-62.397
	c0-6.252,5.069-11.321,11.321-11.321h249.484c6.252,0,11.321,5.069,11.321,11.321v62.397
	C322.126,53.951,317.058,59.02,310.805,59.02z"/>
<path id="XMLID_62_" class="st1" d="M305.854,53.976H66.272c-5.742,0-10.396-4.655-10.396-10.396v-54.159
	c0-5.742,4.655-10.396,10.396-10.396h239.582c5.742,0,10.396,4.655,10.396,10.396V43.58
	C316.25,49.321,311.596,53.976,305.854,53.976z"/>
<g id="XMLID_31_">
	<path id="XMLID_93_" class="st2" d="M82.343,16.159c-0.866,0.267-1.745,0.433-2.53,0.8c-1.646,0.771-2.42,2.152-2.529,3.958
		c-0.138,2.281,0.934,3.986,2.528,5.438c1.392,1.268,2.976,2.268,4.641,3.137c0.266,0.139,0.561,0.258,0.854,0.298
		c0.859,0.116,1.399-0.112,1.719-0.924c0.397-1.004,0.741-2.05,0.935-3.109c0.521-2.845,0.994-5.702,1.401-8.566
		c0.258-1.819,0.356-3.661,0.545-5.491c0.046-0.448-0.092-0.695-0.502-0.918c-2.562-1.395-4.936-3.053-6.955-5.181
		c-2.222-2.343-3.827-5.022-4.436-8.234c-0.549-2.896-0.252-5.647,1.556-8.079c1.893-2.546,4.413-4.156,7.563-4.597
		c1.037-0.145,2.13,0.114,3.198,0.17c0.293,0.015,0.62,0.041,0.88-0.064c2.289-0.928,4.72,0.466,5.108,2.903
		c0.272,1.708-0.878,3.25-2.085,3.819c-0.33,0.155-0.471,0.332-0.485,0.714c-0.061,1.651-0.204,3.3-0.239,4.952
		c-0.063,2.93-0.062,5.862-0.112,8.793c-0.007,0.399,0.136,0.533,0.493,0.656c2.288,0.787,4.608,1.503,6.838,2.434
		c3.712,1.551,7.191,3.529,10.202,6.245c1.796,1.621,3.287,3.475,4.282,5.701c1.253,2.802,1.199,5.658,0.322,8.534
		c-0.679,2.227-1.789,4.244-3.117,6.148c-0.191,0.274-0.343,0.288-0.632,0.136c-2.171-1.139-4.35-2.261-6.735-2.908
		c-1.607-0.436-3.242-0.651-4.903-0.563c-1.632,0.086-3.194,0.517-4.738,1.038c-0.904,0.305-1.82,0.605-2.755,0.778
		c-1.235,0.229-2.482,0.16-3.695-0.231c-1.103-0.355-2.199-0.735-3.313-1.053c-2.764-0.789-5.523-0.702-8.274,0.099
		c-2.117,0.616-4.076,1.592-6.026,2.592c-0.533,0.273-0.531,0.28-0.794-0.238c-1.533-3.025-2.213-6.24-1.887-9.606
		c0.407-4.204,2.401-7.512,5.971-9.825c1.825-1.182,3.819-1.361,5.895-0.933C81.295,15.138,81.897,15.586,82.343,16.159z
		 M90.318,5.446c0.071-0.973,0.147-1.865,0.2-2.758c0.071-1.201,0.128-2.403,0.186-3.605c0.113-2.376,0.23-4.751,0.32-7.128
		c0.008-0.205-0.112-0.497-0.272-0.612c-0.939-0.676-1.57-1.524-1.744-2.694c-0.024-0.163-0.201-0.357-0.357-0.437
		c-0.626-0.319-1.293-0.397-1.984-0.233c-2.313,0.549-4.108,1.798-5,4.041c-0.984,2.475-0.543,4.869,0.894,7.044
		c1.828,2.768,4.389,4.719,7.314,6.218C89.986,5.34,90.111,5.371,90.318,5.446z M93.537,12.786
		c-0.015,0.143-0.036,0.242-0.033,0.341c0.032,1.204,0.043,2.409,0.108,3.611c0.057,1.055,0.138,2.112,0.273,3.159
		c0.288,2.239,0.605,4.474,0.937,6.707c0.106,0.713,0.251,1.428,0.46,2.116c0.218,0.716,0.746,0.848,1.351,0.395
		c0.208-0.156,0.396-0.341,0.575-0.529c1.036-1.084,1.649-2.409,2.138-3.8c0.834-2.374,0.894-4.715-0.354-6.981
		c-1.193-2.167-2.991-3.708-5.119-4.902C93.78,12.85,93.667,12.83,93.537,12.786z M91.285,29.721
		c0.092-0.084,0.144-0.116,0.174-0.163c0.071-0.109,0.133-0.224,0.196-0.339c0.544-0.988,0.515-2.068,0.481-3.141
		c-0.091-2.871-0.201-5.741-0.303-8.612c-0.061-1.711-0.122-3.422-0.187-5.132c-0.003-0.082-0.05-0.163-0.076-0.244
		c-0.118,0.174-0.144,0.338-0.155,0.504c-0.065,1.012-0.124,2.025-0.188,3.038c-0.112,1.765-0.227,3.53-0.338,5.295
		c-0.067,1.056-0.141,2.112-0.191,3.168c-0.063,1.317-0.144,2.635-0.139,3.952C90.56,28.653,90.841,29.216,91.285,29.721z
		 M93.854-11.896c0.006-0.789-0.512-1.335-1.274-1.343c-0.754-0.007-1.341,0.559-1.342,1.295c-0.001,0.74,0.545,1.298,1.274,1.305
		C93.328-10.631,93.848-11.119,93.854-11.896z"/>
	<path id="XMLID_92_" class="st2" d="M77.016,42.872c1.488-0.665,2.857-1.188,4.339-1.397c1.987-0.28,3.856,0.156,5.703,0.818
		c1.298,0.465,2.623,0.844,4.014,0.884c1.287,0.037,2.531-0.223,3.756-0.611c1.117-0.354,2.229-0.744,3.371-0.993
		c1.765-0.386,3.517-0.192,5.221,0.402c0.655,0.228,1.3,0.482,2.053,0.762c-0.22,0.17-0.359,0.283-0.504,0.387
		c-3.51,2.513-7.305,4.442-11.48,5.587c-0.767,0.21-1.546,0.398-2.332,0.51c-0.352,0.05-0.742-0.082-1.101-0.18
		c-3.854-1.059-7.517-2.567-10.902-4.712C78.459,43.891,77.795,43.405,77.016,42.872z"/>
	<path id="XMLID_91_" class="st2" d="M71.826,37.474c0.453-0.235,0.846-0.445,1.243-0.645c1.906-0.961,3.841-1.858,5.943-2.306
		c2.287-0.487,4.545-0.371,6.774,0.372c1.181,0.394,2.369,0.784,3.578,1.073c1.823,0.436,3.624,0.208,5.394-0.37
		c1.17-0.382,2.335-0.803,3.532-1.074c2.495-0.565,4.971-0.356,7.349,0.568c1.793,0.698,3.535,1.529,5.416,2.353
		c-0.433,0.489-0.75,0.875-1.104,1.223c-0.062,0.061-0.294-0.012-0.427-0.07c-1.339-0.593-2.647-1.264-4.014-1.782
		c-3.394-1.284-6.798-1.199-10.203,0.041c-0.974,0.355-1.998,0.589-3.014,0.807c-1.164,0.25-2.306,0.012-3.428-0.321
		c-1.388-0.412-2.754-0.931-4.167-1.217c-2.324-0.471-4.659-0.338-6.894,0.493c-1.559,0.579-3.07,1.291-4.587,1.977
		c-0.328,0.149-0.511,0.151-0.704-0.162C72.318,38.118,72.082,37.827,71.826,37.474z"/>
	<path id="XMLID_90_" class="st2" d="M108.426,40.225c-0.424,0.383-0.806,0.757-1.224,1.084c-0.092,0.072-0.322,0.013-0.47-0.039
		c-1.323-0.467-2.618-1.029-3.966-1.404c-2.424-0.675-4.809-0.358-7.169,0.453c-1.144,0.393-2.337,0.655-3.519,0.925
		c-1.066,0.243-2.103-0.032-3.122-0.326c-1.266-0.366-2.509-0.817-3.786-1.134c-2.138-0.53-4.265-0.309-6.336,0.368
		c-1.044,0.341-2.05,0.801-3.063,1.23c-0.246,0.104-0.412,0.128-0.61-0.084c-0.314-0.338-0.658-0.648-1.068-1.046
		c0.099-0.04,0.155-0.057,0.206-0.084c1.761-0.931,3.572-1.734,5.53-2.162c2.184-0.478,4.308-0.256,6.411,0.473
		c1.133,0.393,2.285,0.78,3.461,0.981c1.444,0.247,2.916,0.23,4.348-0.215c1.355-0.421,2.699-0.89,4.075-1.228
		c2.094-0.514,4.185-0.324,6.201,0.395c1.294,0.461,2.537,1.064,3.801,1.607C108.214,40.056,108.287,40.128,108.426,40.225z"/>
</g>
<g id="XMLID_50_">
	
		<linearGradient id="XMLID_4_" gradientUnits="userSpaceOnUse" x1="102.761" y1="15.1115" x2="144.365" y2="15.1115" gradientTransform="matrix(-1 0 0 1 252.364 1.935)">
		<stop  offset="0" style="stop-color:#00FF00;stop-opacity:0"/>
		<stop  offset="0.3" style="stop-color:#00FF00"/>
	</linearGradient>
	<rect id="XMLID_53_" x="107.999" y="12.457" class="st3" width="41.604" height="9.179"/>
	<polygon id="XMLID_52_" class="st4" points="115.945,3.985 128.653,3.985 115.47,17.046 102.761,17.046 	"/>
	<polygon id="XMLID_51_" class="st4" points="115.47,16.87 102.761,16.87 115.945,29.932 128.653,29.932 	"/>
</g>
<g id="XMLID_1_">
</g>
<g id="XMLID_124_">
</g>
<g id="XMLID_125_">
</g>
<g id="XMLID_126_">
</g>
<g id="XMLID_127_">
</g>
<g id="XMLID_128_">
</g>
<g>
	<path d="M190.43,2.582h1.439v11.459h-2.729V3.751h-3.03c2.49-2.61,4.17-5.67,5.55-8.73h2.82
		C193.43-2.338,192.08,0.182,190.43,2.582z M189.529-5.188H186.2c2.069-2.1,3.449-4.59,4.739-7.05h3
		C192.739-9.778,191.3-7.408,189.529-5.188z M193.699,14.041v-2.13h8.04v-8.13h-6.689v-2.16h6.689v-7.53h-7.38v-2.1h6.93
		c-0.39-0.9-1.26-3.12-1.5-4.23h2.79c0.3,1.26,1.14,3.42,1.56,4.2h7.5v2.13h-7.109v7.53h6.39v2.13h-6.39v8.16h7.829v2.13H193.699z"
		/>
	<path d="M218.99,11.221h-2.73c1.32-4.17,2.04-8.52,2.61-12.99h2.52C220.82,2.671,220.1,7.021,218.99,11.221z M225.229-3.178v17.159
		h-2.55V-3.178h-6.239v-2.07h6.239v-3.78c-1.439,0.09-4.02,0.27-5.43,0.36v-2.19c4.35,0,8.52-0.51,12.51-1.41v2.22
		c-1.021,0.21-3.15,0.54-4.53,0.69v4.11h5.34v2.07H225.229z M228.859,11.221c-0.99-4.08-1.77-8.97-2.189-12.99h2.43
		c0.479,4.47,1.26,8.82,2.46,12.99H228.859z M232.52,7.351v-18.149h2.67V7.351H232.52z M241.129,13.171
		c-0.51,0.51-1.229,0.81-2.069,0.81h-4.17l-0.84-2.07h4.409c0.391,0,0.69-0.33,0.69-0.78v-23.309h2.699v23.519
		C241.849,12.091,241.579,12.721,241.129,13.171z"/>
	<path d="M250.13,13.111h-4.08c2.46-1.71,4.561-4.29,6.06-6.75h3.36C254.06,8.761,252.35,11.161,250.13,13.111z M260.63-7.978v2.04
		h7.529c0.84,0,1.53,0.27,2.01,0.72c0.54,0.51,0.811,1.23,0.811,2.04v5.55c0,0.84-0.301,1.5-0.78,1.95
		c-0.54,0.51-1.32,0.75-2.16,0.75h-7.409v9h-2.73v-9h-7.649c-0.72,0-1.35-0.27-1.8-0.69c-0.51-0.51-0.811-1.17-0.811-1.83v-5.82
		c0-0.72,0.301-1.47,0.9-2.01c0.45-0.39,1.05-0.66,1.8-0.66h7.56v-2.04H246.17v-2.07h11.729v-2.1h2.73v2.1h11.669v2.07H260.63z
		 M257.899-3.898h-6.72c-0.54,0-0.84,0.39-0.84,0.84v1.53h7.56V-3.898z M257.899,0.481h-7.56v1.8c0,0.45,0.39,0.75,0.87,0.75h6.689
		V0.481z M268.219-3.208c0-0.39-0.329-0.69-0.869-0.69h-6.72v2.37l7.589-0.03V-3.208z M268.219,0.481h-7.589v2.55h6.839
		c0.421,0,0.75-0.3,0.75-0.81V0.481z M268.609,13.111c-2.25-1.98-3.9-4.41-5.25-6.75h3.359c1.381,2.43,3.721,5.28,6.15,6.75H268.609
		z"/>
</g>
<g>
	<path d="M187.672,29.047V40.66h-1.638V29.047h-4.483v-1.279h10.515v1.279H187.672z"/>
	<path d="M199.156,40.516c-1.08,0.45-2.557,0.396-3.637-0.072c-1.08-0.468-1.891-1.296-2.251-2.448
		c-0.396-1.297-0.378-3.151,0.162-4.375c0.486-1.135,1.404-1.927,2.593-2.269c1.171-0.343,2.539-0.234,3.547,0.323
		c1.063,0.595,1.585,1.333,1.909,2.467c0.342,1.207,0.342,2.575,0.036,3.764C201.228,39.039,200.255,40.065,199.156,40.516z
		 M197.194,32.413c-0.99,0.036-1.999,0.702-2.305,1.675c-0.343,1.116-0.307,2.449-0.036,3.619c0.198,0.918,1.08,1.675,1.998,1.818
		c1.045,0.162,2.305-0.162,2.81-1.188c0.647-1.314,0.594-3.187,0.071-4.501C199.337,32.827,198.256,32.359,197.194,32.413z"/>
	<path d="M209.595,40.642c-0.468,0-0.811-0.162-1.026-0.414c-0.198-0.233-0.288-0.54-0.288-0.882V27.768h1.621v11.128
		c0,0.252,0.216,0.504,0.468,0.504h6.338v1.242H209.595z"/>
	<path d="M224.878,40.3c-0.738,0.486-2.034,0.63-3.061,0.54c-1.152-0.108-2.179-0.576-2.863-1.549
		c-0.666-0.936-1.008-2.178-0.99-3.402c0-1.026,0.252-2.017,0.721-2.845c0.774-1.351,2.16-1.909,3.619-1.927
		c1.332-0.019,2.341,0.342,3.133,1.242c0.685,0.774,1.026,1.999,0.973,3.025c-0.036,0.611-0.396,0.899-0.991,0.899h-5.779
		c0.108,1.099,0.45,2.161,1.278,2.827c0.504,0.414,1.135,0.522,1.782,0.486c0.522-0.036,1.009-0.198,1.387-0.576
		s0.595-0.918,0.702-1.387h1.782C226.354,38.535,225.778,39.706,224.878,40.3z M223.906,32.773
		c-0.721-0.504-1.783-0.468-2.575-0.216c-1.063,0.324-1.584,1.458-1.62,2.467h4.808c0.233,0,0.342-0.198,0.342-0.396
		C224.86,33.98,224.464,33.17,223.906,32.773z"/>
	<path d="M228.944,29.461v-1.675h1.657v1.675H228.944z M228.944,40.642v-9.345h1.657v9.345H228.944z"/>
	<path d="M243.725,29.047V40.66h-1.639V29.047h-4.483v-1.279h10.515v1.279H243.725z"/>
	<path d="M255.677,40.66v-1.188c-0.54,0.72-1.332,1.188-2.215,1.332c-0.918,0.145-1.927-0.018-2.683-0.576
		c-0.738-0.558-1.206-1.458-1.206-2.557v-6.374h1.656v6.59c0,0.559,0.288,1.171,0.774,1.477c0.45,0.288,1.044,0.307,1.548,0.162
		c0.9-0.234,1.747-0.972,2.125-1.801v-6.428h1.639l-0.019,9.363H255.677z"/>
	<path d="M265.324,40.66v-6.068c0-0.846-0.252-1.765-1.08-2.088c-0.721-0.271-1.585-0.145-2.232,0.252
		c-0.811,0.485-1.081,1.224-1.081,2.124v5.78h-1.62v-9.363h1.404v1.063c0.504-0.612,1.099-0.973,2.017-1.152
		c1.045-0.198,2.287,0.036,3.043,0.612c0.883,0.666,1.17,1.44,1.17,2.503v6.338H265.324z"/>
	<path d="M275.764,43.127c-0.684,0.773-1.71,1.116-2.719,1.206c-0.846,0.072-2.143-0.036-2.898-0.486
		c-0.847-0.486-1.404-1.458-1.44-2.412h1.584c0.036,0.702,0.469,1.332,1.045,1.476c0.666,0.162,1.332,0.198,1.872,0.126
		c0.612-0.09,1.242-0.432,1.566-1.098c0.378-0.738,0.343-1.585,0.343-2.485c-0.559,0.576-1.243,0.955-1.999,1.117
		c-1.008,0.216-2.053,0.035-2.898-0.576c-0.685-0.505-1.225-1.243-1.459-1.981c-0.342-1.08-0.432-2.395-0.18-3.564
		c0.216-0.937,0.666-1.818,1.404-2.449c0.685-0.594,1.639-0.882,2.557-0.846c1.026,0.054,1.873,0.54,2.575,1.296v-1.152h1.566v9.039
		C276.683,41.38,276.412,42.389,275.764,43.127z M274.54,33.494c-0.505-0.685-1.225-1.045-2.017-1.045
		c-0.864,0.019-1.566,0.45-1.999,1.225c-0.559,1.008-0.576,3.151-0.126,4.177c0.378,0.883,1.099,1.477,2.07,1.513
		c0.99,0.036,1.819-0.486,2.269-1.351C275.313,36.897,275.332,34.556,274.54,33.494z"/>
</g>
</svg>
