<?xml version="1.0" encoding="utf-8"?>
<!-- Generator: Adobe Illustrator 19.0.0, SVG Export Plug-In . SVG Version: 6.00 Build 0)  -->
<svg version="1.1" id="圖層_1" xmlns="http://www.w3.org/2000/svg" xmlns:xlink="http://www.w3.org/1999/xlink" x="0px" y="0px"
	 viewBox="50 -26.019 272.126 85.039" style="enable-background:new 50 -26.019 272.126 85.039;" xml:space="preserve">
<style type="text/css">
	.st0{fill:url(#XMLID_3_);}
	.st1{fill:#ECECEC;}
	.st2{fill:#0079C4;}
	.st3{fill:url(#XMLID_4_);}
	.st4{fill:#00FF00;}
</style>
<radialGradient id="XMLID_3_" cx="186.1066" cy="15.3782" r="100.9042" gradientTransform="matrix(0.9998 0 0 -0.9905 -0.0064 31.7326)" gradientUnits="userSpaceOnUse">
	<stop  offset="0.2193" style="stop-color:#00FF00;stop-opacity:0"/>
	<stop  offset="1" style="stop-color:#035353"/>
</radialGradient>
<path id="XMLID_63_" class="st0" d="M310.805,59.02H61.321C55.069,59.02,50,53.951,50,47.699v-62.397
	c0-6.252,5.069-11.321,11.321-11.321h249.484c6.252,0,11.321,5.069,11.321,11.321v62.397
	C322.126,53.951,317.058,59.02,310.805,59.02z"/>
<path id="XMLID_62_" class="st1" d="M305.854,53.976H66.272c-5.742,0-10.396-4.655-10.396-10.396v-54.159
	c0-5.742,4.655-10.396,10.396-10.396h239.582c5.742,0,10.396,4.655,10.396,10.396V43.58
	C316.25,49.321,311.596,53.976,305.854,53.976z"/>
<g id="XMLID_31_">
	<path id="XMLID_93_" class="st2" d="M82.343,16.159c-0.866,0.267-1.745,0.433-2.53,0.8c-1.646,0.771-2.42,2.152-2.529,3.958
		c-0.138,2.281,0.934,3.986,2.528,5.438c1.392,1.268,2.976,2.268,4.641,3.137c0.266,0.139,0.561,0.258,0.854,0.298
		c0.859,0.116,1.399-0.112,1.719-0.924c0.397-1.004,0.741-2.05,0.935-3.109c0.521-2.845,0.994-5.702,1.401-8.566
		c0.258-1.819,0.356-3.661,0.545-5.491c0.046-0.448-0.092-0.695-0.502-0.918c-2.562-1.395-4.936-3.053-6.955-5.181
		c-2.222-2.343-3.827-5.022-4.436-8.234c-0.549-2.896-0.252-5.647,1.556-8.079c1.893-2.546,4.413-4.156,7.563-4.597
		c1.037-0.145,2.13,0.114,3.198,0.17c0.293,0.015,0.62,0.041,0.88-0.064c2.289-0.928,4.72,0.466,5.108,2.903
		c0.272,1.708-0.878,3.25-2.085,3.819c-0.33,0.155-0.471,0.332-0.485,0.714c-0.061,1.651-0.204,3.3-0.239,4.952
		c-0.063,2.93-0.062,5.862-0.112,8.793c-0.007,0.399,0.136,0.533,0.493,0.656c2.288,0.787,4.608,1.503,6.838,2.434
		c3.712,1.551,7.191,3.529,10.202,6.245c1.796,1.621,3.287,3.475,4.282,5.701c1.253,2.802,1.199,5.658,0.322,8.534
		c-0.679,2.227-1.789,4.244-3.117,6.148c-0.191,0.274-0.343,0.288-0.632,0.136c-2.171-1.139-4.35-2.261-6.735-2.908
		c-1.607-0.436-3.242-0.651-4.903-0.563c-1.632,0.086-3.194,0.517-4.738,1.038c-0.904,0.305-1.82,0.605-2.755,0.778
		c-1.235,0.229-2.482,0.16-3.695-0.231c-1.103-0.355-2.199-0.735-3.313-1.053c-2.764-0.789-5.523-0.702-8.274,0.099
		c-2.117,0.616-4.076,1.592-6.026,2.592c-0.533,0.273-0.531,0.28-0.794-0.238c-1.533-3.025-2.213-6.24-1.887-9.606
		c0.407-4.204,2.401-7.512,5.971-9.825c1.825-1.182,3.819-1.361,5.895-0.933C81.295,15.138,81.897,15.586,82.343,16.159z
		 M90.318,5.446c0.071-0.973,0.147-1.865,0.2-2.758c0.071-1.201,0.128-2.403,0.186-3.605c0.113-2.376,0.23-4.751,0.32-7.128
		c0.008-0.205-0.112-0.497-0.272-0.612c-0.939-0.676-1.57-1.524-1.744-2.694c-0.024-0.163-0.201-0.357-0.357-0.437
		c-0.626-0.319-1.293-0.397-1.984-0.233c-2.313,0.549-4.108,1.798-5,4.041c-0.984,2.475-0.543,4.869,0.894,7.044
		c1.828,2.768,4.389,4.719,7.314,6.218C89.986,5.34,90.111,5.371,90.318,5.446z M93.537,12.786
		c-0.015,0.143-0.036,0.242-0.033,0.341c0.032,1.204,0.043,2.409,0.108,3.611c0.057,1.055,0.138,2.112,0.273,3.159
		c0.288,2.239,0.605,4.474,0.937,6.707c0.106,0.713,0.251,1.428,0.46,2.116c0.218,0.716,0.746,0.848,1.351,0.395
		c0.208-0.156,0.396-0.341,0.575-0.529c1.036-1.084,1.649-2.409,2.138-3.8c0.834-2.374,0.894-4.715-0.354-6.981
		c-1.193-2.167-2.991-3.708-5.119-4.902C93.78,12.85,93.667,12.83,93.537,12.786z M91.285,29.721
		c0.092-0.084,0.144-0.116,0.174-0.163c0.071-0.109,0.133-0.224,0.196-0.339c0.544-0.988,0.515-2.068,0.481-3.141
		c-0.091-2.871-0.201-5.741-0.303-8.612c-0.061-1.711-0.122-3.422-0.187-5.132c-0.003-0.082-0.05-0.163-0.076-0.244
		c-0.118,0.174-0.144,0.338-0.155,0.504c-0.065,1.012-0.124,2.025-0.188,3.038c-0.112,1.765-0.227,3.53-0.338,5.295
		c-0.067,1.056-0.141,2.112-0.191,3.168c-0.063,1.317-0.144,2.635-0.139,3.952C90.56,28.653,90.841,29.216,91.285,29.721z
		 M93.854-11.896c0.006-0.789-0.512-1.335-1.274-1.343c-0.754-0.007-1.341,0.559-1.342,1.295c-0.001,0.74,0.545,1.298,1.274,1.305
		C93.328-10.631,93.848-11.119,93.854-11.896z"/>
	<path id="XMLID_92_" class="st2" d="M77.016,42.872c1.488-0.665,2.857-1.188,4.339-1.397c1.987-0.28,3.856,0.156,5.703,0.818
		c1.298,0.465,2.623,0.844,4.014,0.884c1.287,0.037,2.531-0.223,3.756-0.611c1.117-0.354,2.229-0.744,3.371-0.993
		c1.765-0.386,3.517-0.192,5.221,0.402c0.655,0.228,1.3,0.482,2.053,0.762c-0.22,0.17-0.359,0.283-0.504,0.387
		c-3.51,2.513-7.305,4.442-11.48,5.587c-0.767,0.21-1.546,0.398-2.332,0.51c-0.352,0.05-0.742-0.082-1.101-0.18
		c-3.854-1.059-7.517-2.567-10.902-4.712C78.459,43.891,77.795,43.405,77.016,42.872z"/>
	<path id="XMLID_91_" class="st2" d="M71.826,37.474c0.453-0.235,0.846-0.445,1.243-0.645c1.906-0.961,3.841-1.858,5.943-2.306
		c2.287-0.487,4.545-0.371,6.774,0.372c1.181,0.394,2.369,0.784,3.578,1.073c1.823,0.436,3.624,0.208,5.394-0.37
		c1.17-0.382,2.335-0.803,3.532-1.074c2.495-0.565,4.971-0.356,7.349,0.568c1.793,0.698,3.535,1.529,5.416,2.353
		c-0.433,0.489-0.75,0.875-1.104,1.223c-0.062,0.061-0.294-0.012-0.427-0.07c-1.339-0.593-2.647-1.264-4.014-1.782
		c-3.394-1.284-6.798-1.199-10.203,0.041c-0.974,0.355-1.998,0.589-3.014,0.807c-1.164,0.25-2.306,0.012-3.428-0.321
		c-1.388-0.412-2.754-0.931-4.167-1.217c-2.324-0.471-4.659-0.338-6.894,0.493c-1.559,0.579-3.07,1.291-4.587,1.977
		c-0.328,0.149-0.511,0.151-0.704-0.162C72.318,38.118,72.082,37.827,71.826,37.474z"/>
	<path id="XMLID_90_" class="st2" d="M108.426,40.225c-0.424,0.383-0.806,0.757-1.224,1.084c-0.092,0.072-0.322,0.013-0.47-0.039
		c-1.323-0.467-2.618-1.029-3.966-1.404c-2.424-0.675-4.809-0.358-7.169,0.453c-1.144,0.393-2.337,0.655-3.519,0.925
		c-1.066,0.243-2.103-0.032-3.122-0.326c-1.266-0.366-2.509-0.817-3.786-1.134c-2.138-0.53-4.265-0.309-6.336,0.368
		c-1.044,0.341-2.05,0.801-3.063,1.23c-0.246,0.104-0.412,0.128-0.61-0.084c-0.314-0.338-0.658-0.648-1.068-1.046
		c0.099-0.04,0.155-0.057,0.206-0.084c1.761-0.931,3.572-1.734,5.53-2.162c2.184-0.478,4.308-0.256,6.411,0.473
		c1.133,0.393,2.285,0.78,3.461,0.981c1.444,0.247,2.916,0.23,4.348-0.215c1.355-0.421,2.699-0.89,4.075-1.228
		c2.094-0.514,4.185-0.324,6.201,0.395c1.294,0.461,2.537,1.064,3.801,1.607C108.214,40.056,108.287,40.128,108.426,40.225z"/>
</g>
<g id="XMLID_50_">
	
		<linearGradient id="XMLID_4_" gradientUnits="userSpaceOnUse" x1="102.761" y1="15.1115" x2="144.365" y2="15.1115" gradientTransform="matrix(-1 0 0 1 252.364 1.935)">
		<stop  offset="0" style="stop-color:#00FF00;stop-opacity:0"/>
		<stop  offset="0.3" style="stop-color:#00FF00"/>
	</linearGradient>
	<rect id="XMLID_53_" x="107.999" y="12.457" class="st3" width="41.604" height="9.179"/>
	<polygon id="XMLID_52_" class="st4" points="115.945,3.985 128.653,3.985 115.47,17.046 102.761,17.046 	"/>
	<polygon id="XMLID_51_" class="st4" points="115.47,16.87 102.761,16.87 115.945,29.932 128.653,29.932 	"/>
</g>
<g id="XMLID_1_">
</g>
<g id="XMLID_124_">
</g>
<g id="XMLID_125_">
</g>
<g id="XMLID_126_">
</g>
<g id="XMLID_127_">
</g>
<g id="XMLID_128_">
</g>
<g>
	<path d="M154.804,4.233h1.2v9.548h-2.274V5.208h-2.524c2.075-2.174,3.474-4.724,4.624-7.273h2.349
		C157.303,0.134,156.179,2.233,154.804,4.233z M154.054-2.24h-2.774c1.725-1.75,2.874-3.824,3.949-5.874h2.5
		C156.729-6.064,155.529-4.09,154.054-2.24z M157.528,13.781v-1.775h6.698V5.233h-5.574v-1.8h5.574V-2.84h-6.148v-1.75h5.773
		c-0.325-0.75-1.05-2.6-1.25-3.524h2.324c0.25,1.05,0.95,2.85,1.3,3.5h6.249v1.774h-5.924v6.273h5.324v1.774h-5.324v6.798h6.523
		v1.775H157.528z"/>
	<path d="M185.328,5.233c-0.4,0.35-0.95,0.525-1.475,0.525h-1.4v7.973h-2.225V5.758h-1.274c-0.75,0-1.325-0.225-1.725-0.65
		c-0.4-0.425-0.6-1.025-0.6-1.825v-8.848c0-0.575,0.275-1.075,0.675-1.425c0.375-0.35,0.85-0.55,1.3-0.55h5.324
		c0.6,0,1.125,0.225,1.5,0.6c0.375,0.375,0.6,0.9,0.6,1.5v9.047C186.027,4.333,185.752,4.858,185.328,5.233z M180.229-5.915h-1.075
		c-0.225,0-0.475,0.2-0.475,0.475v3.724h1.549V-5.915z M180.229-0.091h-1.549v3.699c0,0.3,0.225,0.525,0.5,0.525h1.05V-0.091z
		 M184.028-5.39c0-0.275-0.225-0.525-0.5-0.525h-1.075v4.199h1.575V-5.39z M184.028-0.091h-1.575v4.224h1.075
		c0.275,0,0.5-0.225,0.5-0.525V-0.091z M186.852,13.206h-2.124c0.625-1.549,1.075-3.749,1.274-5.548h1.875
		C187.752,9.532,187.352,11.456,186.852,13.206z M197.524,13.156c-0.35,0.35-0.875,0.575-1.475,0.575h-1.524l-0.7-1.6h1.649
		c0.25,0,0.45-0.2,0.45-0.475V7.332c0-0.3-0.275-0.6-0.65-0.6h-6.298c-0.476,0-0.925-0.225-1.275-0.6
		c-0.324-0.35-0.55-0.85-0.55-1.424v-9.273c0-0.525,0.226-1,0.575-1.35c0.35-0.375,0.85-0.6,1.35-0.6h1.225
		c0.2-0.375,0.5-1.024,0.725-1.6h2.524c-0.199,0.475-0.574,1.3-0.749,1.6h2.524c0.6,0,1.074,0.15,1.399,0.475
		c0.375,0.325,0.574,0.875,0.574,1.575v3.274c0,0.575-0.249,1.075-0.649,1.425c-0.375,0.35-0.875,0.55-1.399,0.55h-5.949v1.425
		h8.773v1.524h-8.773v0.925c0,0.3,0.25,0.575,0.575,0.575h6.023c0.7,0,1.225,0.25,1.6,0.65c0.375,0.425,0.6,1,0.6,1.625v4.299
		C198.099,12.331,197.874,12.806,197.524,13.156z M188.977,13.206c-0.25-1.625-0.525-3.724-0.6-5.548h1.699
		c0.05,1.6,0.5,4.399,0.774,5.548H188.977z M195.125-4.39c0-0.35-0.2-0.575-0.525-0.575h-4.724c-0.274,0-0.575,0.25-0.575,0.575
		v0.675h5.824V-4.39z M195.125-2.141h-5.824v1.325h5.374c0.325,0,0.45-0.225,0.45-0.5V-2.141z M191.7,13.206
		c-0.3-1.225-0.749-3.874-0.85-5.548h1.725c0.2,1.549,0.476,3.799,0.925,5.548H191.7z M193.825,11.056
		c-0.175-0.775-0.5-2.599-0.6-3.399h1.725c0.1,1.175,0.375,2.399,0.6,3.399H193.825z"/>
	<path d="M207.803,13.031c-0.375,0.45-0.949,0.725-1.649,0.725h-1.1l-0.725-1.75h1.299c0.275,0,0.5-0.2,0.5-0.5V5.908h-2.1
		c-0.074,2.674-0.274,5.349-0.774,7.848h-2.149c0.7-2.924,0.774-5.849,0.774-8.923V-5.89c0-0.575,0.226-1.05,0.601-1.375
		c0.375-0.35,0.899-0.525,1.424-0.525h2.5c0.6,0,1.1,0.3,1.425,0.725c0.274,0.35,0.425,0.8,0.425,1.275v17.371
		C208.253,12.156,208.103,12.656,207.803,13.031z M206.128-5.564c0-0.25-0.199-0.425-0.449-0.425h-1.25
		c-0.175,0-0.425,0.2-0.425,0.425v3.674h2.124V-5.564z M206.128-0.091h-2.124c0.024,1.125,0.05,3.374,0.024,4.224h2.1V-0.091z
		 M210.302,10.906h-1.799c0.8-3.174,0.949-6.673,0.975-10.147h1.699C211.202,4.208,210.952,7.632,210.302,10.906z M213.826-0.641
		v14.396h-2.024V-0.641h-3.024v-1.725h3.024V-5.54c-0.75,0.1-2.1,0.25-2.799,0.3v-1.725c2.024-0.2,5.299-0.6,7.148-1.15v1.825
		c-0.625,0.125-1.825,0.35-2.325,0.45v3.474h2.475v1.725H213.826z M215.126,8.032c-0.425-2.35-0.574-4.824-0.725-7.273h1.649
		c0.175,2.375,0.4,5.224,0.875,7.273H215.126z M217.051,8.582V-6.79h1.975V8.582H217.051z M222.05,13.281
		c-0.4,0.3-0.975,0.475-1.649,0.475h-2.1l-0.825-1.825h2.55c0.274,0,0.574-0.2,0.574-0.575V-8.189h2.149v20.02
		C222.749,12.431,222.499,12.931,222.05,13.281z"/>
	<path d="M228.754,13.781h-2.624c1.649-2.924,2.649-6.099,3.474-9.373h2.274C231.028,7.607,230.104,10.781,228.754,13.781z
		 M229.354-2.89c-1.199-1.675-2.299-3.399-3.148-5.224h2.524c0.749,1.55,1.899,3.524,3.424,5.224H229.354z M228.854,2.983
		c-0.925-1.35-2.025-3.274-2.625-4.899h2.449c0.65,1.45,1.725,3.449,2.824,4.899H228.854z M233.578,3.583h-1.899
		c0.649-1.924,0.899-4.624,0.975-6.598h1.725C234.353-1.016,234.053,1.634,233.578,3.583z M234.753,13.781h-2.699
		c2.549-3.549,2.773-8.173,2.773-12.722v-9.173h2.075V2.908C236.902,6.532,236.627,10.682,234.753,13.781z M238.252,3.583
		c-0.4-2.149-0.6-4.324-0.75-6.598h1.6c0.15,2.25,0.399,4.474,0.875,6.598H238.252z M240.201,12.606v-20.07h2.149v20.07H240.201z
		 M243.601,3.583c-0.325-1.949-0.6-4.524-0.775-6.598h1.625c0.15,1.875,0.5,4.524,0.975,6.598H243.601z M245.675,13.781V-8.114
		h2.149v21.895H245.675z"/>
	<path d="M255.91,5.671c-0.391,1.485-0.33,3.09,0.149,4.544c0.465,1.44,1.32,2.715,2.37,3.9h-1.77c-0.84-1.08-1.5-2.325-1.905-3.63
		c-0.495-1.62-0.615-3.345-0.165-5.084c0.375-1.5,1.17-2.835,2.16-4.08h1.755C257.274,2.626,256.345,4.051,255.91,5.671z"/>
	<path d="M261.16,11.851h-1.365c0.66-2.085,1.021-4.26,1.305-6.495h1.261C262.075,7.576,261.715,9.751,261.16,11.851z M264.28,4.651
		v8.58h-1.275v-8.58h-3.12V3.616h3.12v-1.89c-0.72,0.045-2.01,0.135-2.715,0.18V0.812c2.175,0,4.26-0.255,6.255-0.705v1.11
		c-0.51,0.105-1.575,0.27-2.265,0.345v2.055h2.67v1.035H264.28z M266.095,11.851C265.6,9.811,265.21,7.366,265,5.356h1.215
		c0.24,2.235,0.63,4.41,1.229,6.495H266.095z M267.925,9.916V0.841h1.335v9.075H267.925z M272.229,12.826
		c-0.255,0.255-0.615,0.405-1.035,0.405h-2.085l-0.42-1.035h2.205c0.195,0,0.345-0.165,0.345-0.39V0.151h1.351v11.76
		C272.59,12.286,272.454,12.601,272.229,12.826z"/>
	<path d="M276.835,12.766h-2.01c1.29-1.095,2.37-2.355,3.165-3.735h1.649C278.905,10.366,278.005,11.656,276.835,12.766z
		 M278.064,6.571c-0.119-0.255-0.21-0.555-0.255-0.78l-0.435,0.78h-1.725c-0.391,0-0.63-0.165-0.735-0.39
		c-0.12-0.255-0.075-0.585,0.12-0.84l1.35-1.83h-0.689c-0.405,0-0.63-0.15-0.735-0.36c-0.149-0.285-0.075-0.66,0.12-0.915
		l1.53-2.145h1.545l-1.71,2.415h0.66l0.51-0.675h1.545l-2.745,3.765h1.335c-0.06-0.42-0.135-0.915-0.165-1.335h1.185
		c0.061,0.81,0.256,1.575,0.511,2.31H278.064z M281.979,8.611v4.62h-1.364v-4.62h-5.67v-1.02h5.67v-0.81h1.364v0.81h5.67v1.02
		H281.979z M282.925,6.166c-0.195,0.18-0.495,0.3-0.9,0.3h-1.665c-0.27,0-0.524-0.12-0.704-0.3c-0.195-0.18-0.315-0.45-0.315-0.735
		V1.966c0-0.3,0.135-0.54,0.33-0.705c0.225-0.195,0.51-0.3,0.75-0.3c0.045-0.165,0.18-0.69,0.24-0.87h1.484
		c-0.075,0.225-0.18,0.57-0.27,0.885h0.359c0.301,0,0.54,0.135,0.705,0.33c0.195,0.225,0.3,0.525,0.3,0.795v3.209
		C283.239,5.656,283.135,5.956,282.925,6.166z M281.995,2.326c0-0.21-0.136-0.375-0.36-0.375h-0.72
		c-0.165,0-0.345,0.165-0.345,0.315v0.945h1.425V2.326z M281.995,4.141l-1.425,0.015v1.035c0,0.195,0.149,0.315,0.27,0.315h0.81
		c0.165,0,0.346-0.12,0.346-0.315V4.141z M285.984,12.766c-1.154-1.02-2.189-2.385-2.97-3.705h1.665
		c0.854,1.335,2.01,2.64,3.285,3.705H285.984z M286.585,6.571c-0.091-0.24-0.181-0.51-0.226-0.75l-0.39,0.75h-1.455
		c-0.435,0-0.735-0.135-0.885-0.345c-0.18-0.255-0.135-0.63,0.12-0.99l1.26-1.74h-0.69c-0.375,0-0.645-0.18-0.75-0.435
		c-0.104-0.24-0.074-0.54,0.12-0.81l1.561-2.16h1.529l-1.725,2.415h0.66l0.479-0.675h1.605l-2.745,3.75h1.26
		c-0.075-0.42-0.149-0.885-0.165-1.335h1.186c0.045,0.81,0.255,1.575,0.494,2.325H286.585z"/>
	<path d="M291.625,7.381h0.585v5.879h-1.35v-5.25h-1.155c0.825-1.29,1.455-2.655,1.92-4.08h1.455
		C292.69,5.116,292.225,6.271,291.625,7.381z M291.46,3.631h-1.725c0.899-1.095,1.529-2.235,2.069-3.465h1.516
		C292.825,1.352,292.165,2.642,291.46,3.631z M293.035,12.601v-1.08c0.75-0.06,1.529-0.135,2.279-0.225v-2.31H293.5v-1.05h1.814
		V6.301h1.335v1.635h1.71v1.05h-1.71v2.1c0.585-0.045,1.59-0.21,2.221-0.375v1.08C296.859,12.121,294.85,12.436,293.035,12.601z
		 M301.734,5.101v6.99c0,0.36-0.135,0.63-0.345,0.825c-0.24,0.24-0.585,0.345-0.915,0.345h-1.32l-0.39-1.005h1.26
		c0.15,0,0.36-0.15,0.36-0.39V5.101h-1.665v0.765h-5.55v-0.99h2.115V2.941h-1.86v-1.02h1.86V0.167h1.335v1.755h1.755v1.02h-1.755
		v1.935h1.89V4.081h4.305v1.02H301.734z M298.854,1.711V0.676h3.555v1.035H298.854z"/>
	<path d="M305.74,1.321c0.99,1.245,1.785,2.58,2.16,4.08c0.449,1.74,0.329,3.465-0.165,5.084c-0.405,1.305-1.065,2.55-1.905,3.63
		h-1.77c1.05-1.185,1.904-2.46,2.369-3.9c0.48-1.455,0.54-3.06,0.15-4.544c-0.436-1.62-1.365-3.045-2.595-4.35H305.74z"/>
</g>
<g>
	<path d="M151.759,30.985v9.675h-1.365v-9.675h-3.735V29.92h8.76v1.065H151.759z"/>
	<path d="M161.329,40.54c-0.9,0.375-2.13,0.33-3.03-0.061c-0.9-0.39-1.575-1.079-1.875-2.039c-0.33-1.08-0.315-2.625,0.135-3.646
		c0.405-0.944,1.17-1.604,2.16-1.89c0.975-0.285,2.115-0.195,2.955,0.27c0.885,0.495,1.32,1.11,1.59,2.056
		c0.285,1.005,0.285,2.145,0.03,3.135C163.054,39.31,162.244,40.165,161.329,40.54z M159.694,33.79
		c-0.825,0.03-1.665,0.585-1.92,1.396c-0.285,0.93-0.255,2.039-0.03,3.015c0.165,0.765,0.9,1.395,1.665,1.515
		c0.87,0.135,1.92-0.135,2.34-0.99c0.54-1.095,0.495-2.654,0.06-3.749C161.479,34.135,160.579,33.745,159.694,33.79z"/>
	<path d="M177.454,40.66l-1.35-3.18h-4.8l-1.32,3.18h-1.485l4.455-10.71h1.395l4.62,10.71H177.454z M173.659,31.886l-1.92,4.544
		h3.899L173.659,31.886z"/>
	<path d="M185.389,40.345c-0.585,0.36-1.26,0.51-1.95,0.42c-0.75-0.09-1.47-0.479-1.935-1.125v4.035h-1.335v-10.8h1.335v1.141
		c0.375-0.646,0.99-1.08,1.71-1.23c0.735-0.15,1.53,0.015,2.16,0.405c0.675,0.404,1.034,0.96,1.305,1.68
		c0.45,1.229,0.495,2.625,0.03,3.854C186.453,39.4,186.049,39.939,185.389,40.345z M185.149,34.75c-0.27-0.479-0.81-0.87-1.365-0.93
		c-0.66-0.061-1.245,0.18-1.62,0.72c-0.81,1.14-0.795,2.895-0.18,4.125c0.33,0.645,0.93,1.064,1.68,1.08
		c0.66,0.015,1.275-0.495,1.545-1.05C185.794,37.525,185.794,35.89,185.149,34.75z"/>
	<path d="M193.608,40.645c-0.39,0-0.675-0.135-0.854-0.345c-0.165-0.195-0.24-0.45-0.24-0.734V29.92h1.35v9.271
		c0,0.21,0.181,0.42,0.391,0.42h5.279v1.034H193.608z"/>
	<path d="M206.344,40.36c-0.615,0.404-1.695,0.524-2.55,0.449c-0.96-0.09-1.815-0.479-2.385-1.29
		c-0.556-0.779-0.841-1.814-0.825-2.834c0-0.855,0.21-1.681,0.6-2.37c0.646-1.125,1.8-1.59,3.015-1.605
		c1.11-0.015,1.95,0.285,2.61,1.035c0.57,0.646,0.854,1.665,0.81,2.52c-0.029,0.511-0.33,0.75-0.824,0.75h-4.815
		c0.09,0.915,0.375,1.801,1.065,2.355c0.42,0.345,0.944,0.435,1.484,0.405c0.436-0.03,0.84-0.165,1.155-0.48
		s0.495-0.765,0.585-1.155h1.485C207.573,38.89,207.094,39.865,206.344,40.36z M205.533,34.09c-0.6-0.42-1.484-0.39-2.145-0.18
		c-0.885,0.27-1.32,1.215-1.35,2.055h4.005c0.194,0,0.284-0.165,0.284-0.33C206.328,35.095,205.999,34.42,205.533,34.09z"/>
	<path d="M209.733,31.33v-1.395h1.38v1.395H209.733z M209.733,40.645V32.86h1.38v7.784H209.733z"/>
	<path d="M224.583,40.27c-0.975,0.48-2.25,0.615-3.314,0.466c-1.141-0.15-2.101-0.601-2.865-1.485
		c-0.915-1.05-1.305-2.354-1.32-3.78c-0.029-2.024,0.631-4.034,2.535-5.055c1.32-0.72,3.21-0.824,4.665-0.21
		c1.245,0.525,2.16,1.681,2.64,2.925h-1.545c-0.479-0.915-0.99-1.604-1.965-2.01c-0.795-0.314-1.755-0.39-2.58-0.06
		c-1.814,0.72-2.43,2.534-2.385,4.35c0.045,1.545,0.495,3.015,1.89,3.87c0.99,0.614,2.49,0.645,3.54,0.045
		c0.78-0.45,1.41-1.335,1.681-2.19h1.545C226.713,38.395,225.798,39.67,224.583,40.27z"/>
	<path d="M233.658,40.66v-5.175c0-0.615-0.255-1.141-0.72-1.44c-0.51-0.33-1.125-0.27-1.71-0.149c-0.735,0.149-1.365,0.75-1.65,1.47
		v5.295h-1.319V29.936h1.319v3.824c0.601-0.585,1.351-0.93,2.13-1.005c0.841-0.09,1.785,0.075,2.4,0.63
		c0.54,0.511,0.87,1.245,0.87,1.905v5.37H233.658z"/>
	<path d="M242.103,40.66c-0.135-0.33-0.255-0.721-0.3-1.035c-0.675,0.615-1.515,1.05-2.43,1.155
		c-0.645,0.074-1.365,0.015-1.92-0.285c-0.495-0.271-0.854-0.66-1.02-1.2c-0.181-0.555-0.165-1.2,0.029-1.725
		c0.24-0.615,0.721-1.021,1.365-1.245c0.54-0.195,1.305-0.271,1.935-0.33c0.705-0.06,1.5-0.33,1.92-0.705
		c0.03-0.285,0-0.75-0.284-1.064c-0.271-0.285-0.69-0.436-1.096-0.48c-0.524-0.075-1.185,0.015-1.68,0.225s-0.795,0.631-0.93,1.141
		h-1.41c0.105-0.825,0.795-1.59,1.575-1.965c0.66-0.315,1.665-0.465,2.385-0.436c0.78,0.03,1.62,0.255,2.175,0.825
		c0.45,0.48,0.615,1.11,0.601,1.86c-0.016,0.975-0.016,2.295,0,2.984c0.015,0.75,0.255,1.725,0.555,2.28H242.103z M241.653,36.535
		c-0.54,0.285-1.155,0.495-1.71,0.54c-0.525,0.045-1.035,0.104-1.425,0.24c-0.36,0.135-0.585,0.3-0.735,0.63
		c-0.135,0.314-0.15,0.689-0.045,1.02c0.12,0.345,0.405,0.57,0.75,0.69c0.285,0.09,0.645,0.074,0.96,0.015
		c0.93-0.15,1.694-0.645,2.205-1.439C241.653,37.735,241.653,37,241.653,36.535z"/>
	<path d="M250.098,40.66v-0.99c-0.449,0.6-1.109,0.99-1.845,1.11c-0.765,0.119-1.604-0.016-2.234-0.48
		c-0.615-0.465-1.005-1.215-1.005-2.13v-5.31h1.38v5.489c0,0.466,0.239,0.976,0.645,1.23c0.375,0.24,0.87,0.255,1.29,0.135
		c0.75-0.195,1.455-0.81,1.77-1.5V32.86h1.365l-0.015,7.8H250.098z"/>
	<path d="M256.628,36.122c-0.26,0.99-0.22,2.06,0.1,3.028c0.31,0.96,0.88,1.81,1.579,2.599h-1.18
		c-0.56-0.72-0.999-1.549-1.269-2.418c-0.33-1.08-0.41-2.229-0.11-3.389c0.25-0.999,0.779-1.889,1.439-2.719h1.169
		C257.537,34.094,256.918,35.043,256.628,36.122z"/>
	<path d="M259.738,40.65c-0.261,0-0.45-0.091-0.57-0.23c-0.109-0.13-0.16-0.3-0.16-0.489v-6.427h0.9v6.177
		c0,0.14,0.119,0.279,0.26,0.279h3.518v0.69H259.738z"/>
	<path d="M268.226,40.46c-0.409,0.27-1.129,0.35-1.699,0.3c-0.64-0.06-1.209-0.319-1.589-0.859c-0.37-0.52-0.56-1.209-0.55-1.889
		c0-0.57,0.14-1.12,0.4-1.579c0.43-0.75,1.199-1.06,2.009-1.069c0.739-0.011,1.299,0.189,1.738,0.689
		c0.38,0.43,0.57,1.109,0.54,1.679c-0.02,0.34-0.22,0.5-0.55,0.5h-3.208c0.06,0.609,0.25,1.199,0.71,1.569
		c0.279,0.229,0.629,0.289,0.989,0.27c0.29-0.021,0.56-0.11,0.77-0.32s0.33-0.51,0.39-0.77h0.989
		C269.045,39.48,268.726,40.13,268.226,40.46z M267.686,36.282c-0.399-0.279-0.989-0.26-1.429-0.12
		c-0.59,0.18-0.88,0.81-0.899,1.369h2.668c0.13,0,0.19-0.109,0.19-0.22C268.216,36.952,267.996,36.502,267.686,36.282z"/>
	<path d="M273.786,40.46c-0.409,0.27-1.129,0.35-1.699,0.3c-0.64-0.06-1.209-0.319-1.589-0.859c-0.37-0.52-0.56-1.209-0.55-1.889
		c0-0.57,0.14-1.12,0.4-1.579c0.43-0.75,1.199-1.06,2.009-1.069c0.739-0.011,1.299,0.189,1.738,0.689
		c0.38,0.43,0.57,1.109,0.54,1.679c-0.02,0.34-0.22,0.5-0.55,0.5h-3.208c0.06,0.609,0.25,1.199,0.71,1.569
		c0.279,0.229,0.629,0.289,0.989,0.27c0.29-0.021,0.56-0.11,0.77-0.32s0.33-0.51,0.39-0.77h0.989
		C274.605,39.48,274.286,40.13,273.786,40.46z M273.246,36.282c-0.399-0.279-0.989-0.26-1.429-0.12
		c-0.59,0.18-0.88,0.81-0.899,1.369h2.668c0.13,0,0.19-0.109,0.19-0.22C273.776,36.952,273.557,36.502,273.246,36.282z"/>
	<path d="M279.118,40.65c-0.26,0-0.45-0.091-0.57-0.23c-0.109-0.13-0.16-0.3-0.16-0.489v-6.427h0.9v6.177
		c0,0.14,0.119,0.279,0.26,0.279h3.518v0.69H279.118z"/>
	<path d="M287.136,40.58c-0.6,0.25-1.419,0.22-2.019-0.04s-1.05-0.72-1.25-1.359c-0.22-0.72-0.209-1.749,0.091-2.429
		c0.27-0.63,0.779-1.069,1.438-1.259c0.65-0.19,1.409-0.13,1.97,0.18c0.589,0.33,0.879,0.739,1.059,1.369
		c0.19,0.67,0.19,1.429,0.021,2.089C288.285,39.761,287.745,40.33,287.136,40.58z M286.047,36.082
		c-0.55,0.021-1.109,0.391-1.279,0.93c-0.19,0.62-0.17,1.359-0.021,2.009c0.11,0.51,0.6,0.93,1.109,1.01
		c0.58,0.09,1.279-0.09,1.56-0.659c0.359-0.73,0.329-1.77,0.04-2.499C287.235,36.313,286.636,36.053,286.047,36.082z"/>
	<path d="M292.786,40.66l-1.948-2.679l-0.54,0.479v2.199h-0.93v-7.146h0.93v3.748l1.949-1.799h1.329l-2.079,1.898l2.408,3.299
		H292.786z"/>
	<path d="M301.865,35.533c-0.04-0.34-0.12-0.69-0.34-0.96c-0.21-0.24-0.459-0.34-0.77-0.399c-0.52-0.11-1.099-0.061-1.589,0.05
		c-0.319,0.069-0.64,0.33-0.779,0.64c-0.13,0.29-0.12,0.689,0.04,0.97c0.159,0.3,0.459,0.409,0.81,0.479
		c0.839,0.18,1.829,0.399,2.438,0.6c0.409,0.13,0.819,0.42,1.039,0.81c0.26,0.47,0.271,1.149,0.08,1.629
		c-0.16,0.43-0.46,0.729-0.84,0.96c-0.689,0.409-1.539,0.47-2.389,0.399c-0.649-0.05-1.299-0.26-1.769-0.739
		c-0.41-0.42-0.63-1.02-0.729-1.569h0.93c0.04,0.479,0.279,0.939,0.659,1.229c0.37,0.27,0.85,0.39,1.31,0.409
		c0.47,0.03,1.149-0.06,1.559-0.33c0.34-0.229,0.521-0.6,0.521-1.019c0.01-0.44-0.25-0.81-0.66-0.97
		c-0.42-0.17-1.279-0.35-1.869-0.45c-0.539-0.1-1.239-0.329-1.619-0.689c-0.439-0.409-0.569-1.039-0.42-1.609
		c0.12-0.479,0.47-0.939,0.91-1.189c0.689-0.39,1.929-0.43,2.718-0.27c0.49,0.101,0.94,0.39,1.26,0.84
		c0.25,0.35,0.359,0.76,0.439,1.18H301.865z"/>
	<path d="M305.757,40.65h-0.81c-0.28,0-0.49-0.07-0.63-0.21c-0.15-0.141-0.23-0.36-0.23-0.64v-3.648h-0.729v-0.68h0.729v-1.959h0.89
		v1.949h1.02v0.689h-1.02v3.538c0,0.16,0.16,0.27,0.29,0.27h0.89L305.757,40.65z"/>
	<path d="M307.077,40.66v-0.95h0.989v0.95H307.077z"/>
	<path d="M310.327,33.224c0.66,0.83,1.189,1.72,1.439,2.719c0.3,1.159,0.22,2.309-0.11,3.389c-0.27,0.869-0.709,1.698-1.269,2.418
		h-1.18c0.699-0.789,1.27-1.639,1.579-2.599c0.319-0.969,0.359-2.038,0.1-3.028c-0.29-1.079-0.909-2.028-1.729-2.898H310.327z"/>
</g>
</svg>
