<?xml version="1.0" encoding="iso-8859-1"?>
<!-- Generator: Adobe Illustrator 19.0.0, SVG Export Plug-In . SVG Version: 6.00 Build 0)  -->
<svg version="1.1" id="&#x5716;&#x5C64;_1" xmlns="http://www.w3.org/2000/svg" xmlns:xlink="http://www.w3.org/1999/xlink" x="0px"
	 y="0px" viewBox="-112.672 -35.353 272.126 85.039" style="enable-background:new -112.672 -35.353 272.126 85.039;"
	 xml:space="preserve">
<g id="XMLID_1_">
</g>
<g id="XMLID_124_">
</g>
<g id="XMLID_125_">
</g>
<g id="XMLID_126_">
</g>
<g id="XMLID_127_">
</g>
<g id="XMLID_128_">
</g>
<radialGradient id="XMLID_210_" cx="23.4222" cy="26.8896" r="100.9042" gradientTransform="matrix(0.9998 0 0 -0.9905 -0.0264 33.8007)" gradientUnits="userSpaceOnUse">
	<stop  offset="0.2193" style="stop-color:#00FF00;stop-opacity:0"/>
	<stop  offset="1" style="stop-color:#035353"/>
</radialGradient>
<path id="XMLID_63_" style="fill:url(#XMLID_210_);" d="M148.133,49.686h-249.484c-6.252,0-11.321-5.069-11.321-11.321v-62.397
	c0-6.252,5.069-11.321,11.321-11.321h249.484c6.252,0,11.321,5.069,11.321,11.321v62.397
	C159.454,44.617,154.386,49.686,148.133,49.686z"/>
<path id="XMLID_62_" style="fill:#FFFFFF;" d="M143.182,44.642H-96.4c-5.742,0-10.396-4.655-10.396-10.396v-54.159
	c0-5.742,4.655-10.396,10.396-10.396h239.582c5.742,0,10.396,4.655,10.396,10.396v54.159
	C153.578,39.987,148.924,44.642,143.182,44.642z"/>
<g id="XMLID_4_">
	<path id="XMLID_169_" d="M46.983-1.681c-0.382,0.404-0.914,0.616-1.55,0.616h-5.735v5.098h-1.975v-5.098h-5.968
		c-0.531,0-0.978-0.233-1.296-0.595c-0.276-0.34-0.446-0.765-0.446-1.168v-6.224c0-0.616,0.255-1.083,0.659-1.402
		c0.382-0.297,0.892-0.467,1.423-0.467h5.628v-3.675h1.975v3.675h5.799c0.637,0,1.147,0.255,1.508,0.658
		c0.298,0.361,0.468,0.829,0.468,1.359v5.862C47.472-2.466,47.28-1.999,46.983-1.681z M37.722-9.391h-5.077
		c-0.318,0-0.616,0.276-0.616,0.616v5.586c0,0.34,0.191,0.573,0.552,0.573h5.14V-9.391z M45.454-8.796
		c0-0.318-0.255-0.595-0.552-0.595h-5.204v6.775h5.247c0.255,0,0.51-0.212,0.51-0.531V-8.796z"/>
	<path id="XMLID_173_" d="M50.8,2.334V0.55c0.425-0.17,1.168-0.488,1.869-0.786V-5.95h-1.721v-1.444h1.721v-4.779h-1.912v-1.466
		h5.692v1.466h-1.912v4.779h1.593v1.444h-1.593v4.779c0.488-0.233,1.636-0.807,2.23-1.189v1.721
		C55.09,0.337,52.584,1.633,50.8,2.334z M67.962-2.849c-0.297,0.34-0.743,0.488-1.253,0.488h-3.675
		c-0.658,0.786-1.381,1.572-2.103,2.252v2.145c0,0.297,0.233,0.467,0.446,0.467h2.783l-0.595,1.423h-3.123
		c-0.361,0-0.701-0.148-0.977-0.382c-0.276-0.234-0.446-0.553-0.446-0.956V1.293h-2.761c1.593-0.935,3.25-2.188,4.481-3.653h-1.232
		c-0.531,0-0.935-0.106-1.232-0.318c-0.382-0.276-0.573-0.743-0.573-1.466v-0.68c0-0.51,0.148-0.913,0.425-1.189
		c0.276-0.297,0.68-0.446,1.146-0.446h7.52c0.446,0,0.871,0.17,1.168,0.51c0.233,0.276,0.382,0.659,0.382,1.168v0.722
		C68.344-3.528,68.195-3.125,67.962-2.849z M56.535-7.415v-1.317h12.68v1.317H56.535z M68.302-10.219
		c-0.255,0.276-0.616,0.467-1.062,0.467h-8.73c-0.318,0-0.637-0.148-0.913-0.382c-0.276-0.255-0.467-0.616-0.467-1.02v-1.508
		c0-0.51,0.149-0.935,0.467-1.232c0.276-0.255,0.68-0.403,1.253-0.403h8.093c0.531,0,0.956,0.17,1.232,0.425
		c0.361,0.297,0.531,0.765,0.531,1.295v1.317C68.705-10.877,68.557-10.495,68.302-10.219z M60.443-13.022h-1.02
		c-0.234,0-0.425,0.212-0.425,0.403v1.211c0,0.233,0.212,0.403,0.446,0.403h0.999V-13.022z M66.454-4.781
		c0-0.213-0.128-0.404-0.425-0.404h-6.011c-0.212,0-0.404,0.212-0.404,0.404v0.616c0,0.234,0.149,0.425,0.361,0.425h6.075
		c0.234,0,0.404-0.149,0.404-0.404V-4.781z M63.65-13.022H62.1v2.018h1.551V-13.022z M66.666,3.948
		c-1.614-1.657-2.931-3.441-3.865-5.374h2.018c0.233,0.446,0.595,1.083,0.828,1.423c0.553-0.51,0.999-1.147,1.359-1.784h2.146
		c-0.658,1.104-1.466,2.209-2.442,3.165c0.85,0.956,1.826,1.827,2.804,2.57H66.666z M66.857-12.598c0-0.213-0.191-0.425-0.467-0.425
		h-1.02v2.018h1.062c0.233,0,0.425-0.17,0.425-0.403V-12.598z"/>
	<path id="XMLID_183_" d="M77.064-4.125c-0.401,1.529-0.34,3.181,0.154,4.679c0.479,1.482,1.359,2.795,2.44,4.015h-1.822
		c-0.865-1.112-1.544-2.394-1.961-3.737c-0.51-1.668-0.633-3.444-0.17-5.235c0.386-1.544,1.205-2.918,2.224-4.2h1.807
		C78.469-7.259,77.512-5.792,77.064-4.125z"/>
	<path id="XMLID_185_" d="M91.873,3.674c-1.39-0.85-2.795-1.76-4.076-2.872c-1.313,1.112-2.688,2.054-4.108,2.872h-2.811
		c2.054-1.081,4.123-2.239,5.976-3.83c-1.035-1.05-1.992-2.301-2.826-3.521c-0.17,0.17-0.525,0.494-0.741,0.664h-2.286
		c1.297-0.88,2.641-2.038,3.505-3.366h1.714c-0.402,0.68-1.359,1.884-2.039,2.563h1.436c0.634,0.942,1.328,1.915,2.193,2.749
		c0.864-0.865,1.575-1.776,2.192-2.749h1.544c-0.726-0.803-1.482-1.683-2.007-2.563h1.683c0.803,1.081,2.069,2.471,3.273,3.366
		h-2.131c-0.17-0.154-0.54-0.525-0.71-0.695c-0.85,1.235-1.714,2.456-2.872,3.552c1.837,1.59,3.86,2.733,5.883,3.83H91.873z
		 M81.218-7.074V-8.17h5.59c-0.231-0.433-0.464-1.081-0.603-1.637h1.637c0.17,0.571,0.387,1.127,0.68,1.637h5.806v1.096H81.218z"/>
	<path id="XMLID_188_" d="M109.323,3.318c-0.263,0.232-0.617,0.34-1.034,0.34h-2.038l-0.479-1.065h2.209
		c0.185,0,0.339-0.124,0.339-0.324v-3.907c0-0.201-0.216-0.355-0.401-0.355h-1.127c-0.587,1.992-1.899,3.737-3.49,5.312h-1.977
		c1.807-1.451,3.382-3.289,4.062-5.312h-1.931c-0.818,2.084-2.702,4.03-4.647,5.296h-2.409c2.131-1.174,4.571-3.058,5.621-5.296
		h-1.915c-0.51,0.602-1.111,1.204-1.683,1.714h-2.023c1.344-1.019,2.919-2.455,3.613-3.937H98.73c-0.525,0-0.911-0.139-1.143-0.448
		c-0.201-0.247-0.309-0.602-0.309-1.081v-2.563c0-0.448,0.216-0.803,0.524-1.035c0.247-0.201,0.556-0.309,0.85-0.309h9.142
		c0.37,0,0.71,0.185,0.941,0.463c0.217,0.263,0.355,0.603,0.355,0.927v2.764c0,0.324-0.123,0.618-0.324,0.849
		c-0.231,0.263-0.571,0.433-0.957,0.433h-6.285c-0.154,0.309-0.51,0.926-0.648,1.143h7.319c0.433,0,0.834,0.124,1.111,0.386
		c0.263,0.232,0.433,0.587,0.433,1.081v3.86C109.74,2.747,109.586,3.087,109.323,3.318z M107.671-8.232
		c0-0.216-0.17-0.355-0.386-0.355H99.07c-0.201,0-0.355,0.185-0.355,0.371v0.756h8.956V-8.232z M107.671-6.395h-8.956v0.757
		c0,0.216,0.201,0.386,0.417,0.386h8.215c0.217,0,0.324-0.155,0.324-0.371V-6.395z"/>
	<path id="XMLID_192_" d="M122.852-8.016v0.834h2.069v0.957h-2.069v0.494c0,0.232-0.107,0.479-0.293,0.664
		c-0.186,0.201-0.447,0.34-0.757,0.34h-3.922c-0.294,0-0.556-0.124-0.757-0.324c-0.17-0.186-0.293-0.433-0.293-0.664v-0.51h-2.286
		v-0.957h2.286v-0.834h-2.363c-0.324,0-0.479,0.201-0.479,0.479v5.945c0,1.529-0.093,3.366-0.617,5.019h-1.529
		c0.664-1.622,0.772-3.845,0.772-6.069v-4.864c0-0.479,0.154-0.833,0.417-1.096c0.293-0.278,0.71-0.417,1.143-0.417h3.768
		c-0.154-0.247-0.355-0.602-0.447-0.788h1.667c0.124,0.278,0.263,0.541,0.448,0.788h5.729v1.004H122.852z M116.799,3.674h-2.702
		c0.927-0.401,1.837-0.942,2.641-1.652h2.177C118.313,2.67,117.602,3.21,116.799,3.674z M120.536-3.198v0.633h2.918
		c0.355,0,0.664,0.155,0.865,0.402c0.2,0.231,0.309,0.54,0.309,0.865v1.683c0,0.355-0.124,0.679-0.371,0.911
		c-0.231,0.216-0.571,0.355-1.003,0.355h-6.811c-0.354,0-0.71-0.108-0.957-0.34c-0.216-0.201-0.371-0.509-0.371-0.942v-1.884
		c0-0.386,0.201-0.648,0.479-0.818c0.247-0.154,0.571-0.232,0.833-0.232h2.765v-0.633h-4.818v-0.958h10.979v0.958H120.536z
		 M119.192-1.638h-2.409c-0.139,0-0.34,0.154-0.34,0.324v0.355h2.749V-1.638z M119.192-0.017h-2.749v0.37
		c0,0.155,0.186,0.325,0.34,0.325h2.409V-0.017z M121.509-8.016h-3.336v0.834h3.336V-8.016z M121.509-6.225h-3.336v0.216
		c0,0.17,0.231,0.371,0.387,0.371h2.625c0.2,0,0.324-0.154,0.324-0.34V-6.225z M123.3-1.298c0-0.155-0.186-0.34-0.401-0.34h-2.362
		v0.679h2.764V-1.298z M123.3-0.017h-2.764v0.695h2.439c0.201,0,0.324-0.201,0.324-0.386V-0.017z M122.898,3.674
		c-0.633-0.494-1.328-1.081-1.791-1.652h2.115c0.448,0.556,1.591,1.205,2.425,1.652H122.898z"/>
	<path id="XMLID_203_" d="M135.222-3.383c-0.093,0.247-0.278,0.649-0.401,0.88h4.2c0.463,0,0.803,0.139,1.034,0.386
		c0.247,0.263,0.371,0.633,0.371,1.081v3.351c0,0.371-0.17,0.679-0.402,0.911c-0.262,0.262-0.617,0.417-0.973,0.417h-1.621
		l-0.479-1.05h1.729c0.17,0,0.324-0.185,0.324-0.371v-3.32c0-0.17-0.108-0.278-0.247-0.34c-0.633,1.59-1.652,3.273-2.779,4.71
		h-1.684c1.112-1.189,2.455-3.073,3.135-4.71h-0.973c-0.68,1.544-1.961,3.32-3.366,4.71h-1.822c1.714-1.514,2.949-3.104,3.783-4.71
		h-0.818c-0.201,0.324-0.68,1.035-0.942,1.405h-1.482v0.201c-1.096,0.571-3.15,1.498-4.385,2.039V0.925
		c0.463-0.17,1.143-0.448,1.56-0.649v-6.007h-1.514v-1.096h1.514v-2.95h1.343v2.95h1.498v1.096h-1.498v5.405
		c0.448-0.201,1.112-0.525,1.482-0.741v0.679c0.648-0.664,1.467-1.915,1.931-2.996H131.5v-1.019h9.312v1.019H135.222z M139.622-5.53
		c-0.247,0.263-0.633,0.402-1.111,0.402h-4.957c-0.309,0-0.633-0.155-0.85-0.417c-0.17-0.186-0.262-0.448-0.262-0.741v-2.286
		c0-0.401,0.154-0.695,0.386-0.896c0.247-0.216,0.603-0.309,0.941-0.309h4.71c0.464,0,0.804,0.108,1.05,0.325
		c0.278,0.247,0.417,0.618,0.417,1.096v1.853C139.946-6.085,139.839-5.761,139.622-5.53z M138.572-8.402
		c0-0.216-0.154-0.355-0.34-0.355h-4.061c-0.186,0-0.402,0.17-0.402,0.355v0.355h4.803V-8.402z M138.572-7.043h-4.803v0.571
		c0,0.186,0.17,0.324,0.34,0.324h4.077c0.231,0,0.386-0.154,0.386-0.432V-7.043z"/>
	<path id="XMLID_208_" d="M143.809-8.603c1.02,1.282,1.838,2.656,2.224,4.2c0.463,1.791,0.34,3.567-0.17,5.235
		c-0.417,1.343-1.097,2.625-1.961,3.737h-1.822c1.081-1.22,1.961-2.532,2.439-4.015c0.494-1.498,0.557-3.15,0.155-4.679
		c-0.448-1.667-1.405-3.135-2.672-4.478H143.809z"/>
</g>
<g id="XMLID_3_">
	<path id="XMLID_110_" d="M36.037,30.936c-0.975,0.48-2.25,0.615-3.315,0.466c-1.14-0.15-2.1-0.601-2.865-1.485
		c-0.915-1.05-1.305-2.354-1.32-3.78c-0.03-2.024,0.63-4.034,2.535-5.055c1.32-0.72,3.21-0.824,4.665-0.21
		c1.245,0.525,2.16,1.681,2.64,2.925h-1.545c-0.48-0.915-0.99-1.604-1.965-2.01c-0.795-0.314-1.755-0.39-2.58-0.06
		c-1.815,0.72-2.43,2.534-2.385,4.35c0.045,1.545,0.495,3.015,1.89,3.87c0.99,0.614,2.49,0.645,3.54,0.045
		c0.78-0.45,1.41-1.335,1.68-2.19h1.545C38.167,29.061,37.252,30.336,36.037,30.936z"/>
	<path id="XMLID_112_" d="M45.307,31.026c-0.615,0.404-1.695,0.524-2.55,0.449c-0.96-0.09-1.815-0.479-2.385-1.29
		c-0.555-0.779-0.84-1.814-0.825-2.834c0-0.855,0.21-1.681,0.6-2.37c0.645-1.125,1.8-1.59,3.015-1.605
		c1.11-0.015,1.95,0.285,2.61,1.035c0.57,0.646,0.855,1.665,0.81,2.52c-0.03,0.511-0.33,0.75-0.825,0.75h-4.815
		c0.09,0.915,0.375,1.801,1.065,2.355c0.42,0.345,0.945,0.435,1.485,0.405c0.435-0.03,0.84-0.165,1.155-0.48
		c0.315-0.315,0.495-0.765,0.585-1.155h1.485C46.537,29.556,46.057,30.531,45.307,31.026z M44.497,24.756
		c-0.6-0.42-1.485-0.39-2.145-0.18c-0.885,0.27-1.32,1.215-1.35,2.055h4.005c0.195,0,0.285-0.165,0.285-0.33
		C45.292,25.761,44.962,25.086,44.497,24.756z"/>
	<path id="XMLID_115_" d="M53.032,31.326v-5.055c0-0.705-0.21-1.471-0.9-1.74c-0.6-0.225-1.32-0.12-1.86,0.21
		c-0.675,0.405-0.9,1.02-0.9,1.77v4.815h-1.35v-7.8h1.17v0.885c0.42-0.51,0.915-0.81,1.68-0.96c0.87-0.165,1.905,0.03,2.535,0.51
		c0.735,0.556,0.975,1.2,0.975,2.085v5.28H53.032z"/>
	<path id="XMLID_117_" d="M58.912,31.311h-1.215c-0.42,0-0.735-0.104-0.945-0.314c-0.225-0.21-0.345-0.54-0.345-0.96v-5.475h-1.095
		v-1.021h1.095v-2.939h1.335v2.925h1.53v1.035h-1.53v5.31c0,0.24,0.24,0.405,0.435,0.405h1.335L58.912,31.311z"/>
	<path id="XMLID_119_" d="M63.307,24.711c-0.405-0.06-0.78,0.12-1.065,0.405c-0.42,0.435-0.6,1.035-0.705,1.604v4.59h-1.32v-7.784
		h1.32v0.975c0.255-0.404,0.855-0.944,1.365-1.035c0.57-0.104,1.2,0.105,1.68,0.405v1.545
		C64.296,25.131,63.741,24.771,63.307,24.711z"/>
	<path id="XMLID_121_" d="M71.226,31.326c-0.135-0.33-0.255-0.721-0.3-1.035c-0.675,0.615-1.515,1.05-2.43,1.155
		c-0.645,0.074-1.365,0.015-1.92-0.285c-0.495-0.271-0.855-0.66-1.02-1.2c-0.18-0.555-0.165-1.2,0.03-1.725
		c0.24-0.615,0.72-1.021,1.365-1.245c0.54-0.195,1.305-0.271,1.935-0.33c0.705-0.06,1.5-0.33,1.92-0.705
		c0.03-0.285,0-0.75-0.285-1.064c-0.27-0.285-0.69-0.436-1.095-0.48c-0.525-0.075-1.185,0.015-1.68,0.225
		c-0.495,0.21-0.795,0.631-0.93,1.141h-1.41c0.105-0.825,0.795-1.59,1.575-1.965c0.66-0.315,1.665-0.465,2.385-0.436
		c0.78,0.03,1.62,0.255,2.175,0.825c0.45,0.48,0.615,1.11,0.6,1.86c-0.015,0.975-0.015,2.295,0,2.984
		c0.015,0.75,0.255,1.725,0.555,2.28H71.226z M70.776,27.201c-0.54,0.285-1.155,0.495-1.71,0.54
		c-0.525,0.045-1.035,0.104-1.425,0.24c-0.36,0.135-0.585,0.3-0.735,0.63c-0.135,0.314-0.15,0.689-0.045,1.02
		c0.12,0.345,0.405,0.57,0.75,0.69c0.285,0.09,0.645,0.074,0.96,0.015c0.93-0.15,1.695-0.645,2.205-1.439
		C70.776,28.401,70.776,27.666,70.776,27.201z"/>
	<path id="XMLID_129_" d="M74.151,31.326V20.602h1.41v10.725H74.151z"/>
	<path id="XMLID_131_" d="M79.897,27.696c-0.208,0.791-0.176,1.646,0.08,2.422c0.248,0.768,0.704,1.447,1.263,2.079h-0.943
		c-0.448-0.575-0.8-1.239-1.016-1.935c-0.264-0.863-0.328-1.783-0.088-2.711c0.2-0.8,0.624-1.511,1.151-2.175h0.936
		C80.625,26.073,80.129,26.832,79.897,27.696z"/>
	<path id="XMLID_133_" d="M82.504,31.318c-0.248,0-0.439-0.08-0.56-0.225c-0.12-0.136-0.176-0.319-0.176-0.535V26.36
		c0-0.231,0.072-0.415,0.192-0.535c0.152-0.145,0.368-0.216,0.632-0.216h3.39v0.56h-3.262c-0.12,0-0.24,0.104-0.24,0.231v1.68h3.246
		v0.56H82.48v1.887c0,0.136,0.136,0.24,0.264,0.24h3.238v0.552H82.504z"/>
	<path id="XMLID_135_" d="M89.695,31.326l-1.184-1.495l-1.127,1.495h-0.912l1.575-2.087l-1.623-2.063h0.92l1.159,1.456l1.096-1.456
		h0.911l-1.543,2.047l1.646,2.104H89.695z"/>
	<path id="XMLID_137_" d="M94.063,30.926c-0.313,0.32-0.728,0.456-1.168,0.472c-0.455,0.024-0.903-0.119-1.239-0.399
		c-0.76-0.632-0.8-1.991-0.512-2.774c0.152-0.416,0.528-0.768,0.943-0.96c0.488-0.231,1.136-0.216,1.607,0.04
		c0.359,0.2,0.775,0.712,0.863,1.088h-0.775c-0.104-0.312-0.376-0.664-0.72-0.735c-0.447-0.088-0.871,0.096-1.127,0.487
		c-0.384,0.576-0.336,1.52-0.032,2.119c0.144,0.296,0.408,0.495,0.712,0.567c0.312,0.08,0.632,0.024,0.871-0.2
		c0.2-0.184,0.368-0.567,0.392-0.831h0.736C94.551,30.206,94.359,30.63,94.063,30.926z"/>
	<path id="XMLID_139_" d="M98.144,31.326v-2.759c0-0.328-0.137-0.607-0.384-0.768c-0.272-0.176-0.6-0.144-0.912-0.08
		c-0.392,0.08-0.728,0.4-0.879,0.784v2.822h-0.704v-5.717h0.704v2.038c0.319-0.312,0.72-0.495,1.135-0.535
		c0.448-0.048,0.952,0.04,1.279,0.336c0.288,0.271,0.464,0.663,0.464,1.016v2.862H98.144z"/>
	<path id="XMLID_141_" d="M102.647,31.326c-0.072-0.176-0.137-0.384-0.16-0.552c-0.359,0.327-0.808,0.56-1.295,0.615
		c-0.344,0.04-0.729,0.008-1.024-0.151c-0.264-0.145-0.455-0.353-0.543-0.64c-0.097-0.296-0.088-0.64,0.016-0.92
		c0.128-0.328,0.384-0.544,0.728-0.663c0.288-0.104,0.696-0.145,1.031-0.177c0.376-0.031,0.8-0.176,1.023-0.375
		c0.017-0.152,0-0.4-0.151-0.568c-0.144-0.151-0.368-0.231-0.584-0.256c-0.279-0.04-0.632,0.008-0.896,0.12
		s-0.424,0.336-0.496,0.607h-0.751c0.056-0.439,0.424-0.848,0.839-1.047c0.353-0.168,0.888-0.248,1.271-0.232
		c0.416,0.017,0.864,0.137,1.16,0.44c0.239,0.256,0.327,0.592,0.319,0.991c-0.008,0.52-0.008,1.224,0,1.591
		c0.008,0.4,0.136,0.92,0.296,1.216H102.647z M102.407,29.127c-0.288,0.152-0.615,0.264-0.911,0.288
		c-0.28,0.023-0.552,0.056-0.76,0.128c-0.192,0.072-0.313,0.16-0.393,0.336c-0.071,0.168-0.079,0.367-0.023,0.544
		c0.063,0.184,0.216,0.304,0.399,0.367c0.152,0.048,0.345,0.04,0.512,0.008c0.496-0.08,0.904-0.344,1.176-0.768
		C102.407,29.767,102.407,29.375,102.407,29.127z"/>
	<path id="XMLID_144_" d="M106.752,31.326v-2.694c0-0.376-0.112-0.784-0.48-0.928c-0.319-0.12-0.703-0.064-0.991,0.111
		c-0.359,0.216-0.479,0.544-0.479,0.944v2.566h-0.72v-4.158h0.624v0.472c0.224-0.271,0.487-0.432,0.896-0.512
		c0.463-0.088,1.015,0.017,1.351,0.272c0.392,0.296,0.521,0.64,0.521,1.111v2.814H106.752z"/>
	<path id="XMLID_146_" d="M111.392,32.421c-0.304,0.344-0.76,0.496-1.207,0.536c-0.376,0.032-0.952-0.016-1.288-0.216
		c-0.375-0.216-0.623-0.647-0.64-1.071h0.704c0.016,0.312,0.208,0.592,0.464,0.655c0.296,0.072,0.592,0.088,0.831,0.056
		c0.272-0.039,0.552-0.191,0.696-0.487c0.168-0.328,0.151-0.703,0.151-1.104c-0.248,0.256-0.552,0.424-0.888,0.496
		c-0.447,0.096-0.911,0.016-1.287-0.256c-0.304-0.224-0.544-0.552-0.647-0.88c-0.152-0.479-0.192-1.063-0.08-1.583
		c0.096-0.416,0.296-0.808,0.624-1.087c0.304-0.265,0.728-0.393,1.135-0.376c0.456,0.023,0.832,0.239,1.144,0.575v-0.512h0.695
		v4.014C111.799,31.645,111.68,32.094,111.392,32.421z M110.848,28.144c-0.224-0.304-0.544-0.464-0.896-0.464
		c-0.384,0.008-0.695,0.2-0.888,0.544c-0.247,0.447-0.256,1.399-0.056,1.854c0.168,0.393,0.487,0.656,0.92,0.672
		c0.439,0.017,0.807-0.216,1.007-0.6C111.191,29.655,111.199,28.615,110.848,28.144z"/>
	<path id="XMLID_149_" d="M115.543,31.166c-0.327,0.216-0.903,0.28-1.359,0.24c-0.512-0.049-0.967-0.256-1.271-0.688
		c-0.296-0.415-0.448-0.967-0.44-1.511c0-0.456,0.112-0.896,0.32-1.264c0.344-0.6,0.959-0.847,1.606-0.855
		c0.592-0.008,1.04,0.152,1.392,0.552c0.304,0.344,0.456,0.888,0.432,1.344c-0.016,0.271-0.176,0.399-0.439,0.399h-2.566
		c0.048,0.488,0.199,0.96,0.567,1.256c0.224,0.184,0.504,0.231,0.792,0.216c0.231-0.017,0.447-0.088,0.615-0.256
		s0.264-0.408,0.312-0.616h0.792C116.199,30.383,115.943,30.902,115.543,31.166z M115.111,27.824
		c-0.319-0.225-0.791-0.208-1.144-0.097c-0.472,0.145-0.703,0.648-0.719,1.096h2.135c0.104,0,0.151-0.088,0.151-0.176
		C115.535,28.359,115.359,28,115.111,27.824z"/>
	<path id="XMLID_152_" d="M122.902,27.225c-0.031-0.272-0.096-0.552-0.271-0.768c-0.168-0.192-0.368-0.272-0.615-0.32
		c-0.416-0.088-0.88-0.048-1.271,0.04c-0.256,0.056-0.512,0.264-0.624,0.512c-0.104,0.231-0.096,0.552,0.032,0.775
		c0.128,0.24,0.368,0.328,0.647,0.384c0.672,0.145,1.463,0.32,1.951,0.479c0.328,0.104,0.655,0.336,0.831,0.648
		c0.208,0.375,0.216,0.919,0.064,1.303c-0.128,0.344-0.368,0.584-0.672,0.768c-0.552,0.328-1.231,0.376-1.911,0.32
		c-0.52-0.04-1.039-0.208-1.415-0.592c-0.328-0.336-0.504-0.815-0.584-1.256h0.744c0.032,0.384,0.224,0.752,0.527,0.983
		c0.296,0.216,0.68,0.313,1.048,0.328c0.376,0.024,0.919-0.048,1.247-0.264c0.271-0.184,0.416-0.479,0.416-0.815
		c0.008-0.352-0.2-0.647-0.528-0.775c-0.335-0.137-1.023-0.28-1.495-0.36c-0.432-0.08-0.991-0.264-1.295-0.552
		c-0.352-0.327-0.456-0.831-0.336-1.287c0.096-0.384,0.376-0.752,0.728-0.951c0.552-0.313,1.543-0.344,2.175-0.216
		c0.392,0.08,0.752,0.312,1.008,0.671c0.2,0.28,0.288,0.608,0.352,0.944H122.902z"/>
	<path id="XMLID_154_" d="M127.216,32.941v-2.039c-0.24,0.304-0.584,0.455-0.952,0.495c-0.344,0.032-0.743-0.031-1.047-0.207
		c-0.328-0.2-0.576-0.544-0.728-0.912c-0.232-0.575-0.224-1.319-0.024-1.895c0.152-0.448,0.424-0.808,0.832-1.056
		c0.279-0.168,0.655-0.256,1.007-0.224c0.408,0.031,0.68,0.248,0.912,0.504v-0.44h0.735v5.773H127.216z M126.968,28.151
		c-0.144-0.296-0.416-0.52-0.752-0.52s-0.623,0.168-0.823,0.432c-0.448,0.584-0.456,1.775-0.016,2.359
		c0.216,0.287,0.503,0.447,0.863,0.407c0.384-0.048,0.632-0.296,0.791-0.624C127.359,29.559,127.287,28.799,126.968,28.151z"/>
	<path id="XMLID_157_" d="M131.646,31.326v-0.528c-0.239,0.32-0.591,0.528-0.983,0.592c-0.407,0.064-0.855-0.008-1.191-0.256
		c-0.327-0.248-0.535-0.647-0.535-1.135v-2.831h0.735v2.927c0,0.248,0.128,0.52,0.344,0.655c0.2,0.128,0.464,0.136,0.688,0.072
		c0.4-0.104,0.775-0.432,0.943-0.8v-2.854h0.728l-0.008,4.158H131.646z"/>
	<path id="XMLID_159_" d="M136.279,31.326c-0.072-0.176-0.136-0.384-0.16-0.552c-0.36,0.327-0.808,0.56-1.295,0.615
		c-0.345,0.04-0.728,0.008-1.023-0.151c-0.265-0.145-0.456-0.353-0.544-0.64c-0.096-0.296-0.088-0.64,0.016-0.92
		c0.128-0.328,0.384-0.544,0.728-0.663c0.288-0.104,0.696-0.145,1.031-0.177c0.376-0.031,0.8-0.176,1.023-0.375
		c0.017-0.152,0-0.4-0.151-0.568c-0.145-0.151-0.368-0.231-0.584-0.256c-0.279-0.04-0.632,0.008-0.896,0.12
		s-0.424,0.336-0.495,0.607h-0.752c0.056-0.439,0.424-0.848,0.84-1.047c0.352-0.168,0.887-0.248,1.271-0.232
		c0.416,0.017,0.864,0.137,1.16,0.44c0.239,0.256,0.327,0.592,0.319,0.991c-0.008,0.52-0.008,1.224,0,1.591
		c0.008,0.4,0.136,0.92,0.296,1.216H136.279z M136.039,29.127c-0.288,0.152-0.615,0.264-0.911,0.288
		c-0.28,0.023-0.552,0.056-0.76,0.128c-0.192,0.072-0.312,0.16-0.392,0.336c-0.072,0.168-0.08,0.367-0.024,0.544
		c0.064,0.184,0.216,0.304,0.4,0.367c0.151,0.048,0.344,0.04,0.512,0.008c0.495-0.08,0.903-0.344,1.175-0.768
		C136.039,29.767,136.039,29.375,136.039,29.127z"/>
	<path id="XMLID_162_" d="M139.304,27.8c-0.216-0.032-0.415,0.064-0.567,0.216c-0.224,0.232-0.319,0.552-0.376,0.855v2.447h-0.703
		v-4.15h0.703v0.52c0.136-0.216,0.456-0.503,0.728-0.552c0.304-0.056,0.64,0.057,0.896,0.217v0.823
		C139.832,28.023,139.536,27.832,139.304,27.8z"/>
	<path id="XMLID_164_" d="M143.511,31.166c-0.327,0.216-0.903,0.28-1.359,0.24c-0.512-0.049-0.967-0.256-1.271-0.688
		c-0.296-0.415-0.448-0.967-0.44-1.511c0-0.456,0.112-0.896,0.32-1.264c0.344-0.6,0.959-0.847,1.607-0.855
		c0.591-0.008,1.039,0.152,1.391,0.552c0.304,0.344,0.456,0.888,0.432,1.344c-0.016,0.271-0.176,0.399-0.439,0.399h-2.566
		c0.048,0.488,0.199,0.96,0.567,1.256c0.224,0.184,0.504,0.231,0.792,0.216c0.231-0.017,0.447-0.088,0.615-0.256
		s0.264-0.408,0.312-0.616h0.792C144.167,30.383,143.911,30.902,143.511,31.166z M143.079,27.824
		c-0.319-0.225-0.791-0.208-1.144-0.097c-0.472,0.145-0.703,0.648-0.72,1.096h2.136c0.104,0,0.151-0.088,0.151-0.176
		C143.503,28.359,143.327,28,143.079,27.824z"/>
	<path id="XMLID_167_" d="M145.641,25.377c0.527,0.664,0.951,1.375,1.151,2.175c0.24,0.928,0.176,1.848-0.088,2.711
		c-0.216,0.695-0.567,1.359-1.016,1.935h-0.943c0.56-0.632,1.016-1.312,1.264-2.079c0.256-0.775,0.287-1.631,0.079-2.422
		c-0.231-0.864-0.728-1.623-1.383-2.319H145.641z"/>
</g>
<g id="XMLID_6_">
	<path id="XMLID_80_" d="M-87.097-0.788c-0.68,1.104-1.614,2.209-2.698,3.016c1.02,0.553,2.294,1.02,3.398,1.423h-4.142
		c-0.17-0.064-0.552-0.255-0.743-0.361c-0.297,0.212-0.765,0.51-1.062,0.68h-4.163c1.062-0.319,2.506-0.999,3.568-1.614
		c-0.722-0.425-1.444-0.85-1.912-1.253c-0.318-0.276-0.233-0.765-0.042-1.062c0.149-0.233,0.446-0.595,0.659-0.828h-1.997v-1.253
		h3.038c0.276-0.34,0.574-0.722,0.85-1.062h-1.954c-0.382,0-0.722-0.106-0.977-0.318c-0.276-0.213-0.446-0.531-0.446-0.914v-1.253
		c0-0.488,0.191-0.807,0.489-1.02c0.297-0.212,0.722-0.297,1.125-0.297h2.23v-0.85h-2.061c-0.297,0-0.68-0.128-0.956-0.383
		c-0.255-0.212-0.446-0.531-0.446-0.913v-1.041h-0.914v-1.231h0.914v-0.808c0-0.403,0.148-0.743,0.361-0.998
		c0.234-0.276,0.552-0.446,0.892-0.446h2.209v-1.02h1.763v1.02h2.209c0.425,0,0.786,0.17,1.02,0.446
		c0.234,0.255,0.361,0.595,0.361,0.956v0.85h0.998v1.231h-0.998v0.871c0,0.403-0.127,0.786-0.403,1.062
		c-0.234,0.255-0.574,0.404-1.041,0.404h-2.146v0.85h2.655c0.361,0,0.722,0.191,0.977,0.531c0.149,0.212,0.255,0.489,0.255,0.807
		v0.935c0,0.467-0.085,0.85-0.319,1.104c-0.233,0.276-0.595,0.425-1.168,0.425h-2.357c-0.34,0.34-0.659,0.701-0.893,1.062h5.459
		v1.253H-87.097z M-91.876-5.631h-1.678c-0.191,0-0.383,0.17-0.383,0.382v0.553c0,0.148,0.17,0.318,0.319,0.318h1.742V-5.631z
		 M-91.876-12.322h-1.359c-0.17,0-0.34,0.191-0.34,0.404v0.595h1.699V-12.322z M-91.876-10.092h-1.699v0.638
		c0,0.233,0.212,0.382,0.361,0.382h1.338V-10.092z M-91.983-0.788c-0.297,0.361-0.573,0.701-0.807,1.062
		c-0.043,0.043-0.043,0.149,0.021,0.191c0.489,0.34,0.871,0.573,1.38,0.871c0.786-0.595,1.572-1.317,2.146-2.124H-91.983z
		 M-88.33-11.918c0-0.255-0.127-0.404-0.361-0.404h-1.423v0.999h1.784V-11.918z M-88.33-10.092h-1.784v1.02h1.423
		c0.212,0,0.361-0.191,0.361-0.382V-10.092z M-87.968-5.228c0-0.233-0.191-0.403-0.403-0.403h-1.742v1.253h1.763
		c0.191,0,0.382-0.191,0.382-0.382V-5.228z M-79.897,3.97c-0.68-0.999-1.296-2.039-1.891-3.08c-0.68,1.041-1.508,2.124-2.336,3.08
		h-2.464c1.444-1.508,2.931-3.441,3.802-5.141c-0.786-1.805-1.466-3.738-1.997-5.649h-1.338c1.041-2.443,1.636-5.098,2.039-7.774
		h1.869c-0.085,0.786-0.297,2.018-0.467,2.932h4.906v1.38h-0.977c-0.234,3.229-0.765,6.308-1.997,9.112
		c0.786,1.806,1.997,3.547,3.25,5.141H-79.897z M-82.977-10.283c-0.233,0.914-0.51,2.082-0.913,3.059h0.913
		c0.34,1.189,0.765,2.421,1.211,3.526c0.658-2.082,0.977-4.291,1.147-6.584H-82.977z"/>
	<path id="XMLID_91_" d="M-71.067-12.322c-0.255,1.614-0.531,3.229-0.935,4.779h1.359c0.467,0,0.85,0.106,1.147,0.298
		c0.403,0.276,0.637,0.722,0.637,1.316v7.265c0,0.488-0.149,0.871-0.425,1.146c-0.276,0.276-0.701,0.425-1.232,0.425h-2.188
		c-0.383,0-0.786-0.191-1.083-0.488c-0.276-0.276-0.467-0.637-0.467-1.104v-5.395h-0.85c1.126-2.57,1.784-5.374,2.188-8.241h-1.869
		v-1.465h6.585v1.465H-71.067z M-70.579-5.716c0-0.17-0.213-0.383-0.404-0.383h-1.041c-0.213,0-0.383,0.17-0.383,0.383V1.06
		c0,0.255,0.276,0.425,0.446,0.425h0.977c0.276,0,0.404-0.191,0.404-0.446V-5.716z M-66.989,3.545h-1.827
		c0.595-1.827,0.977-3.738,1.126-5.692h1.635C-66.182-0.193-66.522,1.718-66.989,3.545z M-57.176,3.375
		c-0.318,0.361-0.808,0.595-1.359,0.595h-1.571l-0.553-1.402h1.444c0.361,0,0.68-0.212,0.68-0.616v-4.439
		c0-0.34-0.233-0.616-0.658-0.616h-6.755c-0.51,0-0.977-0.212-1.295-0.552c-0.276-0.319-0.446-0.744-0.446-1.253v-7.604
		c0-0.574,0.212-1.041,0.573-1.381c0.361-0.318,0.85-0.51,1.444-0.51h8.857v1.444h-4.078v1.869h3.377v1.444h-3.377v1.848h3.377
		v1.402h-3.377v1.911h2.188c0.658,0,1.147,0.191,1.487,0.531c0.382,0.382,0.552,0.956,0.552,1.614v4.333
		C-56.667,2.546-56.858,3.035-57.176,3.375z M-62.805-12.959h-2.336c-0.404,0-0.659,0.233-0.659,0.552v1.317h2.995V-12.959z
		 M-62.805-9.646H-65.8v1.848h2.995V-9.646z M-62.805-6.396H-65.8v1.274c0,0.403,0.34,0.637,0.616,0.637h2.379V-6.396z
		 M-64.971,3.545c-0.298-1.869-0.446-3.76-0.574-5.692h1.593c0.063,1.911,0.297,3.823,0.658,5.692H-64.971z M-62.55,3.545
		c-0.318-1.869-0.637-3.76-0.68-5.692h1.572c0.085,1.933,0.34,3.887,0.828,5.692H-62.55z M-60.511,1.569
		c-0.275-1.211-0.425-2.464-0.531-3.717h1.615c0.042,1.274,0.254,2.506,0.53,3.717H-60.511z"/>
	<path id="XMLID_102_" d="M-51.405-10.198c-1.041-1.38-1.848-2.868-2.527-4.397h2.209c0.595,1.359,1.571,3.08,2.761,4.397H-51.405z
		 M-51.745,3.927h-2.167c1.339-2.464,2.23-5.034,2.932-7.752h2.061C-49.664-1.064-50.577,1.548-51.745,3.927z M-51.66-4.845
		c-0.935-1.444-1.614-3.038-2.23-4.609h2.188c0.638,1.614,1.339,3.207,2.465,4.609H-51.66z M-37.45-1.872v0.34
		c0,0.659-0.128,1.125-0.446,1.423c-0.318,0.297-0.807,0.446-1.529,0.446h-5.969v1.827c0,0.17,0.148,0.34,0.276,0.34h9.834
		l-0.765,1.423h-9.431c-0.573,0-1.02-0.255-1.338-0.658c-0.34-0.446-0.531-1.02-0.531-1.593v-3.547h-2.039
		c1.509-1.465,2.507-3.229,3.271-5.034h-2.868v-1.466h3.059v-2.549h-2.549v-1.487h2.549v-2.188h1.891v2.188h3.42v-2.188h1.869v2.188
		h2.91v1.487h-2.91v2.549h3.42v1.466h-3.037c0.53,1.614,1.975,3.844,3.229,5.034H-37.45z M-39.362-3.465
		c0-0.17-0.212-0.34-0.36-0.34h-5.311c-0.148,0-0.361,0.234-0.361,0.404v2.273h5.714c0.17,0,0.318-0.191,0.318-0.34V-3.465z
		 M-40.296-6.905h-3.78c-0.191,0.488-0.51,1.21-0.743,1.635h5.14C-39.829-5.631-40.105-6.375-40.296-6.905z M-40.615-10.92h-3.42
		v2.549h3.42V-10.92z"/>
</g>
<g id="XMLID_5_">
	<path id="XMLID_56_" d="M-87.929,30.988c-0.845,0.416-1.95,0.532-2.873,0.402c-0.988-0.13-1.82-0.52-2.483-1.287
		c-0.793-0.91-1.131-2.041-1.144-3.275c-0.026-1.756,0.546-3.497,2.197-4.382c1.145-0.624,2.782-0.715,4.043-0.182
		c1.079,0.455,1.872,1.456,2.288,2.535h-1.339c-0.416-0.793-0.858-1.392-1.703-1.742c-0.689-0.273-1.521-0.338-2.236-0.052
		c-1.573,0.624-2.106,2.197-2.067,3.77c0.039,1.34,0.429,2.613,1.638,3.354c0.858,0.533,2.158,0.559,3.068,0.039
		c0.676-0.39,1.222-1.157,1.456-1.898h1.339C-86.083,29.363-86.875,30.468-87.929,30.988z"/>
	<path id="XMLID_58_" d="M-82.053,33.107c-0.117,0.272-0.312,0.507-0.546,0.637c-0.221,0.13-0.481,0.195-0.754,0.195h-0.923
		l-0.533-0.91h1.17c0.234,0,0.429-0.183,0.507-0.377l0.663-1.625l-2.73-6.462h1.313l2.054,4.862l2.028-4.862h1.339L-82.053,33.107z"
		/>
	<path id="XMLID_60_" d="M-72.641,30.754c-0.481,0.481-1.131,0.728-1.807,0.715c-0.819-0.013-1.378-0.377-1.924-0.975v0.832h-1.196
		V22.03h1.196v3.342c0.65-0.689,1.534-1.066,2.535-0.885c0.871,0.169,1.716,0.976,1.963,1.82
		C-71.432,27.776-71.497,29.636-72.641,30.754z M-73.187,26.243c-0.234-0.469-0.741-0.807-1.274-0.832
		c-0.637-0.026-1.196,0.377-1.521,0.909c-0.572,0.937-0.611,2.457,0.026,3.354c0.364,0.507,0.897,0.871,1.495,0.832
		c0.585-0.039,1.066-0.442,1.326-0.949C-72.693,28.674-72.771,27.113-73.187,26.243z"/>
	<path id="XMLID_65_" d="M-65.699,31.065c-0.533,0.352-1.469,0.455-2.21,0.391c-0.832-0.078-1.573-0.416-2.067-1.118
		c-0.481-0.676-0.728-1.573-0.715-2.457c0-0.741,0.182-1.456,0.52-2.054c0.559-0.976,1.56-1.379,2.613-1.392
		c0.962-0.013,1.69,0.247,2.262,0.897c0.494,0.559,0.741,1.442,0.702,2.184c-0.026,0.442-0.286,0.65-0.715,0.65h-4.173
		c0.078,0.793,0.325,1.56,0.923,2.041c0.364,0.299,0.819,0.377,1.287,0.351c0.377-0.025,0.728-0.143,1.001-0.416
		c0.273-0.272,0.429-0.663,0.507-1.001h1.287C-64.633,29.792-65.049,30.637-65.699,31.065z M-66.401,25.632
		c-0.52-0.364-1.287-0.338-1.859-0.156c-0.767,0.234-1.144,1.053-1.17,1.781h3.471c0.169,0,0.247-0.144,0.247-0.286
		C-65.712,26.503-65.998,25.918-66.401,25.632z"/>
	<path id="XMLID_68_" d="M-60.759,25.593c-0.351-0.052-0.676,0.104-0.923,0.351c-0.364,0.377-0.52,0.897-0.611,1.392v3.978h-1.144
		v-6.747h1.144v0.846c0.221-0.352,0.741-0.819,1.183-0.897c0.494-0.091,1.04,0.091,1.456,0.351v1.34
		C-59.901,25.957-60.382,25.644-60.759,25.593z"/>
	<path id="XMLID_70_" d="M-54.116,31.053c-0.507,0.313-1.092,0.442-1.69,0.364c-0.65-0.078-1.274-0.416-1.677-0.976v3.498h-1.157
		v-9.36h1.157v0.987c0.325-0.559,0.858-0.936,1.482-1.065c0.637-0.13,1.326,0.013,1.872,0.351c0.585,0.352,0.897,0.832,1.131,1.456
		c0.39,1.066,0.429,2.275,0.026,3.341C-53.193,30.233-53.544,30.702-54.116,31.053z M-54.324,26.204
		c-0.234-0.416-0.702-0.755-1.183-0.807c-0.572-0.052-1.079,0.156-1.404,0.624c-0.702,0.988-0.689,2.51-0.156,3.575
		c0.286,0.56,0.806,0.923,1.456,0.937c0.572,0.013,1.105-0.43,1.339-0.91C-53.765,28.608-53.765,27.191-54.324,26.204z"/>
	<path id="XMLID_73_" d="M-47.303,31.222c-0.78,0.325-1.847,0.286-2.627-0.052c-0.779-0.338-1.364-0.937-1.625-1.769
		c-0.286-0.936-0.272-2.274,0.117-3.158c0.352-0.819,1.014-1.392,1.872-1.639c0.845-0.247,1.833-0.169,2.562,0.234
		c0.767,0.429,1.144,0.962,1.378,1.781c0.247,0.871,0.247,1.858,0.025,2.717C-45.809,30.156-46.51,30.896-47.303,31.222z
		 M-48.721,25.372c-0.715,0.025-1.442,0.507-1.664,1.209c-0.246,0.806-0.221,1.768-0.025,2.612c0.143,0.663,0.78,1.21,1.443,1.313
		c0.754,0.117,1.664-0.117,2.027-0.858c0.469-0.948,0.43-2.301,0.053-3.25C-47.173,25.671-47.954,25.333-48.721,25.372z"/>
	<path id="XMLID_76_" d="M-41.753,25.593c-0.351-0.052-0.676,0.104-0.923,0.351c-0.364,0.377-0.52,0.897-0.611,1.392v3.978h-1.144
		v-6.747h1.144v0.846c0.222-0.352,0.741-0.819,1.184-0.897c0.494-0.091,1.04,0.091,1.456,0.351v1.34
		C-40.895,25.957-41.376,25.644-41.753,25.593z"/>
	<path id="XMLID_78_" d="M-37.113,31.312h-1.053c-0.364,0-0.637-0.091-0.819-0.272c-0.194-0.183-0.299-0.468-0.299-0.832v-4.745
		h-0.949v-0.884h0.949V22.03h1.157v2.535h1.326v0.897h-1.326v4.602c0,0.208,0.208,0.352,0.377,0.352h1.157L-37.113,31.312z"/>
</g>
<g id="XMLID_21_">
	<circle id="XMLID_2_" style="fill:#FFFF00;" cx="-1.449" cy="7.597" r="23.729"/>
	<path id="XMLID_29_" style="fill:none;stroke:#000000;stroke-width:5;stroke-miterlimit:10;" d="M17.201-7.172
		c3.227,4.053,5.155,9.186,5.155,14.769c0,13.105-10.624,23.729-23.729,23.729S-25.102,20.702-25.102,7.597
		s10.624-23.729,23.729-23.729"/>
	<polygon id="XMLID_28_" points="4.504,-16.132 -7.251,-22.997 -7.251,-9.267 	"/>
</g>
<g id="XMLID_12_">
	<path id="XMLID_31_" d="M-16.946,3.945c-0.363,0.378-0.741,0.691-1.134,0.941V3.627c0.854-0.703,1.523-1.689,2.007-2.958h1.156
		c-0.302,0.726-0.631,1.368-0.986,1.927v6.008h-1.043V3.945z M-16.391-1.599h1.145c-0.726,1.859-1.659,3.174-2.8,3.945V1.054
		C-17.343,0.427-16.792-0.458-16.391-1.599z M-13.613,1.564v1.009c-0.008,2.298-0.072,4.255-0.193,5.873h-1.065
		c0.151-1.202,0.227-3.091,0.227-5.668v-4.104c2.313,0,4.365-0.049,6.156-0.147L-8.5-0.442c-0.657,0.023-1.349,0.042-2.075,0.057
		l-0.022,0.953h2.358v0.998h-2.381l-0.022,0.839h0.499C-9.532,2.464-9.067,2.74-8.75,3.231c0.355,0.537,0.533,1.236,0.533,2.097
		c0,0.907-0.178,1.621-0.533,2.143c-0.317,0.56-0.744,0.851-1.281,0.873h-3.106v-5.94h1.462l0.023-0.839H-13.613z M-11.595-0.363
		c-0.65,0.007-1.323,0.015-2.018,0.022v0.907h1.995L-11.595-0.363z M-9.543,4.092c-0.197-0.4-0.51-0.631-0.941-0.691h-1.564v0.691
		H-9.543z M-12.049,4.977v0.737h2.721c0.015-0.167,0.026-0.336,0.034-0.51c0-0.083-0.004-0.159-0.011-0.227H-12.049z M-12.049,6.586
		v0.749h1.734c0.348-0.091,0.605-0.34,0.771-0.749H-12.049z"/>
	<path id="XMLID_39_" d="M-6.278,2.482h1.122v-2.46h-1.111v-0.998h3.311v0.998h-1.145v2.46h0.986v1.066h-0.986v2.54
		c0.333-0.061,0.665-0.136,0.998-0.227v1.077c-0.869,0.227-1.942,0.389-3.22,0.488V6.349c0.393-0.007,0.782-0.034,1.167-0.08V3.548
		h-1.122V2.482z M1.85,2.981c0.393,0.022,0.71,0.144,0.952,0.363C3.075,3.571,3.21,3.866,3.21,4.228
		c0,0.438-0.109,0.775-0.329,1.009C2.67,5.472,2.372,5.604,1.986,5.634H1.204c0.09,0.189,0.185,0.359,0.283,0.51
		c0.574-0.272,1.19-0.427,1.848-0.465v0.93C2.927,6.647,2.508,6.73,2.077,6.859c0.386,0.34,0.839,0.563,1.361,0.668v0.975
		C1.933,8.306,0.856,7.35,0.206,5.634h-0.374c-0.166,0.333-0.359,0.62-0.578,0.862c-0.007,0.121-0.011,0.238-0.011,0.351
		c0,0.174,0.007,0.31,0.022,0.408C-0.674,7.452-0.512,7.55-0.247,7.55C0.259,7.535,0.675,7.505,1,7.459v0.907
		C0.758,8.435,0.232,8.469-0.576,8.469c-0.635,0-1.001-0.234-1.1-0.703c-0.022-0.167-0.038-0.333-0.045-0.499
		c-0.333,0.182-0.699,0.321-1.1,0.42V6.711C-2.125,6.484-1.6,6.125-1.245,5.634h-1.202V2.981H1.85z M-2.81,1.678h6.224v0.907H-2.81
		V1.678z M2.1-1.383c0.393,0.023,0.703,0.147,0.93,0.374c0.264,0.227,0.396,0.521,0.396,0.884c0,0.431-0.106,0.764-0.317,0.998
		C2.912,1.107,2.625,1.239,2.247,1.269h-4.841v-2.653H2.1z M-1.653,0.396h0.726v-0.941h-0.726V0.396z M-1.438,4.728h3.186
		c0.295,0,0.442-0.147,0.442-0.442c0-0.265-0.186-0.404-0.556-0.419h-3.072V4.728z M-0.009-0.544v0.941h0.726v-0.941H-0.009z
		 M1.635-0.544v0.941h0.374c0.287,0,0.431-0.159,0.431-0.476c0-0.294-0.178-0.45-0.533-0.465H1.635z"/>
	<path id="XMLID_48_" d="M7.269-1.599h1.236L6.555,1.02h0.68l0.953-1.292h1.235L6.861,3.106H7.87c0.188,0,0.283-0.136,0.283-0.408
		V1.836h0.964v1.27c0,0.62-0.34,0.949-1.021,0.986H7.779v4.456H6.793V4.092H6.204c-0.469,0-0.703-0.2-0.703-0.601
		c0-0.113,0.098-0.295,0.295-0.544l0.714-0.963H5.739C5.414,1.931,5.251,1.719,5.251,1.349c0-0.128,0.057-0.265,0.17-0.408
		L7.269-1.599z M5.648,4.433h0.85C6.476,6.337,6.086,7.618,5.331,8.276V6.904C5.542,6.382,5.648,5.559,5.648,4.433z M8.04,4.421
		h0.839c0.007,0.824,0.079,1.512,0.215,2.063v1.882C8.52,7.588,8.168,6.273,8.04,4.421z M9.264,3.764h1.213
		c0.529,0,0.793,0.291,0.793,0.873c0,0.604-0.189,1.254-0.567,1.95c-0.438,0.771-0.88,1.255-1.326,1.451V6.904
		C9.559,6.798,9.763,6.511,9.99,6.042c0.219-0.491,0.329-0.899,0.329-1.225c0-0.121-0.053-0.181-0.159-0.181H9.264V3.764z
		 M11.441-1.61h1.327c-0.144,0.227-0.272,0.442-0.386,0.646h0.601c1.254,0.045,1.882,0.764,1.882,2.154
		c0,1.277-0.544,1.973-1.632,2.086h-0.658c0.007,0.242,0.015,0.533,0.022,0.873c0.008,0.038,0.015,0.075,0.023,0.113
		c0.703-0.423,1.462-0.665,2.279-0.726v0.952C14.271,4.55,13.637,4.75,12.994,5.09c0.431,0.695,1.137,1.353,2.12,1.973v1.145
		c-1.066-0.484-1.901-1.183-2.505-2.098c-0.008,0.612-0.034,1.043-0.08,1.292c-0.106,0.643-0.412,0.986-0.918,1.032
		c-0.521-0.015-0.922-0.083-1.202-0.204V7.29c0.302,0.105,0.575,0.159,0.816,0.159c0.151-0.015,0.257-0.155,0.317-0.419
		C11.581,6.87,11.6,6.451,11.6,5.77c-0.007-1.149-0.019-1.98-0.034-2.494L9.695,3.265v-4.229h1.36
		C11.176-1.183,11.305-1.398,11.441-1.61z M10.738,0.691h3.027c-0.091-0.499-0.359-0.748-0.805-0.748h-2.222V0.691z M10.738,2.335
		l2.301,0.011c0.408-0.007,0.654-0.257,0.737-0.749h-3.038V2.335z"/>
</g>
<g id="XMLID_17_">
	<path id="XMLID_8_" d="M-9.893,16.442v0.937c-0.625,0.342-1.347,0.512-2.165,0.512c-0.665,0-1.229-0.134-1.692-0.4
		c-0.463-0.268-0.83-0.635-1.1-1.104c-0.27-0.469-0.405-0.976-0.405-1.521c0-0.867,0.309-1.595,0.927-2.186
		c0.618-0.591,1.38-0.887,2.286-0.887c0.625,0,1.32,0.164,2.084,0.49v0.916c-0.696-0.397-1.376-0.596-2.041-0.596
		c-0.682,0-1.248,0.215-1.698,0.646c-0.451,0.43-0.676,0.969-0.676,1.617c0,0.653,0.222,1.19,0.665,1.611s1.01,0.63,1.7,0.63
		C-11.285,17.106-10.58,16.885-9.893,16.442z"/>
	<path id="XMLID_10_" d="M-8.55,12.253c0.128,0,0.237,0.044,0.328,0.132c0.091,0.088,0.137,0.196,0.137,0.324
		c0,0.125-0.046,0.233-0.137,0.324s-0.2,0.136-0.328,0.136c-0.119,0-0.224-0.046-0.315-0.138c-0.091-0.092-0.136-0.2-0.136-0.322
		c0-0.12,0.045-0.225,0.136-0.318C-8.774,12.299-8.669,12.253-8.55,12.253z M-8.934,13.902h0.775v3.92h-0.775V13.902z"/>
	<path id="XMLID_14_" d="M-6.206,13.902v0.899l0.042-0.068c0.375-0.605,0.75-0.908,1.125-0.908c0.292,0,0.598,0.148,0.917,0.443
		l-0.409,0.682c-0.27-0.255-0.52-0.383-0.75-0.383c-0.25,0-0.467,0.119-0.65,0.358c-0.184,0.239-0.275,0.521-0.275,0.848v2.049
		h-0.78v-3.92H-6.206z"/>
	<path id="XMLID_16_" d="M-0.858,16.907v0.767c-0.389,0.145-0.77,0.217-1.142,0.217c-0.614,0-1.103-0.182-1.468-0.546
		c-0.365-0.363-0.547-0.85-0.547-1.461c0-0.617,0.177-1.114,0.533-1.492c0.355-0.378,0.822-0.567,1.402-0.567
		c0.202,0,0.383,0.02,0.543,0.058c0.161,0.039,0.358,0.11,0.594,0.215v0.827c-0.392-0.25-0.755-0.375-1.091-0.375
		c-0.35,0-0.636,0.123-0.861,0.369s-0.336,0.559-0.336,0.94c0,0.4,0.121,0.719,0.364,0.955c0.243,0.236,0.57,0.353,0.982,0.353
		C-1.586,17.166-1.244,17.08-0.858,16.907z"/>
	<path id="XMLID_19_" d="M2.521,17.822v-0.503C2.357,17.5,2.168,17.641,1.957,17.74c-0.212,0.101-0.423,0.15-0.633,0.15
		c-0.247,0-0.475-0.062-0.684-0.186c-0.209-0.123-0.367-0.291-0.473-0.503c-0.106-0.211-0.16-0.563-0.16-1.054v-2.246h0.775v2.235
		c0,0.411,0.059,0.699,0.177,0.862c0.118,0.163,0.324,0.245,0.62,0.245c0.369,0,0.683-0.181,0.941-0.541v-2.8h0.776v3.92H2.521z"/>
	<path id="XMLID_22_" d="M4.405,11.869h0.775v5.953H4.405V11.869z"/>
	<path id="XMLID_24_" d="M8.765,15.466v1.666c0,0.134,0.045,0.2,0.136,0.2c0.094,0,0.24-0.069,0.439-0.208v0.473
		c-0.176,0.113-0.317,0.191-0.424,0.232c-0.106,0.041-0.218,0.062-0.334,0.062c-0.333,0-0.528-0.131-0.588-0.392
		c-0.33,0.255-0.681,0.383-1.053,0.383c-0.273,0-0.5-0.09-0.682-0.271c-0.182-0.18-0.273-0.407-0.273-0.679
		c0-0.247,0.089-0.468,0.267-0.663c0.177-0.195,0.43-0.349,0.756-0.462l0.993-0.341v-0.209c0-0.472-0.236-0.708-0.708-0.708
		c-0.423,0-0.835,0.219-1.236,0.656v-0.848c0.301-0.355,0.734-0.533,1.3-0.533c0.423,0,0.763,0.111,1.019,0.333
		c0.085,0.071,0.162,0.166,0.23,0.284c0.068,0.118,0.111,0.236,0.13,0.354S8.765,15.137,8.765,15.466z M8.002,17.047v-1.163
		l-0.52,0.2c-0.264,0.105-0.451,0.211-0.56,0.317s-0.164,0.24-0.164,0.398c0,0.162,0.052,0.294,0.155,0.396
		c0.104,0.102,0.238,0.153,0.403,0.153C7.563,17.35,7.792,17.249,8.002,17.047z"/>
	<path id="XMLID_27_" d="M10.857,13.902v0.899l0.042-0.068c0.375-0.605,0.75-0.908,1.125-0.908c0.292,0,0.598,0.148,0.917,0.443
		l-0.409,0.682c-0.27-0.255-0.52-0.383-0.75-0.383c-0.25,0-0.467,0.119-0.65,0.358c-0.184,0.239-0.275,0.521-0.275,0.848v2.049
		h-0.78v-3.92H10.857z"/>
</g>
</svg>
