<?xml version="1.0" encoding="utf-8"?>
<!-- Generator: Adobe Illustrator 19.0.0, SVG Export Plug-In . SVG Version: 6.00 Build 0)  -->
<svg version="1.1" id="圖層_1" xmlns="http://www.w3.org/2000/svg" xmlns:xlink="http://www.w3.org/1999/xlink" x="0px" y="0px"
	 viewBox="50 -26.019 272.126 85.039" style="enable-background:new 50 -26.019 272.126 85.039;" xml:space="preserve">
<style type="text/css">
	.st0{fill:url(#XMLID_3_);}
	.st1{fill:#ECECEC;}
	.st2{fill:#0079C4;}
	.st3{fill:url(#XMLID_4_);}
	.st4{fill:#00FF00;}
</style>
<radialGradient id="XMLID_3_" cx="186.1066" cy="15.3782" r="100.9042" gradientTransform="matrix(0.9998 0 0 -0.9905 -0.0064 31.7326)" gradientUnits="userSpaceOnUse">
	<stop  offset="0.2193" style="stop-color:#00FF00;stop-opacity:0"/>
	<stop  offset="1" style="stop-color:#035353"/>
</radialGradient>
<path id="XMLID_63_" class="st0" d="M310.805,59.02H61.321C55.069,59.02,50,53.951,50,47.699v-62.397
	c0-6.252,5.069-11.321,11.321-11.321h249.484c6.252,0,11.321,5.069,11.321,11.321v62.397
	C322.126,53.951,317.058,59.02,310.805,59.02z"/>
<path id="XMLID_62_" class="st1" d="M305.854,53.976H66.272c-5.742,0-10.396-4.655-10.396-10.396v-54.159
	c0-5.742,4.655-10.396,10.396-10.396h239.582c5.742,0,10.396,4.655,10.396,10.396V43.58
	C316.25,49.321,311.596,53.976,305.854,53.976z"/>
<g id="XMLID_31_">
	<path id="XMLID_93_" class="st2" d="M82.343,16.159c-0.866,0.267-1.745,0.433-2.53,0.8c-1.646,0.771-2.42,2.152-2.529,3.958
		c-0.138,2.281,0.934,3.986,2.528,5.438c1.392,1.268,2.976,2.268,4.641,3.137c0.266,0.139,0.561,0.258,0.854,0.298
		c0.859,0.116,1.399-0.112,1.719-0.924c0.397-1.004,0.741-2.05,0.935-3.109c0.521-2.845,0.994-5.702,1.401-8.566
		c0.258-1.819,0.356-3.661,0.545-5.491c0.046-0.448-0.092-0.695-0.502-0.918c-2.562-1.395-4.936-3.053-6.955-5.181
		c-2.222-2.343-3.827-5.022-4.436-8.234c-0.549-2.896-0.252-5.647,1.556-8.079c1.893-2.546,4.413-4.156,7.563-4.597
		c1.037-0.145,2.13,0.114,3.198,0.17c0.293,0.015,0.62,0.041,0.88-0.064c2.289-0.928,4.72,0.466,5.108,2.903
		c0.272,1.708-0.878,3.25-2.085,3.819c-0.33,0.155-0.471,0.332-0.485,0.714c-0.061,1.651-0.204,3.3-0.239,4.952
		c-0.063,2.93-0.062,5.862-0.112,8.793c-0.007,0.399,0.136,0.533,0.493,0.656c2.288,0.787,4.608,1.503,6.838,2.434
		c3.712,1.551,7.191,3.529,10.202,6.245c1.796,1.621,3.287,3.475,4.282,5.701c1.253,2.802,1.199,5.658,0.322,8.534
		c-0.679,2.227-1.789,4.244-3.117,6.148c-0.191,0.274-0.343,0.288-0.632,0.136c-2.171-1.139-4.35-2.261-6.735-2.908
		c-1.607-0.436-3.242-0.651-4.903-0.563c-1.632,0.086-3.194,0.517-4.738,1.038c-0.904,0.305-1.82,0.605-2.755,0.778
		c-1.235,0.229-2.482,0.16-3.695-0.231c-1.103-0.355-2.199-0.735-3.313-1.053c-2.764-0.789-5.523-0.702-8.274,0.099
		c-2.117,0.616-4.076,1.592-6.026,2.592c-0.533,0.273-0.531,0.28-0.794-0.238c-1.533-3.025-2.213-6.24-1.887-9.606
		c0.407-4.204,2.401-7.512,5.971-9.825c1.825-1.182,3.819-1.361,5.895-0.933C81.295,15.138,81.897,15.586,82.343,16.159z
		 M90.318,5.446c0.071-0.973,0.147-1.865,0.2-2.758c0.071-1.201,0.128-2.403,0.186-3.605c0.113-2.376,0.23-4.751,0.32-7.128
		c0.008-0.205-0.112-0.497-0.272-0.612c-0.939-0.676-1.57-1.524-1.744-2.694c-0.024-0.163-0.201-0.357-0.357-0.437
		c-0.626-0.319-1.293-0.397-1.984-0.233c-2.313,0.549-4.108,1.798-5,4.041c-0.984,2.475-0.543,4.869,0.894,7.044
		c1.828,2.768,4.389,4.719,7.314,6.218C89.986,5.34,90.111,5.371,90.318,5.446z M93.537,12.786
		c-0.015,0.143-0.036,0.242-0.033,0.341c0.032,1.204,0.043,2.409,0.108,3.611c0.057,1.055,0.138,2.112,0.273,3.159
		c0.288,2.239,0.605,4.474,0.937,6.707c0.106,0.713,0.251,1.428,0.46,2.116c0.218,0.716,0.746,0.848,1.351,0.395
		c0.208-0.156,0.396-0.341,0.575-0.529c1.036-1.084,1.649-2.409,2.138-3.8c0.834-2.374,0.894-4.715-0.354-6.981
		c-1.193-2.167-2.991-3.708-5.119-4.902C93.78,12.85,93.667,12.83,93.537,12.786z M91.285,29.721
		c0.092-0.084,0.144-0.116,0.174-0.163c0.071-0.109,0.133-0.224,0.196-0.339c0.544-0.988,0.515-2.068,0.481-3.141
		c-0.091-2.871-0.201-5.741-0.303-8.612c-0.061-1.711-0.122-3.422-0.187-5.132c-0.003-0.082-0.05-0.163-0.076-0.244
		c-0.118,0.174-0.144,0.338-0.155,0.504c-0.065,1.012-0.124,2.025-0.188,3.038c-0.112,1.765-0.227,3.53-0.338,5.295
		c-0.067,1.056-0.141,2.112-0.191,3.168c-0.063,1.317-0.144,2.635-0.139,3.952C90.56,28.653,90.841,29.216,91.285,29.721z
		 M93.854-11.896c0.006-0.789-0.512-1.335-1.274-1.343c-0.754-0.007-1.341,0.559-1.342,1.295c-0.001,0.74,0.545,1.298,1.274,1.305
		C93.328-10.631,93.848-11.119,93.854-11.896z"/>
	<path id="XMLID_92_" class="st2" d="M77.016,42.872c1.488-0.665,2.857-1.188,4.339-1.397c1.987-0.28,3.856,0.156,5.703,0.818
		c1.298,0.465,2.623,0.844,4.014,0.884c1.287,0.037,2.531-0.223,3.756-0.611c1.117-0.354,2.229-0.744,3.371-0.993
		c1.765-0.386,3.517-0.192,5.221,0.402c0.655,0.228,1.3,0.482,2.053,0.762c-0.22,0.17-0.359,0.283-0.504,0.387
		c-3.51,2.513-7.305,4.442-11.48,5.587c-0.767,0.21-1.546,0.398-2.332,0.51c-0.352,0.05-0.742-0.082-1.101-0.18
		c-3.854-1.059-7.517-2.567-10.902-4.712C78.459,43.891,77.795,43.405,77.016,42.872z"/>
	<path id="XMLID_91_" class="st2" d="M71.826,37.474c0.453-0.235,0.846-0.445,1.243-0.645c1.906-0.961,3.841-1.858,5.943-2.306
		c2.287-0.487,4.545-0.371,6.774,0.372c1.181,0.394,2.369,0.784,3.578,1.073c1.823,0.436,3.624,0.208,5.394-0.37
		c1.17-0.382,2.335-0.803,3.532-1.074c2.495-0.565,4.971-0.356,7.349,0.568c1.793,0.698,3.535,1.529,5.416,2.353
		c-0.433,0.489-0.75,0.875-1.104,1.223c-0.062,0.061-0.294-0.012-0.427-0.07c-1.339-0.593-2.647-1.264-4.014-1.782
		c-3.394-1.284-6.798-1.199-10.203,0.041c-0.974,0.355-1.998,0.589-3.014,0.807c-1.164,0.25-2.306,0.012-3.428-0.321
		c-1.388-0.412-2.754-0.931-4.167-1.217c-2.324-0.471-4.659-0.338-6.894,0.493c-1.559,0.579-3.07,1.291-4.587,1.977
		c-0.328,0.149-0.511,0.151-0.704-0.162C72.318,38.118,72.082,37.827,71.826,37.474z"/>
	<path id="XMLID_90_" class="st2" d="M108.426,40.225c-0.424,0.383-0.806,0.757-1.224,1.084c-0.092,0.072-0.322,0.013-0.47-0.039
		c-1.323-0.467-2.618-1.029-3.966-1.404c-2.424-0.675-4.809-0.358-7.169,0.453c-1.144,0.393-2.337,0.655-3.519,0.925
		c-1.066,0.243-2.103-0.032-3.122-0.326c-1.266-0.366-2.509-0.817-3.786-1.134c-2.138-0.53-4.265-0.309-6.336,0.368
		c-1.044,0.341-2.05,0.801-3.063,1.23c-0.246,0.104-0.412,0.128-0.61-0.084c-0.314-0.338-0.658-0.648-1.068-1.046
		c0.099-0.04,0.155-0.057,0.206-0.084c1.761-0.931,3.572-1.734,5.53-2.162c2.184-0.478,4.308-0.256,6.411,0.473
		c1.133,0.393,2.285,0.78,3.461,0.981c1.444,0.247,2.916,0.23,4.348-0.215c1.355-0.421,2.699-0.89,4.075-1.228
		c2.094-0.514,4.185-0.324,6.201,0.395c1.294,0.461,2.537,1.064,3.801,1.607C108.214,40.056,108.287,40.128,108.426,40.225z"/>
</g>
<g id="XMLID_50_">
	
		<linearGradient id="XMLID_4_" gradientUnits="userSpaceOnUse" x1="102.761" y1="15.1115" x2="144.365" y2="15.1115" gradientTransform="matrix(-1 0 0 1 252.364 1.935)">
		<stop  offset="0" style="stop-color:#00FF00;stop-opacity:0"/>
		<stop  offset="0.3" style="stop-color:#00FF00"/>
	</linearGradient>
	<rect id="XMLID_53_" x="107.999" y="12.457" class="st3" width="41.604" height="9.179"/>
	<polygon id="XMLID_52_" class="st4" points="115.945,3.985 128.653,3.985 115.47,17.046 102.761,17.046 	"/>
	<polygon id="XMLID_51_" class="st4" points="115.47,16.87 102.761,16.87 115.945,29.932 128.653,29.932 	"/>
</g>
<g id="XMLID_1_">
</g>
<g id="XMLID_124_">
</g>
<g id="XMLID_125_">
</g>
<g id="XMLID_126_">
</g>
<g id="XMLID_127_">
</g>
<g id="XMLID_128_">
</g>
<g>
	<path d="M190.43,2.582h1.439v11.459h-2.729V3.751h-3.03c2.49-2.61,4.17-5.67,5.55-8.73h2.82
		C193.43-2.338,192.08,0.182,190.43,2.582z M189.529-5.188H186.2c2.069-2.1,3.449-4.59,4.739-7.05h3
		C192.739-9.778,191.3-7.408,189.529-5.188z M193.699,14.041v-2.13h8.04v-8.13h-6.689v-2.16h6.689v-7.53h-7.38v-2.1h6.93
		c-0.39-0.9-1.26-3.12-1.5-4.23h2.79c0.3,1.26,1.14,3.42,1.56,4.2h7.5v2.13h-7.109v7.53h6.39v2.13h-6.39v8.16h7.829v2.13H193.699z"
		/>
	<path d="M219.56-5.908c-1.319-2.01-2.46-4.05-3.329-6.21h2.939c1.02,2.13,2.25,4.23,3.72,6.21H219.56z M219.26,14.071h-3.029
		c1.68-3.48,2.76-7.2,3.51-11.04h2.76C221.93,6.391,220.85,10.471,219.26,14.071z M219.38,1.622c-1.32-2.04-2.37-4.2-3.12-6.51h2.91
		c0.78,2.34,2.1,4.38,3.39,6.51H219.38z M226.1,12.691h-3.3c2.01-2.49,3.42-5.37,4.35-8.37h2.82
		C229.1,7.261,227.84,10.081,226.1,12.691z M227.779-1.079h-4.92c2.641-1.08,5.88-3.51,5.82-7.35h2.79
		C231.35-5.578,230.3-2.818,227.779-1.079z M233.93,3.151v10.919h-2.641V3.151h-8.129v-2.07h8.129v-2.61h2.641v2.61h8.039v2.07
		H233.93z M238.939-5.908v-3.15c0-0.45-0.24-0.75-0.721-0.75h-11.189c-0.359,0-0.75,0.3-0.75,0.84v3.09H223.7v-3.27
		c0-0.96,0.3-1.59,0.75-2.01c0.6-0.57,1.47-0.75,2.34-0.75h12.359c0.75,0,1.38,0.33,1.8,0.81c0.39,0.48,0.63,1.14,0.63,1.86v3.33
		H238.939z M241.249-1.079h-5.1c-0.78,0-1.38-0.33-1.8-0.81c-0.45-0.54-0.721-1.229-0.721-1.86v-4.68h2.67v4.53
		c0,0.45,0.33,0.81,0.66,0.81h5.31L241.249-1.079z M239.119,12.691c-1.65-2.64-2.88-5.43-3.78-8.37h2.761
		c1.02,2.91,2.55,5.73,4.26,8.37H239.119z"/>
	<path d="M249.02,14.041h-2.909c1.05-2.76,2.399-7.74,2.699-10.77h2.58C251,6.031,249.89,11.161,249.02,14.041z M248.78-5.908
		c-0.721-1.41-2.04-4.5-2.61-6.3h2.76c0.42,1.62,1.771,4.65,2.76,6.3H248.78z M248.69,1.741c-0.811-1.56-2.04-4.8-2.49-6.6h2.729
		c0.42,1.77,1.8,4.95,2.76,6.6H248.69z M253.43,0.961h-1.68c0.33-1.05,0.63-2.97,0.72-4.35h1.5
		C253.91-2.039,253.729-0.179,253.43,0.961z M268.129-5.668h2.13c-0.12-0.42-0.3-1.17-0.359-1.5h1.649c0.12,0.78,0.54,2.28,0.9,3.06
		h-1.71c-0.12-0.3-0.3-0.9-0.42-1.23l-0.72,1.23h-2.881c-0.569,0-0.93-0.27-1.05-0.63s0-0.84,0.391-1.23
		c0.6-0.63,1.529-1.62,1.859-2.07h-0.989c-0.301,0-0.54-0.06-0.721-0.18c-0.239-0.15-0.359-0.39-0.449-0.66h-7.141v-0.69
		c-0.899,0.93-2.939,3.03-3.959,4.02h2.1c-0.09-0.39-0.24-1.05-0.271-1.47h1.65c0.09,0.81,0.45,2.19,0.78,2.97h-1.71
		c-0.091-0.24-0.271-0.75-0.36-1.05l-0.689,1.05h-3.33c-0.36,0-0.66-0.24-0.78-0.54c-0.15-0.3-0.12-0.66,0.15-0.93
		c0.72-0.69,1.739-1.77,2.34-2.43h-1.44c-0.42,0-0.75-0.24-0.899-0.54c-0.15-0.33-0.15-0.84,0.149-1.11
		c0.601-0.6,1.86-1.92,2.46-2.58h2.55c-0.689,0.75-2.04,2.16-2.729,2.85h1.29c0.21-0.21,0.63-0.63,0.779-0.81h1.92v-0.48h2.34
		c-0.149-0.42-0.329-1.17-0.42-1.59h2.431c0.029,0.39,0.239,1.17,0.39,1.59h2.61v0.81c0.6-0.63,1.619-1.83,2.13-2.46h2.279
		c-0.54,0.72-1.74,2.16-2.399,2.88h1.229c0.33-0.33,0.84-0.9,1.08-1.23h2.28C271.459-9.328,269.569-7.198,268.129-5.668z
		 M271.189,13.291c-0.391,0.45-1.021,0.75-1.65,0.75h-8.159l-1.141-1.89h8.25c0.24,0,0.51-0.33,0.51-0.6v-0.66
		c0-0.27-0.24-0.63-0.51-0.63H255.17c-0.63,0-1.141-0.18-1.5-0.54c-0.33-0.33-0.51-0.78-0.51-1.38v-1.02c0-0.78,0.27-1.32,0.75-1.68
		c0.39-0.27,0.899-0.42,1.56-0.42h12.6c0.27,0,0.54-0.33,0.54-0.57v-0.33c0-0.27-0.24-0.51-0.51-0.51h-15.27v-1.74h16.469
		c0.66,0,1.23,0.18,1.59,0.51c0.271,0.3,0.45,0.69,0.45,1.23v1.35c0,0.57-0.21,1.02-0.569,1.35c-0.36,0.3-0.87,0.48-1.471,0.48
		H256.31c-0.24,0-0.479,0.24-0.479,0.51v0.51c0,0.27,0.239,0.51,0.51,0.51h13.379c0.57,0,0.99,0.21,1.32,0.48
		c0.39,0.39,0.6,0.9,0.6,1.44v1.65C271.639,12.541,271.459,12.961,271.189,13.291z M254.899,0.961
		c-0.149-1.05-0.359-3.24-0.359-4.35h1.38c-0.03,1.11,0.18,3.24,0.39,4.35H254.899z M257.06,0.961c-0.24-1.2-0.45-3.27-0.479-4.35
		h1.35c0.03,1.23,0.33,3.27,0.57,4.35H257.06z M264.89,0.571c-0.271,0.27-0.63,0.42-1.08,0.42h-3.48c-0.479,0-0.869-0.12-1.109-0.39
		c-0.271-0.27-0.42-0.63-0.42-1.11v-1.29c0-0.57,0.18-1.02,0.54-1.32c0.27-0.21,0.63-0.3,1.08-0.3h3.359c0.48,0,0.9,0.18,1.17,0.51
		c0.21,0.27,0.33,0.6,0.33,1.05v1.38C265.279-0.059,265.129,0.301,264.89,0.571z M259.13-6.538v-1.5h6.06v1.5H259.13z M259.13-4.228
		v-1.53h6.09v1.53H259.13z M263.209-1.468c0-0.21-0.18-0.45-0.39-0.45h-1.53c-0.21,0-0.449,0.21-0.449,0.45v0.48
		c0,0.24,0.21,0.45,0.449,0.45h1.561c0.21,0,0.359-0.21,0.359-0.42V-1.468z M267.02,0.932h-1.62c0.42-1.29,0.689-3.18,0.75-4.38h1.5
		C267.649-2.278,267.35-0.238,267.02,0.932z M268.52,0.932c-0.181-0.99-0.33-3.15-0.301-4.38h1.351c0.03,1.17,0.27,3.39,0.45,4.38
		H268.52z M270.859,0.932c-0.21-1.05-0.45-3.24-0.54-4.38h1.439c0.09,1.11,0.36,3.3,0.57,4.38H270.859z"/>
</g>
<g>
	<path d="M179.375,29.047V40.66h-1.638V29.047h-4.483v-1.279h10.515v1.279H179.375z"/>
	<path d="M190.858,40.516c-1.08,0.45-2.557,0.396-3.637-0.072c-1.08-0.468-1.891-1.296-2.25-2.448
		c-0.396-1.297-0.378-3.151,0.162-4.375c0.486-1.135,1.404-1.927,2.592-2.269c1.171-0.343,2.539-0.234,3.547,0.323
		c1.063,0.595,1.585,1.333,1.909,2.467c0.342,1.207,0.342,2.575,0.036,3.764C192.93,39.039,191.957,40.065,190.858,40.516z
		 M188.896,32.413c-0.99,0.036-1.999,0.702-2.305,1.675c-0.343,1.116-0.307,2.449-0.036,3.619c0.198,0.918,1.08,1.675,1.998,1.818
		c1.045,0.162,2.305-0.162,2.81-1.188c0.647-1.314,0.594-3.187,0.071-4.501C191.039,32.827,189.958,32.359,188.896,32.413z"/>
	<path d="M208.265,31.423c-0.071-0.612-0.216-1.242-0.611-1.729c-0.379-0.432-0.829-0.612-1.387-0.72
		c-0.937-0.198-1.98-0.108-2.863,0.09c-0.576,0.126-1.152,0.594-1.404,1.152c-0.233,0.522-0.216,1.242,0.072,1.746
		c0.288,0.541,0.828,0.738,1.458,0.864c1.513,0.324,3.295,0.721,4.394,1.081c0.738,0.233,1.477,0.756,1.873,1.458
		c0.468,0.847,0.485,2.07,0.144,2.935c-0.288,0.774-0.828,1.314-1.513,1.729c-1.242,0.738-2.772,0.847-4.303,0.721
		c-1.171-0.09-2.341-0.468-3.188-1.332c-0.738-0.757-1.134-1.837-1.314-2.827h1.675c0.072,0.864,0.504,1.692,1.188,2.215
		c0.666,0.485,1.53,0.702,2.358,0.738c0.847,0.054,2.071-0.108,2.81-0.595c0.611-0.414,0.936-1.08,0.936-1.836
		c0.019-0.793-0.45-1.459-1.188-1.747c-0.756-0.306-2.305-0.63-3.366-0.811c-0.973-0.18-2.233-0.594-2.917-1.242
		c-0.792-0.738-1.026-1.872-0.757-2.898c0.217-0.864,0.847-1.692,1.639-2.143c1.242-0.702,3.476-0.774,4.897-0.486
		c0.883,0.18,1.692,0.702,2.269,1.513c0.45,0.63,0.648,1.368,0.793,2.124H208.265z"/>
	<path d="M218.074,40.66v-6.212c0-0.738-0.306-1.368-0.864-1.729c-0.612-0.396-1.351-0.324-2.053-0.181
		c-0.882,0.181-1.639,0.9-1.98,1.765v6.356h-1.584V27.786h1.584v4.591c0.721-0.702,1.621-1.116,2.557-1.206
		c1.009-0.107,2.143,0.09,2.881,0.757c0.648,0.611,1.045,1.494,1.045,2.286v6.446H218.074z"/>
	<path d="M227.794,40.66v-1.188c-0.54,0.72-1.332,1.188-2.215,1.332c-0.918,0.145-1.926-0.018-2.683-0.576
		c-0.738-0.558-1.206-1.458-1.206-2.557v-6.374h1.656v6.59c0,0.559,0.288,1.171,0.774,1.477c0.45,0.288,1.044,0.307,1.549,0.162
		c0.899-0.234,1.746-0.972,2.124-1.801v-6.428h1.639l-0.018,9.363H227.794z"/>
	<path d="M242.736,40.66v-6.519c0-0.521-0.126-1.098-0.541-1.422c-0.504-0.396-1.296-0.433-1.944-0.234
		c-0.72,0.216-1.26,0.756-1.62,1.387v6.788h-1.566v-6.608c0-0.684-0.396-1.387-1.063-1.639c-0.63-0.233-1.261-0.107-1.801,0.198
		c-0.612,0.342-1.044,0.918-1.206,1.621v6.428h-1.566v-9.363h1.566v1.099c0.522-0.595,1.044-1.044,1.818-1.225
		c0.648-0.162,1.351-0.126,2.017,0.145c0.54,0.216,1.08,0.612,1.404,1.152c0.612-0.793,1.459-1.171,2.413-1.314
		c0.972-0.145,2.07,0,2.809,0.684c0.631,0.559,0.828,1.333,0.828,2.251v6.572H242.736z"/>
	<path d="M262.933,40.66h-1.621l-3.024-9.795l-2.737,9.795h-1.71l-3.476-12.874h1.603l2.773,10.047l2.79-10.047h1.495l3.007,9.849
		l2.574-9.849h1.603L262.933,40.66z"/>
	<path d="M274.072,40.66c-0.162-0.396-0.306-0.864-0.36-1.242c-0.811,0.737-1.818,1.26-2.917,1.386
		c-0.774,0.09-1.638,0.019-2.305-0.342c-0.594-0.324-1.026-0.792-1.224-1.44c-0.217-0.666-0.198-1.44,0.035-2.07
		c0.288-0.738,0.864-1.225,1.639-1.495c0.648-0.233,1.566-0.324,2.323-0.396c0.846-0.072,1.8-0.396,2.305-0.847
		c0.036-0.342,0-0.9-0.343-1.278c-0.324-0.342-0.828-0.522-1.314-0.576c-0.63-0.09-1.422,0.018-2.017,0.271
		c-0.594,0.252-0.954,0.756-1.116,1.368h-1.692c0.126-0.99,0.954-1.909,1.891-2.358c0.792-0.379,1.999-0.559,2.863-0.522
		c0.936,0.036,1.944,0.306,2.61,0.99c0.54,0.576,0.738,1.332,0.721,2.232c-0.019,1.171-0.019,2.755,0,3.583
		c0.018,0.9,0.306,2.071,0.666,2.737H274.072z M273.532,35.708c-0.648,0.343-1.387,0.595-2.053,0.648
		c-0.63,0.054-1.242,0.126-1.711,0.288c-0.432,0.162-0.702,0.36-0.882,0.757c-0.162,0.378-0.18,0.828-0.054,1.224
		c0.144,0.414,0.485,0.685,0.9,0.828c0.342,0.108,0.773,0.091,1.152,0.019c1.116-0.181,2.034-0.774,2.646-1.729
		C273.532,37.148,273.532,36.267,273.532,35.708z"/>
	<path d="M283.306,40.66v-6.068c0-0.846-0.252-1.765-1.08-2.088c-0.721-0.271-1.585-0.145-2.232,0.252
		c-0.811,0.485-1.081,1.224-1.081,2.124v5.78h-1.62v-9.363h1.404v1.063c0.504-0.612,1.099-0.973,2.017-1.152
		c1.044-0.198,2.287,0.036,3.043,0.612c0.882,0.666,1.171,1.44,1.171,2.503v6.338H283.306z"/>
</g>
</svg>
