<?xml version="1.0" encoding="utf-8"?>
<!-- Generator: Adobe Illustrator 19.0.0, SVG Export Plug-In . SVG Version: 6.00 Build 0)  -->
<svg version="1.1" id="圖層_1" xmlns="http://www.w3.org/2000/svg" xmlns:xlink="http://www.w3.org/1999/xlink" x="0px" y="0px"
	 viewBox="-112.672 -35.353 272.126 85.039" style="enable-background:new -112.672 -35.353 272.126 85.039;" xml:space="preserve">
<style type="text/css">
	.st0{fill:url(#XMLID_113_);}
	.st1{fill:#ECECEC;}
	.st2{fill:#0079C4;}
	.st3{fill:url(#XMLID_114_);}
	.st4{fill:#FF0000;}
</style>
<g id="XMLID_3_">
	
		<radialGradient id="XMLID_113_" cx="23.423" cy="7.3121" r="100.9072" gradientTransform="matrix(0.9998 0 0 0.9905 -0.0264 0.0641)" gradientUnits="userSpaceOnUse">
		<stop  offset="0.2193" style="stop-color:#00FF00;stop-opacity:0"/>
		<stop  offset="1" style="stop-color:#035353"/>
	</radialGradient>
	<path id="XMLID_63_" class="st0" d="M148.133,49.827h-249.484c-6.252,0-11.321-5.069-11.321-11.321v-62.397
		c0-6.252,5.069-11.321,11.321-11.321h249.484c6.252,0,11.321,5.069,11.321,11.321v62.397
		C159.454,44.758,154.386,49.827,148.133,49.827z"/>
	<path id="XMLID_62_" class="st1" d="M143.182,44.783H-96.4c-5.742,0-10.396-4.655-10.396-10.396v-54.159
		c0-5.742,4.655-10.396,10.396-10.396h239.582c5.742,0,10.396,4.655,10.396,10.396v54.159
		C153.578,40.128,148.924,44.783,143.182,44.783z"/>
	<g id="XMLID_49_">
		<path id="XMLID_69_" d="M12.709-6.716h1.44V4.632H11.42v-10.19H8.39c2.49-2.584,4.17-5.615,5.55-8.645h2.82
			C15.709-11.589,14.36-9.093,12.709-6.716z M11.81-14.411H8.48c2.07-2.08,3.45-4.545,4.74-6.981h3
			C15.02-18.957,13.58-16.609,11.81-14.411z M15.979,4.632V2.523h8.04v-8.051H17.33v-2.139h6.689v-7.457H16.64v-2.08h6.93
			c-0.39-0.892-1.26-3.09-1.5-4.189h2.79c0.3,1.248,1.14,3.387,1.56,4.159h7.5v2.109h-7.11v7.457h6.39v2.109h-6.39v8.081h7.83v2.109
			H15.979z"/>
		<path id="XMLID_73_" d="M47.982-17.59c0.3,0.743,0.78,1.664,1.29,2.466h-3.21c-0.45-0.802-0.81-1.634-1.14-2.466h-1.71
			c-0.39,0.772-0.9,1.664-1.56,2.466h-3.36c1.62-1.901,2.82-3.951,3.63-6.18h3c-0.18,0.535-0.45,1.188-0.72,1.693h7.44v2.021H47.982
			z M62.472,3.741c-0.48,0.505-1.2,0.772-2.04,0.772h-4.74l-0.84-1.99h4.8c0.42,0,0.72-0.327,0.72-0.683v-2.704H42.703v5.377h-2.729
			v-13.31c0-0.535,0.24-1.04,0.6-1.456c0.45-0.535,1.14-0.891,1.83-0.891h1.92c-0.69-1.04-1.41-2.288-1.95-3.417h3.09
			c0.48,1.069,1.2,2.347,2.01,3.417h2.7v-4.1h2.73v4.1h2.64c0.87-1.04,1.59-2.228,2.13-3.417h3.24c-0.57,1.188-1.29,2.317-2.1,3.417
			h1.53c1.02,0,1.83,0.327,2.31,0.951c0.36,0.475,0.57,1.129,0.57,1.961v10.13C63.222,2.671,62.922,3.295,62.472,3.741z
			 M60.372-8.351c0-0.356-0.45-0.802-0.93-0.802h-15.87c-0.39,0-0.87,0.446-0.87,0.743v1.367h17.669V-8.351z M60.372-5.023H42.703
			v2.139h17.669V-5.023z M59.922-17.59c0.42,0.802,0.9,1.664,1.47,2.466h-3.24c-0.54-0.832-0.99-1.693-1.32-2.466h-1.65
			c-0.33,0.564-0.78,1.307-1.2,1.812h-3.3c1.38-1.723,2.58-3.535,3.3-5.526h2.94c-0.15,0.505-0.45,1.188-0.69,1.693h8.28v2.021
			H59.922z"/>
		<path id="XMLID_79_" d="M77.975-17.946c0.42,0.743,1.2,1.99,1.68,2.703h-3.42c-0.54-0.891-1.02-1.782-1.41-2.703h-1.32
			c-0.51,0.921-1.05,1.842-1.77,2.703h-3.419c1.68-1.872,2.91-4.04,3.78-6.209h3.06c-0.21,0.535-0.51,1.218-0.69,1.575h7.17v1.931
			H77.975z M73.536,4.513h-5.1c2.22-1.069,4.26-2.763,6.24-4.516h3.99C77.105,1.632,75.335,3.177,73.536,4.513z M68.616-0.834
			v-1.961h3.69v-8.734h-3.18v-1.901h3.18v-1.277h2.73v1.307h12.99v-1.307h2.79v1.307h3.12v1.931h-3.12v8.675h3.84v1.961H68.616z
			 M88.025-11.5h-12.99v1.545h12.99V-11.5z M88.025-8.024h-12.99v1.575h12.99V-8.024z M88.025-4.488h-12.99v1.693h12.99V-4.488z
			 M89.976-17.946c0.359,0.861,1.08,2.08,1.47,2.703h-3.27c-0.511-0.861-0.931-1.842-1.29-2.703h-1.531
			c-0.42,0.743-1.11,1.96-1.68,2.703h-3.42c1.62-1.901,2.79-3.981,3.689-6.209h3.031c-0.18,0.446-0.51,1.218-0.69,1.575h8.37v1.931
			H89.976z M88.896,4.513c-1.68-1.307-3.541-2.881-4.891-4.516h4.021c1.56,1.485,3.87,3.536,6.21,4.516H88.896z"/>
		<path id="XMLID_88_" d="M101.278,4.632h-2.909c1.05-2.733,2.399-7.665,2.699-10.666h2.58C103.259-3.3,102.148,1.78,101.278,4.632z
			 M101.039-15.124c-0.721-1.396-2.04-4.457-2.61-6.239h2.76c0.42,1.604,1.771,4.604,2.76,6.239H101.039z M100.949-7.548
			c-0.811-1.545-2.04-4.753-2.49-6.536h2.729c0.42,1.753,1.8,4.902,2.76,6.536H100.949z M105.688-8.321h-1.68
			c0.33-1.04,0.63-2.941,0.72-4.308h1.5C106.169-11.292,105.988-9.45,105.688-8.321z M120.388-14.886h2.13
			c-0.12-0.416-0.3-1.159-0.359-1.486h1.649c0.12,0.772,0.54,2.258,0.9,3.03h-1.71c-0.12-0.297-0.3-0.891-0.42-1.218l-0.72,1.218
			h-2.881c-0.569,0-0.93-0.267-1.05-0.624s0-0.832,0.391-1.218c0.6-0.624,1.529-1.604,1.859-2.05h-0.989
			c-0.301,0-0.54-0.06-0.721-0.178c-0.239-0.148-0.359-0.386-0.449-0.654h-7.141v-0.683c-0.899,0.921-2.939,3-3.959,3.981h2.1
			c-0.09-0.386-0.24-1.04-0.271-1.456h1.65c0.09,0.802,0.45,2.168,0.78,2.941h-1.71c-0.091-0.238-0.271-0.743-0.36-1.04l-0.689,1.04
			h-3.33c-0.36,0-0.66-0.238-0.78-0.535c-0.15-0.297-0.12-0.654,0.15-0.921c0.72-0.684,1.739-1.753,2.34-2.407h-1.44
			c-0.42,0-0.75-0.237-0.899-0.535c-0.15-0.327-0.15-0.832,0.149-1.099c0.601-0.594,1.86-1.901,2.46-2.555h2.55
			c-0.689,0.743-2.04,2.139-2.729,2.823h1.29c0.21-0.208,0.63-0.624,0.779-0.802h1.92v-0.476h2.34
			c-0.149-0.416-0.329-1.159-0.42-1.574h2.431c0.029,0.386,0.239,1.158,0.39,1.574h2.61v0.802c0.6-0.624,1.619-1.812,2.13-2.436
			h2.279c-0.54,0.713-1.74,2.139-2.399,2.852h1.229c0.33-0.327,0.84-0.891,1.08-1.218h2.28
			C123.718-18.511,121.828-16.402,120.388-14.886z M123.448,3.89c-0.391,0.445-1.021,0.743-1.65,0.743h-8.159l-1.141-1.872h8.25
			c0.24,0,0.51-0.327,0.51-0.594V1.513c0-0.267-0.24-0.624-0.51-0.624h-13.319c-0.63,0-1.141-0.179-1.5-0.535
			c-0.33-0.327-0.51-0.772-0.51-1.366v-1.01c0-0.772,0.27-1.307,0.75-1.664c0.39-0.268,0.899-0.416,1.56-0.416h12.6
			c0.27,0,0.54-0.327,0.54-0.564v-0.327c0-0.267-0.24-0.505-0.51-0.505h-15.27v-1.723h16.469c0.66,0,1.23,0.178,1.59,0.505
			c0.271,0.297,0.45,0.683,0.45,1.218v1.337c0,0.564-0.21,1.01-0.569,1.337c-0.36,0.297-0.87,0.476-1.471,0.476h-12.989
			c-0.24,0-0.479,0.237-0.479,0.505v0.505c0,0.268,0.239,0.505,0.51,0.505h13.379c0.57,0,0.99,0.208,1.32,0.475
			c0.39,0.386,0.6,0.891,0.6,1.426v1.634C123.897,3.147,123.718,3.563,123.448,3.89z M107.158-8.321
			c-0.149-1.04-0.359-3.208-0.359-4.308h1.38c-0.03,1.099,0.18,3.208,0.39,4.308H107.158z M109.318-8.321
			c-0.24-1.188-0.45-3.238-0.479-4.308h1.35c0.03,1.218,0.33,3.238,0.57,4.308H109.318z M117.148-8.707
			c-0.271,0.268-0.63,0.416-1.08,0.416h-3.48c-0.479,0-0.869-0.119-1.109-0.386c-0.271-0.268-0.42-0.624-0.42-1.099v-1.278
			c0-0.564,0.18-1.01,0.54-1.307c0.27-0.208,0.63-0.297,1.08-0.297h3.359c0.48,0,0.9,0.178,1.17,0.505
			c0.21,0.268,0.33,0.594,0.33,1.04v1.367C117.538-9.331,117.388-8.975,117.148-8.707z M111.389-15.748v-1.485h6.06v1.485H111.389z
			 M111.389-13.46v-1.515h6.09v1.515H111.389z M115.468-10.727c0-0.208-0.18-0.446-0.39-0.446h-1.53
			c-0.21,0-0.449,0.208-0.449,0.446v0.475c0,0.238,0.21,0.446,0.449,0.446h1.561c0.21,0,0.359-0.208,0.359-0.416V-10.727z
			 M119.278-8.351h-1.62c0.42-1.277,0.689-3.149,0.75-4.337h1.5C119.908-11.529,119.608-9.509,119.278-8.351z M120.778-8.351
			c-0.181-0.98-0.33-3.119-0.301-4.337h1.351c0.03,1.159,0.27,3.357,0.45,4.337H120.778z M123.118-8.351
			c-0.21-1.04-0.45-3.208-0.54-4.337h1.439c0.09,1.099,0.36,3.268,0.57,4.337H123.118z"/>
	</g>
	<g id="XMLID_48_">
		<path id="XMLID_32_" d="M2.989,19.901v11.495H1.352V19.901h-4.479v-1.266H7.379v1.266H2.989z"/>
		<path id="XMLID_34_" d="M14.47,31.254c-1.079,0.445-2.555,0.392-3.634-0.071c-1.08-0.463-1.889-1.283-2.249-2.424
			C8.192,27.476,8.21,25.64,8.75,24.428c0.486-1.122,1.403-1.907,2.59-2.245c1.169-0.339,2.537-0.232,3.544,0.32
			c1.061,0.588,1.583,1.319,1.907,2.441c0.342,1.194,0.342,2.549,0.036,3.726C16.539,29.792,15.568,30.809,14.47,31.254z
			 M12.509,23.233c-0.989,0.036-1.997,0.695-2.303,1.658c-0.342,1.104-0.306,2.424-0.036,3.582c0.198,0.909,1.079,1.657,1.997,1.8
			c1.043,0.161,2.303-0.16,2.807-1.176c0.647-1.302,0.594-3.155,0.072-4.456C14.65,23.644,13.571,23.181,12.509,23.233z"/>
		<path id="XMLID_37_" d="M31.871,22.254c-0.072-0.606-0.216-1.229-0.611-1.711c-0.378-0.428-0.828-0.606-1.385-0.713
			c-0.936-0.196-1.979-0.107-2.86,0.089c-0.576,0.125-1.151,0.588-1.403,1.141c-0.234,0.517-0.216,1.229,0.072,1.729
			c0.288,0.535,0.828,0.73,1.458,0.855c1.511,0.321,3.292,0.713,4.389,1.069c0.738,0.231,1.476,0.749,1.871,1.444
			c0.468,0.837,0.486,2.049,0.144,2.904c-0.288,0.767-0.828,1.301-1.511,1.711c-1.241,0.73-2.771,0.838-4.3,0.713
			c-1.169-0.089-2.338-0.463-3.184-1.318c-0.738-0.749-1.133-1.818-1.313-2.799h1.673c0.072,0.855,0.504,1.676,1.188,2.192
			c0.666,0.481,1.529,0.695,2.356,0.731c0.846,0.053,2.069-0.107,2.807-0.589c0.611-0.409,0.936-1.069,0.936-1.817
			c0.018-0.784-0.45-1.443-1.188-1.729c-0.755-0.304-2.303-0.624-3.364-0.803c-0.971-0.178-2.23-0.588-2.915-1.229
			c-0.792-0.73-1.025-1.854-0.755-2.869c0.216-0.855,0.846-1.676,1.637-2.121c1.241-0.695,3.472-0.767,4.893-0.481
			c0.882,0.179,1.691,0.695,2.267,1.497c0.45,0.624,0.647,1.354,0.792,2.104H31.871z"/>
		<path id="XMLID_39_" d="M41.68,31.396v-6.148c0-0.731-0.306-1.354-0.864-1.711c-0.611-0.393-1.349-0.321-2.051-0.179
			c-0.881,0.179-1.637,0.892-1.979,1.747v6.291h-1.583V18.653h1.583v4.545c0.72-0.695,1.619-1.105,2.555-1.194
			c1.007-0.106,2.141,0.089,2.878,0.749c0.648,0.605,1.043,1.479,1.043,2.264v6.38H41.68z"/>
		<path id="XMLID_41_" d="M51.812,31.396c-0.162-0.392-0.306-0.855-0.36-1.229c-0.81,0.73-1.817,1.247-2.915,1.372
			c-0.773,0.089-1.637,0.018-2.303-0.339c-0.594-0.32-1.025-0.784-1.223-1.426c-0.216-0.659-0.198-1.426,0.036-2.049
			c0.288-0.731,0.864-1.213,1.637-1.479c0.647-0.231,1.565-0.321,2.321-0.393c0.846-0.071,1.799-0.392,2.303-0.837
			c0.036-0.339,0-0.892-0.342-1.266c-0.324-0.339-0.828-0.518-1.313-0.57c-0.629-0.09-1.421,0.018-2.015,0.268
			c-0.594,0.249-0.954,0.748-1.115,1.354h-1.691c0.126-0.979,0.954-1.889,1.889-2.334c0.792-0.375,1.997-0.553,2.86-0.518
			c0.936,0.036,1.943,0.304,2.608,0.98c0.54,0.57,0.738,1.319,0.72,2.21c-0.018,1.159-0.018,2.728,0,3.547
			c0.018,0.892,0.306,2.05,0.666,2.709H51.812z M51.271,26.495c-0.647,0.339-1.385,0.588-2.051,0.642
			c-0.629,0.054-1.241,0.125-1.709,0.285c-0.432,0.161-0.702,0.356-0.881,0.749c-0.162,0.374-0.18,0.819-0.054,1.212
			c0.144,0.409,0.486,0.677,0.899,0.819c0.342,0.107,0.774,0.09,1.151,0.018c1.116-0.178,2.033-0.766,2.645-1.711
			C51.271,27.921,51.271,27.048,51.271,26.495z"/>
		<path id="XMLID_44_" d="M61.403,31.396V30.22c-0.54,0.713-1.331,1.177-2.213,1.319c-0.917,0.143-1.925-0.018-2.68-0.57
			c-0.738-0.553-1.206-1.443-1.206-2.53v-6.31h1.655v6.522c0,0.553,0.288,1.159,0.773,1.462c0.45,0.285,1.043,0.303,1.547,0.16
			c0.899-0.231,1.745-0.962,2.123-1.782v-6.362h1.637l-0.018,9.268H61.403z"/>
		<path id="XMLID_46_" d="M78.462,31.379l-4.947-6.202l-1.817,1.782v4.438h-1.655V18.653h1.655v6.113l6.045-6.113h2.212
			l-5.325,5.383l5.865,7.343H78.462z"/>
		<path id="XMLID_54_" d="M88.271,31.04c-0.737,0.481-2.032,0.624-3.059,0.535c-1.151-0.107-2.177-0.57-2.86-1.533
			c-0.666-0.927-1.007-2.156-0.989-3.368c0-1.017,0.252-1.996,0.72-2.816c0.773-1.337,2.159-1.889,3.616-1.907
			c1.332-0.018,2.339,0.339,3.131,1.23c0.684,0.766,1.025,1.979,0.971,2.994c-0.036,0.605-0.396,0.891-0.989,0.891h-5.775
			c0.108,1.088,0.45,2.139,1.277,2.799c0.504,0.409,1.133,0.517,1.781,0.48c0.522-0.035,1.008-0.195,1.386-0.57
			c0.378-0.374,0.594-0.908,0.701-1.372h1.781C89.746,29.294,89.171,30.452,88.271,31.04z M87.3,23.591
			c-0.72-0.5-1.782-0.464-2.573-0.215c-1.062,0.321-1.583,1.444-1.619,2.442h4.804c0.234,0,0.342-0.196,0.342-0.393
			C88.253,24.784,87.857,23.982,87.3,23.591z"/>
		<path id="XMLID_57_" d="M92.34,20.311v-1.658h1.655v1.658H92.34z M92.34,31.379v-9.25h1.655v9.25H92.34z"/>
		<path id="XMLID_60_" d="M113.445,31.396h-1.619l-3.022-9.695l-2.734,9.695h-1.71l-3.472-12.743h1.602l2.771,9.945l2.788-9.945
			h1.493l3.004,9.749l2.573-9.749h1.601L113.445,31.396z"/>
		<path id="XMLID_64_" d="M124.586,31.396c-0.161-0.392-0.306-0.855-0.359-1.229c-0.81,0.73-1.817,1.247-2.914,1.372
			c-0.774,0.089-1.638,0.018-2.303-0.339c-0.594-0.32-1.026-0.784-1.224-1.426c-0.216-0.659-0.198-1.426,0.036-2.049
			c0.287-0.731,0.863-1.213,1.637-1.479c0.647-0.231,1.565-0.321,2.32-0.393c0.846-0.071,1.8-0.392,2.303-0.837
			c0.036-0.339,0-0.892-0.342-1.266c-0.323-0.339-0.827-0.518-1.313-0.57c-0.63-0.09-1.422,0.018-2.016,0.268
			c-0.593,0.249-0.953,0.748-1.115,1.354h-1.69c0.126-0.979,0.953-1.889,1.889-2.334c0.791-0.375,1.997-0.553,2.86-0.518
			c0.936,0.036,1.943,0.304,2.608,0.98c0.54,0.57,0.737,1.319,0.72,2.21c-0.018,1.159-0.018,2.728,0,3.547
			c0.018,0.892,0.306,2.05,0.666,2.709H124.586z M124.047,26.495c-0.648,0.339-1.386,0.588-2.051,0.642
			c-0.63,0.054-1.242,0.125-1.71,0.285c-0.432,0.161-0.701,0.356-0.881,0.749c-0.162,0.374-0.18,0.819-0.054,1.212
			c0.144,0.409,0.485,0.677,0.899,0.819c0.342,0.107,0.773,0.09,1.151,0.018c1.115-0.178,2.032-0.766,2.645-1.711
			C124.047,27.921,124.047,27.048,124.047,26.495z"/>
		<path id="XMLID_67_" d="M133.818,31.396v-6.006c0-0.838-0.252-1.747-1.079-2.067c-0.72-0.268-1.583-0.143-2.23,0.249
			c-0.81,0.481-1.08,1.212-1.08,2.104v5.721h-1.619v-9.268h1.403v1.052c0.504-0.606,1.098-0.963,2.015-1.141
			c1.044-0.196,2.285,0.035,3.041,0.605c0.881,0.66,1.169,1.426,1.169,2.478v6.273H133.818z"/>
	</g>
	<g id="XMLID_31_">
		<path id="XMLID_93_" class="st2" d="M-80.329,6.966c-0.866,0.267-1.745,0.433-2.53,0.8c-1.646,0.771-2.42,2.152-2.529,3.958
			c-0.138,2.281,0.934,3.986,2.528,5.438c1.392,1.268,2.976,2.268,4.641,3.137c0.266,0.139,0.561,0.258,0.854,0.298
			c0.859,0.116,1.399-0.112,1.719-0.924c0.397-1.004,0.741-2.05,0.935-3.109c0.521-2.845,0.994-5.702,1.401-8.566
			c0.258-1.819,0.356-3.661,0.545-5.491c0.046-0.448-0.092-0.695-0.502-0.918c-2.562-1.395-4.936-3.053-6.955-5.181
			c-2.222-2.343-3.827-5.022-4.436-8.234c-0.549-2.896-0.252-5.647,1.556-8.079c1.893-2.546,4.413-4.156,7.563-4.597
			c1.037-0.145,2.13,0.114,3.198,0.17c0.293,0.015,0.62,0.041,0.88-0.064c2.289-0.928,4.72,0.466,5.108,2.903
			c0.272,1.708-0.878,3.25-2.085,3.819c-0.33,0.155-0.471,0.332-0.485,0.714c-0.061,1.651-0.204,3.3-0.239,4.952
			c-0.063,2.93-0.062,5.862-0.112,8.793c-0.007,0.399,0.136,0.533,0.493,0.656c2.288,0.787,4.608,1.503,6.838,2.434
			c3.712,1.551,7.191,3.529,10.202,6.245c1.796,1.621,3.287,3.475,4.282,5.701c1.253,2.802,1.199,5.658,0.322,8.534
			c-0.679,2.227-1.789,4.244-3.117,6.148c-0.191,0.274-0.343,0.288-0.632,0.136c-2.171-1.139-4.35-2.261-6.735-2.908
			c-1.607-0.436-3.242-0.651-4.903-0.563c-1.632,0.086-3.194,0.517-4.738,1.038c-0.904,0.305-1.82,0.605-2.755,0.778
			c-1.235,0.229-2.482,0.16-3.695-0.231c-1.103-0.355-2.199-0.735-3.313-1.053c-2.764-0.789-5.523-0.702-8.274,0.099
			c-2.117,0.616-4.076,1.592-6.026,2.592c-0.533,0.273-0.531,0.28-0.794-0.238c-1.533-3.025-2.213-6.24-1.887-9.606
			c0.407-4.204,2.401-7.512,5.971-9.825c1.825-1.182,3.819-1.361,5.895-0.933C-81.377,5.945-80.775,6.393-80.329,6.966z
			 M-72.354-3.747c0.071-0.973,0.147-1.865,0.2-2.758c0.071-1.201,0.128-2.403,0.186-3.605c0.113-2.376,0.23-4.751,0.32-7.128
			c0.008-0.205-0.112-0.497-0.272-0.612c-0.939-0.676-1.57-1.524-1.744-2.694c-0.024-0.163-0.201-0.357-0.357-0.437
			c-0.626-0.319-1.293-0.397-1.984-0.233c-2.313,0.549-4.108,1.798-5,4.041c-0.984,2.475-0.543,4.869,0.894,7.044
			c1.828,2.768,4.389,4.719,7.314,6.218C-72.686-3.853-72.561-3.822-72.354-3.747z M-69.135,3.593
			c-0.015,0.143-0.036,0.242-0.033,0.341c0.032,1.204,0.043,2.409,0.108,3.611c0.057,1.055,0.138,2.112,0.273,3.159
			c0.288,2.239,0.605,4.474,0.937,6.707c0.106,0.713,0.251,1.428,0.46,2.116c0.218,0.716,0.746,0.848,1.351,0.395
			c0.208-0.156,0.396-0.341,0.575-0.529c1.036-1.084,1.649-2.409,2.138-3.8c0.834-2.374,0.894-4.715-0.354-6.981
			c-1.193-2.167-2.991-3.708-5.119-4.902C-68.892,3.657-69.005,3.637-69.135,3.593z M-71.387,20.528
			c0.092-0.084,0.144-0.116,0.174-0.163c0.071-0.109,0.133-0.224,0.196-0.339c0.544-0.988,0.515-2.068,0.481-3.141
			c-0.091-2.871-0.201-5.741-0.303-8.612c-0.061-1.711-0.122-3.422-0.187-5.132c-0.003-0.082-0.05-0.163-0.076-0.244
			c-0.118,0.174-0.144,0.338-0.155,0.504c-0.065,1.012-0.124,2.025-0.188,3.038c-0.112,1.765-0.227,3.53-0.338,5.295
			c-0.067,1.056-0.141,2.112-0.191,3.168c-0.063,1.317-0.144,2.635-0.139,3.952C-72.112,19.46-71.831,20.023-71.387,20.528z
			 M-68.818-21.089c0.006-0.789-0.512-1.335-1.274-1.343c-0.754-0.007-1.341,0.559-1.342,1.295c-0.001,0.74,0.545,1.298,1.274,1.305
			C-69.344-19.824-68.824-20.312-68.818-21.089z"/>
		<path id="XMLID_92_" class="st2" d="M-85.656,33.679c1.488-0.665,2.857-1.188,4.339-1.397c1.987-0.28,3.856,0.156,5.703,0.818
			c1.298,0.465,2.623,0.844,4.014,0.884c1.287,0.037,2.531-0.223,3.756-0.611c1.117-0.354,2.229-0.744,3.371-0.993
			c1.765-0.386,3.517-0.192,5.221,0.402c0.655,0.228,1.3,0.482,2.053,0.762c-0.22,0.17-0.359,0.283-0.504,0.387
			c-3.51,2.513-7.305,4.442-11.48,5.587c-0.767,0.21-1.546,0.398-2.332,0.51c-0.352,0.05-0.742-0.082-1.101-0.18
			c-3.854-1.059-7.517-2.567-10.902-4.712C-84.213,34.698-84.877,34.212-85.656,33.679z"/>
		<path id="XMLID_91_" class="st2" d="M-90.846,28.281c0.453-0.235,0.846-0.445,1.243-0.645c1.906-0.961,3.841-1.858,5.943-2.306
			c2.287-0.487,4.545-0.371,6.774,0.372c1.181,0.394,2.369,0.784,3.578,1.073c1.823,0.436,3.624,0.208,5.394-0.37
			c1.17-0.382,2.335-0.803,3.532-1.074c2.495-0.565,4.971-0.356,7.349,0.568c1.793,0.698,3.535,1.529,5.416,2.353
			c-0.433,0.489-0.75,0.875-1.104,1.223c-0.062,0.061-0.294-0.012-0.427-0.07c-1.339-0.593-2.647-1.264-4.014-1.782
			c-3.394-1.284-6.798-1.199-10.203,0.041c-0.974,0.355-1.998,0.589-3.014,0.807c-1.164,0.25-2.306,0.012-3.428-0.321
			c-1.388-0.412-2.754-0.931-4.167-1.217c-2.324-0.471-4.659-0.338-6.894,0.493c-1.559,0.579-3.07,1.291-4.587,1.977
			c-0.328,0.149-0.511,0.151-0.704-0.162C-90.354,28.925-90.59,28.634-90.846,28.281z"/>
		<path id="XMLID_90_" class="st2" d="M-54.246,31.032c-0.424,0.383-0.806,0.757-1.224,1.084c-0.092,0.072-0.322,0.013-0.47-0.039
			c-1.323-0.467-2.618-1.029-3.966-1.404c-2.424-0.675-4.809-0.358-7.169,0.453c-1.144,0.393-2.337,0.655-3.519,0.925
			c-1.066,0.243-2.103-0.032-3.122-0.326c-1.266-0.366-2.509-0.817-3.786-1.134c-2.138-0.53-4.265-0.309-6.336,0.368
			c-1.044,0.341-2.05,0.801-3.063,1.23c-0.246,0.104-0.412,0.128-0.61-0.084c-0.314-0.338-0.658-0.648-1.068-1.046
			c0.099-0.04,0.155-0.057,0.206-0.084c1.761-0.931,3.572-1.734,5.53-2.162c2.184-0.478,4.308-0.256,6.411,0.473
			c1.133,0.393,2.285,0.78,3.461,0.981c1.444,0.247,2.916,0.23,4.348-0.215c1.355-0.421,2.699-0.89,4.075-1.228
			c2.094-0.514,4.185-0.324,6.201,0.395c1.294,0.461,2.537,1.064,3.801,1.607C-54.458,30.863-54.385,30.935-54.246,31.032z"/>
	</g>
	<g id="XMLID_50_">
		<linearGradient id="XMLID_114_" gradientUnits="userSpaceOnUse" x1="-59.9106" y1="7.6775" x2="-18.3061" y2="7.6775">
			<stop  offset="0" style="stop-color:#FF0000;stop-opacity:0"/>
			<stop  offset="0.3" style="stop-color:#FF0000"/>
		</linearGradient>
		<rect id="XMLID_53_" x="-59.911" y="3.088" class="st3" width="41.604" height="9.179"/>
		<polygon id="XMLID_52_" class="st4" points="-26.253,20.739 -38.961,20.739 -25.778,7.678 -13.069,7.678 		"/>
		<polygon id="XMLID_51_" class="st4" points="-25.778,7.854 -13.069,7.854 -26.253,-5.208 -38.961,-5.208 		"/>
	</g>
</g>
<g id="XMLID_1_">
</g>
<g id="XMLID_124_">
</g>
<g id="XMLID_125_">
</g>
<g id="XMLID_126_">
</g>
<g id="XMLID_127_">
</g>
<g id="XMLID_128_">
</g>
<rect id="XMLID_2_" x="342" y="-838.96" class="st2" width="428" height="156"/>
</svg>
