<?xml version="1.0" encoding="utf-8"?>
<!-- Generator: Adobe Illustrator 19.0.0, SVG Export Plug-In . SVG Version: 6.00 Build 0)  -->
<svg version="1.1" id="圖層_1" xmlns="http://www.w3.org/2000/svg" xmlns:xlink="http://www.w3.org/1999/xlink" x="0px" y="0px"
	 viewBox="50 -26.019 272.126 85.039" style="enable-background:new 50 -26.019 272.126 85.039;" xml:space="preserve">
<style type="text/css">
	.st0{fill:url(#XMLID_3_);}
	.st1{fill:#ECECEC;}
	.st2{fill:#0079C4;}
	.st3{fill:url(#XMLID_4_);}
	.st4{fill:#00FF00;}
</style>
<radialGradient id="XMLID_3_" cx="186.1066" cy="15.3782" r="100.9042" gradientTransform="matrix(0.9998 0 0 -0.9905 -0.0064 31.7326)" gradientUnits="userSpaceOnUse">
	<stop  offset="0.2193" style="stop-color:#00FF00;stop-opacity:0"/>
	<stop  offset="1" style="stop-color:#035353"/>
</radialGradient>
<path id="XMLID_63_" class="st0" d="M310.805,59.02H61.321C55.069,59.02,50,53.951,50,47.699v-62.397
	c0-6.252,5.069-11.321,11.321-11.321h249.484c6.252,0,11.321,5.069,11.321,11.321v62.397
	C322.126,53.951,317.058,59.02,310.805,59.02z"/>
<path id="XMLID_62_" class="st1" d="M305.854,53.976H66.272c-5.742,0-10.396-4.655-10.396-10.396v-54.159
	c0-5.742,4.655-10.396,10.396-10.396h239.582c5.742,0,10.396,4.655,10.396,10.396V43.58
	C316.25,49.321,311.596,53.976,305.854,53.976z"/>
<g id="XMLID_31_">
	<path id="XMLID_93_" class="st2" d="M82.343,16.159c-0.866,0.267-1.745,0.433-2.53,0.8c-1.646,0.771-2.42,2.152-2.529,3.958
		c-0.138,2.281,0.934,3.986,2.528,5.438c1.392,1.268,2.976,2.268,4.641,3.137c0.266,0.139,0.561,0.258,0.854,0.298
		c0.859,0.116,1.399-0.112,1.719-0.924c0.397-1.004,0.741-2.05,0.935-3.109c0.521-2.845,0.994-5.702,1.401-8.566
		c0.258-1.819,0.356-3.661,0.545-5.491c0.046-0.448-0.092-0.695-0.502-0.918c-2.562-1.395-4.936-3.053-6.955-5.181
		c-2.222-2.343-3.827-5.022-4.436-8.234c-0.549-2.896-0.252-5.647,1.556-8.079c1.893-2.546,4.413-4.156,7.563-4.597
		c1.037-0.145,2.13,0.114,3.198,0.17c0.293,0.015,0.62,0.041,0.88-0.064c2.289-0.928,4.72,0.466,5.108,2.903
		c0.272,1.708-0.878,3.25-2.085,3.819c-0.33,0.155-0.471,0.332-0.485,0.714c-0.061,1.651-0.204,3.3-0.239,4.952
		c-0.063,2.93-0.062,5.862-0.112,8.793c-0.007,0.399,0.136,0.533,0.493,0.656c2.288,0.787,4.608,1.503,6.838,2.434
		c3.712,1.551,7.191,3.529,10.202,6.245c1.796,1.621,3.287,3.475,4.282,5.701c1.253,2.802,1.199,5.658,0.322,8.534
		c-0.679,2.227-1.789,4.244-3.117,6.148c-0.191,0.274-0.343,0.288-0.632,0.136c-2.171-1.139-4.35-2.261-6.735-2.908
		c-1.607-0.436-3.242-0.651-4.903-0.563c-1.632,0.086-3.194,0.517-4.738,1.038c-0.904,0.305-1.82,0.605-2.755,0.778
		c-1.235,0.229-2.482,0.16-3.695-0.231c-1.103-0.355-2.199-0.735-3.313-1.053c-2.764-0.789-5.523-0.702-8.274,0.099
		c-2.117,0.616-4.076,1.592-6.026,2.592c-0.533,0.273-0.531,0.28-0.794-0.238c-1.533-3.025-2.213-6.24-1.887-9.606
		c0.407-4.204,2.401-7.512,5.971-9.825c1.825-1.182,3.819-1.361,5.895-0.933C81.295,15.138,81.897,15.586,82.343,16.159z
		 M90.318,5.446c0.071-0.973,0.147-1.865,0.2-2.758c0.071-1.201,0.128-2.403,0.186-3.605c0.113-2.376,0.23-4.751,0.32-7.128
		c0.008-0.205-0.112-0.497-0.272-0.612c-0.939-0.676-1.57-1.524-1.744-2.694c-0.024-0.163-0.201-0.357-0.357-0.437
		c-0.626-0.319-1.293-0.397-1.984-0.233c-2.313,0.549-4.108,1.798-5,4.041c-0.984,2.475-0.543,4.869,0.894,7.044
		c1.828,2.768,4.389,4.719,7.314,6.218C89.986,5.34,90.111,5.371,90.318,5.446z M93.537,12.786
		c-0.015,0.143-0.036,0.242-0.033,0.341c0.032,1.204,0.043,2.409,0.108,3.611c0.057,1.055,0.138,2.112,0.273,3.159
		c0.288,2.239,0.605,4.474,0.937,6.707c0.106,0.713,0.251,1.428,0.46,2.116c0.218,0.716,0.746,0.848,1.351,0.395
		c0.208-0.156,0.396-0.341,0.575-0.529c1.036-1.084,1.649-2.409,2.138-3.8c0.834-2.374,0.894-4.715-0.354-6.981
		c-1.193-2.167-2.991-3.708-5.119-4.902C93.78,12.85,93.667,12.83,93.537,12.786z M91.285,29.721
		c0.092-0.084,0.144-0.116,0.174-0.163c0.071-0.109,0.133-0.224,0.196-0.339c0.544-0.988,0.515-2.068,0.481-3.141
		c-0.091-2.871-0.201-5.741-0.303-8.612c-0.061-1.711-0.122-3.422-0.187-5.132c-0.003-0.082-0.05-0.163-0.076-0.244
		c-0.118,0.174-0.144,0.338-0.155,0.504c-0.065,1.012-0.124,2.025-0.188,3.038c-0.112,1.765-0.227,3.53-0.338,5.295
		c-0.067,1.056-0.141,2.112-0.191,3.168c-0.063,1.317-0.144,2.635-0.139,3.952C90.56,28.653,90.841,29.216,91.285,29.721z
		 M93.854-11.896c0.006-0.789-0.512-1.335-1.274-1.343c-0.754-0.007-1.341,0.559-1.342,1.295c-0.001,0.74,0.545,1.298,1.274,1.305
		C93.328-10.631,93.848-11.119,93.854-11.896z"/>
	<path id="XMLID_92_" class="st2" d="M77.016,42.872c1.488-0.665,2.857-1.188,4.339-1.397c1.987-0.28,3.856,0.156,5.703,0.818
		c1.298,0.465,2.623,0.844,4.014,0.884c1.287,0.037,2.531-0.223,3.756-0.611c1.117-0.354,2.229-0.744,3.371-0.993
		c1.765-0.386,3.517-0.192,5.221,0.402c0.655,0.228,1.3,0.482,2.053,0.762c-0.22,0.17-0.359,0.283-0.504,0.387
		c-3.51,2.513-7.305,4.442-11.48,5.587c-0.767,0.21-1.546,0.398-2.332,0.51c-0.352,0.05-0.742-0.082-1.101-0.18
		c-3.854-1.059-7.517-2.567-10.902-4.712C78.459,43.891,77.795,43.405,77.016,42.872z"/>
	<path id="XMLID_91_" class="st2" d="M71.826,37.474c0.453-0.235,0.846-0.445,1.243-0.645c1.906-0.961,3.841-1.858,5.943-2.306
		c2.287-0.487,4.545-0.371,6.774,0.372c1.181,0.394,2.369,0.784,3.578,1.073c1.823,0.436,3.624,0.208,5.394-0.37
		c1.17-0.382,2.335-0.803,3.532-1.074c2.495-0.565,4.971-0.356,7.349,0.568c1.793,0.698,3.535,1.529,5.416,2.353
		c-0.433,0.489-0.75,0.875-1.104,1.223c-0.062,0.061-0.294-0.012-0.427-0.07c-1.339-0.593-2.647-1.264-4.014-1.782
		c-3.394-1.284-6.798-1.199-10.203,0.041c-0.974,0.355-1.998,0.589-3.014,0.807c-1.164,0.25-2.306,0.012-3.428-0.321
		c-1.388-0.412-2.754-0.931-4.167-1.217c-2.324-0.471-4.659-0.338-6.894,0.493c-1.559,0.579-3.07,1.291-4.587,1.977
		c-0.328,0.149-0.511,0.151-0.704-0.162C72.318,38.118,72.082,37.827,71.826,37.474z"/>
	<path id="XMLID_90_" class="st2" d="M108.426,40.225c-0.424,0.383-0.806,0.757-1.224,1.084c-0.092,0.072-0.322,0.013-0.47-0.039
		c-1.323-0.467-2.618-1.029-3.966-1.404c-2.424-0.675-4.809-0.358-7.169,0.453c-1.144,0.393-2.337,0.655-3.519,0.925
		c-1.066,0.243-2.103-0.032-3.122-0.326c-1.266-0.366-2.509-0.817-3.786-1.134c-2.138-0.53-4.265-0.309-6.336,0.368
		c-1.044,0.341-2.05,0.801-3.063,1.23c-0.246,0.104-0.412,0.128-0.61-0.084c-0.314-0.338-0.658-0.648-1.068-1.046
		c0.099-0.04,0.155-0.057,0.206-0.084c1.761-0.931,3.572-1.734,5.53-2.162c2.184-0.478,4.308-0.256,6.411,0.473
		c1.133,0.393,2.285,0.78,3.461,0.981c1.444,0.247,2.916,0.23,4.348-0.215c1.355-0.421,2.699-0.89,4.075-1.228
		c2.094-0.514,4.185-0.324,6.201,0.395c1.294,0.461,2.537,1.064,3.801,1.607C108.214,40.056,108.287,40.128,108.426,40.225z"/>
</g>
<g id="XMLID_50_">
	
		<linearGradient id="XMLID_4_" gradientUnits="userSpaceOnUse" x1="102.761" y1="15.1115" x2="144.365" y2="15.1115" gradientTransform="matrix(-1 0 0 1 252.364 1.935)">
		<stop  offset="0" style="stop-color:#00FF00;stop-opacity:0"/>
		<stop  offset="0.3" style="stop-color:#00FF00"/>
	</linearGradient>
	<rect id="XMLID_53_" x="107.999" y="12.457" class="st3" width="41.604" height="9.179"/>
	<polygon id="XMLID_52_" class="st4" points="115.945,3.985 128.653,3.985 115.47,17.046 102.761,17.046 	"/>
	<polygon id="XMLID_51_" class="st4" points="115.47,16.87 102.761,16.87 115.945,29.932 128.653,29.932 	"/>
</g>
<g id="XMLID_1_">
</g>
<g id="XMLID_124_">
</g>
<g id="XMLID_125_">
</g>
<g id="XMLID_126_">
</g>
<g id="XMLID_127_">
</g>
<g id="XMLID_128_">
</g>
<g>
	<path d="M160.43,2.582h1.44v11.459h-2.729V3.751h-3.03c2.49-2.61,4.17-5.67,5.55-8.73h2.82C163.43-2.338,162.08,0.182,160.43,2.582
		z M159.53-5.188h-3.33c2.07-2.1,3.45-4.59,4.74-7.05h3C162.74-9.778,161.3-7.408,159.53-5.188z M163.7,14.041v-2.13h8.04v-8.13
		h-6.689v-2.16h6.689v-7.53h-7.379v-2.1h6.93c-0.39-0.9-1.26-3.12-1.5-4.23h2.79c0.3,1.26,1.14,3.42,1.56,4.2h7.5v2.13h-7.11v7.53
		h6.39v2.13h-6.39v8.16h7.83v2.13H163.7z"/>
	<path d="M188.989-6.178c-1.199-1.92-2.13-3.99-2.999-6.06h3.09c0.779,2.1,1.859,4.17,3.21,6.06H188.989z M188.81,1.501
		c-1.08-2.07-1.92-4.29-2.76-6.48h3c0.81,2.28,1.71,4.47,3.09,6.48H188.81z M189.08,13.981h-2.971c1.381-3.54,2.341-7.29,3.12-11.1
		h2.79C191.239,6.661,190.37,10.411,189.08,13.981z M197.51-8.008c-0.69,1.11-1.44,2.19-2.19,3.21h-3.51
		c2.04-2.31,3.51-4.8,4.83-7.44h3.21c-0.33,0.69-0.811,1.59-1.141,2.16h13.109v2.07H197.51z M210.079,3.121l-0.36,4.83h2.37v2.07
		h-2.58l-0.18,0.87c-0.181,0.84-0.51,1.65-1.2,2.22c-0.63,0.51-1.56,0.84-2.939,0.84h-2.16l-1.14-2.1h3.659
		c0.45,0,0.99-0.48,1.05-0.96l0.091-0.87h-10.68c-0.69,0-1.32-0.33-1.74-0.84c-0.45-0.54-0.69-1.29-0.57-2.04l0.63-4.02h-1.71V1.142
		h2.011l0.449-4.17c0.091-0.72,0.45-1.35,0.931-1.77c0.479-0.42,1.109-0.66,1.68-0.66h9.869c0.9,0,1.62,0.42,2.07,1.08
		c0.42,0.57,0.6,1.32,0.6,2.1l-0.06,3.42h2.1v1.979H210.079z M197.119,3.121l-0.569,4.17c-0.061,0.39,0.119,0.66,0.479,0.66h4.17
		c-0.45-1.05-1.11-2.88-1.229-3.75h2.64c0.3,1.05,0.81,2.67,1.319,3.75h3l0.391-4.83H197.119z M207.439-2.608
		c0-0.36-0.33-0.78-0.721-0.78h-8.039c-0.33,0-0.811,0.18-0.87,0.6l-0.42,3.93h4.079c-0.42-1.08-0.84-2.22-1.05-3.33h2.73
		c0.27,1.08,0.66,2.28,1.14,3.33h3.15V-2.608z"/>
	<path d="M218.54,1.711h-2.46c0.78-2.64,1.14-5.52,1.17-8.459h2.31C219.47-3.898,219.17-0.719,218.54,1.711z M220.28,13.981v-26.159
		h2.67v26.159H220.28z M224.149,0.452c-0.239-2.37-0.479-4.77-0.479-7.2h2.189c0.03,2.49,0.21,4.89,0.63,7.2H224.149z
		 M239.299-0.478c-0.27-0.42-0.72-1.23-0.93-1.65l-0.63,1.65h-9.81c-0.51,0-0.96-0.39-1.2-0.9c-0.21-0.48-0.21-1.08,0.09-1.65
		l4.86-9.15h2.909l-5.1,9.63h8.64c-0.63-1.35-1.68-3.87-2.22-5.61h2.729c0.99,2.7,2.16,5.25,3.811,7.68H239.299z M239.929,13.351
		c-0.42,0.33-0.989,0.54-1.649,0.54h-9c-0.54,0-1.08-0.24-1.5-0.66c-0.449-0.42-0.72-0.99-0.72-1.62V4.651
		c0-0.78,0.33-1.44,0.84-1.86c0.45-0.39,1.08-0.6,1.71-0.6h8.58c0.81,0,1.439,0.3,1.89,0.75c0.45,0.48,0.69,1.11,0.69,1.74v7.05
		C240.77,12.331,240.469,12.931,239.929,13.351z M238.1,4.921c0-0.33-0.33-0.6-0.69-0.6h-7.02c-0.42,0-0.72,0.36-0.72,0.78v5.97
		c0,0.45,0.33,0.69,0.659,0.69h7.17c0.33,0,0.601-0.33,0.601-0.66V4.921z"/>
	<path d="M260.569,6.421v7.529h-2.79V6.421h-11.52v-2.1h11.52v-4.56h-10.89v-2.1h10.89v-9.93h2.79v9.93h11.069v2.1h-11.069v4.56
		h11.85v2.1H260.569z M251.689-3.628c-1.59-2.55-2.999-5.16-4.109-7.89h3.06c0.87,2.19,2.4,4.89,4.41,7.89H251.689z M266.569-3.628
		h-3.63c1.89-2.46,3.569-5.07,4.68-7.89h3.12C269.6-8.788,268.159-6.148,266.569-3.628z"/>
	<path d="M294.77,11.821c-0.42,0.36-1.021,0.6-1.74,0.6h-13.59c-0.689,0-1.26-0.3-1.68-0.78c-0.359-0.45-0.6-1.02-0.6-1.65v-3.66
		h2.64v3.48c0,0.33,0.36,0.63,0.72,0.63h4.44v-4.83h2.609v4.83h4.59c0.391,0,0.72-0.3,0.72-0.69v-3.42h2.61v3.93
		C295.489,10.861,295.249,11.431,294.77,11.821z M281.72,1.591v0.63c0,0.48,0.33,0.84,0.811,0.84h16.469c0.75,0,1.38,0.27,1.83,0.75
		c0.45,0.45,0.69,1.11,0.69,1.86v6.03c0,0.57-0.271,1.11-0.69,1.53s-1.05,0.66-1.74,0.66h-2.819l-0.99-1.98h2.88
		c0.36,0,0.66-0.3,0.66-0.66v-5.52c0-0.39-0.24-0.72-0.66-0.72H281.42c-0.75,0-1.26-0.3-1.68-0.78s-0.66-1.14-0.66-1.77v-10.77
		c0-0.75,0.359-1.35,0.84-1.74c0.42-0.33,0.96-0.54,1.439-0.54h4.561c0.359-0.51,0.72-1.17,0.96-1.71h3.06
		c-0.27,0.54-0.66,1.23-0.93,1.71h7.35c0.66,0,1.26,0.21,1.71,0.6c0.479,0.39,0.78,0.96,0.78,1.71v4.26c0,0.51-0.271,1.05-0.69,1.47
		s-1.02,0.72-1.74,0.72H281.72v1.44h20.579v1.98H281.72z M296.18-7.978c0-0.36-0.271-0.66-0.66-0.66H282.32
		c-0.33,0-0.601,0.24-0.601,0.57v0.87h14.46V-7.978z M296.18-5.338h-14.46v1.62h13.8c0.33,0,0.66-0.21,0.66-0.63V-5.338z"/>
</g>
<g>
	<path d="M161.393,29.047V40.66h-1.638V29.047h-4.483v-1.279h10.515v1.279H161.393z"/>
	<path d="M172.877,40.516c-1.081,0.45-2.557,0.396-3.637-0.072c-1.08-0.468-1.891-1.296-2.25-2.448
		c-0.396-1.297-0.378-3.151,0.162-4.375c0.486-1.135,1.404-1.927,2.593-2.269c1.17-0.343,2.539-0.234,3.547,0.323
		c1.063,0.595,1.584,1.333,1.909,2.467c0.342,1.207,0.342,2.575,0.036,3.764C174.948,39.039,173.976,40.065,172.877,40.516z
		 M170.915,32.413c-0.99,0.036-1.999,0.702-2.305,1.675c-0.342,1.116-0.306,2.449-0.036,3.619c0.198,0.918,1.08,1.675,1.999,1.818
		c1.044,0.162,2.305-0.162,2.809-1.188c0.648-1.314,0.594-3.187,0.072-4.501C173.058,32.827,171.977,32.359,170.915,32.413z"/>
	<path d="M190.283,31.423c-0.071-0.612-0.216-1.242-0.611-1.729c-0.379-0.432-0.829-0.612-1.387-0.72
		c-0.937-0.198-1.98-0.108-2.863,0.09c-0.576,0.126-1.152,0.594-1.404,1.152c-0.234,0.522-0.216,1.242,0.072,1.746
		c0.288,0.541,0.829,0.738,1.458,0.864c1.512,0.324,3.294,0.721,4.393,1.081c0.738,0.233,1.477,0.756,1.873,1.458
		c0.468,0.847,0.485,2.07,0.144,2.935c-0.288,0.774-0.828,1.314-1.513,1.729c-1.242,0.738-2.772,0.847-4.303,0.721
		c-1.17-0.09-2.341-0.468-3.187-1.332c-0.738-0.757-1.134-1.837-1.314-2.827h1.675c0.072,0.864,0.504,1.692,1.188,2.215
		c0.667,0.485,1.53,0.702,2.358,0.738c0.847,0.054,2.071-0.108,2.81-0.595c0.611-0.414,0.936-1.08,0.936-1.836
		c0.019-0.793-0.45-1.459-1.188-1.747c-0.756-0.306-2.305-0.63-3.366-0.811c-0.973-0.18-2.233-0.594-2.917-1.242
		c-0.792-0.738-1.026-1.872-0.756-2.898c0.216-0.864,0.846-1.692,1.639-2.143c1.242-0.702,3.475-0.774,4.897-0.486
		c0.883,0.18,1.692,0.702,2.269,1.513c0.45,0.63,0.648,1.368,0.793,2.124H190.283z"/>
	<path d="M199.48,40.516c-1.08,0.45-2.557,0.396-3.637-0.072c-1.08-0.468-1.891-1.296-2.251-2.448
		c-0.396-1.297-0.378-3.151,0.162-4.375c0.486-1.135,1.404-1.927,2.593-2.269c1.171-0.343,2.539-0.234,3.547,0.323
		c1.063,0.595,1.585,1.333,1.909,2.467c0.342,1.207,0.342,2.575,0.036,3.764C201.552,39.039,200.579,40.065,199.48,40.516z
		 M197.519,32.413c-0.99,0.036-1.999,0.702-2.305,1.675c-0.343,1.116-0.307,2.449-0.036,3.619c0.198,0.918,1.08,1.675,1.998,1.818
		c1.045,0.162,2.305-0.162,2.81-1.188c0.647-1.314,0.594-3.187,0.071-4.501C199.661,32.827,198.58,32.359,197.519,32.413z"/>
	<path d="M209.957,40.66v-1.188c-0.54,0.72-1.332,1.188-2.215,1.332c-0.918,0.145-1.926-0.018-2.683-0.576
		c-0.738-0.558-1.206-1.458-1.206-2.557v-6.374h1.656v6.59c0,0.559,0.288,1.171,0.774,1.477c0.45,0.288,1.044,0.307,1.549,0.162
		c0.899-0.234,1.746-0.972,2.124-1.801v-6.428h1.639l-0.018,9.363H209.957z"/>
	<path d="M217.3,40.642h-1.458c-0.504,0-0.882-0.126-1.135-0.378c-0.27-0.252-0.414-0.648-0.414-1.152v-6.572h-1.314v-1.224h1.314
		v-3.529h1.603v3.511h1.837v1.242h-1.837v6.374c0,0.288,0.288,0.486,0.522,0.486h1.603L217.3,40.642z"/>
	<path d="M225.509,40.66v-6.212c0-0.738-0.306-1.368-0.864-1.729c-0.612-0.396-1.351-0.324-2.053-0.181
		c-0.882,0.181-1.639,0.9-1.98,1.765v6.356h-1.584V27.786h1.584v4.591c0.721-0.702,1.621-1.116,2.557-1.206
		c1.009-0.107,2.143,0.09,2.881,0.757c0.648,0.611,1.045,1.494,1.045,2.286v6.446H225.509z"/>
	<path d="M242.249,40.66v-6.032h-6.77v6.032h-1.639V27.804h1.639v5.582h6.77v-5.582h1.639V40.66H242.249z"/>
	<path d="M251.501,40.516c-1.081,0.45-2.558,0.396-3.638-0.072c-1.08-0.468-1.891-1.296-2.251-2.448
		c-0.396-1.297-0.378-3.151,0.162-4.375c0.486-1.135,1.404-1.927,2.593-2.269c1.171-0.343,2.539-0.234,3.548,0.323
		c1.062,0.595,1.584,1.333,1.908,2.467c0.342,1.207,0.342,2.575,0.036,3.764C253.571,39.039,252.599,40.065,251.501,40.516z
		 M249.538,32.413c-0.99,0.036-1.999,0.702-2.305,1.675c-0.342,1.116-0.307,2.449-0.036,3.619c0.198,0.918,1.08,1.675,1.999,1.818
		c1.044,0.162,2.305-0.162,2.809-1.188c0.648-1.314,0.594-3.187,0.072-4.501C251.681,32.827,250.601,32.359,249.538,32.413z"/>
	<path d="M259.186,32.72c-0.486-0.072-0.937,0.144-1.278,0.486c-0.504,0.521-0.721,1.242-0.847,1.926v5.51h-1.584v-9.345h1.584
		v1.171c0.307-0.486,1.026-1.135,1.639-1.243c0.685-0.126,1.44,0.127,2.017,0.486v1.854
		C260.374,33.224,259.708,32.792,259.186,32.72z"/>
	<path d="M262.713,29.461v-1.675h1.656v1.675H262.713z M262.713,40.642v-9.345h1.656v9.345H262.713z"/>
	<path d="M267.482,40.66c-0.504,0-0.9-0.271-1.063-0.631c-0.162-0.342-0.09-0.81,0.234-1.152c1.44-1.584,3.871-4.141,5.726-6.14
		c0.054-0.072-0.018-0.216-0.09-0.216h-5.618v-1.225h6.969c0.414,0,0.738,0.252,0.899,0.576c0.162,0.343,0.108,0.811-0.197,1.135
		c-1.765,1.908-4.357,4.646-5.816,6.248c-0.054,0.054-0.018,0.162,0.072,0.162h6.428v1.242H267.482z"/>
	<path d="M282.173,40.516c-1.081,0.45-2.558,0.396-3.638-0.072c-1.08-0.468-1.891-1.296-2.251-2.448
		c-0.396-1.297-0.378-3.151,0.162-4.375c0.486-1.135,1.404-1.927,2.593-2.269c1.171-0.343,2.539-0.234,3.548,0.323
		c1.062,0.595,1.584,1.333,1.908,2.467c0.342,1.207,0.342,2.575,0.036,3.764C284.243,39.039,283.271,40.065,282.173,40.516z
		 M280.21,32.413c-0.99,0.036-1.999,0.702-2.305,1.675c-0.342,1.116-0.307,2.449-0.036,3.619c0.198,0.918,1.08,1.675,1.999,1.818
		c1.044,0.162,2.305-0.162,2.809-1.188c0.648-1.314,0.594-3.187,0.072-4.501C282.353,32.827,281.272,32.359,280.21,32.413z"/>
	<path d="M292.288,40.66v-6.068c0-0.846-0.252-1.765-1.08-2.088c-0.721-0.271-1.585-0.145-2.232,0.252
		c-0.811,0.485-1.081,1.224-1.081,2.124v5.78h-1.62v-9.363h1.404v1.063c0.504-0.612,1.099-0.973,2.017-1.152
		c1.044-0.198,2.287,0.036,3.043,0.612c0.882,0.666,1.171,1.44,1.171,2.503v6.338H292.288z"/>
	<path d="M302.386,39.85c-0.738,0.738-1.908,0.954-2.898,1.009c-0.937,0.035-1.945-0.145-2.701-0.757
		c-0.738-0.594-1.225-1.53-1.44-2.448h1.711c0.071,0.576,0.323,1.188,0.773,1.548c0.469,0.378,1.188,0.414,1.765,0.396
		c0.612-0.019,1.207-0.198,1.639-0.612c0.271-0.271,0.36-0.648,0.324-1.026c-0.036-0.45-0.342-0.72-0.702-0.9
		c-0.595-0.288-2.143-0.774-3.025-0.972c-0.576-0.145-1.476-0.576-1.854-1.188c-0.359-0.612-0.414-1.459-0.107-2.089
		c0.324-0.702,1.026-1.261,1.729-1.477c1.17-0.36,2.629-0.306,3.727,0.252c0.919,0.469,1.387,1.368,1.656,2.341h-1.746
		c-0.126-0.576-0.468-1.17-1.044-1.404c-0.648-0.252-1.837-0.234-2.431,0.216c-0.36,0.271-0.595,0.774-0.45,1.171
		c0.126,0.359,0.666,0.63,1.008,0.72c1.116,0.288,2.647,0.757,3.565,1.206c0.756,0.36,1.278,1.152,1.314,1.981
		C303.232,38.571,302.926,39.31,302.386,39.85z"/>
</g>
</svg>
