<?xml version="1.0" encoding="iso-8859-1"?>
<!-- Generator: Adobe Illustrator 19.0.0, SVG Export Plug-In . SVG Version: 6.00 Build 0)  -->
<svg version="1.1" id="&#x5716;&#x5C64;_1" xmlns="http://www.w3.org/2000/svg" xmlns:xlink="http://www.w3.org/1999/xlink" x="0px"
	 y="0px" viewBox="-112.672 -35.353 272.126 85.039" style="enable-background:new -112.672 -35.353 272.126 85.039;"
	 xml:space="preserve">
<g id="XMLID_1_">
</g>
<g id="XMLID_124_">
</g>
<g id="XMLID_125_">
</g>
<g id="XMLID_126_">
</g>
<g id="XMLID_127_">
</g>
<g id="XMLID_128_">
</g>
<radialGradient id="XMLID_57_" cx="23.4222" cy="26.8896" r="100.9042" gradientTransform="matrix(0.9998 0 0 -0.9905 -0.0264 33.8007)" gradientUnits="userSpaceOnUse">
	<stop  offset="0.2193" style="stop-color:#00FF00;stop-opacity:0"/>
	<stop  offset="1" style="stop-color:#035353"/>
</radialGradient>
<path id="XMLID_63_" style="fill:url(#XMLID_57_);" d="M148.133,49.686h-249.484c-6.252,0-11.321-5.069-11.321-11.321v-62.397
	c0-6.252,5.069-11.321,11.321-11.321h249.484c6.252,0,11.321,5.069,11.321,11.321v62.397
	C159.454,44.617,154.386,49.686,148.133,49.686z"/>
<path id="XMLID_62_" style="fill:#FFFFFF;" d="M143.182,44.642H-96.4c-5.742,0-10.396-4.655-10.396-10.396v-54.159
	c0-5.742,4.655-10.396,10.396-10.396h239.582c5.742,0,10.396,4.655,10.396,10.396v54.159
	C153.578,39.987,148.924,44.642,143.182,44.642z"/>
<g id="XMLID_2_">
	<path id="XMLID_31_" style="fill:#A90000;" d="M-62.709-18.285c3.145-0.953,6.274-1.961,9.482-2.696
		c4.515-1.034,9.068-1.763,13.716-1.676c4.08,0.077,8.034,0.749,11.703,2.665c1.916,1,3.731,2.582,4.605,4.099
		c-0.875,0.105-1.733,0.143-2.562,0.318c-3.194,0.673-5.476,2.645-7.302,5.239c-0.181,0.257-0.397,0.508-0.503,0.796
		c-0.481,1.305-1.406,1.593-2.743,1.581c-3.441-0.031-6.284,2.152-7.348,5.425c-0.428,1.317-0.428,1.324-1.836,1.351
		c-1.659,0.032-3.202,0.415-4.535,1.455c-0.098,0.431-0.361,0.642-0.809,0.604c-0.989,0.503-1.55,1.425-2.191,2.263
		c-0.248,0.324-0.492,0.679-0.626,1.059c-0.383,1.091-1.093,1.371-2.238,1.349c-3.879-0.077-6.561,2.041-7.97,5.593
		c-0.215,0.543-0.505,0.708-1.043,0.785c-3.529,0.503-6.665,1.793-8.975,4.652c-0.717,0.888-1.166,1.944-1.787,3.04
		c-0.474-0.83-0.777-1.65-1.049-2.478c-1.405-4.274-1.276-8.565-0.088-12.853c1.365-4.929,3.746-9.362,6.66-13.532
		c1.958-2.802,4.177-5.389,6.468-7.918c0.219-0.242,0.548-0.416,0.576-0.8C-63.122-18.257-62.949-18.312-62.709-18.285z"/>
	<path id="XMLID_30_" style="fill:#DDA986;" d="M-50.841,0.877c0.27-0.201,0.54-0.403,0.81-0.604
		c0.44-0.142,0.699-0.019,0.957,0.412c6.921,11.569,13.746,23.196,20.486,34.872c0.277,0.479-0.02,1.311-0.523,1.431
		c-0.304,0.072-0.318-0.241-0.413-0.4c-1.468-2.472-2.937-4.943-4.381-7.43C-39.28,19.898-44.64,10.632-50.614,1.739
		C-50.793,1.473-50.97,1.218-50.841,0.877z"/>
	<path id="XMLID_29_" style="fill:#DCA886;" d="M-62.709-18.285c-0.132,0.107-0.264,0.214-0.395,0.321
		c-0.12,0.086-0.259,0.175-0.377,0.028c-0.5-0.621-0.992-1.256-1.165-2.057c-0.07-0.325-0.123-0.698,0.212-0.929
		c0.369-0.255,0.778-0.147,1.088,0.081c0.631,0.465,1.001,1.164,1.441,1.795c0.111,0.159,0.009,0.243-0.143,0.326
		C-62.279-18.595-62.49-18.432-62.709-18.285z"/>
	<path id="XMLID_28_" style="fill:#FEFEFE;" d="M-35.243-9.541c-7.282-6.268-15.878-8.255-25.235-7.796
		c0.091-0.437,0.389-0.427,0.584-0.499c4.582-1.703,9.25-3.182,14.108-3.732c4.658-0.528,9.361-0.73,13.942,0.773
		c2.345,0.769,4.501,1.865,6.382,3.471c0.186,0.158,0.531,0.317,0.426,0.603c-0.088,0.238-0.431,0.136-0.661,0.155
		c-3.173,0.262-5.899,1.401-7.9,3.985C-34.296-11.679-34.655-10.589-35.243-9.541z"/>
	<path id="XMLID_27_" style="fill:#FEFEFE;" d="M-55.083,4.263c-0.881-0.69-1.369-1.545-1.83-2.373
		c-2.496-4.485-4.208-9.262-5.101-14.319c-0.18-1.019-0.253-2.066-0.139-3.11c0.109-1.002,0.412-1.261,1.402-1.185
		c1.706,0.132,3.219,0.836,4.664,1.669c3.599,2.075,6.288,5.096,8.61,8.475c0.856,1.246,1.67,2.521,2.373,4.025
		C-50.643-3.495-53.604-0.751-55.083,4.263z"/>
	<path id="XMLID_26_" style="fill:#FEFEFE;" d="M-63.056-15.075c-0.249,0.537-0.485,1.08-0.749,1.609
		C-66.33-8.418-67.108-3.05-66.673,2.52c0.194,2.484,0.713,4.923,1.4,7.319c0.177,0.616,0.097,0.862-0.609,0.849
		c-2.686-0.049-5.031,0.795-6.916,2.769c-1.062,1.112-1.857,2.403-2.562,3.884c-0.452-1.024-0.673-2.014-0.772-3.03
		c-0.554-5.687,0.785-10.968,3.361-16.01c2.45-4.795,5.581-9.093,9.223-13.036c0.127-0.138,0.274-0.258,0.412-0.386
		C-63.108-15.106-63.082-15.091-63.056-15.075z"/>
</g>
<g id="XMLID_4_">
	<path id="XMLID_35_" d="M27.758-6.752h1.44V4.707h-2.729v-10.29h-3.03c2.49-2.61,4.17-5.67,5.55-8.73h2.82
		C30.758-11.672,29.408-9.152,27.758-6.752z M26.858-14.522h-3.33c2.07-2.1,3.45-4.59,4.74-7.05h3
		C30.068-19.112,28.628-16.742,26.858-14.522z M31.028,4.707v-2.13h8.04v-8.13h-6.689v-2.16h6.689v-7.53h-7.379v-2.1h6.93
		c-0.39-0.9-1.26-3.12-1.5-4.23h2.79c0.3,1.26,1.14,3.42,1.56,4.2h7.5v2.13h-7.11v7.53h6.39v2.13h-6.39v8.16h7.83v2.13H31.028z"/>
	<path id="XMLID_39_" d="M56.438,1.857h-3.061c1.891-3.03,2.521-6.689,2.91-10.319h2.88C58.658-4.832,58.028-1.322,56.438,1.857z
		 M71.468-9.752v11.58c0,0.99-0.24,1.71-0.721,2.19c-0.479,0.45-1.17,0.66-2.13,0.66h-2.609l-0.99-2.16h2.97
		c0.36,0,0.66-0.21,0.66-0.6V-9.752h-3.72v2.25c-0.03,4.53-0.54,8.939-3.479,12.179h-3.72c3.06-3.27,4.379-5.55,4.379-11.79v-2.64
		h-8.489l0.06-2.13h11.52v-4.08H54.968v-2.07h10.229v-3.48h2.79v3.48h10.32v2.07h-10.29v4.08h11.67v2.13H71.468z M76.957,1.857
		c-1.41-3.24-2.58-6.66-3-10.319h2.67c0.45,3.69,1.74,7.08,3.3,10.319H76.957z"/>
	<path id="XMLID_52_" d="M85.718,1.978h-2.34c0.69-4.89,1.2-11.01,1.141-15.27h2.159C86.618-8.102,86.498-2.942,85.718,1.978z
		 M90.128-14.642V4.707h-2.64v-19.349h-3.75v-2.04h3.75v-4.86h2.64v4.86h3.36v2.04H90.128z M91.897,1.978
		c-0.51-5.01-1.05-10.14-0.96-15.27h2.101c0.12,5.1,0.33,10.229,1.26,15.27H91.897z M93.607,4.707v-2.19h6.72v-8.7h-5.55v-2.19h5.55
		v-6.36h-6.119v-2.19h5.999c-0.449-1.41-0.959-3.09-1.319-4.62h2.939c0.33,1.44,0.811,3.21,1.38,4.62h5.88v2.19h-5.97v6.36h5.25
		v2.19h-5.25v8.7h6.57v2.19H93.607z"/>
</g>
<g id="XMLID_3_">
	<path id="XMLID_8_" d="M29.933,19.713v11.613h-1.638V19.713h-4.483v-1.279h10.515v1.279H29.933z"/>
	<path id="XMLID_10_" d="M41.417,31.182c-1.081,0.45-2.557,0.396-3.637-0.072c-1.08-0.468-1.891-1.296-2.25-2.448
		c-0.396-1.297-0.378-3.151,0.162-4.375c0.486-1.135,1.404-1.927,2.593-2.269c1.17-0.343,2.539-0.234,3.547,0.323
		c1.063,0.595,1.584,1.333,1.909,2.467c0.342,1.207,0.342,2.575,0.036,3.764C43.487,29.705,42.515,30.731,41.417,31.182z
		 M39.454,23.079c-0.99,0.036-1.999,0.702-2.305,1.675c-0.342,1.116-0.306,2.449-0.036,3.619c0.198,0.918,1.08,1.675,1.999,1.818
		c1.044,0.162,2.305-0.162,2.809-1.188c0.648-1.314,0.594-3.187,0.072-4.501C41.597,23.493,40.516,23.025,39.454,23.079z"/>
	<path id="XMLID_13_" d="M58.823,22.089c-0.072-0.612-0.216-1.242-0.612-1.729c-0.378-0.432-0.829-0.612-1.387-0.72
		c-0.936-0.198-1.98-0.108-2.863,0.09c-0.576,0.126-1.152,0.594-1.404,1.152c-0.234,0.522-0.216,1.242,0.072,1.746
		c0.288,0.541,0.829,0.738,1.458,0.864c1.513,0.324,3.295,0.721,4.394,1.081c0.738,0.233,1.477,0.756,1.873,1.458
		c0.468,0.847,0.486,2.07,0.144,2.935c-0.288,0.774-0.828,1.314-1.513,1.729c-1.242,0.738-2.772,0.847-4.303,0.721
		c-1.17-0.09-2.341-0.468-3.187-1.332c-0.738-0.757-1.134-1.837-1.314-2.827h1.675c0.072,0.864,0.504,1.692,1.188,2.215
		c0.666,0.485,1.53,0.702,2.358,0.738c0.846,0.054,2.071-0.108,2.809-0.595c0.612-0.414,0.936-1.08,0.936-1.836
		c0.018-0.793-0.45-1.459-1.188-1.747c-0.756-0.306-2.305-0.63-3.367-0.811c-0.972-0.18-2.233-0.594-2.917-1.242
		c-0.792-0.738-1.026-1.872-0.756-2.898c0.216-0.864,0.846-1.692,1.639-2.143c1.242-0.702,3.475-0.774,4.897-0.486
		c0.882,0.18,1.692,0.702,2.269,1.513c0.45,0.63,0.648,1.368,0.792,2.124H58.823z"/>
	<path id="XMLID_15_" d="M65.824,31.308h-1.458c-0.504,0-0.882-0.126-1.134-0.378c-0.27-0.252-0.414-0.648-0.414-1.152v-6.572
		h-1.314v-1.224h1.314v-3.529h1.603v3.511h1.836v1.242h-1.836v6.374c0,0.288,0.288,0.486,0.522,0.486h1.603L65.824,31.308z"/>
	<path id="XMLID_17_" d="M74.303,31.326c-0.162-0.396-0.306-0.864-0.36-1.242c-0.81,0.737-1.818,1.26-2.917,1.386
		c-0.774,0.09-1.639,0.019-2.305-0.342c-0.594-0.324-1.026-0.792-1.225-1.44c-0.216-0.666-0.198-1.44,0.036-2.07
		c0.288-0.738,0.864-1.225,1.638-1.495c0.648-0.233,1.567-0.324,2.323-0.396c0.846-0.072,1.801-0.396,2.305-0.847
		c0.036-0.342,0-0.9-0.342-1.278c-0.324-0.342-0.829-0.522-1.314-0.576c-0.63-0.09-1.422,0.018-2.017,0.271
		c-0.594,0.252-0.955,0.756-1.116,1.368h-1.693c0.126-0.99,0.955-1.909,1.891-2.358c0.792-0.379,1.999-0.559,2.863-0.522
		c0.937,0.036,1.945,0.306,2.611,0.99c0.54,0.576,0.738,1.332,0.72,2.232c-0.018,1.171-0.018,2.755,0,3.583
		c0.018,0.9,0.306,2.071,0.667,2.737H74.303z M73.763,26.374c-0.648,0.343-1.387,0.595-2.053,0.648
		c-0.63,0.054-1.242,0.126-1.71,0.288c-0.432,0.162-0.702,0.36-0.882,0.757c-0.162,0.378-0.18,0.828-0.054,1.224
		c0.144,0.414,0.486,0.685,0.9,0.828c0.342,0.108,0.774,0.091,1.152,0.019c1.116-0.181,2.035-0.774,2.647-1.729
		C73.763,27.814,73.763,26.933,73.763,26.374z"/>
	<path id="XMLID_20_" d="M83.536,31.326v-6.068c0-0.846-0.252-1.765-1.08-2.088c-0.721-0.271-1.585-0.145-2.232,0.252
		c-0.811,0.485-1.081,1.224-1.081,2.124v5.78h-1.621v-9.363h1.404v1.063c0.504-0.612,1.099-0.973,2.017-1.152
		c1.044-0.198,2.287,0.036,3.043,0.612c0.882,0.666,1.171,1.44,1.171,2.503v6.338H83.536z"/>
	<path id="XMLID_22_" d="M87.171,31.326V18.452h1.692v12.874H87.171z"/>
	<path id="XMLID_24_" d="M97.63,30.966c-0.738,0.486-2.034,0.63-3.061,0.54c-1.152-0.108-2.179-0.576-2.863-1.549
		c-0.666-0.936-1.008-2.178-0.99-3.402c0-1.026,0.252-2.017,0.721-2.845c0.773-1.351,2.16-1.909,3.619-1.927
		c1.332-0.019,2.34,0.342,3.133,1.242c0.684,0.774,1.026,1.999,0.972,3.025c-0.036,0.611-0.396,0.899-0.99,0.899h-5.779
		c0.107,1.099,0.45,2.161,1.278,2.827c0.504,0.414,1.134,0.522,1.782,0.486c0.522-0.036,1.009-0.198,1.387-0.576
		s0.594-0.918,0.702-1.387h1.782C99.106,29.201,98.53,30.372,97.63,30.966z M96.657,23.439c-0.72-0.504-1.782-0.468-2.574-0.216
		c-1.063,0.324-1.585,1.458-1.621,2.467h4.808c0.234,0,0.343-0.198,0.343-0.396C97.612,24.645,97.216,23.836,96.657,23.439z"/>
	<path id="XMLID_33_" d="M104.649,33.793c-0.162,0.378-0.432,0.702-0.756,0.882c-0.306,0.18-0.666,0.271-1.044,0.271h-1.278
		l-0.738-1.261h1.62c0.324,0,0.595-0.252,0.702-0.522l0.918-2.25l-3.78-8.949h1.818l2.845,6.734l2.809-6.734h1.854L104.649,33.793z"
		/>
</g>
<g id="XMLID_5_">
	<path id="XMLID_134_" style="fill:#8CCDCB;" d="M-41.477,25.587c-0.217-0.131-0.562,0.05-0.694-0.287
		c-0.155-0.317-0.175-0.637,0.016-0.941c0.102-0.162,0.244-0.295,0.469-0.206c0.921,0.062,1.842,0.125,2.763,0.187
		c0.154-0.12,0.335-0.119,0.516-0.117c0.271,0.014,0.521-0.074,0.773-0.157c0.139-0.037,0.272-0.093,0.408-0.138
		c0.711-0.284,1.273-0.733,1.718-1.371c2.175-3.123,3.865-6.477,4.849-10.164c0.863-3.233,1.653-6.483,2.439-9.735
		c0.087-0.362,0.127-0.766,0.538-0.953c0.376,0.001,0.751,0.001,1.127,0.002c0.114,0.107,0.096,0.236,0.031,0.348
		c-0.476,0.814-0.562,1.746-0.772,2.635c-0.588,2.482-1.156,4.969-1.761,7.447c-0.524,2.145-1.345,4.192-2.205,6.222
		c-0.589,1.39-1.294,2.719-2.156,3.959c-0.633,0.911-1.333,1.762-2.391,2.228c0.27,0.087,0.489-0.038,0.721-0.146
		c1.613-0.754,2.764-1.971,3.617-3.514c1.481-2.678,2.586-5.508,3.366-8.458c0.846-3.202,1.501-6.451,2.227-9.682
		c0.084-0.375,0.102-0.799,0.493-1.034c0.377-0.014,0.752,0.014,1.122,0.086c0.09,0.098,0.064,0.209,0.024,0.312
		c-0.526,1.338-0.691,2.765-1.01,4.152c-0.461,2.008-0.867,4.029-1.347,6.032c-0.563,2.35-1.443,4.593-2.414,6.802
		c-0.518,1.179-1.117,2.311-1.841,3.376c-0.655,0.964-1.409,1.825-2.484,2.347c1.257-0.154,2.218-0.771,2.967-1.799
		c1.642-2.253,2.76-4.76,3.725-7.356c1.004-2.703,1.521-5.527,2.164-8.321c0.348-1.514,0.642-3.04,0.988-4.554
		c0.088-0.384,0.155-0.789,0.566-0.993c0.374,0.015,0.756-0.048,1.116,0.108c0.072,0.103,0.046,0.213,0.017,0.32
		c-0.88,3.211-1.429,6.497-2.221,9.729c-0.677,2.764-1.59,5.442-2.731,8.047c-0.655,1.495-1.503,2.856-2.575,4.084
		c-0.34,0.389-0.701,0.732-1.211,0.905c0.388-0.001,0.38-0.017,0.676-0.155c1.303-0.611,2.175-1.655,2.92-2.843
		c0.941-1.502,1.582-3.137,2.183-4.792c1.177-3.243,1.949-6.592,2.654-9.961c0.299-1.427,0.612-2.851,0.921-4.276
		c0.085-0.394,0.136-0.826,0.54-1.068c0.407-0.125,0.814,0.046,1.221,0.002c0.115,0.113,0.062,0.24,0.015,0.353
		c-0.405,0.976-0.537,2.02-0.749,3.042c-0.51,2.452-0.925,4.928-1.553,7.35c-0.832,3.21-1.914,6.346-3.46,9.295
		c-0.67,1.279-1.689,2.287-2.828,3.235c0.276,0.139,0.494,0.053,0.715-0.064c0.914-0.483,1.649-1.149,2.247-2.003
		c1.269-1.813,2.094-3.832,2.844-5.892c1.241-3.409,1.989-6.943,2.689-10.491c0.251-1.275,0.515-2.548,0.783-3.82
		c0.071-0.337,0.143-0.69,0.473-0.899c0.221-0.193,0.488-0.066,0.732-0.107c0.068,0.055,0.149,0.051,0.227,0.043
		c0.303-0.029,0.369,0.127,0.284,0.377c-0.578,1.704-0.77,3.495-1.168,5.239c-0.434,1.9-0.76,3.825-1.24,5.714
		c-0.501,1.969-1.169,3.885-1.872,5.789c-0.357,0.968-0.771,1.909-1.224,2.837c-0.647,1.327-1.652,2.351-2.721,3.341
		c0.987-0.218,1.715-0.801,2.322-1.573c1.351-1.718,2.209-3.692,2.973-5.715c1.328-3.514,2.075-7.184,2.877-10.837
		c0.303-1.378,0.543-2.769,0.834-4.15c0.079-0.373,0.166-0.748,0.525-0.973c0.377,0.001,0.753,0.001,1.13,0.002
		c0.123,0.135,0.123,0.295,0.053,0.444c-0.385,0.821-0.391,1.725-0.555,2.591c-0.935,4.944-2.148,9.807-4.09,14.465
		c-0.715,1.714-1.567,3.355-2.639,4.879c-0.437,0.622-0.97,1.124-1.627,1.499c-0.639,0.337-1.312,0.153-1.974,0.131
		c-0.414-0.058-0.821-0.171-1.243-0.177c-0.078-0.004-0.157-0.003-0.235-0.008c-0.663-0.044-0.683-0.047-0.776,0.594
		c-0.059,0.405-0.312,0.459-0.633,0.462c-0.291-0.016-0.596,0.057-0.862-0.127c-0.314-0.41-0.196-0.828-0.014-1.245
		c-0.673-0.144-0.811-0.044-0.875,0.624c-0.016,0.17,0.002,0.352-0.156,0.478c-0.517,0.172-1.02,0.044-1.524-0.064
		c-0.519-0.384-0.203-0.833-0.098-1.266c-0.788-0.123-0.883-0.053-0.986,0.726c-0.018,0.139-0.015,0.284-0.125,0.394
		c-0.119,0.073-0.248,0.073-0.38,0.055c-0.363-0.097-0.747-0.002-1.109-0.112c-0.072-0.031-0.129-0.081-0.174-0.144
		c-0.152-0.368-0.074-0.731,0.041-1.091c-0.752-0.155-0.825-0.105-0.92,0.616c-0.02,0.153-0.013,0.317-0.166,0.418
		c-0.488,0.142-0.962,0.072-1.43-0.087c-0.247-0.229-0.241-0.526-0.24-0.831c0.001-0.148,0.28-0.366-0.086-0.444
		c-0.371-0.08-0.644,0.057-0.716,0.36c-0.058,0.245,0.023,0.511-0.114,0.745c-0.035,0.039-0.077,0.067-0.127,0.085
		c-0.131,0.04-0.262,0.03-0.393,0.006c-0.286-0.113-0.643,0.028-0.887-0.24c-0.113-0.159-0.169-0.344-0.165-0.533
		c0.006-0.283-0.064-0.442-0.396-0.431c-0.318,0.01-0.518,0.093-0.516,0.452c0.001,0.155-0.005,0.319-0.148,0.431
		C-41.067,25.728-41.271,25.644-41.477,25.587z"/>
	<path id="XMLID_133_" style="fill:#B99E85;" d="M-13.222,31.768c0.887,0.405,1.696,0.919,2.366,1.638
		c0.903,0.968,0.921,2.173,0.038,3.158c-1.018,1.135-2.359,1.747-3.746,2.262c-2.429,0.901-4.953,1.399-7.519,1.722
		c-2.802,0.353-5.614,0.509-8.435,0.445c-4.301-0.098-8.561-0.528-12.687-1.826c-1.512-0.476-2.979-1.069-4.222-2.11
		c-1.527-1.278-1.532-2.868,0.018-4.123c1.343-1.087,2.928-1.682,4.549-2.194c0.45-0.142,0.91-0.25,1.365-0.374
		c0.137,0.217-0.013,0.399-0.088,0.576c-0.716,1.684-1.407,3.379-2.131,5.06c-0.138,0.32-0.245,0.649-0.346,0.981
		c-0.068,0.224-0.074,0.439,0.159,0.584c0.325,0.143,0.579,0.086,0.733-0.257c0.082-0.184,0.208-0.31,0.422-0.325
		c1.358,0.101,2.702,0.321,4.053,0.479c3.978,0.465,7.949,0.982,11.922,1.486c0.669,0.085,0.672,0.084,0.79,0.74
		c0.024,0.133,0.085,0.235,0.183,0.32c0.349,0.205,0.523,0.03,0.642-0.288c0.444-1.186,0.853-2.383,1.286-3.573
		c0.492-1.353,0.955-2.716,1.449-4.069c0.104-0.285,0.235-0.524,0.586-0.529c1.235-0.021,2.457,0.17,3.688,0.228
		c0.898,0.042,1.797,0.112,2.692,0.21c0.449,0.049,0.858,0.204,1.263,0.387c0.596,0.27,0.692,0.214,0.833-0.46
		C-13.343,31.839-13.333,31.757-13.222,31.768z"/>
	<path id="XMLID_132_" style="fill:#E9D3AF;" d="M-13.222,31.768c-0.094,0.136,0.017,0.269,0.006,0.407
		c-0.033,0.41-0.366,0.672-0.709,0.469c-1.132-0.67-2.397-0.575-3.626-0.675c-1.443-0.117-2.888-0.201-4.332-0.3
		c-0.162-0.048-0.289-0.12-0.243-0.325c0.053-0.237,0.134-0.453,0.401-0.525c0.137-0.037,0.279-0.026,0.419-0.037
		c1.322,0.041,2.638,0.167,3.835,0.302c0.181-0.012,0.14-0.106,0.149-0.044c0.003,0.02-0.011,0.023-0.033,0.031
		c-0.167,0.061-0.323-0.004-0.448-0.086c-0.919-0.603-1.972-0.609-3.008-0.693c-0.126-0.01-0.253-0.011-0.377-0.043
		c-0.38-0.091-0.455-0.329-0.337-0.675c0.142-0.416,0.271-0.836,0.438-1.242c0.058-0.141,0.093-0.312,0.304-0.304
		c0.695,0.266,1.369,0.581,2.028,0.923c0.754,0.392,1.572,0.298,2.366,0.382c0.234,0.025,0.331-0.122,0.323-0.359
		c-0.136-4.035-0.016-8.07-0.069-12.105c-0.008-0.646-0.098-1.292-0.094-1.94c-0.032-0.23,0.061-0.434,0.141-0.641
		c0.209-0.547,0.408-1.098,0.608-1.648c0.065-0.18,0.089-0.413,0.339-0.47c0.005,0.396,0.014,0.792,0.014,1.188
		c0.001,3.103,0.079,6.205,0.129,9.306c0.034,2.073,0.004,4.147,0.083,6.217c0.024,0.615,0.069,1.23,0.067,1.846
		c-0.001,0.289,0.18,0.371,0.389,0.465C-14.045,31.379-13.597,31.495-13.222,31.768z"/>
	<path id="XMLID_131_" style="fill:#F3F1EE;" d="M-25.388,1.71c-0.462,0.901-0.537,1.909-0.768,2.871
		c-0.806,3.358-1.37,6.777-2.483,10.057c-0.83,2.443-1.798,4.826-3.165,7.038c-0.862,1.396-2.12,2.274-3.523,3.008
		c-0.118,0.062-0.247,0.048-0.372,0.024c-0.124-0.024-0.245-0.056-0.426-0.098c0.396-0.276,0.821-0.43,1.161-0.722
		c0.953-0.817,1.646-1.834,2.242-2.917c1.811-3.289,3.098-6.773,3.907-10.442c0.567-2.572,1.206-5.128,1.803-7.694
		c0.094-0.404,0.425-0.705,0.456-1.13C-26.167,1.707-25.777,1.709-25.388,1.71z"/>
	<path id="XMLID_130_" style="fill:#F3F1EE;" d="M-22.929,1.797c-0.557,0.728-0.555,1.632-0.748,2.467
		c-0.787,3.395-1.343,6.847-2.418,10.169c-1.011,3.126-2.295,6.128-4.264,8.803c-0.606,0.824-1.429,1.275-2.322,1.65
		c-0.311,0.131-0.659,0.023-0.985,0.035c-0.035-0.057-0.013-0.092,0.032-0.111c1.437-0.602,2.342-1.761,3.087-3.047
		c2.004-3.463,3.35-7.18,4.192-11.086c0.562-2.605,1.132-5.209,1.714-7.81c0.082-0.366,0.248-0.714,0.376-1.07
		C-23.82,1.797-23.374,1.797-22.929,1.797z"/>
	<path id="XMLID_129_" style="fill:#F3F1EE;" d="M-18.244,2.002c-0.59,1.264-0.666,2.654-0.964,3.988
		c-0.55,2.462-0.936,4.964-1.639,7.387c-0.868,2.991-1.776,5.976-3.366,8.691c-0.36,0.614-0.769,1.197-1.207,1.76
		c-0.529,0.681-1.269,1.086-1.993,1.508c-0.293,0.171-0.583-0.015-0.968-0.064c0.806-0.547,1.42-1.197,2.02-1.863
		c0.938-1.041,1.534-2.281,2.057-3.557c0.948-2.312,1.864-4.645,2.433-7.079c0.728-3.116,1.338-6.26,1.975-9.396
		c0.105-0.518,0.349-0.978,0.478-1.482C-19.026,1.924-18.62,1.797-18.244,2.002z"/>
	<path id="XMLID_123_" style="fill:#F3F1EE;" d="M-15.694,1.987c-0.526,0.864-0.558,1.865-0.755,2.816
		c-0.845,4.062-1.635,8.138-2.966,12.079c-0.72,2.131-1.549,4.22-2.83,6.094c-0.713,1.043-1.478,2.031-2.802,2.35
		c-0.092,0.022-0.181,0.054-0.274,0.071c-0.06,0.011-0.124,0.002-0.227,0.002c0.749-0.754,1.524-1.429,2.13-2.26
		c0.81-1.11,1.332-2.367,1.831-3.635c0.712-1.811,1.327-3.658,1.866-5.524c0.538-1.864,0.836-3.787,1.267-5.678
		c0.455-1.996,0.669-4.048,1.341-5.993c0.173-0.5-0.3-0.247-0.399-0.414C-16.906,1.914-16.305,2.038-15.694,1.987z"/>
	<path id="XMLID_122_" style="fill:#F3F1EE;" d="M-20.64,1.894c-0.555,0.989-0.616,2.113-0.855,3.185
		c-0.914,4.097-1.7,8.225-3.145,12.186c-0.74,2.027-1.569,3.999-2.85,5.763c-0.687,0.946-1.613,1.542-2.599,2.088
		c-0.249,0.138-0.491-0.053-0.744,0.005c0.006-0.049,0.001-0.091,0.013-0.096c1.532-0.683,2.346-2.054,3.101-3.411
		c1.739-3.13,2.837-6.514,3.641-9.991c0.664-2.873,1.269-5.76,1.911-8.639c0.082-0.368,0.235-0.719,0.355-1.078
		C-21.423,1.779-21.03,1.948-20.64,1.894z"/>
	<path id="XMLID_121_" style="fill:#DFC399;" d="M-21.31,30.916c-0.227,0.036-0.523-0.106-0.635,0.232
		c-0.06,0.18-0.189,0.376,0.062,0.522c-0.242-0.016-0.315,0.146-0.383,0.339c-0.646,1.826-1.298,3.65-1.949,5.474
		c-0.281,0.786-0.581,1.565-0.839,2.358c-0.138,0.424-0.362,0.515-0.739,0.318c0.279-1.058,0.691-2.071,1.056-3.1
		c0.854-2.405,1.685-4.818,2.557-7.217c1.473-4.052,2.886-8.126,4.339-12.185c1.047-2.925,2.021-5.876,3.093-8.793
		c0.634-1.726,1.197-3.477,1.862-5.192c0.096-0.281,0.179-0.569,0.291-0.843c0.122-0.299,0.173-0.578-0.059-0.845
		c0.078-0.307,0.282-0.495,0.577-0.354c0.254,0.121,0.424,0.371,0.341,0.703c-0.255,1.013-0.659,1.974-1.004,2.956
		c-0.775,2.203-1.565,4.401-2.346,6.602c-0.031,0.088-0.038,0.185-0.056,0.277c-0.342,0.892-0.683,1.784-1.025,2.675
		c0.053,0.291-0.042,0.56-0.137,0.825c-1.235,3.448-2.449,6.903-3.692,10.349c-0.194,0.537-0.367,1.081-0.579,1.612
		c-0.064,0.16-0.096,0.34-0.271,0.43c-0.189,0.53-0.355,1.07-0.575,1.587c-0.12,0.281-0.016,0.397,0.208,0.497
		c-0.041,0.074-0.119,0.098-0.183,0.142c-0.235,0.162-0.309,0.324,0.01,0.477C-21.325,30.794-21.29,30.843-21.31,30.916z"/>
	<path id="XMLID_120_" style="fill:#F3F1EE;" d="M-12.654,1.986c0.418,0.076,0.391,0.317,0.263,0.634
		c-0.141,0.348-0.241,0.713-0.359,1.071c-0.158,0.128-0.344,0.149-0.538,0.138c-0.866-0.069-0.878-0.072-1.08,0.808
		c-0.434,1.892-0.934,3.768-1.327,5.669c-0.029,0.14-0.06,0.277-0.033,0.42c-0.394,1.419-0.75,2.849-1.273,4.229
		c-0.82,2.164-1.71,4.302-2.498,6.478c-0.069,0.192-0.127,0.394-0.284,0.542c-0.314,0.336-0.476,0.764-0.692,1.158
		c-0.417,0.761-0.844,1.51-1.502,2.101c-0.3,0.27-0.646,0.445-1.02,0.575c-0.145,0.05-0.304,0.11-0.434-0.045
		c1.519-0.96,2.277-2.517,3.064-4.021c1.693-3.235,2.785-6.698,3.72-10.216c0.685-2.576,1.233-5.182,1.658-7.81
		c0.097-0.598,0.418-1.122,0.424-1.729C-13.928,2.135-13.29,2.142-12.654,1.986z"/>
	<path id="XMLID_119_" style="fill:#E9D3AF;" d="M-38.347,24.346c-0.192-0.002-0.385-0.004-0.577-0.006
		c0.988-2.38,1.972-4.762,2.966-7.139c1.195-2.86,2.398-5.716,3.599-8.574c0.98-2.332,1.963-4.664,2.946-6.995
		c0.079-0.187,0.137-0.382,0.405-0.406c0.299-0.026,0.369,0.189,0.476,0.379c-0.586,0.397-0.704,1.072-0.977,1.654
		c-2.131,5.105-4.246,10.217-6.365,15.327c-0.705,1.698-1.412,3.395-2.114,5.095C-38.083,23.914-38.165,24.158-38.347,24.346z"/>
	<path id="XMLID_118_" style="fill:#F3F1EE;" d="M-29.587,3.217c0.157-0.411,0.344-0.813,0.462-1.234
		c0.095-0.338,0.416-0.223,0.593-0.377c0.267,0.166,0.565,0.066,0.848,0.098c-0.466,0.604-0.486,1.355-0.667,2.051
		c-0.947,3.632-1.649,7.332-2.885,10.882c-1.056,3.033-2.564,5.845-4.504,8.416c-0.377,0.5-0.9,0.78-1.47,0.991
		c-0.103-0.182,0.057-0.257,0.153-0.344c1.025-0.928,1.844-2.02,2.555-3.199c0.482-0.764,0.974-1.522,1.249-2.394
		c0.52-0.953,0.754-2.014,1.135-3.02c1.38-3.636,2.23-7.429,3.283-11.162c0.061-0.216,0.29-0.56-0.228-0.569
		C-29.248,3.347-29.442,3.376-29.587,3.217z"/>
	<path id="XMLID_117_" style="fill:#E9D3AF;" d="M-43.964,37.685c-0.345-0.181-0.316-0.452-0.209-0.768
		c0.45-1.329,1.064-2.59,1.585-3.89c0.357-0.89,0.729-1.775,1.095-2.661c0.521-1.232,1.033-2.468,1.571-3.693
		c0.119-0.27,0.029-0.349-0.197-0.446c-0.459-0.199-0.906-0.425-1.359-0.64c0.217,0.001,0.434,0.002,0.65,0.004
		c0.422-0.051,0.846-0.141,1.245,0.097c0.262,0.191,0.606-0.015,0.867,0.181c-0.249,0.208-0.395,0.479-0.518,0.778
		c-1.448,3.5-2.911,6.994-4.382,10.485C-43.701,37.332-43.765,37.553-43.964,37.685z"/>
	<path id="XMLID_116_" style="fill:#E9D4B1;" d="M-41.687,24.153c-0.631,0.184-0.445,0.714-0.485,1.148
		c-0.229-0.103-0.468-0.189-0.686-0.311c-0.361-0.203-0.449-0.512-0.262-0.881c0.176-0.346,0.472-0.392,0.8-0.254
		C-42.105,23.944-41.86,23.975-41.687,24.153z"/>
	<path id="XMLID_115_" style="fill:#E9D3AF;" d="M-13.304,3.702c0.184-0.004,0.369-0.007,0.553-0.011
		c-0.455,1.262-0.914,2.523-1.364,3.787c-1.603,4.508-3.203,9.016-4.802,13.526c-0.913,2.575-1.82,5.151-2.73,7.727
		c-1.288,3.648-2.576,7.295-3.868,10.942c-0.062,0.176-0.125,0.36-0.279,0.488c-0.334-0.08-0.442-0.316-0.34-0.61
		c0.111-0.319-0.043-0.407-0.297-0.439c-1.046-0.132-2.092-0.256-3.138-0.387c-1.435-0.181-2.869-0.372-4.305-0.548
		c-1.155-0.142-2.313-0.266-3.469-0.405c-1.078-0.13-2.154-0.27-3.231-0.402c-0.749-0.092-1.499-0.179-2.248-0.269
		c-0.284-0.409,0.027-1.023,0.591-1.168c1.232,0.096,2.457,0.263,3.683,0.42c3.097,0.398,6.191,0.818,9.291,1.191
		c1.007,0.121,2.006,0.302,3.017,0.397c0.364,0.034,0.551-0.077,0.671-0.424c0.624-1.798,1.3-3.576,1.916-5.377
		c0.164-0.478,0.144-0.477-0.369-0.521c-1.089-0.094-2.183-0.11-3.269-0.243c-0.214-0.026-0.411-0.019-0.582,0.13
		c-0.317,0.277-0.64,0.186-0.974,0.03c-1.194-0.554-2.392-1.098-3.59-1.643c-0.339-0.154-0.639-0.347-0.97,0.111
		c-0.246,0.341-0.807,0.208-1.06-0.169c-0.105-0.157-0.17-0.342-0.327-0.461c-0.01-0.011-0.031-0.03-0.028-0.035
		c0.262-0.438-0.019-0.557-0.366-0.716c-1.074-0.493-2.149-0.985-3.229-1.467c-0.129-0.058-0.263-0.11-0.351-0.231
		c-0.033-0.416,0.105-0.764,0.413-1.046c0.034-0.004,0.068-0.008,0.102-0.012c0.258-0.161,0.476,0.011,0.705,0.084
		c0.844,0.362,1.65,0.807,2.495,1.166c0.465,0.198,0.463,0.19,0.484-0.298c0.008-0.198-0.055-0.418,0.137-0.575
		c0.375,0.046,0.764-0.07,1.129,0.093c0.23,0.348,0.126,0.74,0.123,1.111c-0.003,0.392,0.138,0.582,0.533,0.621
		c0.96,0.094,1.921,0.159,2.882,0.238c1.449,0.118,2.898,0.233,4.348,0.342c0.867,0.065,1.735,0.116,2.599,0.213
		c0.058,0.007,0.127,0.007,0.16-0.075c-0.079-0.15-0.245-0.181-0.381-0.243c-0.965-0.438-1.916-0.908-2.881-1.347
		c-0.22-0.1-0.455-0.131-0.686-0.181c-0.243-0.079-0.505-0.156-0.507-0.472c-0.003-0.358,0.078-0.69,0.459-0.849
		c0.42-0.011,0.824,0.091,1.231,0.175c1.026,0.332,1.966,0.857,2.93,1.325c0.504,0.245,0.562,0.228,0.749-0.304
		c0.442-1.252,0.918-2.492,1.33-3.755c0.132-0.405,0.312-0.792,0.532-1.159c0.536-1.363,1.088-2.721,1.605-4.092
		c0.634-1.683,1.371-3.328,1.836-5.073c0.187-0.7,0.423-1.386,0.637-2.079c-0.033-0.391,0.141-0.738,0.264-1.088
		c0.658-1.867,1.325-3.731,2.013-5.587C-13.474,3.926-13.425,3.792-13.304,3.702z"/>
	<path id="XMLID_113_" style="fill:#DFC399;" d="M-29.587,3.217c0.186,0.003,0.373,0.005,0.559,0.008
		c0.149,0.195,0.008,0.367-0.059,0.531c-1.201,2.963-2.431,5.914-3.648,8.871c-0.132,0.322-0.265,0.644-0.392,0.968
		c-0.465,1.017-0.863,2.062-1.293,3.093c-0.958,2.364-1.927,4.725-2.915,7.077c-0.062,0.149-0.133,0.287-0.258,0.392
		c-0.24,0.109-0.479,0.224-0.755,0.189c0.19-0.754,0.554-1.44,0.846-2.153c1.276-3.114,2.564-6.222,3.854-9.33
		c1.32-3.181,2.646-6.36,3.972-9.538C-29.658,3.284-29.617,3.253-29.587,3.217z"/>
	<path id="XMLID_112_" style="fill:#DFC299;" d="M-38.353,25.879c-0.127,0.344-0.254,0.688-0.38,1.032
		c-0.009,0.522-0.307,0.946-0.479,1.413c-0.206,0.558-0.494,1.086-0.61,1.677c-0.806,1.615-1.415,3.314-2.111,4.975
		c-0.145,0.346-0.356,0.675-0.314,1.077c-0.373,0.085-0.664,0.615-0.574,1.046c-0.132,0.01-0.163,0.105-0.211,0.211
		c-0.243,0.533-0.343,0.569-0.932,0.374c0.543-1.311,1.083-2.624,1.629-3.934c0.85-2.039,1.706-4.077,2.558-6.115
		c0.195-0.466,0.386-0.933,0.58-1.4c0.089-0.215,0.202-0.4,0.481-0.368C-38.594,25.872-38.473,25.876-38.353,25.879z"/>
	<path id="XMLID_108_" style="fill:#F2F1EE;" d="M-37.102,25.965c-0.16,0.032-0.344-0.06-0.48,0.095
		c-0.22-0.074-0.429-0.189-0.669-0.193c0-0.016,0-0.031,0-0.047c-0.035-1.233,0.013-1.277,1.366-1.127
		C-37.296,25.088-37.196,25.527-37.102,25.965z"/>
	<path id="XMLID_107_" style="fill:#F3F1EE;" d="M-31.777,26.443c-0.389-0.034-0.778-0.068-1.167-0.103
		c0.006-0.125,0.015-0.25,0.019-0.375c0.025-0.709,0.246-0.911,0.94-0.864c0.124,0.008,0.249,0.001,0.417,0.001
		C-31.834,25.546-31.991,25.971-31.777,26.443z"/>
	<path id="XMLID_106_" style="fill:#F2F1EE;" d="M-34.532,26.156c-0.359,0.008-0.719,0.032-1.065-0.095
		c0.003-0.079,0.007-0.157,0.008-0.236c0.01-0.873,0.087-0.946,0.951-0.908c0.093,0.004,0.187,0.001,0.348,0.001
		C-34.579,25.325-34.556,25.741-34.532,26.156z"/>
	<path id="XMLID_105_" style="fill:#F2F1EE;" d="M-29.131,26.639c-0.35-0.011-0.704,0.033-1.042-0.103
		c0.001-0.016,0.002-0.032,0.002-0.047c0.012-1.242,0.012-1.242,1.284-1.161C-29.213,25.732-29.312,26.165-29.131,26.639z"/>
	<path id="XMLID_104_" style="fill:#F2F1EE;" d="M-39.582,25.688c-0.414-0.049-0.843,0.1-1.245-0.097
		c0.001-0.047,0.002-0.094,0.002-0.141c-0.009-0.822,0.217-0.995,1.037-0.809c0.136,0.031,0.199,0.075,0.149,0.215
		C-39.741,25.142-39.593,25.41-39.582,25.688z"/>
	<path id="XMLID_103_" style="fill:#F2F0ED;" d="M-26.636,26.916c-0.54-0.056-1.08-0.113-1.62-0.169
		c0.213-0.028,0.47,0.076,0.481-0.326c0.022-0.773,0.087-0.807,0.84-0.744c0.094,0.008,0.189,0.012,0.283,0.018
		c-0.087,0.175-0.234,0.301-0.3,0.508C-27.068,26.571-27.001,26.793-26.636,26.916z"/>
	<path id="XMLID_101_" style="fill:#BA9F86;" d="M-21.31,30.916c-0.081-0.202-0.517,0.074-0.448-0.328
		c0.052-0.303,0.208-0.486,0.545-0.442c0.647,0.038,1.299,0.037,1.939,0.123c0.759,0.103,1.379,0.571,2.049,0.928
		C-18.586,31.103-19.948,31.01-21.31,30.916z"/>
	<path id="XMLID_100_" style="fill:#FEFEFD;" d="M-13.304,3.702c-0.476,1.352-0.95,2.704-1.429,4.054
		c-0.353,0.994-0.711,1.986-1.067,2.979c-0.216-0.245-0.017-0.497,0.031-0.715c0.453-2.04,0.94-4.072,1.415-6.107
		c0.057-0.245,0.204-0.342,0.447-0.306C-13.706,3.637-13.505,3.67-13.304,3.702z"/>
	<path id="XMLID_98_" style="fill:#E9D3B0;" d="M-33.22,13.597c0.004,1.523,0.009,3.045,0.013,4.568
		c-0.187,0.905-0.693,1.644-1.231,2.366c-0.001-1.133,0.001-2.266-0.008-3.399c-0.001-0.163,0.074-0.35-0.093-0.484
		C-34.085,15.637-33.753,14.574-33.22,13.597z"/>
	<path id="XMLID_97_" style="fill:#B99E85;" d="M-42.247,36.054c-0.24-0.125-0.149-0.318-0.08-0.483
		c0.719-1.742,1.445-3.48,2.168-5.22c0.062-0.149,0.153-0.272,0.291-0.358c0.144-0.209,0.378-0.212,0.592-0.251
		c1.261-0.233,2.529-0.423,3.805-0.553c0.219-0.022,0.444-0.063,0.638,0.094c0.208,0.015,0.388,0.014,0.404,0.325
		c0.016,0.305,0.254,0.463,0.565,0.449c0.281-0.012,0.551-0.061,0.561-0.432c0.009-0.301,0.178-0.184,0.318-0.12
		c1.396,0.634,2.794,1.263,4.185,1.908c0.352,0.163,0.672,0.323,0.941-0.116c0.08-0.131,0.23-0.099,0.349-0.085
		c1.301,0.153,2.608,0.216,3.915,0.28c0.235,0.012,0.302,0.081,0.214,0.324c-0.72,1.99-1.429,3.985-2.142,5.977
		c-0.088,0.245-0.19,0.357-0.519,0.309c-1.401-0.205-2.812-0.344-4.217-0.525c-1.545-0.199-3.087-0.424-4.631-0.628
		c-1.326-0.176-2.654-0.344-3.982-0.506C-39.994,36.306-41.121,36.183-42.247,36.054z"/>
	<path id="XMLID_95_" style="fill:#B99F86;" d="M-30.464,29.317c1.967,0.182,3.933,0.366,5.9,0.545
		c0.455,0.042,0.911,0.061,1.365,0.11c0.143,0.016,0.43-0.114,0.397,0.149c-0.03,0.233-0.003,0.626-0.435,0.605
		c-0.551-0.026-1.101-0.06-1.65-0.106c-1.003-0.084-2.004-0.208-3.008-0.257c-0.455-0.022-0.865-0.098-1.265-0.312
		c-0.436-0.233-0.891-0.428-1.338-0.64C-30.487,29.38-30.476,29.348-30.464,29.317z"/>
</g>
<g id="XMLID_6_">
	<path id="XMLID_48_" style="fill:#FEB800;" d="M-85.141-19.708c3.074-0.048,5.649,2.506,5.693,5.648
		c0.044,3.157-2.468,5.74-5.632,5.79c-3.087,0.048-5.65-2.518-5.697-5.704C-90.822-17.077-88.286-19.658-85.141-19.708z"/>
	<path id="XMLID_47_" style="fill:#FEB800;" d="M-90.493-17.575c-0.55-1.179-1.08-2.317-1.638-3.515
		c1.176,0.567,2.302,1.11,3.459,1.668C-89.354-18.879-89.951-18.281-90.493-17.575z"/>
	<path id="XMLID_46_" style="fill:#FEB800;" d="M-86.398-20.37c0.426-1.21,0.842-2.395,1.285-3.653
		c0.441,1.253,0.858,2.438,1.285,3.652C-84.692-20.475-85.529-20.478-86.398-20.37z"/>
	<path id="XMLID_45_" style="fill:#FEB800;" d="M-78.078-21.093c-0.567,1.204-1.104,2.343-1.656,3.515
		c-0.531-0.698-1.117-1.297-1.825-1.838C-80.405-19.973-79.275-20.517-78.078-21.093z"/>
	<path id="XMLID_44_" style="fill:#FEB800;" d="M-78.799-12.686c0.119-0.879,0.116-1.725,0.002-2.599
		c1.199,0.429,2.375,0.85,3.622,1.297C-76.419-13.541-77.596-13.118-78.799-12.686z"/>
	<path id="XMLID_43_" style="fill:#FEB800;" d="M-90.493-10.396c0.544,0.704,1.131,1.303,1.827,1.842
		c-1.152,0.551-2.273,1.087-3.465,1.657C-91.573-8.09-91.042-9.224-90.493-10.396z"/>
	<path id="XMLID_42_" style="fill:#FEB800;" d="M-91.429-15.299c-0.119,0.882-0.113,1.729-0.003,2.599
		c-1.201-0.431-2.378-0.853-3.62-1.299C-93.813-14.444-92.635-14.867-91.429-15.299z"/>
	<path id="XMLID_41_" style="fill:#FEB800;" d="M-85.115-3.948c-0.425-1.209-0.824-2.345-1.224-3.479
		c-0.039-0.111-0.031-0.17,0.114-0.154c0.742,0.082,1.485,0.081,2.227,0c0.117-0.013,0.155,0.021,0.115,0.134
		C-84.285-6.305-84.687-5.163-85.115-3.948z"/>
	<path id="XMLID_40_" style="fill:#FEB800;" d="M-81.551-8.57c0.707-0.519,1.274-1.127,1.814-1.826
		c0.551,1.163,1.09,2.299,1.661,3.504C-79.264-7.465-80.392-8.01-81.551-8.57z"/>
</g>
</svg>
